<svg width="213" height="111" viewBox="0 0 213 111" fill="none" xmlns="http://www.w3.org/2000/svg">
<rect x="0.377551" y="0.377551" width="211.429" height="110.245" rx="7.92857" fill="white" stroke="#F5F5F5" stroke-width="0.755102"/>
<rect x="47.1016" y="60.1914" width="140.909" height="0.812493" fill="#464E5F" fill-opacity="0.04"/>
<rect x="47.1016" y="43.1289" width="140.909" height="0.812493" fill="#464E5F" fill-opacity="0.04"/>
<rect x="47.1016" y="26.0664" width="140.909" height="0.812493" fill="#464E5F" fill-opacity="0.04"/>
<rect x="47.1016" y="11.4414" width="140.909" height="0.812493" fill="#464E5F" fill-opacity="0.04"/>
<rect x="46.7734" y="84.5664" width="140.909" height="0.812493" fill="#464E5F" fill-opacity="0.04"/>
<path opacity="0.7" d="M30.6569 80.7564C30.6569 80.4075 30.7136 80.1358 30.8272 79.9411C30.9408 79.7443 31.1395 79.646 31.4235 79.646C31.7054 79.646 31.9031 79.7443 32.0167 79.9411C32.1303 80.1358 32.1871 80.4075 32.1871 80.7564C32.1871 81.1113 32.1303 81.3871 32.0167 81.5838C31.9031 81.7805 31.7054 81.8789 31.4235 81.8789C31.1395 81.8789 30.9408 81.7805 30.8272 81.5838C30.7136 81.3871 30.6569 81.1113 30.6569 80.7564ZM31.9133 80.7564C31.9133 80.5799 31.9011 80.4308 31.8768 80.3092C31.8545 80.1854 31.8068 80.0861 31.7338 80.011C31.6628 79.936 31.5594 79.8985 31.4235 79.8985C31.2856 79.8985 31.1801 79.936 31.1071 80.011C31.0361 80.0861 30.9885 80.1854 30.9641 80.3092C30.9418 80.4308 30.9307 80.5799 30.9307 80.7564C30.9307 80.9389 30.9418 81.092 30.9641 81.2157C30.9885 81.3394 31.0361 81.4388 31.1071 81.5138C31.1801 81.5889 31.2856 81.6264 31.4235 81.6264C31.5594 81.6264 31.6628 81.5889 31.7338 81.5138C31.8068 81.4388 31.8545 81.3394 31.8768 81.2157C31.9011 81.092 31.9133 80.9389 31.9133 80.7564Z" fill="#898A8D"/>
<path opacity="0.7" d="M28.6376 64.7171V64.4646H29.2096V66.6641H28.9297V64.7171H28.6376ZM29.6851 65.5415C29.6851 65.1927 29.7419 64.9209 29.8555 64.7262C29.969 64.5295 30.1678 64.4311 30.4517 64.4311C30.7336 64.4311 30.9314 64.5295 31.0449 64.7262C31.1585 64.9209 31.2153 65.1927 31.2153 65.5415C31.2153 65.8964 31.1585 66.1722 31.0449 66.369C30.9314 66.5657 30.7336 66.6641 30.4517 66.6641C30.1678 66.6641 29.969 66.5657 29.8555 66.369C29.7419 66.1722 29.6851 65.8964 29.6851 65.5415ZM30.9415 65.5415C30.9415 65.3651 30.9293 65.216 30.905 65.0943C30.8827 64.9706 30.835 64.8712 30.762 64.7962C30.691 64.7211 30.5876 64.6836 30.4517 64.6836C30.3138 64.6836 30.2083 64.7211 30.1353 64.7962C30.0643 64.8712 30.0167 64.9706 29.9923 65.0943C29.97 65.216 29.9589 65.3651 29.9589 65.5415C29.9589 65.724 29.97 65.8772 29.9923 66.0009C30.0167 66.1246 30.0643 66.224 30.1353 66.299C30.2083 66.374 30.3138 66.4116 30.4517 66.4116C30.5876 66.4116 30.691 66.374 30.762 66.299C30.835 66.224 30.8827 66.1246 30.905 66.0009C30.9293 65.8772 30.9415 65.724 30.9415 65.5415ZM31.5953 65.5415C31.5953 65.1927 31.6521 64.9209 31.7657 64.7262C31.8793 64.5295 32.078 64.4311 32.362 64.4311C32.6439 64.4311 32.8416 64.5295 32.9552 64.7262C33.0688 64.9209 33.1255 65.1927 33.1255 65.5415C33.1255 65.8964 33.0688 66.1722 32.9552 66.369C32.8416 66.5657 32.6439 66.6641 32.362 66.6641C32.078 66.6641 31.8793 66.5657 31.7657 66.369C31.6521 66.1722 31.5953 65.8964 31.5953 65.5415ZM32.8518 65.5415C32.8518 65.3651 32.8396 65.216 32.8152 65.0943C32.7929 64.9706 32.7453 64.8712 32.6723 64.7962C32.6013 64.7211 32.4978 64.6836 32.362 64.6836C32.2241 64.6836 32.1186 64.7211 32.0456 64.7962C31.9746 64.8712 31.9269 64.9706 31.9026 65.0943C31.8803 65.216 31.8691 65.3651 31.8691 65.5415C31.8691 65.724 31.8803 65.8772 31.9026 66.0009C31.9269 66.1246 31.9746 66.224 32.0456 66.299C32.1186 66.374 32.2241 66.4116 32.362 66.4116C32.4978 66.4116 32.6013 66.374 32.6723 66.299C32.7453 66.224 32.7929 66.1246 32.8152 66.0009C32.8396 65.8772 32.8518 65.724 32.8518 65.5415Z" fill="#898A8D"/>
<path opacity="0.7" d="M27.907 50.1119C28.1646 49.905 28.3664 49.7357 28.5124 49.6039C28.6585 49.47 28.7812 49.3311 28.8805 49.1871C28.9819 49.0411 29.0326 48.8981 29.0326 48.7582C29.0326 48.6263 29.0002 48.5229 28.9353 48.4479C28.8724 48.3708 28.77 48.3323 28.628 48.3323C28.4901 48.3323 28.3826 48.3759 28.3056 48.4631C28.2305 48.5482 28.19 48.6628 28.1839 48.8068H27.9162C27.9243 48.5797 27.9932 48.4043 28.123 48.2805C28.2528 48.1568 28.4202 48.095 28.625 48.095C28.8339 48.095 28.9992 48.1528 29.1209 48.2684C29.2446 48.384 29.3064 48.5432 29.3064 48.746C29.3064 48.9143 29.2557 49.0786 29.1543 49.2388C29.0549 49.397 28.9414 49.5369 28.8136 49.6586C28.6858 49.7783 28.5226 49.9182 28.3238 50.0784H29.3703V50.3096H27.907V50.1119ZM29.6903 49.2114C29.6903 48.8626 29.7471 48.5908 29.8607 48.3961C29.9743 48.1994 30.173 48.101 30.457 48.101C30.7389 48.101 30.9366 48.1994 31.0502 48.3961C31.1637 48.5908 31.2205 48.8626 31.2205 49.2114C31.2205 49.5663 31.1637 49.8422 31.0502 50.0389C30.9366 50.2356 30.7389 50.334 30.457 50.334C30.173 50.334 29.9743 50.2356 29.8607 50.0389C29.7471 49.8422 29.6903 49.5663 29.6903 49.2114ZM30.9467 49.2114C30.9467 49.035 30.9346 48.8859 30.9102 48.7642C30.8879 48.6405 30.8403 48.5411 30.7673 48.4661C30.6963 48.3911 30.5928 48.3535 30.457 48.3535C30.319 48.3535 30.2136 48.3911 30.1406 48.4661C30.0696 48.5411 30.0219 48.6405 29.9976 48.7642C29.9753 48.8859 29.9641 49.035 29.9641 49.2114C29.9641 49.394 29.9753 49.5471 29.9976 49.6708C30.0219 49.7945 30.0696 49.8939 30.1406 49.9689C30.2136 50.044 30.319 50.0815 30.457 50.0815C30.5928 50.0815 30.6963 50.044 30.7673 49.9689C30.8403 49.8939 30.8879 49.7945 30.9102 49.6708C30.9346 49.5471 30.9467 49.394 30.9467 49.2114ZM31.6006 49.2114C31.6006 48.8626 31.6574 48.5908 31.7709 48.3961C31.8845 48.1994 32.0833 48.101 32.3672 48.101C32.6491 48.101 32.8469 48.1994 32.9604 48.3961C33.074 48.5908 33.1308 48.8626 33.1308 49.2114C33.1308 49.5663 33.074 49.8422 32.9604 50.0389C32.8469 50.2356 32.6491 50.334 32.3672 50.334C32.0833 50.334 31.8845 50.2356 31.7709 50.0389C31.6574 49.8422 31.6006 49.5663 31.6006 49.2114ZM32.857 49.2114C32.857 49.035 32.8448 48.8859 32.8205 48.7642C32.7982 48.6405 32.7505 48.5411 32.6775 48.4661C32.6065 48.3911 32.5031 48.3535 32.3672 48.3535C32.2293 48.3535 32.1238 48.3911 32.0508 48.4661C31.9798 48.5411 31.9322 48.6405 31.9078 48.7642C31.8855 48.8859 31.8744 49.035 31.8744 49.2114C31.8744 49.394 31.8855 49.5471 31.9078 49.6708C31.9322 49.7945 31.9798 49.8939 32.0508 49.9689C32.1238 50.044 32.2293 50.0815 32.3672 50.0815C32.5031 50.0815 32.6065 50.044 32.6775 49.9689C32.7505 49.8939 32.7982 49.7945 32.8205 49.6708C32.8448 49.5471 32.857 49.394 32.857 49.2114Z" fill="#898A8D"/>
<path opacity="0.7" d="M27.8893 33.1335C27.9035 32.9469 27.9755 32.8009 28.1053 32.6954C28.2351 32.59 28.4035 32.5372 28.6103 32.5372C28.7482 32.5372 28.8669 32.5626 28.9663 32.6133C29.0677 32.662 29.1437 32.7289 29.1944 32.8141C29.2472 32.8993 29.2735 32.9956 29.2735 33.1031C29.2735 33.2288 29.237 33.3373 29.164 33.4286C29.093 33.5198 28.9997 33.5787 28.8841 33.605V33.6202C29.0159 33.6527 29.1204 33.7166 29.1975 33.8119C29.2745 33.9072 29.3131 34.0319 29.3131 34.1861C29.3131 34.3017 29.2867 34.4061 29.234 34.4994C29.1812 34.5907 29.1021 34.6627 28.9967 34.7154C28.8912 34.7681 28.7645 34.7945 28.6164 34.7945C28.4014 34.7945 28.225 34.7387 28.0871 34.6272C27.9492 34.5136 27.8721 34.3534 27.8559 34.1465H28.1236C28.1378 34.2682 28.1875 34.3676 28.2727 34.4447C28.3578 34.5217 28.4714 34.5603 28.6134 34.5603C28.7553 34.5603 28.8628 34.5238 28.9358 34.4507C29.0109 34.3757 29.0484 34.2794 29.0484 34.1617C29.0484 34.0096 28.9977 33.9001 28.8963 33.8332C28.7949 33.7663 28.6418 33.7328 28.4369 33.7328H28.367V33.5016H28.44C28.6266 33.4996 28.7675 33.4691 28.8628 33.4103C28.9581 33.3495 29.0058 33.2562 29.0058 33.1305C29.0058 33.023 28.9703 32.9368 28.8993 32.8719C28.8304 32.807 28.731 32.7745 28.6012 32.7745C28.4755 32.7745 28.3741 32.807 28.297 32.8719C28.2199 32.9368 28.1743 33.024 28.1601 33.1335H27.8893ZM29.6868 33.6567C29.6868 33.3079 29.7436 33.0361 29.8572 32.8415C29.9708 32.6447 30.1695 32.5464 30.4535 32.5464C30.7354 32.5464 30.9331 32.6447 31.0467 32.8415C31.1603 33.0361 31.217 33.3079 31.217 33.6567C31.217 34.0117 31.1603 34.2875 31.0467 34.4842C30.9331 34.6809 30.7354 34.7793 30.4535 34.7793C30.1695 34.7793 29.9708 34.6809 29.8572 34.4842C29.7436 34.2875 29.6868 34.0117 29.6868 33.6567ZM30.9433 33.6567C30.9433 33.4803 30.9311 33.3312 30.9067 33.2095C30.8844 33.0858 30.8368 32.9865 30.7638 32.9114C30.6928 32.8364 30.5893 32.7989 30.4535 32.7989C30.3156 32.7989 30.2101 32.8364 30.1371 32.9114C30.0661 32.9865 30.0184 33.0858 29.9941 33.2095C29.9718 33.3312 29.9606 33.4803 29.9606 33.6567C29.9606 33.8393 29.9718 33.9924 29.9941 34.1161C30.0184 34.2398 30.0661 34.3392 30.1371 34.4142C30.2101 34.4893 30.3156 34.5268 30.4535 34.5268C30.5893 34.5268 30.6928 34.4893 30.7638 34.4142C30.8368 34.3392 30.8844 34.2398 30.9067 34.1161C30.9311 33.9924 30.9433 33.8393 30.9433 33.6567ZM31.5971 33.6567C31.5971 33.3079 31.6539 33.0361 31.7675 32.8415C31.881 32.6447 32.0798 32.5464 32.3637 32.5464C32.6456 32.5464 32.8434 32.6447 32.9569 32.8415C33.0705 33.0361 33.1273 33.3079 33.1273 33.6567C33.1273 34.0117 33.0705 34.2875 32.9569 34.4842C32.8434 34.6809 32.6456 34.7793 32.3637 34.7793C32.0798 34.7793 31.881 34.6809 31.7675 34.4842C31.6539 34.2875 31.5971 34.0117 31.5971 33.6567ZM32.8535 33.6567C32.8535 33.4803 32.8413 33.3312 32.817 33.2095C32.7947 33.0858 32.747 32.9865 32.674 32.9114C32.603 32.8364 32.4996 32.7989 32.3637 32.7989C32.2258 32.7989 32.1203 32.8364 32.0473 32.9114C31.9764 32.9865 31.9287 33.0858 31.9044 33.2095C31.882 33.3312 31.8709 33.4803 31.8709 33.6567C31.8709 33.8393 31.882 33.9924 31.9044 34.1161C31.9287 34.2398 31.9764 34.3392 32.0473 34.4142C32.1203 34.4893 32.2258 34.5268 32.3637 34.5268C32.4996 34.5268 32.603 34.4893 32.674 34.4142C32.747 34.3392 32.7947 34.2398 32.817 34.1161C32.8413 33.9924 32.8535 33.8393 32.8535 33.6567Z" fill="#898A8D"/>
<path opacity="0.7" d="M27.7067 18.3481V18.1382L28.7745 16.6597H29.1061V18.1078H29.4103V18.3481H29.1061V18.8379H28.8323V18.3481H27.7067ZM28.8445 16.9487L28.0261 18.1078H28.8445V16.9487ZM29.6868 17.7153C29.6868 17.3665 29.7436 17.0947 29.8572 16.9C29.9708 16.7033 30.1695 16.605 30.4535 16.605C30.7354 16.605 30.9331 16.7033 31.0467 16.9C31.1603 17.0947 31.217 17.3665 31.217 17.7153C31.217 18.0703 31.1603 18.3461 31.0467 18.5428C30.9331 18.7395 30.7354 18.8379 30.4535 18.8379C30.1695 18.8379 29.9708 18.7395 29.8572 18.5428C29.7436 18.3461 29.6868 18.0703 29.6868 17.7153ZM30.9433 17.7153C30.9433 17.5389 30.9311 17.3898 30.9067 17.2681C30.8844 17.1444 30.8368 17.0451 30.7638 16.97C30.6928 16.895 30.5893 16.8575 30.4535 16.8575C30.3156 16.8575 30.2101 16.895 30.1371 16.97C30.0661 17.0451 30.0184 17.1444 29.9941 17.2681C29.9718 17.3898 29.9606 17.5389 29.9606 17.7153C29.9606 17.8979 29.9718 18.051 29.9941 18.1747C30.0184 18.2984 30.0661 18.3978 30.1371 18.4728C30.2101 18.5479 30.3156 18.5854 30.4535 18.5854C30.5893 18.5854 30.6928 18.5479 30.7638 18.4728C30.8368 18.3978 30.8844 18.2984 30.9067 18.1747C30.9311 18.051 30.9433 17.8979 30.9433 17.7153ZM31.5971 17.7153C31.5971 17.3665 31.6539 17.0947 31.7675 16.9C31.881 16.7033 32.0798 16.605 32.3637 16.605C32.6456 16.605 32.8434 16.7033 32.9569 16.9C33.0705 17.0947 33.1273 17.3665 33.1273 17.7153C33.1273 18.0703 33.0705 18.3461 32.9569 18.5428C32.8434 18.7395 32.6456 18.8379 32.3637 18.8379C32.0798 18.8379 31.881 18.7395 31.7675 18.5428C31.6539 18.3461 31.5971 18.0703 31.5971 17.7153ZM32.8535 17.7153C32.8535 17.5389 32.8413 17.3898 32.817 17.2681C32.7947 17.1444 32.747 17.0451 32.674 16.97C32.603 16.895 32.4996 16.8575 32.3637 16.8575C32.2258 16.8575 32.1203 16.895 32.0473 16.97C31.9764 17.0451 31.9287 17.1444 31.9044 17.2681C31.882 17.3898 31.8709 17.5389 31.8709 17.7153C31.8709 17.8979 31.882 18.051 31.9044 18.1747C31.9287 18.2984 31.9764 18.3978 32.0473 18.4728C32.1203 18.5479 32.2258 18.5854 32.3637 18.5854C32.4996 18.5854 32.603 18.5479 32.674 18.4728C32.747 18.3978 32.7947 18.2984 32.817 18.1747C32.8413 18.051 32.8535 17.8979 32.8535 17.7153Z" fill="#898A8D"/>
<rect x="49.7344" y="56.2637" width="55.4488" height="29.3553" rx="0.998966" fill="#69AED5"/>
<rect x="115.344" y="43.1289" width="55.2495" height="42.2496" rx="0.998966" fill="#69D59B"/>
<path d="M124.509 70.8652L125.26 67.8543H126.261L127.007 70.8652H126.358L125.759 68.2396H125.763L125.158 70.8652H124.509ZM125.048 70.168V69.6747H126.475V70.168H125.048ZM127.575 70.8652V69.1895H127.124V68.7003H127.575V68.5515C127.575 68.4074 127.594 68.2844 127.632 68.1825C127.671 68.0792 127.724 67.9936 127.791 67.9256C127.857 67.8563 127.932 67.802 128.015 67.7625C128.099 67.7218 128.185 67.6932 128.274 67.6769C128.364 67.6593 128.45 67.6504 128.535 67.6504C128.624 67.6504 128.691 67.6559 128.735 67.6667C128.779 67.6762 128.809 67.6844 128.824 67.6912V68.1825C128.808 68.1771 128.779 68.1709 128.737 68.1641C128.696 68.1573 128.652 68.154 128.604 68.154C128.525 68.154 128.46 68.1641 128.408 68.1845C128.357 68.2049 128.316 68.2348 128.286 68.2742C128.256 68.3123 128.235 68.3578 128.223 68.4108C128.211 68.4625 128.204 68.5189 128.204 68.58V68.7003H128.785V69.1895H128.204V70.8652H127.575ZM130.171 70.9101C130.089 70.9101 130.003 70.9026 129.915 70.8877C129.828 70.8741 129.746 70.8462 129.67 70.8041C129.595 70.7606 129.535 70.6974 129.489 70.6145C129.442 70.5316 129.419 70.4222 129.419 70.2863C129.419 70.2564 129.419 70.2258 129.419 70.1945C129.419 70.1633 129.419 70.132 129.419 70.1008V69.1895H128.92V68.7003H129.06C129.142 68.7003 129.207 68.6969 129.254 68.6901C129.303 68.6833 129.339 68.6663 129.362 68.6391C129.387 68.6106 129.402 68.5664 129.409 68.5066C129.416 68.4468 129.419 68.3646 129.419 68.26V67.9868H130.053V68.7003H130.683V69.1895H130.053V69.9683C130.053 69.9927 130.053 70.0165 130.053 70.0396C130.053 70.0627 130.053 70.0851 130.053 70.1069C130.053 70.2007 130.064 70.2768 130.086 70.3352C130.109 70.3936 130.165 70.4229 130.255 70.4229C130.3 70.4229 130.342 70.4188 130.381 70.4106C130.422 70.4025 130.453 70.3943 130.473 70.3862V70.8612C130.445 70.8734 130.404 70.8843 130.353 70.8938C130.301 70.9046 130.241 70.9101 130.171 70.9101ZM131.257 69.9723V69.5544H132.692L132.631 69.6604C132.631 69.6496 132.631 69.6394 132.631 69.6299C132.631 69.619 132.631 69.6088 132.631 69.5993C132.631 69.5218 132.613 69.4478 132.576 69.3771C132.539 69.3051 132.482 69.2466 132.405 69.2018C132.329 69.1556 132.231 69.1325 132.111 69.1325C131.992 69.1325 131.888 69.1583 131.801 69.2099C131.716 69.2602 131.65 69.3329 131.604 69.4281C131.559 69.5232 131.536 69.638 131.536 69.7726C131.536 69.9112 131.558 70.0301 131.602 70.1293C131.646 70.2272 131.712 70.3026 131.799 70.3556C131.888 70.4086 131.997 70.4351 132.128 70.4351C132.212 70.4351 132.284 70.4276 132.346 70.4127C132.407 70.3964 132.456 70.376 132.494 70.3515C132.534 70.3271 132.564 70.2999 132.584 70.27C132.605 70.2401 132.617 70.2109 132.621 70.1823H133.245C133.236 70.2734 133.205 70.3631 133.151 70.4514C133.097 70.5384 133.021 70.6172 132.925 70.6879C132.828 70.7572 132.711 70.8122 132.572 70.853C132.435 70.8938 132.278 70.9142 132.101 70.9142C131.862 70.9142 131.653 70.8666 131.475 70.7715C131.297 70.675 131.159 70.5425 131.061 70.3739C130.963 70.2041 130.915 70.0084 130.915 69.7868C130.915 69.5626 130.964 69.3662 131.063 69.1977C131.164 69.0278 131.303 68.896 131.481 68.8022C131.661 68.7071 131.868 68.6595 132.103 68.6595C132.344 68.6595 132.552 68.7078 132.727 68.8043C132.902 68.8994 133.037 69.0332 133.133 69.2058C133.228 69.3771 133.275 69.5769 133.275 69.8052C133.275 69.8392 133.275 69.8718 133.273 69.903C133.272 69.9343 133.27 69.9574 133.267 69.9723H131.257ZM133.67 70.8652V68.7003H134.304V69.4464L134.174 69.3649C134.189 69.2629 134.216 69.1692 134.255 69.0835C134.295 68.9979 134.346 68.9238 134.408 68.8613C134.471 68.7975 134.545 68.7479 134.63 68.7125C134.717 68.6772 134.817 68.6595 134.928 68.6595C135.015 68.6595 135.083 68.6663 135.132 68.6799C135.182 68.6921 135.213 68.7016 135.226 68.7084L135.122 69.2752C135.109 69.2684 135.082 69.2575 135.04 69.2425C134.998 69.2276 134.944 69.2201 134.877 69.2201C134.768 69.2201 134.677 69.2385 134.604 69.2752C134.53 69.3119 134.471 69.3608 134.426 69.4219C134.383 69.4817 134.352 69.5483 134.333 69.6217C134.314 69.6951 134.304 69.7692 134.304 69.8439V70.8652H133.67ZM137.839 70.9142C137.651 70.9142 137.476 70.8802 137.313 70.8122C137.15 70.7443 137.006 70.6444 136.883 70.5126C136.759 70.3807 136.662 70.2183 136.591 70.0253C136.521 69.831 136.485 69.6088 136.485 69.3587C136.485 69.1073 136.52 68.8858 136.589 68.6942C136.66 68.5012 136.757 68.3395 136.881 68.209C137.004 68.0785 137.148 67.98 137.311 67.9134C137.474 67.8468 137.65 67.8135 137.839 67.8135C138.026 67.8135 138.202 67.8468 138.365 67.9134C138.529 67.98 138.673 68.0785 138.797 68.209C138.921 68.3395 139.017 68.5012 139.086 68.6942C139.156 68.8858 139.19 69.1073 139.19 69.3587C139.19 69.6088 139.155 69.831 139.084 70.0253C139.015 70.2183 138.918 70.3807 138.793 70.5126C138.669 70.6444 138.525 70.7443 138.361 70.8122C138.198 70.8802 138.024 70.9142 137.839 70.9142ZM137.839 70.4066C137.965 70.4066 138.082 70.3719 138.189 70.3026C138.298 70.2333 138.385 70.1218 138.45 69.9683C138.516 69.8133 138.548 69.6102 138.548 69.3587C138.548 69.106 138.515 68.9035 138.448 68.7512C138.383 68.599 138.297 68.4896 138.189 68.423C138.082 68.3551 137.965 68.3211 137.839 68.3211C137.712 68.3211 137.595 68.3551 137.486 68.423C137.379 68.4896 137.293 68.599 137.227 68.7512C137.162 68.9035 137.129 69.106 137.129 69.3587C137.129 69.6115 137.162 69.8147 137.227 69.9683C137.293 70.1218 137.379 70.2333 137.486 70.3026C137.595 70.3719 137.712 70.4066 137.839 70.4066ZM141.409 68.3476H140.417L140.669 68.0459V70.8652H140.039V68.0459L140.3 68.3476H139.301V67.8584H141.409V68.3476ZM141.328 70.8652L142.078 67.8543H143.079L143.825 70.8652H143.177L142.577 68.2396H142.581L141.976 70.8652H141.328ZM141.866 70.168V69.6747H143.293V70.168H141.866ZM147.461 69.7787C147.461 70.1592 147.361 70.4439 147.16 70.6328C146.959 70.8204 146.683 70.9142 146.334 70.9142C145.983 70.9142 145.708 70.8204 145.506 70.6328C145.307 70.4439 145.207 70.1592 145.207 69.7787C145.207 69.727 145.207 69.672 145.207 69.6136C145.207 69.5551 145.207 69.494 145.207 69.4301V67.8584H145.841V69.5198C145.841 69.5714 145.841 69.6197 145.841 69.6645C145.841 69.7094 145.841 69.7508 145.841 69.7889C145.841 70.0009 145.88 70.1572 145.957 70.2577C146.034 70.357 146.16 70.4066 146.334 70.4066C146.507 70.4066 146.632 70.357 146.711 70.2577C146.79 70.1572 146.829 70.0009 146.829 69.7889V67.8584H147.461V69.7787ZM147.96 71.7561V68.7003H148.594V71.7561H147.96ZM149.263 70.9142C149.091 70.9142 148.934 70.8686 148.792 70.7776C148.649 70.6852 148.535 70.5615 148.449 70.4066C148.364 70.2503 148.321 70.075 148.321 69.8806C148.321 69.8752 148.321 69.8704 148.321 69.8663C148.321 69.8609 148.321 69.8548 148.321 69.848L148.594 69.8419C148.594 69.846 148.594 69.85 148.594 69.8541C148.594 69.8582 148.594 69.8623 148.594 69.8663C148.594 69.9669 148.618 70.0552 148.667 70.1314C148.716 70.2061 148.779 70.2639 148.857 70.3046C148.934 70.3454 149.015 70.3658 149.1 70.3658C149.238 70.3658 149.358 70.3182 149.46 70.2231C149.564 70.1266 149.615 69.9764 149.615 69.7726C149.615 69.5687 149.564 69.4206 149.462 69.3282C149.36 69.2344 149.24 69.1875 149.1 69.1875C149.015 69.1875 148.934 69.2079 148.857 69.2487C148.779 69.2881 148.716 69.3445 148.667 69.4179C148.618 69.4912 148.594 69.5789 148.594 69.6808L148.321 69.6645C148.321 69.4688 148.364 69.2962 148.449 69.1467C148.535 68.9959 148.649 68.877 148.792 68.79C148.934 68.703 149.091 68.6595 149.263 68.6595C149.438 68.6595 149.602 68.703 149.754 68.79C149.906 68.8756 150.029 69.0013 150.123 69.1671C150.218 69.3329 150.266 69.5347 150.266 69.7726C150.266 70.0213 150.219 70.2306 150.127 70.4004C150.035 70.5703 149.912 70.6988 149.76 70.7857C149.608 70.8714 149.442 70.9142 149.263 70.9142ZM151.565 70.9142C151.384 70.9142 151.217 70.8714 151.065 70.7857C150.913 70.6988 150.791 70.5703 150.698 70.4004C150.606 70.2306 150.56 70.0213 150.56 69.7726C150.56 69.5347 150.606 69.3329 150.7 69.1671C150.795 69.0013 150.919 68.8756 151.071 68.79C151.225 68.703 151.389 68.6595 151.565 68.6595C151.736 68.6595 151.892 68.703 152.033 68.79C152.176 68.877 152.29 68.9959 152.376 69.1467C152.462 69.2962 152.504 69.4688 152.504 69.6645C152.504 69.6713 152.504 69.6781 152.504 69.6849C152.504 69.6903 152.504 69.6965 152.504 69.7033L152.231 69.7073C152.231 69.7033 152.231 69.6992 152.231 69.6951C152.231 69.6897 152.231 69.6849 152.231 69.6808C152.231 69.5789 152.207 69.4912 152.158 69.4179C152.109 69.3445 152.046 69.2881 151.968 69.2487C151.891 69.2079 151.81 69.1875 151.726 69.1875C151.586 69.1875 151.465 69.2344 151.363 69.3282C151.261 69.4206 151.21 69.5687 151.21 69.7726C151.21 69.9764 151.261 70.1266 151.363 70.2231C151.466 70.3182 151.587 70.3658 151.726 70.3658C151.813 70.3658 151.895 70.3454 151.972 70.3046C152.05 70.2625 152.112 70.2034 152.16 70.1273C152.207 70.0512 152.231 69.9615 152.231 69.8582L152.504 69.8725C152.504 70.0668 152.462 70.2428 152.378 70.4004C152.295 70.5567 152.182 70.6818 152.04 70.7755C151.898 70.868 151.74 70.9142 151.565 70.9142ZM152.231 70.8652V67.679H152.865V70.8652H152.231ZM154.081 70.9101C153.923 70.9101 153.783 70.8849 153.659 70.8347C153.537 70.7844 153.441 70.7117 153.372 70.6165C153.302 70.5214 153.268 70.4059 153.268 70.27C153.268 70.1164 153.31 69.9914 153.394 69.8949C153.478 69.7984 153.59 69.725 153.728 69.6747C153.868 69.6231 154.02 69.5891 154.183 69.5728C154.421 69.5497 154.584 69.5286 154.674 69.5096C154.765 69.4906 154.811 69.4573 154.811 69.4097C154.811 69.4083 154.811 69.407 154.811 69.4056C154.811 69.3254 154.772 69.2622 154.695 69.216C154.618 69.1698 154.512 69.1467 154.374 69.1467C154.229 69.1467 154.118 69.1732 154.04 69.2262C153.964 69.2779 153.926 69.3574 153.926 69.4647H153.304C153.304 69.2908 153.351 69.144 153.445 69.0244C153.54 68.9048 153.668 68.8144 153.83 68.7533C153.992 68.6908 154.175 68.6595 154.379 68.6595C154.569 68.6595 154.745 68.6887 154.907 68.7472C155.068 68.8043 155.198 68.8905 155.296 69.0061C155.395 69.1216 155.445 69.2684 155.445 69.4464C155.445 69.4749 155.445 69.5035 155.445 69.532C155.445 69.5592 155.445 69.5871 155.445 69.6156V70.3821C155.445 70.4378 155.446 70.4915 155.449 70.5431C155.453 70.5934 155.461 70.6396 155.473 70.6818C155.487 70.7293 155.504 70.7687 155.524 70.8C155.545 70.8313 155.562 70.853 155.575 70.8652H154.953C154.944 70.8557 154.929 70.836 154.909 70.8061C154.89 70.7762 154.873 70.7416 154.86 70.7021C154.843 70.6546 154.831 70.607 154.823 70.5595C154.816 70.5105 154.813 70.4534 154.813 70.3882L154.943 70.4779C154.905 70.5676 154.843 70.6451 154.758 70.7103C154.673 70.7742 154.573 70.8238 154.456 70.8591C154.34 70.8931 154.215 70.9101 154.081 70.9101ZM154.25 70.4371C154.349 70.4371 154.442 70.4195 154.527 70.3841C154.614 70.3474 154.685 70.2904 154.739 70.2129C154.794 70.1354 154.821 70.0342 154.821 69.9092V69.691L154.978 69.8439C154.888 69.8765 154.784 69.9037 154.666 69.9255C154.549 69.9458 154.432 69.9622 154.315 69.9744C154.177 69.988 154.073 70.0118 154.003 70.0457C153.936 70.0784 153.902 70.1341 153.902 70.2129C153.902 70.2876 153.931 70.344 153.989 70.3821C154.048 70.4188 154.135 70.4371 154.25 70.4371ZM156.924 70.9101C156.841 70.9101 156.755 70.9026 156.667 70.8877C156.58 70.8741 156.498 70.8462 156.422 70.8041C156.347 70.7606 156.287 70.6974 156.241 70.6145C156.194 70.5316 156.171 70.4222 156.171 70.2863C156.171 70.2564 156.171 70.2258 156.171 70.1945C156.171 70.1633 156.171 70.132 156.171 70.1008V69.1895H155.672V68.7003H155.813C155.894 68.7003 155.959 68.6969 156.006 68.6901C156.055 68.6833 156.091 68.6663 156.114 68.6391C156.139 68.6106 156.154 68.5664 156.161 68.5066C156.168 68.4468 156.171 68.3646 156.171 68.26V67.9868H156.805V68.7003H157.435V69.1895H156.805V69.9683C156.805 69.9927 156.805 70.0165 156.805 70.0396C156.805 70.0627 156.805 70.0851 156.805 70.1069C156.805 70.2007 156.816 70.2768 156.838 70.3352C156.861 70.3936 156.917 70.4229 157.007 70.4229C157.052 70.4229 157.094 70.4188 157.134 70.4106C157.174 70.4025 157.205 70.3943 157.225 70.3862V70.8612C157.197 70.8734 157.157 70.8843 157.105 70.8938C157.053 70.9046 156.993 70.9101 156.924 70.9101ZM158.009 69.9723V69.5544H159.444L159.383 69.6604C159.383 69.6496 159.383 69.6394 159.383 69.6299C159.383 69.619 159.383 69.6088 159.383 69.5993C159.383 69.5218 159.365 69.4478 159.328 69.3771C159.291 69.3051 159.234 69.2466 159.157 69.2018C159.081 69.1556 158.983 69.1325 158.863 69.1325C158.744 69.1325 158.64 69.1583 158.553 69.2099C158.468 69.2602 158.402 69.3329 158.356 69.4281C158.311 69.5232 158.288 69.638 158.288 69.7726C158.288 69.9112 158.31 70.0301 158.354 70.1293C158.399 70.2272 158.464 70.3026 158.551 70.3556C158.64 70.4086 158.749 70.4351 158.88 70.4351C158.964 70.4351 159.037 70.4276 159.098 70.4127C159.159 70.3964 159.209 70.376 159.247 70.3515C159.286 70.3271 159.316 70.2999 159.336 70.27C159.357 70.2401 159.369 70.2109 159.373 70.1823H159.997C159.989 70.2734 159.957 70.3631 159.903 70.4514C159.849 70.5384 159.773 70.6172 159.677 70.6879C159.58 70.7572 159.463 70.8122 159.324 70.853C159.187 70.8938 159.03 70.9142 158.853 70.9142C158.614 70.9142 158.405 70.8666 158.227 70.7715C158.049 70.675 157.911 70.5425 157.813 70.3739C157.716 70.2041 157.667 70.0084 157.667 69.7868C157.667 69.5626 157.716 69.3662 157.815 69.1977C157.916 69.0278 158.055 68.896 158.233 68.8022C158.413 68.7071 158.62 68.6595 158.855 68.6595C159.096 68.6595 159.304 68.7078 159.479 68.8043C159.654 68.8994 159.79 69.0332 159.885 69.2058C159.98 69.3771 160.027 69.5769 160.027 69.8052C160.027 69.8392 160.027 69.8718 160.025 69.903C160.024 69.9343 160.022 69.9574 160.019 69.9723H158.009Z" fill="white"/>
<path d="M57.6953 73.3818C57.906 73.3818 58.0786 73.411 58.2131 73.4695C58.349 73.5279 58.4496 73.6122 58.5148 73.7222C58.58 73.831 58.6127 73.9594 58.6127 74.1075C58.6127 74.2557 58.5834 74.3821 58.525 74.4867C58.4666 74.59 58.3925 74.6702 58.3028 74.7272C58.2131 74.783 58.122 74.8142 58.0296 74.821C58.1261 74.8237 58.2253 74.8489 58.3273 74.8964C58.4292 74.9427 58.5148 75.0181 58.5841 75.1227C58.6534 75.226 58.6881 75.364 58.6881 75.5366C58.6881 75.6996 58.6548 75.8457 58.5882 75.9748C58.523 76.1026 58.4176 76.2038 58.2722 76.2786C58.1268 76.352 57.9325 76.3887 57.6892 76.3887H56.5068V73.3818H57.6953ZM57.1123 74.7741L56.9023 74.5968H57.5016C57.662 74.5968 57.7823 74.5628 57.8625 74.4949C57.9426 74.4255 57.9827 74.3324 57.9827 74.2156C57.9827 74.1367 57.9658 74.0722 57.9318 74.0219C57.8978 73.9703 57.8475 73.9322 57.7809 73.9077C57.7143 73.8833 57.6321 73.8711 57.5343 73.8711H56.8269L57.1123 73.5693V74.7741ZM57.5669 75.8974C57.7218 75.8974 57.8394 75.862 57.9195 75.7914C58.0011 75.7193 58.0419 75.6222 58.0419 75.4999C58.0419 75.4305 58.0296 75.3701 58.0052 75.3184C57.9821 75.2668 57.9488 75.224 57.9053 75.19C57.8618 75.1547 57.8088 75.1282 57.7463 75.1105C57.6851 75.0915 57.6172 75.082 57.5424 75.082H56.9023L57.1123 74.9066V76.1991L56.8269 75.8974H57.5669ZM59.3593 75.4958V75.0779H60.7944L60.7333 75.1839C60.7333 75.173 60.7333 75.1628 60.7333 75.1533C60.7333 75.1424 60.7333 75.1322 60.7333 75.1227C60.7333 75.0453 60.7149 74.9712 60.6782 74.9005C60.6415 74.8285 60.5844 74.7701 60.507 74.7252C60.4309 74.679 60.333 74.6559 60.2134 74.6559C60.0938 74.6559 59.9905 74.6817 59.9036 74.7334C59.818 74.7836 59.752 74.8564 59.7058 74.9515C59.661 75.0466 59.6386 75.1615 59.6386 75.296C59.6386 75.4346 59.6603 75.5535 59.7038 75.6528C59.7486 75.7506 59.8146 75.826 59.9015 75.879C59.9899 75.932 60.0993 75.9585 60.2297 75.9585C60.314 75.9585 60.3867 75.9511 60.4479 75.9361C60.509 75.9198 60.5586 75.8994 60.5967 75.875C60.6361 75.8505 60.666 75.8233 60.6864 75.7934C60.7068 75.7635 60.719 75.7343 60.7231 75.7058H61.3469C61.3387 75.7968 61.3075 75.8865 61.2531 75.9748C61.1987 76.0618 61.1233 76.1406 61.0268 76.2113C60.9303 76.2806 60.8128 76.3357 60.6741 76.3764C60.5369 76.4172 60.3799 76.4376 60.2032 76.4376C59.964 76.4376 59.7554 76.39 59.5774 76.2949C59.3994 76.1984 59.2614 76.0659 59.1636 75.8974C59.0657 75.7275 59.0168 75.5318 59.0168 75.3103C59.0168 75.086 59.0664 74.8897 59.1656 74.7211C59.2662 74.5513 59.4055 74.4194 59.5835 74.3256C59.7629 74.2305 59.9702 74.183 60.2053 74.183C60.4458 74.183 60.6538 74.2312 60.8291 74.3277C61.0044 74.4228 61.1396 74.5567 61.2348 74.7293C61.3299 74.9005 61.3774 75.1003 61.3774 75.3286C61.3774 75.3626 61.3768 75.3952 61.3754 75.4265C61.3741 75.4577 61.372 75.4808 61.3693 75.4958H59.3593ZM62.0234 76.3887V74.713H61.5729V74.2237H62.0234V74.0749C62.0234 73.9308 62.0424 73.8079 62.0805 73.7059C62.1199 73.6026 62.1729 73.517 62.2395 73.4491C62.3061 73.3798 62.3808 73.3254 62.4637 73.286C62.548 73.2452 62.6343 73.2167 62.7226 73.2004C62.8123 73.1827 62.8993 73.1739 62.9836 73.1739C63.0733 73.1739 63.1399 73.1793 63.1834 73.1902C63.2282 73.1997 63.2581 73.2078 63.2731 73.2146V73.7059C63.2567 73.7005 63.2275 73.6944 63.1854 73.6876C63.1446 73.6808 63.1005 73.6774 63.0529 73.6774C62.9741 73.6774 62.9088 73.6876 62.8572 73.708C62.8055 73.7284 62.7648 73.7583 62.7349 73.7977C62.705 73.8357 62.6839 73.8812 62.6717 73.9342C62.6594 73.9859 62.6533 74.0423 62.6533 74.1034V74.2237H63.2343V74.713H62.6533V76.3887H62.0234ZM64.557 76.4356C64.3233 76.4356 64.1174 76.3873 63.9393 76.2908C63.7613 76.1943 63.622 76.0618 63.5214 75.8933C63.4222 75.7234 63.3726 75.5277 63.3726 75.3062C63.3726 75.086 63.4222 74.8917 63.5214 74.7232C63.622 74.5533 63.7613 74.4215 63.9393 74.3277C64.1174 74.2326 64.3233 74.185 64.557 74.185C64.7908 74.185 64.9967 74.2326 65.1747 74.3277C65.3527 74.4215 65.4914 74.5533 65.5906 74.7232C65.6911 74.8917 65.7414 75.086 65.7414 75.3062C65.7414 75.5277 65.6911 75.7234 65.5906 75.8933C65.4914 76.0618 65.3527 76.1943 65.1747 76.2908C64.9967 76.3873 64.7908 76.4356 64.557 76.4356ZM64.557 75.9341C64.6671 75.9341 64.7629 75.9083 64.8445 75.8566C64.926 75.805 64.9892 75.7323 65.0341 75.6385C65.0789 75.5433 65.1013 75.4326 65.1013 75.3062C65.1013 75.1798 65.0789 75.0704 65.0341 74.978C64.9892 74.8842 64.926 74.8122 64.8445 74.7619C64.7629 74.7116 64.6671 74.6865 64.557 74.6865C64.4483 74.6865 64.3525 74.7116 64.2696 74.7619C64.188 74.8122 64.1249 74.8842 64.08 74.978C64.0352 75.0704 64.0127 75.1798 64.0127 75.3062C64.0127 75.4326 64.0352 75.5433 64.08 75.6385C64.1249 75.7323 64.188 75.805 64.2696 75.8566C64.3525 75.9083 64.4483 75.9341 64.557 75.9341ZM66.1362 76.3887V74.2237H66.7702V74.9698L66.6397 74.8883C66.6547 74.7864 66.6818 74.6926 66.7212 74.607C66.7607 74.5214 66.8116 74.4473 66.8741 74.3848C66.9367 74.3209 67.0107 74.2713 67.0963 74.236C67.1833 74.2006 67.2825 74.183 67.394 74.183C67.4809 74.183 67.5489 74.1897 67.5978 74.2033C67.6481 74.2156 67.6794 74.2251 67.6916 74.2319L67.5876 74.7986C67.5754 74.7918 67.5482 74.7809 67.5061 74.766C67.464 74.751 67.4096 74.7436 67.343 74.7436C67.2343 74.7436 67.1432 74.7619 67.0698 74.7986C66.9965 74.8353 66.9373 74.8842 66.8925 74.9454C66.849 75.0052 66.8177 75.0718 66.7987 75.1452C66.7797 75.2185 66.7702 75.2926 66.7702 75.3674V76.3887H66.1362ZM68.2143 75.4958V75.0779H69.6494L69.5883 75.1839C69.5883 75.173 69.5883 75.1628 69.5883 75.1533C69.5883 75.1424 69.5883 75.1322 69.5883 75.1227C69.5883 75.0453 69.5699 74.9712 69.5332 74.9005C69.4965 74.8285 69.4394 74.7701 69.362 74.7252C69.2859 74.679 69.188 74.6559 69.0684 74.6559C68.9488 74.6559 68.8455 74.6817 68.7586 74.7334C68.6729 74.7836 68.607 74.8564 68.5608 74.9515C68.516 75.0466 68.4935 75.1615 68.4935 75.296C68.4935 75.4346 68.5153 75.5535 68.5588 75.6528C68.6036 75.7506 68.6695 75.826 68.7565 75.879C68.8449 75.932 68.9543 75.9585 69.0847 75.9585C69.169 75.9585 69.2417 75.9511 69.3029 75.9361C69.364 75.9198 69.4136 75.8994 69.4517 75.875C69.4911 75.8505 69.521 75.8233 69.5414 75.7934C69.5618 75.7635 69.574 75.7343 69.5781 75.7058H70.2019C70.1937 75.7968 70.1625 75.8865 70.1081 75.9748C70.0537 76.0618 69.9783 76.1406 69.8818 76.2113C69.7853 76.2806 69.6678 76.3357 69.5291 76.3764C69.3919 76.4172 69.2349 76.4376 69.0582 76.4376C68.819 76.4376 68.6104 76.39 68.4324 76.2949C68.2544 76.1984 68.1164 76.0659 68.0186 75.8974C67.9207 75.7275 67.8718 75.5318 67.8718 75.3103C67.8718 75.086 67.9214 74.8897 68.0206 74.7211C68.1212 74.5513 68.2605 74.4194 68.4385 74.3256C68.6179 74.2305 68.8252 74.183 69.0603 74.183C69.3008 74.183 69.5088 74.2312 69.6841 74.3277C69.8594 74.4228 69.9946 74.5567 70.0897 74.7293C70.1849 74.9005 70.2324 75.1003 70.2324 75.3286C70.2324 75.3626 70.2318 75.3952 70.2304 75.4265C70.229 75.4577 70.227 75.4808 70.2243 75.4958H68.2143ZM72.9208 76.4376C72.7332 76.4376 72.5579 76.4036 72.3948 76.3357C72.2317 76.2677 72.0883 76.1678 71.9647 76.036C71.841 75.9042 71.7438 75.7418 71.6732 75.5488C71.6025 75.3544 71.5672 75.1322 71.5672 74.8822C71.5672 74.6308 71.6018 74.4092 71.6711 74.2176C71.7418 74.0246 71.839 73.8629 71.9626 73.7324C72.0863 73.602 72.2297 73.5034 72.3928 73.4368C72.5559 73.3702 72.7319 73.3369 72.9208 73.3369C73.1083 73.3369 73.2836 73.3702 73.4467 73.4368C73.6112 73.5034 73.7552 73.602 73.8789 73.7324C74.0026 73.8629 74.099 74.0246 74.1684 74.2176C74.2377 74.4092 74.2723 74.6308 74.2723 74.8822C74.2723 75.1322 74.237 75.3544 74.1663 75.5488C74.097 75.7418 73.9998 75.9042 73.8748 76.036C73.7511 76.1678 73.6071 76.2677 73.4426 76.3357C73.2795 76.4036 73.1056 76.4376 72.9208 76.4376ZM72.9208 75.93C73.0471 75.93 73.164 75.8953 73.2714 75.826C73.3801 75.7567 73.4671 75.6453 73.5323 75.4917C73.5976 75.3368 73.6302 75.1336 73.6302 74.8822C73.6302 74.6294 73.5969 74.4269 73.5303 74.2747C73.4651 74.1225 73.3788 74.0131 73.2714 73.9465C73.164 73.8785 73.0471 73.8445 72.9208 73.8445C72.7944 73.8445 72.6768 73.8785 72.5681 73.9465C72.4607 74.0131 72.3744 74.1225 72.3092 74.2747C72.244 74.4269 72.2113 74.6294 72.2113 74.8822C72.2113 75.135 72.244 75.3381 72.3092 75.4917C72.3744 75.6453 72.4607 75.7567 72.5681 75.826C72.6768 75.8953 72.7944 75.93 72.9208 75.93ZM76.4913 73.8711H75.4985L75.7513 73.5693V76.3887H75.1214V73.5693L75.3823 73.8711H74.3834V73.3818H76.4913V73.8711ZM76.4094 76.3887L77.1596 73.3777H78.1606L78.9067 76.3887H78.2584L77.6591 73.763H77.6631L77.0577 76.3887H76.4094ZM76.9476 75.6915V75.1982H78.3746V75.6915H76.9476ZM82.5433 75.3021C82.5433 75.6827 82.4428 75.9674 82.2416 76.1563C82.0405 76.3438 81.7653 76.4376 81.416 76.4376C81.0654 76.4376 80.7895 76.3438 80.5884 76.1563C80.3886 75.9674 80.2887 75.6827 80.2887 75.3021C80.2887 75.2505 80.2887 75.1954 80.2887 75.137C80.2887 75.0786 80.2887 75.0174 80.2887 74.9535V73.3818H80.9227V75.0432C80.9227 75.0949 80.9227 75.1431 80.9227 75.188C80.9227 75.2328 80.9227 75.2743 80.9227 75.3123C80.9227 75.5243 80.9614 75.6806 81.0389 75.7812C81.1163 75.8804 81.2421 75.93 81.416 75.93C81.5886 75.93 81.7143 75.8804 81.7931 75.7812C81.872 75.6806 81.9114 75.5243 81.9114 75.3123V73.3818H82.5433V75.3021ZM83.0419 77.2795V74.2237H83.6759V77.2795H83.0419ZM84.3445 76.4376C84.1733 76.4376 84.0163 76.3921 83.8736 76.301C83.7309 76.2086 83.6168 76.0849 83.5311 75.93C83.4455 75.7737 83.4027 75.5984 83.4027 75.404C83.4027 75.3986 83.4027 75.3939 83.4027 75.3898C83.4027 75.3843 83.4027 75.3782 83.4027 75.3714L83.6759 75.3653C83.6759 75.3694 83.6759 75.3735 83.6759 75.3775C83.6759 75.3816 83.6759 75.3857 83.6759 75.3898C83.6759 75.4903 83.7003 75.5787 83.7493 75.6548C83.7982 75.7295 83.8614 75.7873 83.9389 75.8281C84.0163 75.8688 84.0972 75.8892 84.1814 75.8892C84.3201 75.8892 84.4403 75.8417 84.5423 75.7465C84.6456 75.65 84.6972 75.4999 84.6972 75.296C84.6972 75.0921 84.6462 74.944 84.5443 74.8516C84.4424 74.7578 84.3214 74.7109 84.1814 74.7109C84.0972 74.7109 84.0163 74.7313 83.9389 74.7721C83.8614 74.8115 83.7982 74.8679 83.7493 74.9413C83.7003 75.0147 83.6759 75.1023 83.6759 75.2043L83.4027 75.188C83.4027 74.9923 83.4455 74.8197 83.5311 74.6702C83.6168 74.5193 83.7309 74.4004 83.8736 74.3134C84.0163 74.2264 84.1733 74.183 84.3445 74.183C84.5198 74.183 84.6836 74.2264 84.8358 74.3134C84.988 74.399 85.111 74.5247 85.2048 74.6906C85.2999 74.8564 85.3475 75.0582 85.3475 75.296C85.3475 75.5447 85.3013 75.754 85.2089 75.9239C85.1165 76.0938 84.9941 76.2222 84.8419 76.3092C84.6897 76.3948 84.5239 76.4376 84.3445 76.4376ZM86.6465 76.4376C86.4658 76.4376 86.2993 76.3948 86.1471 76.3092C85.9948 76.2222 85.8725 76.0938 85.7801 75.9239C85.6877 75.754 85.6415 75.5447 85.6415 75.296C85.6415 75.0582 85.6884 74.8564 85.7822 74.6906C85.8773 74.5247 86.001 74.399 86.1532 74.3134C86.3067 74.2264 86.4712 74.183 86.6465 74.183C86.8177 74.183 86.974 74.2264 87.1154 74.3134C87.2581 74.4004 87.3722 74.5193 87.4579 74.6702C87.5435 74.8197 87.5863 74.9923 87.5863 75.188C87.5863 75.1948 87.5863 75.2016 87.5863 75.2083C87.5863 75.2138 87.5863 75.2199 87.5863 75.2267L87.3131 75.2308C87.3131 75.2267 87.3131 75.2226 87.3131 75.2185C87.3131 75.2131 87.3131 75.2083 87.3131 75.2043C87.3131 75.1023 87.2887 75.0147 87.2397 74.9413C87.1908 74.8679 87.1276 74.8115 87.0501 74.7721C86.9727 74.7313 86.8918 74.7109 86.8076 74.7109C86.6676 74.7109 86.5466 74.7578 86.4447 74.8516C86.3428 74.944 86.2918 75.0921 86.2918 75.296C86.2918 75.4999 86.3428 75.65 86.4447 75.7465C86.548 75.8417 86.6689 75.8892 86.8076 75.8892C86.8945 75.8892 86.9768 75.8688 87.0542 75.8281C87.1317 75.7859 87.1942 75.7268 87.2418 75.6507C87.2893 75.5746 87.3131 75.4849 87.3131 75.3816L87.5863 75.3959C87.5863 75.5902 87.5442 75.7662 87.4599 75.9239C87.377 76.0802 87.2642 76.2052 87.1215 76.299C86.9802 76.3914 86.8218 76.4376 86.6465 76.4376ZM87.3131 76.3887V73.2024H87.9471V76.3887H87.3131ZM89.1628 76.4335C89.0052 76.4335 88.8645 76.4084 88.7408 76.3581C88.6185 76.3078 88.5227 76.2351 88.4534 76.14C88.3841 76.0448 88.3494 75.9293 88.3494 75.7934C88.3494 75.6398 88.3916 75.5148 88.4758 75.4183C88.5601 75.3218 88.6715 75.2484 88.8102 75.1982C88.9501 75.1465 89.1017 75.1125 89.2647 75.0962C89.5026 75.0731 89.6663 75.0521 89.756 75.033C89.8471 75.014 89.8926 74.9807 89.8926 74.9331C89.8926 74.9318 89.8926 74.9304 89.8926 74.9291C89.8926 74.8489 89.8539 74.7857 89.7764 74.7395C89.7003 74.6933 89.5936 74.6702 89.4564 74.6702C89.311 74.6702 89.1995 74.6967 89.122 74.7497C89.0459 74.8013 89.0079 74.8808 89.0079 74.9882H88.3861C88.3861 74.8142 88.433 74.6674 88.5268 74.5479C88.6219 74.4283 88.7504 74.3379 88.9121 74.2767C89.0738 74.2142 89.2566 74.183 89.4605 74.183C89.6507 74.183 89.8267 74.2122 89.9884 74.2706C90.1502 74.3277 90.28 74.414 90.3778 74.5295C90.477 74.645 90.5266 74.7918 90.5266 74.9698C90.5266 74.9984 90.5266 75.0269 90.5266 75.0555C90.5266 75.0826 90.5266 75.1105 90.5266 75.139V75.9055C90.5266 75.9613 90.528 76.0149 90.5307 76.0666C90.5348 76.1169 90.5429 76.1631 90.5552 76.2052C90.5687 76.2528 90.5857 76.2922 90.6061 76.3234C90.6265 76.3547 90.6435 76.3764 90.6571 76.3887H90.0353C90.0258 76.3792 90.0109 76.3595 89.9905 76.3296C89.9714 76.2997 89.9551 76.265 89.9416 76.2256C89.9252 76.178 89.913 76.1305 89.9049 76.0829C89.8981 76.034 89.8947 75.9769 89.8947 75.9116L90.0251 76.0013C89.9871 76.091 89.9252 76.1685 89.8396 76.2337C89.7554 76.2976 89.6548 76.3472 89.5379 76.3826C89.4224 76.4165 89.2974 76.4335 89.1628 76.4335ZM89.332 75.9606C89.4312 75.9606 89.5236 75.9429 89.6093 75.9076C89.6962 75.8709 89.7669 75.8138 89.8213 75.7363C89.8756 75.6589 89.9028 75.5576 89.9028 75.4326V75.2145L90.0598 75.3674C89.9701 75.4 89.8661 75.4272 89.7479 75.4489C89.631 75.4693 89.5141 75.4856 89.3973 75.4978C89.2586 75.5114 89.1547 75.5352 89.0854 75.5692C89.0174 75.6018 88.9834 75.6575 88.9834 75.7363C88.9834 75.8111 89.0126 75.8675 89.0711 75.9055C89.1295 75.9422 89.2165 75.9606 89.332 75.9606ZM92.0054 76.4335C91.9225 76.4335 91.8369 76.426 91.7486 76.4111C91.6616 76.3975 91.5801 76.3696 91.5039 76.3275C91.4292 76.284 91.3687 76.2208 91.3225 76.1379C91.2763 76.055 91.2532 75.9456 91.2532 75.8097C91.2532 75.7798 91.2532 75.7492 91.2532 75.718C91.2532 75.6867 91.2532 75.6555 91.2532 75.6242V74.713H90.7538V74.2237H90.8944C90.976 74.2237 91.0405 74.2203 91.0881 74.2135C91.137 74.2067 91.173 74.1897 91.1961 74.1626C91.2206 74.134 91.2362 74.0899 91.243 74.0301C91.2498 73.9703 91.2532 73.888 91.2532 73.7834V73.5102H91.8872V74.2237H92.5171V74.713H91.8872V75.4917C91.8872 75.5162 91.8872 75.54 91.8872 75.5631C91.8872 75.5862 91.8872 75.6086 91.8872 75.6303C91.8872 75.7241 91.8981 75.8002 91.9198 75.8586C91.9429 75.9171 91.9993 75.9463 92.089 75.9463C92.1339 75.9463 92.176 75.9422 92.2154 75.9341C92.2562 75.9259 92.2868 75.9178 92.3071 75.9096V76.3846C92.2786 76.3968 92.2385 76.4077 92.1869 76.4172C92.1352 76.4281 92.0747 76.4335 92.0054 76.4335ZM93.0911 75.4958V75.0779H94.5262L94.465 75.1839C94.465 75.173 94.465 75.1628 94.465 75.1533C94.465 75.1424 94.465 75.1322 94.465 75.1227C94.465 75.0453 94.4467 74.9712 94.41 74.9005C94.3733 74.8285 94.3162 74.7701 94.2388 74.7252C94.1627 74.679 94.0648 74.6559 93.9452 74.6559C93.8256 74.6559 93.7223 74.6817 93.6354 74.7334C93.5497 74.7836 93.4838 74.8564 93.4376 74.9515C93.3928 75.0466 93.3703 75.1615 93.3703 75.296C93.3703 75.4346 93.3921 75.5535 93.4356 75.6528C93.4804 75.7506 93.5463 75.826 93.6333 75.879C93.7217 75.932 93.8311 75.9585 93.9615 75.9585C94.0458 75.9585 94.1185 75.9511 94.1797 75.9361C94.2408 75.9198 94.2904 75.8994 94.3285 75.875C94.3679 75.8505 94.3978 75.8233 94.4182 75.7934C94.4385 75.7635 94.4508 75.7343 94.4549 75.7058H95.0787C95.0705 75.7968 95.0392 75.8865 94.9849 75.9748C94.9305 76.0618 94.8551 76.1406 94.7586 76.2113C94.6621 76.2806 94.5446 76.3357 94.4059 76.3764C94.2687 76.4172 94.1117 76.4376 93.935 76.4376C93.6958 76.4376 93.4872 76.39 93.3092 76.2949C93.1312 76.1984 92.9932 76.0659 92.8954 75.8974C92.7975 75.7275 92.7486 75.5318 92.7486 75.3103C92.7486 75.086 92.7982 74.8897 92.8974 74.7211C92.998 74.5513 93.1373 74.4194 93.3153 74.3256C93.4947 74.2305 93.7019 74.183 93.9371 74.183C94.1776 74.183 94.3855 74.2312 94.5609 74.3277C94.7362 74.4228 94.8714 74.5567 94.9665 74.7293C95.0617 74.9005 95.1092 75.1003 95.1092 75.3286C95.1092 75.3626 95.1086 75.3952 95.1072 75.4265C95.1058 75.4577 95.1038 75.4808 95.1011 75.4958H93.0911Z" fill="white"/>
<path d="M45.1061 96.2543V97.0099H43.7807V100.59H43.0251V97.0099H41.6997V96.2543H45.1061ZM45.4526 97.493H46.2082V100.59H45.4526V97.493ZM45.8366 97.0936C45.7251 97.0936 45.6312 97.0574 45.5548 96.9852C45.4784 96.9109 45.4402 96.8179 45.4402 96.7065C45.4402 96.597 45.4784 96.5052 45.5548 96.4308C45.6312 96.3565 45.7241 96.3194 45.8335 96.3194C45.9429 96.3194 46.0348 96.3565 46.1091 96.4308C46.1855 96.5052 46.2237 96.597 46.2237 96.7065C46.2237 96.8179 46.1865 96.9109 46.1122 96.9852C46.0379 97.0574 45.946 97.0936 45.8366 97.0936ZM46.9284 100.59V97.493H47.684V97.7687C47.7893 97.6572 47.9152 97.5694 48.0618 97.5054C48.2084 97.4394 48.3663 97.4063 48.5356 97.4063C48.7504 97.4063 48.9475 97.4569 49.1271 97.5581C49.3088 97.6592 49.4533 97.7945 49.5607 97.9638C49.6701 97.7945 49.8146 97.6592 49.9942 97.5581C50.1738 97.4569 50.371 97.4063 50.5857 97.4063C50.8128 97.4063 51.0182 97.4621 51.202 97.5736C51.3878 97.683 51.5354 97.8306 51.6448 98.0164C51.7563 98.2001 51.812 98.4056 51.812 98.6327V100.59H51.0564V98.834C51.0564 98.7142 51.0265 98.6048 50.9666 98.5057C50.9088 98.4045 50.8304 98.324 50.7313 98.2641C50.6342 98.2022 50.5248 98.1712 50.403 98.1712C50.2812 98.1712 50.1707 98.2012 50.0717 98.2611C49.9746 98.3189 49.8962 98.3973 49.8363 98.4964C49.7764 98.5955 49.7465 98.708 49.7465 98.834V100.59H48.9909V98.834C48.9909 98.708 48.962 98.5955 48.9042 98.4964C48.8464 98.3973 48.7679 98.3189 48.6688 98.2611C48.5697 98.2012 48.4593 98.1712 48.3374 98.1712C48.2177 98.1712 48.1083 98.2022 48.0092 98.2641C47.9101 98.324 47.8306 98.4045 47.7707 98.5057C47.7129 98.6048 47.684 98.7142 47.684 98.834V100.59H46.9284ZM53.7346 100.67C53.4497 100.67 53.1895 100.597 52.9542 100.45C52.7209 100.304 52.5341 100.107 52.3937 99.859C52.2553 99.6113 52.1862 99.3377 52.1862 99.0383C52.1862 98.8133 52.2264 98.6027 52.307 98.4066C52.3875 98.2084 52.4979 98.035 52.6383 97.8863C52.7808 97.7356 52.9459 97.618 53.1338 97.5333C53.3217 97.4487 53.5219 97.4063 53.7346 97.4063C53.9761 97.4063 54.197 97.458 54.3973 97.5612C54.5996 97.6623 54.771 97.8017 54.9114 97.9792C55.0517 98.1568 55.1539 98.3591 55.2179 98.5862C55.2819 98.8133 55.2964 99.0507 55.2613 99.2985H52.9975C53.0264 99.4141 53.0739 99.5184 53.14 99.6113C53.2061 99.7021 53.2897 99.7754 53.3908 99.8311C53.492 99.8848 53.6066 99.9127 53.7346 99.9147C53.8667 99.9168 53.9865 99.8858 54.0938 99.8218C54.2032 99.7558 54.2941 99.667 54.3663 99.5555L55.1374 99.7351C55.0115 100.01 54.8236 100.235 54.5738 100.41C54.324 100.584 54.0443 100.67 53.7346 100.67ZM52.9728 98.7318H54.4964C54.4737 98.6079 54.4252 98.4964 54.3508 98.3973C54.2786 98.2962 54.1888 98.2156 54.0814 98.1558C53.9741 98.0959 53.8585 98.066 53.7346 98.066C53.6107 98.066 53.4961 98.0959 53.3908 98.1558C53.2855 98.2136 53.1957 98.2931 53.1214 98.3942C53.0492 98.4933 52.9996 98.6058 52.9728 98.7318ZM55.7168 100.59V95.9446H56.4724V100.59H55.7168ZM57.2168 97.493H57.9724V100.59H57.2168V97.493ZM57.6008 97.0936C57.4893 97.0936 57.3954 97.0574 57.319 96.9852C57.2426 96.9109 57.2044 96.8179 57.2044 96.7065C57.2044 96.597 57.2426 96.5052 57.319 96.4308C57.3954 96.3565 57.4883 96.3194 57.5977 96.3194C57.7071 96.3194 57.799 96.3565 57.8733 96.4308C57.9497 96.5052 57.9879 96.597 57.9879 96.7065C57.9879 96.8179 57.9507 96.9109 57.8764 96.9852C57.8021 97.0574 57.7102 97.0936 57.6008 97.0936ZM61.5293 98.6327V100.59H60.7736V98.8309C60.7736 98.7091 60.7437 98.5986 60.6838 98.4995C60.624 98.3983 60.5434 98.3189 60.4423 98.2611C60.3432 98.2012 60.2327 98.1712 60.1109 98.1712C59.9891 98.1712 59.8776 98.2012 59.7765 98.2611C59.6774 98.3189 59.5979 98.3983 59.538 98.4995C59.4802 98.5986 59.4513 98.7091 59.4513 98.8309V100.59H58.6957L58.6926 97.493H59.4482L59.4513 97.7687C59.5566 97.6572 59.6825 97.5694 59.8291 97.5054C59.9757 97.4394 60.1336 97.4063 60.3029 97.4063C60.528 97.4063 60.7334 97.4621 60.9192 97.5736C61.105 97.683 61.2526 97.8306 61.362 98.0164C61.4735 98.2001 61.5293 98.4056 61.5293 98.6327ZM63.4484 100.67C63.1634 100.67 62.9033 100.597 62.668 100.45C62.4347 100.304 62.2478 100.107 62.1074 99.859C61.9691 99.6113 61.9 99.3377 61.9 99.0383C61.9 98.8133 61.9402 98.6027 62.0207 98.4066C62.1012 98.2084 62.2117 98.035 62.3521 97.8863C62.4945 97.7356 62.6597 97.618 62.8476 97.5333C63.0354 97.4487 63.2357 97.4063 63.4484 97.4063C63.6899 97.4063 63.9108 97.458 64.1111 97.5612C64.3134 97.6623 64.4847 97.8017 64.6251 97.9792C64.7655 98.1568 64.8677 98.3591 64.9317 98.5862C64.9957 98.8133 65.0102 99.0507 64.9751 99.2985H62.7113C62.7402 99.4141 62.7877 99.5184 62.8538 99.6113C62.9198 99.7021 63.0034 99.7754 63.1046 99.8311C63.2058 99.8848 63.3204 99.9127 63.4484 99.9147C63.5805 99.9168 63.7002 99.8858 63.8076 99.8218C63.917 99.7558 64.0078 99.667 64.0801 99.5555L64.8512 99.7351C64.7253 100.01 64.5374 100.235 64.2876 100.41C64.0378 100.584 63.758 100.67 63.4484 100.67ZM62.6865 98.7318H64.2102C64.1875 98.6079 64.1389 98.4964 64.0646 98.3973C63.9924 98.2962 63.9026 98.2156 63.7952 98.1558C63.6878 98.0959 63.5722 98.066 63.4484 98.066C63.3245 98.066 63.2099 98.0959 63.1046 98.1558C62.9993 98.2136 62.9095 98.2931 62.8352 98.3942C62.7629 98.4933 62.7134 98.6058 62.6865 98.7318ZM68.402 100.67C68.1171 100.67 67.857 100.597 67.6216 100.45C67.3883 100.304 67.2015 100.108 67.0611 99.8621C66.9228 99.6144 66.8536 99.3408 66.8536 99.0414C66.8536 98.8143 66.8939 98.6027 66.9744 98.4066C67.0549 98.2084 67.1654 98.035 67.3058 97.8863C67.4482 97.7356 67.6134 97.618 67.8012 97.5333C67.9891 97.4487 68.1894 97.4063 68.402 97.4063C68.6869 97.4063 68.946 97.4796 69.1793 97.6262C69.4147 97.7728 69.6015 97.97 69.7398 98.2177C69.8802 98.4654 69.9504 98.74 69.9504 99.0414C69.9504 99.2665 69.9102 99.4771 69.8296 99.6732C69.7491 99.8693 69.6376 100.043 69.4952 100.193C69.3548 100.342 69.1907 100.459 69.0028 100.543C68.817 100.628 68.6167 100.67 68.402 100.67ZM68.402 99.9147C68.5527 99.9147 68.688 99.8745 68.8077 99.794C68.9274 99.7135 69.0214 99.6071 69.0895 99.475C69.1597 99.3429 69.1948 99.1984 69.1948 99.0414C69.1948 98.8804 69.1587 98.7338 69.0864 98.6017C69.0162 98.4675 68.9202 98.3612 68.7984 98.2827C68.6787 98.2022 68.5465 98.162 68.402 98.162C68.2534 98.162 68.1192 98.2022 67.9994 98.2827C67.8797 98.3632 67.7847 98.4706 67.7145 98.6048C67.6443 98.739 67.6092 98.8845 67.6092 99.0414C67.6092 99.2045 67.6454 99.3522 67.7176 99.4843C67.7899 99.6164 67.8859 99.7217 68.0056 99.8002C68.1274 99.8765 68.2596 99.9147 68.402 99.9147ZM71.3816 96.8427V97.493H72.227V98.2487H71.3816V100.59H70.626V98.2487H70.2884V97.493H70.626V96.8427C70.626 96.6652 70.6693 96.5031 70.756 96.3565C70.8448 96.2079 70.9635 96.0902 71.1122 96.0035C71.2608 95.9147 71.4249 95.8703 71.6045 95.8703C71.7346 95.8703 71.8636 95.8972 71.9916 95.9508C72.1196 96.0045 72.2332 96.0871 72.3323 96.1986L71.7873 96.7312C71.7687 96.6961 71.7418 96.6703 71.7067 96.6538C71.6737 96.6352 71.6396 96.6259 71.6045 96.6259C71.5447 96.6259 71.492 96.6476 71.4466 96.691C71.4033 96.7323 71.3816 96.7828 71.3816 96.8427ZM76.2621 100.67C75.9689 100.67 75.6933 100.613 75.4352 100.497C75.1772 100.379 74.9501 100.217 74.7539 100.011C74.5578 99.8043 74.404 99.5658 74.2925 99.2954C74.181 99.0229 74.1253 98.7318 74.1253 98.4221C74.1253 98.1124 74.181 97.8223 74.2925 97.5519C74.404 97.2794 74.5578 97.0399 74.7539 96.8334C74.9501 96.627 75.1772 96.4659 75.4352 96.3503C75.6933 96.2327 75.9689 96.1738 76.2621 96.1738C76.5573 96.1738 76.8339 96.2327 77.092 96.3503C77.3501 96.4659 77.5772 96.627 77.7733 96.8334C77.9694 97.0399 78.1222 97.2794 78.2316 97.5519C78.3431 97.8223 78.3989 98.1124 78.3989 98.4221C78.3989 98.7318 78.3431 99.0229 78.2316 99.2954C78.1222 99.5658 77.9694 99.8043 77.7733 100.011C77.5772 100.217 77.3501 100.379 77.092 100.497C76.8339 100.613 76.5573 100.67 76.2621 100.67ZM76.2621 99.9147C76.452 99.9147 76.6306 99.8755 76.7978 99.7971C76.965 99.7186 77.1116 99.6113 77.2376 99.475C77.3656 99.3367 77.4647 99.1777 77.5349 98.9981C77.6071 98.8185 77.6432 98.6265 77.6432 98.4221C77.6432 98.2177 77.6071 98.0257 77.5349 97.8461C77.4626 97.6644 77.3625 97.5054 77.2345 97.3692C77.1085 97.2329 76.9619 97.1256 76.7947 97.0471C76.6296 96.9687 76.452 96.9294 76.2621 96.9294C76.0721 96.9294 75.8936 96.9687 75.7263 97.0471C75.5591 97.1256 75.4115 97.2339 75.2835 97.3723C75.1575 97.5085 75.0585 97.6665 74.9862 97.8461C74.916 98.0257 74.8809 98.2177 74.8809 98.4221C74.8809 98.6285 74.917 98.8216 74.9893 99.0012C75.0615 99.1808 75.1606 99.3398 75.2866 99.4781C75.4146 99.6144 75.5612 99.7217 75.7263 99.8002C75.8936 99.8765 76.0721 99.9147 76.2621 99.9147ZM82.0499 96.2543V97.0099H80.7245V100.59H79.9689V97.0099H78.6435V96.2543H82.0499ZM83.5251 96.2543H84.3953L85.9716 100.59H85.1695L84.8908 99.8218H83.0327L82.754 100.59H81.952L83.5251 96.2543ZM83.3083 99.0662H84.6121L83.9587 97.2794L83.3083 99.0662ZM89.8132 100.67C89.4663 100.67 89.1618 100.586 88.8996 100.416C88.6395 100.247 88.4372 100.02 88.2926 99.7351C88.1481 99.4482 88.0759 99.1302 88.0759 98.7813V96.2543H88.8315V98.7813C88.8315 98.9878 88.8697 99.1777 88.9461 99.3511C89.0245 99.5225 89.136 99.6598 89.2805 99.763C89.4271 99.8642 89.6047 99.9147 89.8132 99.9147C90.0238 99.9147 90.2013 99.8642 90.3458 99.763C90.4903 99.6598 90.5998 99.5225 90.6741 99.3511C90.7505 99.1777 90.7887 98.9878 90.7887 98.7813V96.2543H91.5443V98.7813C91.5443 99.0435 91.503 99.2892 91.4204 99.5184C91.3378 99.7455 91.2201 99.9457 91.0674 100.119C90.9146 100.293 90.7319 100.428 90.5192 100.525C90.3087 100.622 90.0733 100.67 89.8132 100.67ZM93.0412 102.138H92.2856V97.493H93.0412V97.8863C93.1424 97.746 93.2662 97.6324 93.4128 97.5457C93.5615 97.4569 93.7349 97.4125 93.9331 97.4125C94.1602 97.4125 94.3718 97.4549 94.5679 97.5395C94.764 97.6241 94.9364 97.7418 95.0851 97.8925C95.2358 98.0412 95.3524 98.2136 95.435 98.4097C95.5197 98.6058 95.562 98.8164 95.562 99.0414C95.562 99.2665 95.5197 99.4781 95.435 99.6763C95.3524 99.8745 95.2358 100.049 95.0851 100.2C94.9364 100.348 94.764 100.465 94.5679 100.55C94.3718 100.634 94.1602 100.677 93.9331 100.677C93.7349 100.677 93.5615 100.633 93.4128 100.546C93.2662 100.458 93.1424 100.343 93.0412 100.203V102.138ZM93.9238 98.1403C93.7669 98.1403 93.6265 98.1816 93.5026 98.2641C93.3787 98.3447 93.2817 98.4531 93.2115 98.5893C93.1413 98.7256 93.1062 98.8763 93.1062 99.0414C93.1062 99.2066 93.1413 99.3584 93.2115 99.4967C93.2817 99.6329 93.3787 99.7424 93.5026 99.8249C93.6265 99.9055 93.7669 99.9457 93.9238 99.9457C94.0827 99.9457 94.2283 99.9055 94.3604 99.8249C94.4926 99.7444 94.5978 99.636 94.6763 99.4998C94.7547 99.3614 94.794 99.2087 94.794 99.0414C94.794 98.8763 94.7547 98.7256 94.6763 98.5893C94.5978 98.4531 94.4926 98.3447 94.3604 98.2641C94.2304 98.1816 94.0848 98.1403 93.9238 98.1403ZM98.401 95.9446H99.1566V100.59H98.401V100.203C98.3019 100.341 98.177 100.454 98.0263 100.54C97.8755 100.627 97.7011 100.67 97.5029 100.67C97.2779 100.67 97.0673 100.628 96.8712 100.543C96.675 100.459 96.5016 100.342 96.3509 100.193C96.2022 100.043 96.0856 99.8693 96.001 99.6732C95.9163 99.4771 95.874 99.2665 95.874 99.0414C95.874 98.8164 95.9163 98.6058 96.001 98.4097C96.0856 98.2136 96.2022 98.0412 96.3509 97.8925C96.5016 97.7418 96.675 97.6241 96.8712 97.5395C97.0673 97.4549 97.2779 97.4125 97.5029 97.4125C97.7011 97.4125 97.8755 97.4559 98.0263 97.5426C98.177 97.6272 98.3019 97.7398 98.401 97.8801V95.9446ZM97.5122 99.9426C97.6732 99.9426 97.8157 99.9024 97.9395 99.8218C98.0634 99.7413 98.1605 99.6329 98.2306 99.4967C98.3008 99.3584 98.3359 99.2066 98.3359 99.0414C98.3359 98.8742 98.3008 98.7225 98.2306 98.5862C98.1605 98.4479 98.0624 98.3385 97.9365 98.258C97.8126 98.1774 97.6712 98.1372 97.5122 98.1372C97.3532 98.1372 97.2077 98.1785 97.0755 98.2611C96.9455 98.3416 96.8412 98.45 96.7628 98.5862C96.6864 98.7225 96.6482 98.8742 96.6482 99.0414C96.6482 99.2087 96.6874 99.3604 96.7659 99.4967C96.8443 99.6329 96.9486 99.7413 97.0786 99.8218C97.2108 99.9024 97.3553 99.9426 97.5122 99.9426ZM102.187 97.493H102.943V100.59H102.187L102.153 100.206C102.068 100.344 101.956 100.457 101.816 100.543C101.677 100.628 101.513 100.67 101.323 100.67C101.094 100.67 100.879 100.627 100.679 100.54C100.479 100.454 100.302 100.334 100.149 100.181C99.9987 100.028 99.88 99.8518 99.7933 99.6515C99.7087 99.4513 99.6663 99.2365 99.6663 99.0074C99.6663 98.7865 99.7066 98.579 99.7871 98.3849C99.8697 98.1909 99.9843 98.0205 100.131 97.874C100.277 97.7274 100.447 97.6128 100.639 97.5302C100.831 97.4476 101.037 97.4063 101.258 97.4063C101.462 97.4063 101.645 97.4518 101.806 97.5426C101.969 97.6334 102.108 97.749 102.221 97.8894L102.187 97.493ZM101.305 99.9426C101.466 99.9426 101.608 99.9024 101.732 99.8218C101.856 99.7413 101.953 99.6329 102.023 99.4967C102.093 99.3584 102.128 99.2066 102.128 99.0414C102.128 98.8742 102.093 98.7225 102.023 98.5862C101.953 98.4479 101.855 98.3385 101.729 98.258C101.605 98.1774 101.464 98.1372 101.305 98.1372C101.146 98.1372 101 98.1785 100.868 98.2611C100.738 98.3416 100.634 98.45 100.555 98.5862C100.479 98.7225 100.441 98.8742 100.441 99.0414C100.441 99.2087 100.48 99.3604 100.558 99.4967C100.637 99.6329 100.741 99.7413 100.871 99.8218C101.003 99.9024 101.148 99.9426 101.305 99.9426ZM105.22 98.2487H104.619V100.59H103.863V98.2487H103.405V97.493H103.863V96.5207H104.619V97.493H105.22V98.2487ZM107.07 100.67C106.785 100.67 106.525 100.597 106.289 100.45C106.056 100.304 105.869 100.107 105.729 99.859C105.59 99.6113 105.521 99.3377 105.521 99.0383C105.521 98.8133 105.561 98.6027 105.642 98.4066C105.723 98.2084 105.833 98.035 105.973 97.8863C106.116 97.7356 106.281 97.618 106.469 97.5333C106.657 97.4487 106.857 97.4063 107.07 97.4063C107.311 97.4063 107.532 97.458 107.732 97.5612C107.935 97.6623 108.106 97.8017 108.246 97.9792C108.387 98.1568 108.489 98.3591 108.553 98.5862C108.617 98.8133 108.631 99.0507 108.596 99.2985H106.333C106.361 99.4141 106.409 99.5184 106.475 99.6113C106.541 99.7021 106.625 99.7754 106.726 99.8311C106.827 99.8848 106.942 99.9127 107.07 99.9147C107.202 99.9168 107.321 99.8858 107.429 99.8218C107.538 99.7558 107.629 99.667 107.701 99.5555L108.472 99.7351C108.347 100.01 108.159 100.235 107.909 100.41C107.659 100.584 107.379 100.67 107.07 100.67ZM106.308 98.7318H107.831C107.809 98.6079 107.76 98.4964 107.686 98.3973C107.614 98.2962 107.524 98.2156 107.416 98.1558C107.309 98.0959 107.193 98.066 107.07 98.066C106.946 98.066 106.831 98.0959 106.726 98.1558C106.621 98.2136 106.531 98.2931 106.456 98.3942C106.384 98.4933 106.335 98.6058 106.308 98.7318ZM112.996 97.493H113.751V100.59H112.996L112.962 100.206C112.877 100.344 112.764 100.457 112.624 100.543C112.486 100.628 112.322 100.67 112.132 100.67C111.903 100.67 111.688 100.627 111.488 100.54C111.287 100.454 111.111 100.334 110.958 100.181C110.807 100.028 110.689 99.8518 110.602 99.6515C110.517 99.4513 110.475 99.2365 110.475 99.0074C110.475 98.7865 110.515 98.579 110.596 98.3849C110.678 98.1909 110.793 98.0205 110.939 97.874C111.086 97.7274 111.255 97.6128 111.447 97.5302C111.639 97.4476 111.846 97.4063 112.067 97.4063C112.271 97.4063 112.454 97.4518 112.615 97.5426C112.778 97.6334 112.916 97.749 113.03 97.8894L112.996 97.493ZM112.113 99.9426C112.274 99.9426 112.417 99.9024 112.54 99.8218C112.664 99.7413 112.761 99.6329 112.832 99.4967C112.902 99.3584 112.937 99.2066 112.937 99.0414C112.937 98.8742 112.902 98.7225 112.832 98.5862C112.761 98.4479 112.663 98.3385 112.537 98.258C112.413 98.1774 112.272 98.1372 112.113 98.1372C111.954 98.1372 111.809 98.1785 111.676 98.2611C111.546 98.3416 111.442 98.45 111.364 98.5862C111.287 98.7225 111.249 98.8742 111.249 99.0414C111.249 99.2087 111.288 99.3604 111.367 99.4967C111.445 99.6329 111.549 99.7413 111.68 99.8218C111.812 99.9024 111.956 99.9426 112.113 99.9426ZM117.205 98.6327V100.59H116.449V98.8309C116.449 98.7091 116.419 98.5986 116.36 98.4995C116.3 98.3983 116.219 98.3189 116.118 98.2611C116.019 98.2012 115.909 98.1712 115.787 98.1712C115.665 98.1712 115.553 98.2012 115.452 98.2611C115.353 98.3189 115.274 98.3983 115.214 98.4995C115.156 98.5986 115.127 98.7091 115.127 98.8309V100.59H114.371L114.368 97.493H115.124L115.127 97.7687C115.232 97.6572 115.358 97.5694 115.505 97.5054C115.651 97.4394 115.809 97.4063 115.979 97.4063C116.204 97.4063 116.409 97.4621 116.595 97.5736C116.781 97.683 116.928 97.8306 117.038 98.0164C117.149 98.2001 117.205 98.4056 117.205 98.6327ZM120.103 95.9446H120.858V100.59H120.103V100.203C120.004 100.341 119.879 100.454 119.728 100.54C119.577 100.627 119.403 100.67 119.205 100.67C118.98 100.67 118.769 100.628 118.573 100.543C118.377 100.459 118.203 100.342 118.053 100.193C117.904 100.043 117.787 99.8693 117.703 99.6732C117.618 99.4771 117.576 99.2665 117.576 99.0414C117.576 98.8164 117.618 98.6058 117.703 98.4097C117.787 98.2136 117.904 98.0412 118.053 97.8925C118.203 97.7418 118.377 97.6241 118.573 97.5395C118.769 97.4549 118.98 97.4125 119.205 97.4125C119.403 97.4125 119.577 97.4559 119.728 97.5426C119.879 97.6272 120.004 97.7398 120.103 97.8801V95.9446ZM119.214 99.9426C119.375 99.9426 119.517 99.9024 119.641 99.8218C119.765 99.7413 119.862 99.6329 119.932 99.4967C120.003 99.3584 120.038 99.2066 120.038 99.0414C120.038 98.8742 120.003 98.7225 119.932 98.5862C119.862 98.4479 119.764 98.3385 119.638 98.258C119.514 98.1774 119.373 98.1372 119.214 98.1372C119.055 98.1372 118.909 98.1785 118.777 98.2611C118.647 98.3416 118.543 98.45 118.465 98.5862C118.388 98.7225 118.35 98.8742 118.35 99.0414C118.35 99.2087 118.389 99.3604 118.468 99.4967C118.546 99.6329 118.65 99.7413 118.78 99.8218C118.913 99.9024 119.057 99.9426 119.214 99.9426ZM125.097 100.67C124.804 100.67 124.528 100.613 124.27 100.497C124.012 100.379 123.785 100.217 123.589 100.011C123.395 99.8043 123.242 99.5658 123.13 99.2954C123.021 99.0229 122.966 98.7318 122.966 98.4221C122.966 98.1103 123.021 97.8192 123.13 97.5488C123.242 97.2763 123.395 97.0378 123.589 96.8334C123.785 96.627 124.012 96.4659 124.27 96.3503C124.528 96.2327 124.804 96.1738 125.097 96.1738C125.448 96.1738 125.771 96.2554 126.066 96.4185C126.361 96.5795 126.606 96.7952 126.8 97.0657L126.125 97.428C126.003 97.2773 125.852 97.1565 125.67 97.0657C125.49 96.9749 125.299 96.9294 125.097 96.9294C124.907 96.9294 124.728 96.9687 124.561 97.0471C124.394 97.1235 124.247 97.2309 124.121 97.3692C123.996 97.5054 123.897 97.6644 123.827 97.8461C123.757 98.0257 123.722 98.2177 123.722 98.4221C123.722 98.6285 123.757 98.8216 123.827 99.0012C123.9 99.1808 123.999 99.3398 124.125 99.4781C124.25 99.6144 124.396 99.7217 124.561 99.8002C124.728 99.8765 124.907 99.9147 125.097 99.9147C125.303 99.9147 125.495 99.8693 125.673 99.7785C125.853 99.6856 126.003 99.5638 126.125 99.4131L126.8 99.7785C126.606 100.047 126.361 100.263 126.066 100.426C125.771 100.589 125.448 100.67 125.097 100.67ZM127.237 99.444V97.493H127.992V99.2458C127.992 99.3676 128.022 99.4791 128.082 99.5803C128.142 99.6794 128.221 99.7589 128.32 99.8187C128.422 99.8765 128.532 99.9055 128.652 99.9055C128.776 99.9055 128.887 99.8765 128.986 99.8187C129.085 99.7589 129.165 99.6794 129.225 99.5803C129.285 99.4791 129.314 99.3676 129.314 99.2458V97.493H130.07L130.073 100.59H129.318L129.314 100.308C129.207 100.42 129.08 100.508 128.934 100.574C128.787 100.638 128.63 100.67 128.463 100.67C128.238 100.67 128.032 100.616 127.847 100.506C127.661 100.395 127.512 100.247 127.401 100.063C127.291 99.8776 127.237 99.6711 127.237 99.444ZM131.607 100.646C131.446 100.635 131.29 100.603 131.139 100.55C130.99 100.494 130.858 100.418 130.743 100.324C130.627 100.229 130.538 100.115 130.476 99.9829L131.114 99.7104C131.139 99.7516 131.179 99.796 131.235 99.8435C131.291 99.8889 131.357 99.9271 131.433 99.9581C131.512 99.9891 131.597 100.005 131.69 100.005C131.769 100.005 131.843 99.9942 131.913 99.9736C131.985 99.9509 132.043 99.9168 132.087 99.8714C132.132 99.826 132.155 99.7671 132.155 99.6949C132.155 99.6185 132.128 99.5596 132.074 99.5184C132.023 99.475 131.957 99.443 131.876 99.4224C131.798 99.3996 131.721 99.379 131.647 99.3604C131.451 99.3212 131.268 99.2603 131.099 99.1777C130.932 99.0951 130.796 98.9888 130.693 98.8587C130.592 98.7266 130.541 98.5676 130.541 98.3818C130.541 98.1774 130.595 98.0009 130.702 97.8523C130.812 97.7036 130.953 97.589 131.127 97.5085C131.302 97.428 131.491 97.3878 131.693 97.3878C131.939 97.3878 132.164 97.4394 132.368 97.5426C132.575 97.6438 132.738 97.7872 132.858 97.9731L132.26 98.3261C132.231 98.2765 132.191 98.2311 132.139 98.1898C132.088 98.1465 132.029 98.1114 131.963 98.0845C131.897 98.0556 131.828 98.0391 131.755 98.035C131.662 98.0309 131.578 98.0391 131.501 98.0598C131.425 98.0804 131.363 98.1155 131.316 98.1651C131.27 98.2146 131.247 98.2807 131.247 98.3632C131.247 98.4417 131.278 98.5005 131.34 98.5398C131.402 98.5769 131.477 98.6058 131.563 98.6265C131.652 98.6471 131.737 98.6698 131.817 98.6946C131.999 98.7545 132.169 98.8278 132.328 98.9145C132.489 99.0012 132.618 99.1075 132.715 99.2334C132.812 99.3594 132.859 99.5101 132.855 99.6856C132.855 99.8858 132.795 100.061 132.675 100.212C132.555 100.361 132.4 100.474 132.211 100.553C132.023 100.631 131.821 100.662 131.607 100.646ZM135.045 98.2487H134.444V100.59H133.688V98.2487H133.23V97.493H133.688V96.5207H134.444V97.493H135.045V98.2487ZM136.894 100.67C136.61 100.67 136.349 100.597 136.114 100.45C135.881 100.304 135.694 100.108 135.554 99.8621C135.415 99.6144 135.346 99.3408 135.346 99.0414C135.346 98.8143 135.386 98.6027 135.467 98.4066C135.547 98.2084 135.658 98.035 135.798 97.8863C135.941 97.7356 136.106 97.618 136.294 97.5333C136.482 97.4487 136.682 97.4063 136.894 97.4063C137.179 97.4063 137.438 97.4796 137.672 97.6262C137.907 97.7728 138.094 97.97 138.232 98.2177C138.373 98.4654 138.443 98.74 138.443 99.0414C138.443 99.2665 138.403 99.4771 138.322 99.6732C138.242 99.8693 138.13 100.043 137.988 100.193C137.847 100.342 137.683 100.459 137.495 100.543C137.309 100.628 137.109 100.67 136.894 100.67ZM136.894 99.9147C137.045 99.9147 137.18 99.8745 137.3 99.794C137.42 99.7135 137.514 99.6071 137.582 99.475C137.652 99.3429 137.687 99.1984 137.687 99.0414C137.687 98.8804 137.651 98.7338 137.579 98.6017C137.509 98.4675 137.413 98.3612 137.291 98.2827C137.171 98.2022 137.039 98.162 136.894 98.162C136.746 98.162 136.612 98.2022 136.492 98.2827C136.372 98.3632 136.277 98.4706 136.207 98.6048C136.137 98.739 136.102 98.8845 136.102 99.0414C136.102 99.2045 136.138 99.3522 136.21 99.4843C136.282 99.6164 136.378 99.7217 136.498 99.8002C136.62 99.8765 136.752 99.9147 136.894 99.9147ZM138.925 100.59V97.493H139.681V97.7687C139.786 97.6572 139.912 97.5694 140.058 97.5054C140.205 97.4394 140.363 97.4063 140.532 97.4063C140.747 97.4063 140.944 97.4569 141.124 97.5581C141.305 97.6592 141.45 97.7945 141.557 97.9638C141.667 97.7945 141.811 97.6592 141.991 97.5581C142.17 97.4569 142.368 97.4063 142.582 97.4063C142.809 97.4063 143.015 97.4621 143.199 97.5736C143.384 97.683 143.532 97.8306 143.641 98.0164C143.753 98.2001 143.809 98.4056 143.809 98.6327V100.59H143.053V98.834C143.053 98.7142 143.023 98.6048 142.963 98.5057C142.905 98.4045 142.827 98.324 142.728 98.2641C142.631 98.2022 142.521 98.1712 142.4 98.1712C142.278 98.1712 142.167 98.2012 142.068 98.2611C141.971 98.3189 141.893 98.3973 141.833 98.4964C141.773 98.5955 141.743 98.708 141.743 98.834V100.59H140.987V98.834C140.987 98.708 140.959 98.5955 140.901 98.4964C140.843 98.3973 140.765 98.3189 140.665 98.2611C140.566 98.2012 140.456 98.1712 140.334 98.1712C140.214 98.1712 140.105 98.2022 140.006 98.2641C139.907 98.324 139.827 98.4045 139.767 98.5057C139.71 98.6048 139.681 98.7142 139.681 98.834V100.59H138.925ZM145.731 100.67C145.446 100.67 145.186 100.597 144.951 100.45C144.718 100.304 144.531 100.107 144.39 99.859C144.252 99.6113 144.183 99.3377 144.183 99.0383C144.183 98.8133 144.223 98.6027 144.304 98.4066C144.384 98.2084 144.495 98.035 144.635 97.8863C144.777 97.7356 144.943 97.618 145.13 97.5333C145.318 97.4487 145.519 97.4063 145.731 97.4063C145.973 97.4063 146.194 97.458 146.394 97.5612C146.596 97.6623 146.768 97.8017 146.908 97.9792C147.048 98.1568 147.151 98.3591 147.215 98.5862C147.279 98.8133 147.293 99.0507 147.258 99.2985H144.994C145.023 99.4141 145.071 99.5184 145.137 99.6113C145.203 99.7021 145.286 99.7754 145.387 99.8311C145.489 99.8848 145.603 99.9127 145.731 99.9147C145.863 99.9168 145.983 99.8858 146.09 99.8218C146.2 99.7558 146.291 99.667 146.363 99.5555L147.134 99.7351C147.008 100.01 146.82 100.235 146.57 100.41C146.321 100.584 146.041 100.67 145.731 100.67ZM144.969 98.7318H146.493C146.47 98.6079 146.422 98.4964 146.347 98.3973C146.275 98.2962 146.185 98.2156 146.078 98.1558C145.971 98.0959 145.855 98.066 145.731 98.066C145.607 98.066 145.493 98.0959 145.387 98.1558C145.282 98.2136 145.192 98.2931 145.118 98.3942C145.046 98.4933 144.996 98.6058 144.969 98.7318ZM147.765 100.59L147.762 97.493H148.517L148.52 97.7687C148.626 97.6572 148.752 97.5694 148.898 97.5054C149.045 97.4394 149.203 97.4063 149.372 97.4063C149.486 97.4063 149.599 97.4229 149.713 97.4559L149.415 98.2177C149.337 98.1867 149.259 98.1712 149.18 98.1712C149.058 98.1712 148.947 98.2012 148.846 98.2611C148.747 98.3189 148.667 98.3983 148.607 98.4995C148.549 98.5986 148.52 98.7091 148.52 98.8309V100.59H147.765ZM151.633 100.59V96.2543H153.296C153.531 96.2543 153.744 96.3132 153.934 96.4308C154.124 96.5485 154.274 96.7065 154.386 96.9047C154.497 97.1008 154.553 97.3186 154.553 97.5581C154.553 97.7542 154.517 97.9349 154.445 98.1C154.374 98.2631 154.275 98.4045 154.147 98.5243C154.021 98.644 153.876 98.7349 153.711 98.7968L154.748 100.59H153.878L152.875 98.8649H152.388V100.59H151.633ZM152.388 98.1093H153.209C153.316 98.1093 153.414 98.0825 153.503 98.0288C153.592 97.9751 153.663 97.9029 153.717 97.812C153.771 97.7212 153.797 97.62 153.797 97.5085C153.797 97.395 153.771 97.2928 153.717 97.2019C153.663 97.1111 153.592 97.0389 153.503 96.9852C153.414 96.9315 153.316 96.9047 153.209 96.9047H152.388V98.1093ZM156.491 100.67C156.206 100.67 155.946 100.597 155.711 100.45C155.478 100.304 155.291 100.107 155.15 99.859C155.012 99.6113 154.943 99.3377 154.943 99.0383C154.943 98.8133 154.983 98.6027 155.064 98.4066C155.144 98.2084 155.255 98.035 155.395 97.8863C155.538 97.7356 155.703 97.618 155.891 97.5333C156.078 97.4487 156.279 97.4063 156.491 97.4063C156.733 97.4063 156.954 97.458 157.154 97.5612C157.356 97.6623 157.528 97.8017 157.668 97.9792C157.809 98.1568 157.911 98.3591 157.975 98.5862C158.039 98.8133 158.053 99.0507 158.018 99.2985H155.754C155.783 99.4141 155.831 99.5184 155.897 99.6113C155.963 99.7021 156.046 99.7754 156.148 99.8311C156.249 99.8848 156.363 99.9127 156.491 99.9147C156.623 99.9168 156.743 99.8858 156.851 99.8218C156.96 99.7558 157.051 99.667 157.123 99.5555L157.894 99.7351C157.768 100.01 157.58 100.235 157.331 100.41C157.081 100.584 156.801 100.67 156.491 100.67ZM155.73 98.7318H157.253C157.23 98.6079 157.182 98.4964 157.108 98.3973C157.035 98.2962 156.946 98.2156 156.838 98.1558C156.731 98.0959 156.615 98.066 156.491 98.066C156.367 98.066 156.253 98.0959 156.148 98.1558C156.042 98.2136 155.953 98.2931 155.878 98.3942C155.806 98.4933 155.756 98.6058 155.73 98.7318ZM159.278 102.138H158.522V97.493H159.278V97.8863C159.379 97.746 159.503 97.6324 159.649 97.5457C159.798 97.4569 159.971 97.4125 160.169 97.4125C160.397 97.4125 160.608 97.4549 160.804 97.5395C161 97.6241 161.173 97.7418 161.321 97.8925C161.472 98.0412 161.589 98.2136 161.671 98.4097C161.756 98.6058 161.798 98.8164 161.798 99.0414C161.798 99.2665 161.756 99.4781 161.671 99.6763C161.589 99.8745 161.472 100.049 161.321 100.2C161.173 100.348 161 100.465 160.804 100.55C160.608 100.634 160.397 100.677 160.169 100.677C159.971 100.677 159.798 100.633 159.649 100.546C159.503 100.458 159.379 100.343 159.278 100.203V102.138ZM160.16 98.1403C160.003 98.1403 159.863 98.1816 159.739 98.2641C159.615 98.3447 159.518 98.4531 159.448 98.5893C159.378 98.7256 159.343 98.8763 159.343 99.0414C159.343 99.2066 159.378 99.3584 159.448 99.4967C159.518 99.6329 159.615 99.7424 159.739 99.8249C159.863 99.9055 160.003 99.9457 160.16 99.9457C160.319 99.9457 160.465 99.9055 160.597 99.8249C160.729 99.7444 160.834 99.636 160.913 99.4998C160.991 99.3614 161.03 99.2087 161.03 99.0414C161.03 98.8763 160.991 98.7256 160.913 98.5893C160.834 98.4531 160.729 98.3447 160.597 98.2641C160.467 98.1816 160.321 98.1403 160.16 98.1403ZM163.659 100.67C163.374 100.67 163.114 100.597 162.878 100.45C162.645 100.304 162.458 100.108 162.318 99.8621C162.179 99.6144 162.11 99.3408 162.11 99.0414C162.11 98.8143 162.151 98.6027 162.231 98.4066C162.312 98.2084 162.422 98.035 162.562 97.8863C162.705 97.7356 162.87 97.618 163.058 97.5333C163.246 97.4487 163.446 97.4063 163.659 97.4063C163.944 97.4063 164.203 97.4796 164.436 97.6262C164.671 97.7728 164.858 97.97 164.997 98.2177C165.137 98.4654 165.207 98.74 165.207 99.0414C165.207 99.2665 165.167 99.4771 165.086 99.6732C165.006 99.8693 164.894 100.043 164.752 100.193C164.612 100.342 164.447 100.459 164.26 100.543C164.074 100.628 163.873 100.67 163.659 100.67ZM163.659 99.9147C163.809 99.9147 163.945 99.8745 164.064 99.794C164.184 99.7135 164.278 99.6071 164.346 99.475C164.416 99.3429 164.452 99.1984 164.452 99.0414C164.452 98.8804 164.415 98.7338 164.343 98.6017C164.273 98.4675 164.177 98.3612 164.055 98.2827C163.935 98.2022 163.803 98.162 163.659 98.162C163.51 98.162 163.376 98.2022 163.256 98.2827C163.136 98.3632 163.041 98.4706 162.971 98.6048C162.901 98.739 162.866 98.8845 162.866 99.0414C162.866 99.2045 162.902 99.3522 162.974 99.4843C163.047 99.6164 163.143 99.7217 163.262 99.8002C163.384 99.8765 163.516 99.9147 163.659 99.9147ZM165.692 100.59L165.689 97.493H166.445L166.448 97.7687C166.553 97.6572 166.679 97.5694 166.826 97.5054C166.972 97.4394 167.13 97.4063 167.3 97.4063C167.413 97.4063 167.527 97.4229 167.64 97.4559L167.343 98.2177C167.265 98.1867 167.186 98.1712 167.108 98.1712C166.986 98.1712 166.874 98.2012 166.773 98.2611C166.674 98.3189 166.595 98.3983 166.535 98.4995C166.477 98.5986 166.448 98.7091 166.448 98.8309V100.59H165.692ZM169.732 98.2487H169.131V100.59H168.376V98.2487H167.918V97.493H168.376V96.5207H169.131V97.493H169.732V98.2487ZM171.157 100.646C170.996 100.635 170.84 100.603 170.69 100.55C170.541 100.494 170.409 100.418 170.293 100.324C170.178 100.229 170.089 100.115 170.027 99.9829L170.665 99.7104C170.69 99.7516 170.73 99.796 170.786 99.8435C170.841 99.8889 170.908 99.9271 170.984 99.9581C171.062 99.9891 171.148 100.005 171.241 100.005C171.319 100.005 171.394 99.9942 171.464 99.9736C171.536 99.9509 171.594 99.9168 171.637 99.8714C171.683 99.826 171.705 99.7671 171.705 99.6949C171.705 99.6185 171.679 99.5596 171.625 99.5184C171.573 99.475 171.507 99.443 171.427 99.4224C171.348 99.3996 171.272 99.379 171.198 99.3604C171.001 99.3212 170.819 99.2603 170.649 99.1777C170.482 99.0951 170.347 98.9888 170.244 98.8587C170.143 98.7266 170.092 98.5676 170.092 98.3818C170.092 98.1774 170.146 98.0009 170.253 97.8523C170.362 97.7036 170.504 97.589 170.677 97.5085C170.853 97.428 171.042 97.3878 171.244 97.3878C171.49 97.3878 171.715 97.4394 171.919 97.5426C172.126 97.6438 172.289 97.7872 172.408 97.9731L171.811 98.3261C171.782 98.2765 171.742 98.2311 171.69 98.1898C171.638 98.1465 171.58 98.1114 171.513 98.0845C171.447 98.0556 171.378 98.0391 171.306 98.035C171.213 98.0309 171.128 98.0391 171.052 98.0598C170.976 98.0804 170.914 98.1155 170.866 98.1651C170.821 98.2146 170.798 98.2807 170.798 98.3632C170.798 98.4417 170.829 98.5005 170.891 98.5398C170.953 98.5769 171.027 98.6058 171.114 98.6265C171.203 98.6471 171.287 98.6698 171.368 98.6946C171.55 98.7545 171.72 98.8278 171.879 98.9145C172.04 99.0012 172.169 99.1075 172.266 99.2334C172.363 99.3594 172.409 99.5101 172.405 99.6856C172.405 99.8858 172.345 100.061 172.226 100.212C172.106 100.361 171.951 100.474 171.761 100.553C171.573 100.631 171.372 100.662 171.157 100.646Z" fill="#263238"/>
</svg>
