<svg width="24" height="15" viewBox="0 0 24 15" fill="none" xmlns="http://www.w3.org/2000/svg">
<path id="Vector" d="M12.5165 6.62897C13.1227 6.62897 13.7152 6.45339 14.2192 6.12444C14.7232 5.79549 15.116 5.32794 15.3479 4.78092C15.5799 4.23389 15.6406 3.63196 15.5223 3.05125C15.4041 2.47053 15.1122 1.93711 14.6836 1.51843C14.255 1.09976 13.7089 0.814638 13.1144 0.699126C12.5199 0.583614 11.9037 0.642899 11.3437 0.869483C10.7837 1.09607 10.3051 1.47978 9.96834 1.97208C9.63159 2.46439 9.45185 3.04319 9.45185 3.63528C9.45185 4.42926 9.77473 5.19071 10.3495 5.75214C10.9242 6.31356 11.7037 6.62897 12.5165 6.62897ZM12.5165 2.63739C12.7186 2.63739 12.9161 2.69592 13.0841 2.80557C13.2521 2.91522 13.383 3.07107 13.4603 3.25341C13.5376 3.43575 13.5579 3.63639 13.5185 3.82996C13.479 4.02354 13.3817 4.20134 13.2389 4.3409C13.096 4.48046 12.914 4.5755 12.7158 4.614C12.5177 4.65251 12.3123 4.63275 12.1256 4.55722C11.9389 4.48169 11.7794 4.35379 11.6671 4.18969C11.5549 4.02558 11.495 3.83265 11.495 3.63528C11.495 3.37063 11.6026 3.11681 11.7942 2.92967C11.9858 2.74253 12.2456 2.63739 12.5165 2.63739ZM16.7151 6.48926C17.3128 5.65206 17.6332 4.65595 17.6332 3.63528C17.6332 2.61462 17.3128 1.61851 16.7151 0.781308C17.0089 0.688757 17.3157 0.64162 17.6243 0.641603C18.4371 0.641603 19.2166 0.957008 19.7914 1.51843C20.3661 2.07986 20.689 2.84131 20.689 3.63528C20.689 4.42926 20.3661 5.19071 19.7914 5.75214C19.2166 6.31356 18.4371 6.62897 17.6243 6.62897C17.3157 6.62895 17.0089 6.58181 16.7151 6.48926ZM12.5165 8.62475C6.38717 8.62475 6.38717 12.6163 6.38717 12.6163V14.6121H18.6459V12.6163C18.6459 12.6163 18.6459 8.62475 12.5165 8.62475ZM8.43029 12.6163C8.43029 12.3269 8.75719 10.6205 12.5165 10.6205C16.092 10.6205 16.5415 12.1773 16.6028 12.6163M23.7537 12.6163V14.6121H20.689V12.6163C20.6651 11.8745 20.4902 11.1448 20.1745 10.4698C19.8588 9.79472 19.4086 9.18787 18.8502 8.68463C23.7537 9.1736 23.7537 12.6163 23.7537 12.6163ZM6.7345 4.55335L7.91951 5.96038L3.0671 10.7004L0.257812 7.70669L1.44282 6.54914L3.0671 8.12581L6.7345 4.55335Z" fill="#69AED5"/>
</svg>
