<svg width="209" height="139" viewBox="0 0 209 139" fill="none" xmlns="http://www.w3.org/2000/svg">
<path d="M77.9324 47.8392L60.75 48.5425L60.8473 47.6279C60.8473 47.6279 62.2734 47.6502 62.4846 47.4723C62.6959 47.2943 63.6772 45.6653 63.9747 45.7654C64.2721 45.8655 78.2688 47.2054 78.2688 47.2054L77.9324 47.8392Z" fill="#F5F5F5"/>
<path d="M58.2011 47.4774C58.3477 47.2016 58.5727 46.9754 58.8477 46.8275C59.1228 46.6796 59.4355 46.6165 59.7464 46.6464C60.0573 46.6762 60.3524 46.7976 60.5943 46.9951C60.8362 47.1926 61.0141 47.4575 61.1054 47.7561C61.1968 48.0548 61.1976 48.3738 61.1076 48.6729C61.0177 48.972 60.8411 49.2377 60.6001 49.4363C60.3592 49.635 60.0647 49.7578 59.754 49.7891C59.4432 49.8205 59.1302 49.7589 58.8544 49.6123C58.6711 49.5153 58.5087 49.383 58.3766 49.2231C58.2445 49.0632 58.1453 48.8788 58.0846 48.6805C58.0239 48.4821 58.003 48.2738 58.023 48.0673C58.043 47.8609 58.1035 47.6604 58.2011 47.4774Z" fill="#F5F5F5"/>
<path d="M59.5175 49.4625L58.7947 50.8191C58.7947 50.8191 59.4452 53.0569 59.384 53.1737C59.3229 53.2904 51.4085 64.7018 51.4085 64.7018L50.6719 64.3099L58.7808 49.0706L59.5175 49.4625Z" fill="#F5F5F5"/>
<path d="M59.4456 47.083L58.5839 47.3916L57.7054 45.9572L55.2508 45.6152L49.5938 32.586L50.1303 32.2329L59.4456 47.083Z" fill="#F5F5F5"/>
<path d="M59.0677 48.1226L58.6562 79.98H61.8142L60.9052 48.7981L59.0677 48.1226Z" fill="#F5F5F5"/>
<path d="M10.4844 49.3986L30.5162 37.6675L30.9804 38.8156C30.9804 38.8156 29.268 39.694 29.129 40.0415C28.99 40.389 28.851 42.952 28.4368 43.0215C28.0226 43.091 10.4844 50.3687 10.4844 50.3687V49.3986Z" fill="#E0E0E0"/>
<path d="M34.2253 37.3226C34.2253 37.7444 34.1002 38.1568 33.8657 38.5075C33.6313 38.8581 33.2982 39.1314 32.9084 39.2927C32.5186 39.454 32.0898 39.4961 31.6761 39.4136C31.2624 39.3311 30.8825 39.1278 30.5845 38.8293C30.2864 38.5308 30.0835 38.1506 30.0016 37.7369C29.9196 37.3231 29.9622 36.8943 30.124 36.5047C30.2858 36.1152 30.5596 35.7824 30.9106 35.5484C31.2616 35.3145 31.6741 35.1899 32.0959 35.1904C32.3758 35.1904 32.6529 35.2456 32.9114 35.3528C33.1699 35.46 33.4048 35.6171 33.6026 35.8151C33.8003 36.0131 33.9571 36.2482 34.064 36.5069C34.1708 36.7655 34.2256 37.0427 34.2253 37.3226Z" fill="#E0E0E0"/>
<path d="M31.3992 35.791V33.7172C31.3992 33.7172 29.2031 31.4628 29.2031 31.2848C29.2031 31.1069 31.3992 12.4873 31.3992 12.4873H32.5112V35.791H31.3992Z" fill="#E0E0E0"/>
<path d="M33 38.5793L33.8312 37.6675L35.7882 38.8156L38.9323 37.6675L53.9353 49.6098L53.5211 50.3687L33 38.5793Z" fill="#E0E0E0"/>
<path d="M30.5169 37.6675L29.9609 80.675H34.2225L32.9966 38.5793L30.5169 37.6675Z" fill="#E0E0E0"/>
<path d="M176.375 62.1638L167.109 47.6807L167.943 47.2998C167.943 47.2998 168.644 48.5452 168.902 48.6369C169.161 48.7287 171.065 48.7565 171.126 49.0623C171.187 49.368 177.086 62.1277 177.086 62.1277L176.375 62.1638Z" fill="#E0E0E0"/>
<path d="M165.341 45.4398C165.488 45.1651 165.713 44.94 165.988 44.793C166.263 44.6461 166.575 44.5838 166.885 44.6142C167.195 44.6445 167.489 44.7661 167.73 44.9636C167.971 45.161 168.148 45.4254 168.239 45.7235C168.33 46.0215 168.33 46.3398 168.24 46.6381C168.151 46.9364 167.974 47.2013 167.734 47.3994C167.493 47.5975 167.199 47.7199 166.889 47.7511C166.579 47.7824 166.267 47.721 165.992 47.5748C165.623 47.3778 165.347 47.0423 165.225 46.6419C165.103 46.2416 165.145 45.8093 165.341 45.4398Z" fill="#E0E0E0"/>
<path d="M165.69 47.0827L164.153 47.1411C164.153 47.1411 162.549 48.8313 162.419 48.8368C162.288 48.8424 148.455 47.7583 148.455 47.7583L148.422 46.9243L165.657 46.2488L165.69 47.0827Z" fill="#E0E0E0"/>
<path d="M167.707 45.815L167.009 45.2284L167.802 43.7467L166.859 41.4533L175.263 30.0002L175.838 30.2866L167.707 45.815Z" fill="#E0E0E0"/>
<path d="M166.206 46.082L165.797 77.9394H168.955L168.046 46.7575L166.206 46.082Z" fill="#E0E0E0"/>
<path d="M204.564 84.1249C201.059 80.6167 195.972 79.2045 191.046 78.6263C186.12 78.0481 181.102 78.1537 176.265 77.0529C164.345 74.3342 155.222 64.7325 143.896 60.1179C134.375 56.2845 123.769 56.123 114.135 59.6648C106.702 62.4447 99.7463 67.4262 91.8153 67.34C85.8191 67.2733 79.8285 64.246 74.0241 65.7555C68.7423 67.1288 65.1118 71.8712 60.4777 74.7706C52.7108 79.6132 42.87 78.8793 33.727 78.5012C24.5839 78.1232 14.3957 78.6736 7.92969 85.1479L204.564 84.1249Z" fill="#EBEBEB"/>
<path d="M65.9297 27.5212H95.263C95.263 27.5212 92.6693 22.7954 85.1192 23.4904C77.9082 24.1465 77.5412 21.1664 73.8746 20.7995C70.2079 20.4325 67.1528 23.2402 65.9297 27.5212Z" fill="#F5F5F5"/>
<path d="M89.2266 38.5848H113.489C113.489 38.5848 111.343 34.693 105.1 35.2489C99.134 35.8049 98.831 33.328 95.7982 33.025C92.7653 32.722 90.2357 35.046 89.2266 38.5848Z" fill="#EBEBEB"/>
<path d="M132.164 28.005H165.728C165.728 28.005 162.762 22.6037 154.122 23.3904C145.872 24.141 145.452 20.7329 141.254 20.3131C137.057 19.8933 133.565 23.1097 132.164 28.005Z" fill="#EBEBEB"/>
<path d="M198.568 119.329C198.568 119.368 158.185 119.401 108.383 119.401C58.5819 119.401 18.1875 119.368 18.1875 119.329C18.1875 119.29 58.5625 119.257 108.383 119.257C158.204 119.257 198.568 119.287 198.568 119.329Z" fill="#263238"/>
<path d="M23.7733 110.453L147.047 110.646L147.076 92.4019L23.802 92.2083L23.7733 110.453Z" fill="#455A64"/>
<path d="M153.495 78.9623C153.495 78.9623 150.412 79.307 149.864 78.9623C148.624 78.1645 121.643 67.2868 98.4586 67.2618C79.864 67.2368 63.1208 72.1683 46.8363 83.0404C46.8363 83.0404 27.0046 85.2254 19.2599 91.0298C17.4502 92.0806 13.7557 96.2226 15.1651 105.63C16.063 111.629 20.5303 111.882 26.6321 111.745C26.6321 111.745 24.3609 93.5233 40.601 94.9161C54.4003 96.0975 51.7594 112.944 51.7594 112.944L120.903 113.052C120.903 113.052 121.206 105.569 121.501 103.756C122.088 100.126 126.599 94.1766 135.022 95.0606C144.263 96.0308 147.337 104.462 146.745 111.579C146.745 111.579 156.494 113.686 157.812 105.844L160.139 105.121C160.139 105.121 161.034 88.8531 152.911 82.0146L154.654 80.8554L153.495 78.9623Z" fill="#FF725E"/>
<path d="M148.894 78.4422C148.894 78.4422 148.319 80.01 146.337 79.8321C144.722 79.6903 135.495 76.1933 132.132 74.9034C131.651 74.7275 131.219 74.4411 130.87 74.0673C130.521 73.6936 130.265 73.2429 130.122 72.7518C130.051 72.5452 130.036 72.3239 130.077 72.1096C130.077 72.1096 144.421 75.5567 148.894 78.4422Z" fill="#455A64"/>
<path d="M69.6977 71.6289C69.695 72.2885 69.5063 72.934 69.1532 73.4911C68.8001 74.0483 68.297 74.4945 67.7017 74.7785L47.9646 84.1828L46.8359 82.968C46.8359 82.968 48.8986 81.4836 51.5951 79.8796C54.097 78.3979 57.1548 76.8217 58.9812 75.9322C62.4453 74.2421 66.0268 72.804 69.6977 71.6289Z" fill="#455A64"/>
<g opacity="0.3">
<path d="M135.226 79.835C135.359 79.949 135.466 80.0905 135.539 80.2499C135.613 80.4092 135.651 80.5825 135.651 80.7579C135.651 80.9333 135.613 81.1066 135.539 81.2659C135.466 81.4252 135.359 81.5668 135.226 81.6808C134.247 82.6788 129.585 86.1453 127.42 86.3566C125.254 86.5678 59.4907 90.9573 55.5988 89.8425C51.707 88.7278 49.4275 86.7541 50.406 85.6199L52.1712 85.0361L83.1725 85.6699L135.226 79.835Z" fill="white"/>
</g>
<g opacity="0.7">
<path d="M159.148 93.8181C159.148 93.8181 155.321 94.9523 153.686 91.9334C152.051 88.9144 150.25 85.7231 150.25 85.0337C150.25 84.1692 150.87 81.3893 152.916 81.9536C152.916 81.9536 158.606 86.4876 159.148 93.8181Z" fill="white"/>
</g>
<g opacity="0.7">
<path d="M17.5772 96.9148C17.5772 96.9148 32.3995 90.9854 30.0004 88.9644C28.7356 87.8969 16.5486 93.768 17.5772 96.9148Z" fill="white"/>
</g>
<path d="M23.6222 111.692C23.6222 111.692 23.6222 111.642 23.6222 111.545C23.6222 111.448 23.6055 111.301 23.6027 111.106C23.6027 110.722 23.586 110.158 23.6027 109.438C23.6849 107.377 24.002 105.331 24.5479 103.342C24.9259 101.964 25.4545 100.632 26.1241 99.3693C26.8876 97.9149 27.9042 96.6083 29.1263 95.5108L29.6184 95.0799L30.1493 94.688C30.5127 94.4241 30.8894 94.1792 31.278 93.9541C31.4698 93.8345 31.681 93.7456 31.884 93.6399C32.0869 93.5343 32.2898 93.4259 32.5067 93.3397L33.1544 93.084L33.4824 92.9561L33.8188 92.8532C34.2747 92.7053 34.7388 92.5837 35.2087 92.4891L35.9148 92.3417C36.1539 92.3056 36.3957 92.2806 36.6348 92.2472C36.8738 92.2139 37.1185 92.1833 37.3631 92.1583L38.097 92.1221C38.5917 92.0818 39.0883 92.0706 39.5842 92.0888C41.5329 92.0842 43.4654 92.4424 45.283 93.1451C46.9711 93.8171 48.4899 94.8536 49.7308 96.1807C50.8368 97.3928 51.7399 98.7755 52.405 100.276C52.9879 101.577 53.4377 102.934 53.7477 104.326C54.1935 106.334 54.4283 108.384 54.4482 110.442C54.4482 111.173 54.4288 111.74 54.4065 112.123C54.4065 112.312 54.3815 112.46 54.3704 112.557C54.3593 112.654 54.3482 112.704 54.3482 112.704C54.3482 112.704 54.3482 112.654 54.3482 112.557C54.3482 112.46 54.3482 112.307 54.3676 112.121C54.3843 111.737 54.3954 111.173 54.3676 110.453C54.3302 108.394 54.0815 106.345 53.6254 104.337C53.3099 102.955 52.8573 101.607 52.2744 100.314C51.6106 98.8289 50.7113 97.4602 49.6113 96.2614C48.3792 94.9493 46.8715 93.9268 45.1968 93.2674C43.395 92.5716 41.4795 92.2172 39.5481 92.2222C37.6187 92.1726 35.6936 92.4278 33.8438 92.9783L33.5074 93.0784L33.1849 93.2063L32.5428 93.4565C32.3287 93.5426 32.1314 93.6566 31.9284 93.7539C31.7255 93.8512 31.517 93.9457 31.328 94.0653C30.9448 94.2852 30.5736 94.5256 30.216 94.7852L29.6879 95.1744L29.2014 95.5998C27.9882 96.6853 26.9773 97.9776 26.2158 99.4165C25.5422 100.664 25.008 101.983 24.6229 103.347C24.0689 105.328 23.737 107.364 23.6333 109.419C23.5971 110.147 23.5916 110.711 23.5944 111.086V111.523C23.6222 111.642 23.6222 111.692 23.6222 111.692Z" fill="#263238"/>
<path d="M118.577 112.988C118.577 112.988 118.577 112.938 118.558 112.841C118.538 112.743 118.538 112.602 118.527 112.413C118.502 112.034 118.48 111.473 118.485 110.745C118.494 108.707 118.718 106.677 119.155 104.687C119.455 103.312 119.893 101.97 120.462 100.681C121.116 99.1983 122.011 97.8335 123.111 96.6423C124.336 95.3286 125.841 94.3073 127.514 93.6539C129.316 92.9667 131.229 92.6134 133.157 92.6115C135.078 92.5345 136.999 92.7587 138.851 93.2758C138.962 93.3092 139.076 93.3342 139.184 93.3704L139.509 93.4899L140.157 93.7317C140.58 93.8985 140.991 94.1154 141.386 94.3044C141.767 94.5379 142.159 94.7492 142.517 95.0021L143.043 95.3886C143.129 95.4525 143.221 95.5136 143.301 95.5831L143.543 95.7972C144.766 96.8637 145.786 98.1415 146.556 99.5695C147.22 100.813 147.737 102.129 148.097 103.492C148.621 105.461 148.901 107.487 148.93 109.524C148.944 110.244 148.93 110.806 148.9 111.192C148.9 111.381 148.878 111.526 148.867 111.623C148.855 111.72 148.844 111.768 148.844 111.768C148.839 111.719 148.839 111.669 148.844 111.62C148.844 111.517 148.844 111.376 148.867 111.189C148.867 110.811 148.892 110.253 148.867 109.535C148.815 107.505 148.523 105.487 147.996 103.525C147.63 102.173 147.11 100.868 146.448 99.6334C145.678 98.2207 144.66 96.958 143.443 95.9056L143.204 95.6943C143.121 95.6276 143.032 95.5692 142.948 95.5025L142.426 95.1217C142.073 94.8743 141.683 94.6658 141.314 94.4351C140.911 94.2488 140.516 94.0347 140.096 93.8791L139.457 93.6428L139.134 93.526C139.026 93.4871 138.912 93.4621 138.801 93.4315C136.966 92.9142 135.062 92.6872 133.157 92.7588C131.25 92.7629 129.358 93.1133 127.575 93.7929C125.917 94.4355 124.425 95.4425 123.208 96.7396C122.116 97.9183 121.224 99.2688 120.57 100.737C120.004 102.018 119.564 103.351 119.258 104.718C118.817 106.7 118.578 108.722 118.546 110.753C118.532 111.473 118.546 112.032 118.56 112.421C118.56 112.607 118.56 112.749 118.58 112.852C118.599 112.955 118.577 112.988 118.577 112.988Z" fill="#263238"/>
<path d="M134.575 79.8322C134.575 79.8322 128.826 84.836 126.335 84.836C123.844 84.836 58.1976 88.8168 55.2759 87.6354C53.7367 87.0438 52.2491 86.326 50.8281 85.4893C50.8281 85.4893 72.2499 70.061 97.2132 70.8004C115.538 71.3425 134.575 79.8322 134.575 79.8322Z" fill="#455A64"/>
<path d="M64.0851 78.1228L59.7485 87.8524L57.5469 87.8496L61.1301 79.5211L64.0851 78.1228Z" fill="#263238"/>
<g opacity="0.3">
<path d="M118.812 92.3564L111.029 92.3442L111.031 90.7903C111.031 90.6966 111.069 90.6069 111.135 90.5408C111.201 90.4747 111.291 90.4376 111.385 90.4378L118.462 90.4489C118.556 90.449 118.646 90.4864 118.712 90.5527C118.778 90.619 118.815 90.7089 118.815 90.8025L118.813 92.3425L118.812 92.3564Z" fill="black"/>
</g>
<g opacity="0.3">
<path d="M88.4816 92.3093L80.6979 92.2971L80.7004 90.757C80.7005 90.6634 80.7378 90.5737 80.8042 90.5076C80.8705 90.4415 80.9603 90.4044 81.054 90.4046L88.1343 90.4157C88.2279 90.4158 88.3177 90.4532 88.3838 90.5195C88.4499 90.5858 88.4869 90.6756 88.4868 90.7693L88.4844 92.3093L88.4816 92.3093Z" fill="black"/>
</g>
<path d="M115.408 73.4748L122.205 85.0252L115.873 85.3643L116.69 79.8074L112.531 72.8076L115.408 73.4748Z" fill="#263238"/>
<path d="M90.6373 70.9648L89.5781 86.7434L91.8882 86.6294L92.8862 70.823L90.6373 70.9648Z" fill="#263238"/>
<path d="M61.0555 90.2375L62.0423 89.2172L60.4717 87.2185L59.1207 88.5111C58.9197 88.6824 58.7947 88.9263 58.7732 89.1894C58.5842 90.432 60.1826 91.1381 61.0555 90.2375Z" fill="#263238"/>
<path d="M65.0503 89.8624C67.4493 89.943 69.3368 87.4967 68.3389 85.3117C68.2353 85.0455 68.0651 84.8104 67.8446 84.6288C67.6241 84.4473 67.3607 84.3254 67.0796 84.2748C64.5777 83.8384 61.3391 83.6772 60.4662 87.2187C60.2105 88.2668 60.7971 88.9145 61.7561 89.3064C62.6679 89.6789 63.8994 89.8207 65.0503 89.8624Z" fill="#FF725E"/>
<path d="M49.7852 108.753C50.2048 102.692 45.6318 97.4388 39.5712 97.0193C33.5105 96.5997 28.2573 101.173 27.8378 107.233C27.4182 113.294 31.9912 118.547 38.0518 118.967C44.1125 119.386 49.3657 114.813 49.7852 108.753Z" fill="#263238"/>
<path d="M38.816 100.662C37.3664 100.658 35.9483 101.084 34.741 101.887C33.5337 102.689 32.5915 103.831 32.0335 105.169C31.4755 106.507 31.3268 107.98 31.6062 109.402C31.8856 110.825 32.5806 112.132 33.6032 113.16C34.6259 114.187 35.9302 114.888 37.3513 115.174C38.7723 115.46 40.2462 115.318 41.5866 114.766C42.9269 114.214 44.0735 113.277 44.8812 112.073C45.6889 110.869 46.1215 109.453 46.1243 108.004C46.1265 107.042 45.9392 106.089 45.5731 105.199C45.207 104.31 44.6693 103.501 43.9906 102.819C43.312 102.138 42.5057 101.596 41.6178 101.226C40.73 100.856 39.7779 100.664 38.816 100.662ZM32.9365 107.984C32.9382 106.824 33.284 105.69 33.9301 104.725C34.5763 103.761 35.4939 103.011 36.5668 102.568C37.6398 102.125 38.8198 102.011 39.9579 102.239C41.0959 102.467 42.1407 103.027 42.9603 103.849C43.7798 104.671 44.3372 105.717 44.562 106.856C44.7868 107.995 44.6689 109.174 44.2233 110.246C43.7776 111.318 43.0241 112.233 42.0582 112.877C41.0922 113.52 39.9571 113.863 38.7965 113.861C37.241 113.856 35.751 113.235 34.6527 112.133C33.5543 111.032 32.9372 109.54 32.9365 107.984Z" fill="#E0E0E0"/>
<path d="M38.8175 102.113C37.6557 102.111 36.5193 102.452 35.5518 103.096C34.5843 103.739 33.8293 104.654 33.3821 105.727C32.935 106.799 32.8159 107.98 33.0399 109.119C33.2638 110.259 33.8208 111.307 34.6403 112.131C35.4598 112.954 36.5051 113.516 37.644 113.745C38.7829 113.975 39.9642 113.861 41.0386 113.419C42.1129 112.977 43.0321 112.227 43.6798 111.262C44.3275 110.298 44.6747 109.163 44.6774 108.001C44.6797 106.444 44.0639 104.949 42.9652 103.845C41.8666 102.741 40.3749 102.118 38.8175 102.113Z" fill="#F5F5F5"/>
<path d="M37.0781 108.009C37.0776 108.353 37.1788 108.688 37.3689 108.974C37.5591 109.259 37.8296 109.482 38.1464 109.614C38.4631 109.746 38.8119 109.78 39.1485 109.714C39.4851 109.648 39.7944 109.483 40.0374 109.241C40.2804 108.999 40.4461 108.69 40.5135 108.353C40.581 108.017 40.5472 107.668 40.4164 107.351C40.2857 107.034 40.0638 106.763 39.7788 106.571C39.4938 106.38 39.1586 106.278 38.8156 106.278C38.5878 106.277 38.3621 106.322 38.1515 106.409C37.9409 106.495 37.7495 106.623 37.5882 106.784C37.4268 106.945 37.2987 107.136 37.2112 107.346C37.1237 107.556 37.0785 107.782 37.0781 108.009Z" fill="#263238"/>
<path d="M141.225 116.161C145.521 111.865 145.521 104.9 141.225 100.605C136.929 96.3089 129.965 96.3089 125.669 100.605C121.373 104.9 121.373 111.865 125.669 116.161C129.965 120.457 136.929 120.457 141.225 116.161Z" fill="#263238"/>
<path d="M133.464 101.054C132.015 101.05 130.597 101.476 129.39 102.278C128.183 103.08 127.24 104.223 126.682 105.56C126.124 106.898 125.975 108.371 126.254 109.793C126.534 111.215 127.228 112.523 128.251 113.55C129.273 114.578 130.577 115.279 131.998 115.565C133.419 115.851 134.893 115.71 136.233 115.158C137.573 114.607 138.72 113.67 139.528 112.467C140.336 111.264 140.769 109.848 140.773 108.398C140.777 106.455 140.01 104.59 138.639 103.213C137.269 101.836 135.407 101.059 133.464 101.054ZM127.596 108.379C127.597 107.217 127.943 106.082 128.59 105.117C129.237 104.152 130.155 103.401 131.23 102.958C132.304 102.516 133.485 102.402 134.624 102.632C135.763 102.862 136.808 103.424 137.627 104.248C138.446 105.072 139.002 106.12 139.224 107.261C139.447 108.401 139.326 109.581 138.877 110.653C138.428 111.724 137.671 112.638 136.702 113.279C135.733 113.92 134.596 114.259 133.434 114.253C131.882 114.243 130.398 113.619 129.305 112.519C128.211 111.419 127.597 109.93 127.596 108.379Z" fill="#E0E0E0"/>
<path d="M133.461 102.508C132.299 102.505 131.162 102.846 130.194 103.489C129.227 104.132 128.471 105.047 128.024 106.119C127.576 107.192 127.457 108.372 127.68 109.513C127.904 110.653 128.461 111.701 129.28 112.525C130.099 113.348 131.145 113.91 132.284 114.14C133.423 114.37 134.604 114.256 135.679 113.814C136.753 113.372 137.672 112.622 138.32 111.657C138.968 110.693 139.315 109.558 139.318 108.396C139.321 106.839 138.706 105.344 137.608 104.24C136.509 103.136 135.018 102.513 133.461 102.508Z" fill="#F5F5F5"/>
<path d="M131.719 108.415C131.718 108.758 131.819 109.094 132.01 109.38C132.2 109.665 132.471 109.888 132.788 110.02C133.105 110.152 133.453 110.186 133.79 110.12C134.127 110.053 134.436 109.888 134.679 109.646C134.922 109.403 135.087 109.094 135.155 108.757C135.222 108.421 135.187 108.072 135.056 107.755C134.925 107.438 134.703 107.167 134.417 106.976C134.132 106.785 133.797 106.683 133.453 106.683C132.994 106.683 132.553 106.866 132.228 107.19C131.903 107.515 131.719 107.956 131.719 108.415Z" fill="#263238"/>
<path d="M138.661 87.7159C138.657 88.0541 138.552 88.3834 138.361 88.6621C138.169 88.9409 137.899 89.1565 137.585 89.2817C137.271 89.4069 136.926 89.4361 136.595 89.3656C136.265 89.2951 135.962 89.128 135.726 88.8856C135.49 88.6431 135.332 88.3361 135.271 88.0035C135.209 87.6709 135.248 87.3275 135.382 87.0169C135.516 86.7063 135.739 86.4424 136.023 86.2585C136.306 86.0747 136.638 85.9791 136.977 85.9841C137.43 85.9907 137.861 86.1767 138.177 86.5015C138.493 86.8262 138.667 87.263 138.661 87.7159Z" fill="#263238"/>
<path d="M118.533 109.11H118.369H117.882L116.014 109.146L109.148 109.258L86.4889 109.536C77.6377 109.627 69.6233 109.686 63.8245 109.694C60.9251 109.694 58.5761 109.694 56.9554 109.666C55.3347 109.638 54.4313 109.602 54.4535 109.549C54.6667 109.584 54.8826 109.598 55.0985 109.591C55.5238 109.591 56.1548 109.608 56.9638 109.611C58.5844 109.611 60.9334 109.611 63.8328 109.594L86.4944 109.388L109.153 109.149L116.022 109.085H117.89H118.377L118.533 109.11Z" fill="#263238"/>
<path d="M90.4846 112.935C90.4429 112.935 90.4846 107.098 90.5985 99.9088C90.7125 92.7201 90.8209 86.8795 90.8598 86.8823C90.8988 86.8851 90.8598 92.7201 90.7431 99.9088C90.6263 107.098 90.5235 112.935 90.4846 112.935Z" fill="#263238"/>
<path d="M105.739 75.4042C105.764 75.4347 103.971 77.0721 101.733 79.0625C99.4956 81.0529 97.6609 82.6402 97.6331 82.6096C97.6053 82.579 99.4011 80.9417 101.639 78.9541C103.877 76.9665 105.711 75.3764 105.739 75.4042Z" fill="#F5F5F5"/>
<path d="M104.856 78.5566C104.77 78.656 104.677 78.7489 104.578 78.8346C104.394 79.0098 104.125 79.2572 103.786 79.5574C103.11 80.1634 102.165 80.9807 101.097 81.8591C100.03 82.7376 99.0431 83.5104 98.3176 84.058C97.9562 84.336 97.6615 84.5473 97.4558 84.6946C97.3526 84.7771 97.2418 84.8497 97.125 84.9114C97.2151 84.8156 97.3137 84.7281 97.4197 84.6501L98.2536 83.9774C98.9597 83.4214 99.9216 82.6264 101.003 81.7535C102.084 80.8806 103.024 80.0689 103.716 79.4851L104.55 78.7985C104.643 78.7072 104.746 78.6261 104.856 78.5566Z" fill="#F5F5F5"/>
<path d="M82.2384 75.7514C82.2606 75.7848 79.6447 77.6084 76.4006 79.8267C73.1565 82.0451 70.4989 83.8159 70.4767 83.7825C70.4545 83.7492 73.0676 81.9256 76.3145 79.7072C79.5614 77.4889 82.2161 75.7181 82.2384 75.7514Z" fill="#F5F5F5"/>
<path d="M84.6728 75.6404C84.5692 75.7429 84.4566 75.8359 84.3364 75.9184L83.3913 76.6467L80.2695 79.0429L77.1755 81.4753L76.2386 82.2148C76.1279 82.3105 76.0088 82.3961 75.8828 82.4705C75.9809 82.3618 76.0878 82.2614 76.2025 82.1703C76.4138 81.9841 76.7251 81.72 77.1115 81.3947C77.8843 80.7498 78.9657 79.8714 80.1694 78.929C81.3731 77.9866 82.5017 77.1526 83.319 76.5633C83.7276 76.2686 84.0612 76.0351 84.2947 75.8767C84.4133 75.7866 84.5398 75.7075 84.6728 75.6404Z" fill="#F5F5F5"/>
<path d="M45.4323 83.6382C45.4073 83.6474 45.381 83.6531 45.3544 83.6549L45.132 83.6882L44.2703 83.805C43.5225 83.9078 42.4411 84.0607 41.1123 84.2887C37.6462 84.8832 34.2218 85.6993 30.8601 86.7322C28.892 87.3382 27.0434 87.9915 25.381 88.6392C23.8999 89.1859 22.4567 89.8304 21.0611 90.5684C20.124 91.0719 19.2552 91.6931 18.4758 92.417C18.334 92.5421 18.22 92.6644 18.12 92.7673C18.0199 92.8702 17.9337 92.9619 17.8698 93.0453L17.7169 93.2121C17.7006 93.2318 17.6829 93.2504 17.6641 93.2677C17.6641 93.2677 17.6641 93.2427 17.7058 93.2037L17.8475 93.0258C17.9087 92.948 17.9865 92.8535 18.0866 92.7478C18.1867 92.6422 18.2979 92.5143 18.4369 92.3837C19.2067 91.64 20.0724 91.0024 21.011 90.4878C22.4048 89.7343 23.8491 89.0785 25.3337 88.5252C27.0017 87.8692 28.8475 87.2075 30.8184 86.6043C34.1833 85.568 37.6152 84.7636 41.0901 84.1969C42.4244 83.9829 43.5086 83.8439 44.2592 83.7577L45.1237 83.6688L45.3489 83.6493C45.3758 83.6407 45.404 83.6369 45.4323 83.6382Z" fill="#F5F5F5"/>
<path d="M114.657 69.1604H114.543L114.206 69.1048L112.922 68.8824C111.81 68.6933 110.187 68.4376 108.177 68.1957C102.941 67.5454 97.6544 67.4113 92.3926 67.7954C86.2296 68.2791 80.7477 69.5079 76.8253 70.4697C74.8599 70.9589 73.2782 71.3843 72.1857 71.6845L70.9264 72.0264L70.5984 72.1126C70.5613 72.1249 70.5231 72.1333 70.4844 72.1376C70.52 72.1207 70.5572 72.1077 70.5956 72.0987L70.918 71.9986L72.169 71.6289C73.2587 71.312 74.8377 70.87 76.8003 70.3696C80.7254 69.3828 86.2102 68.1457 92.387 67.6509C97.6572 67.2636 102.953 67.4117 108.193 68.0929C110.206 68.3486 111.824 68.6211 112.939 68.8268C113.495 68.9269 113.926 69.0186 114.217 69.0742L114.551 69.1437C114.587 69.1456 114.622 69.1512 114.657 69.1604Z" fill="#F5F5F5"/>
<path d="M67.9948 85.0642C67.8726 85.0625 67.7508 85.0504 67.6307 85.0281C67.3999 85.0003 67.0747 84.9586 66.6494 84.9391C65.5666 84.8743 64.4807 84.9899 63.4358 85.281C62.8664 85.4474 62.3316 85.7148 61.8568 86.0705C61.473 86.3645 61.1516 86.7321 60.9117 87.1519C60.6958 87.5447 60.5562 87.9748 60.5003 88.4195C60.5003 88.4195 60.5003 88.3862 60.5003 88.325C60.4987 88.232 60.5043 88.1391 60.5169 88.047C60.5649 87.7145 60.6703 87.3928 60.8283 87.0963C61.0641 86.6554 61.3887 86.2683 61.7818 85.9593C62.2657 85.5833 62.8152 85.3005 63.4025 85.1254C64.4623 84.829 65.5668 84.7254 66.6633 84.8196C66.9947 84.8449 67.3242 84.8904 67.6501 84.9558C67.7686 84.9795 67.8841 85.0158 67.9948 85.0642Z" fill="#F5F5F5"/>
<path d="M88.3767 88.8362C88.3767 88.8779 84.3347 89.1503 79.3449 89.4478C74.355 89.7452 70.3075 89.9537 70.3047 89.9148C70.3019 89.8759 74.3439 89.6007 79.3365 89.3032C84.3292 89.0058 88.3739 88.7973 88.3767 88.8362Z" fill="#F5F5F5"/>
<path d="M42.8977 92.1943C42.8736 92.1969 42.8494 92.1969 42.8254 92.1943L42.6224 92.1498C42.4445 92.1165 42.1888 92.0358 41.8469 91.983C40.8886 91.8049 39.9165 91.7119 38.9419 91.705C37.4975 91.6784 36.055 91.822 34.6442 92.1331C32.91 92.487 31.2561 93.158 29.7655 94.1124C28.3035 95.1097 27.0434 96.3746 26.0516 97.8402C25.2389 99.0346 24.6023 100.34 24.1613 101.715C23.8633 102.643 23.6612 103.599 23.558 104.568C23.5052 104.909 23.508 105.179 23.4885 105.36L23.4719 105.566C23.4747 105.59 23.4747 105.614 23.4719 105.638C23.4677 105.614 23.4677 105.589 23.4719 105.566V105.36C23.4719 105.176 23.4719 104.907 23.5136 104.562C23.5951 103.586 23.7815 102.621 24.0695 101.685C24.5004 100.294 25.1325 98.9731 25.946 97.7652C26.9374 96.2682 28.2078 94.9762 29.6877 93.9595C31.191 92.9944 32.8618 92.3193 34.6136 91.9691C36.0362 91.6635 37.4902 91.5291 38.9447 91.5688C39.9242 91.5891 40.8996 91.7018 41.858 91.9052C42.1999 91.9663 42.4529 92.0581 42.6308 92.0998L42.8309 92.1582L42.8977 92.1943Z" fill="#F5F5F5"/>
<path d="M144.899 72.8496L141.483 80.0773L139.648 81.217C139.448 81.2864 139.28 81.4256 139.175 81.609L138.586 83.1185L140.357 83.3575L140.718 82.6014C141.067 82.7267 141.445 82.7405 141.802 82.6408C142.159 82.5412 142.475 82.3332 142.708 82.0455L147.926 73.9449L144.899 72.8496Z" fill="#FFBE9D"/>
<path d="M138.336 82.7709C138.336 82.7709 139.484 85.4396 139.826 85.3423C140.168 85.245 140.296 85.0338 140.215 84.8392C140.135 84.6446 139.484 83.2824 139.484 83.2824C139.484 83.2824 140.148 84.564 140.376 84.5945C140.604 84.6251 140.827 84.4583 140.766 84.2693C140.704 84.0803 140.21 82.9878 140.21 82.9878C140.21 82.9878 140.766 84.2109 140.957 84.1359C141.149 84.0608 141.28 84.1359 141.249 83.8579C141.219 83.5799 140.571 82.5041 140.571 82.5041L138.653 82.3984L138.336 82.7709Z" fill="#FFBE9D"/>
<path d="M148.506 119.448H148.479C147.394 119.246 144.715 118.528 143.241 116.266C142.26 114.756 142.188 112.749 142.129 111.139C141.907 104.907 141.501 89.3507 141.384 84.7306C141.359 84.2124 141.134 83.7242 140.756 83.3688C140.379 83.0134 139.877 82.8185 139.359 82.8254C138.84 82.8322 138.344 83.0402 137.976 83.4055C137.607 83.7707 137.395 84.2648 137.384 84.7834V87.6105H136.828V84.7862C136.839 84.1213 137.109 83.4868 137.579 83.0172C138.05 82.5477 138.686 82.28 139.351 82.271C140.015 82.2619 140.658 82.5123 141.141 82.9688C141.625 83.4254 141.911 84.0523 141.94 84.7167C142.057 89.3368 142.463 104.893 142.683 111.126C142.738 112.668 142.808 114.586 143.706 115.968C144.642 117.408 146.452 118.503 148.554 118.904L163.187 118.765C165.086 118.373 166.523 117.778 167.821 116.046C168.505 115.131 169 113.908 169.381 112.201C170.181 108.624 170.156 104.837 170.134 101.176C170.07 98.56 170.148 95.9422 170.367 93.3343C170.492 92.1084 170.698 90.8324 171.346 89.7844C171.96 88.7948 173.186 87.9302 174.432 88.3945L174.24 88.9171C173.333 88.5863 172.333 89.2534 171.818 90.0874C171.232 91.0326 171.04 92.239 170.921 93.401C170.703 95.9895 170.626 98.5879 170.69 101.185C170.712 104.876 170.737 108.69 169.925 112.335C169.525 114.122 169 115.409 168.257 116.388C166.851 118.273 165.305 118.909 163.254 119.326H163.201L148.506 119.448Z" fill="#263238"/>
<path d="M140.558 81.9228C140.367 82.6955 140.25 83.485 140.211 84.2801C140.211 84.383 140.211 84.5053 140.3 84.5581C140.389 84.6109 140.517 84.4608 140.595 84.3691C140.736 84.2079 141.265 83.3044 141.265 83.3044C141.631 83.2705 141.973 83.1032 142.224 82.8341C142.476 82.5651 142.62 82.2132 142.629 81.845" fill="#FFBE9D"/>
<path d="M142.624 81.845C142.634 81.8992 142.634 81.9548 142.624 82.009C142.612 82.1623 142.574 82.3125 142.513 82.4538C142.417 82.6702 142.272 82.8608 142.088 83.0097C141.847 83.2 141.558 83.3193 141.254 83.3544L141.296 83.3294C141.126 83.6074 140.945 83.9299 140.74 84.2496C140.706 84.2968 140.676 84.3441 140.637 84.3913C140.598 84.4386 140.567 84.4747 140.525 84.5192C140.483 84.5704 140.426 84.6072 140.361 84.6248C140.323 84.6285 140.284 84.6197 140.25 84.5997C140.217 84.5797 140.19 84.5496 140.175 84.5136C140.14 84.4051 140.132 84.2898 140.15 84.1773C140.15 84.0744 140.164 83.9744 140.172 83.8771C140.201 83.5321 140.248 83.1887 140.311 82.8485C140.364 82.5566 140.42 82.3231 140.464 82.1647C140.479 82.0796 140.506 81.9971 140.545 81.92C140.541 82.0055 140.528 82.0903 140.506 82.173C140.478 82.337 140.434 82.5705 140.392 82.8596C140.35 83.1487 140.306 83.499 140.278 83.8854C140.278 83.9827 140.264 84.0828 140.259 84.1828C140.245 84.2758 140.252 84.3706 140.278 84.4608C140.295 84.4942 140.325 84.5164 140.342 84.5109C140.382 84.4941 140.417 84.4685 140.445 84.4358C140.478 84.3997 140.514 84.3552 140.548 84.3135C140.581 84.2716 140.613 84.228 140.642 84.1828C140.848 83.8687 141.034 83.5546 141.198 83.271L141.212 83.246H141.24C141.523 83.2162 141.792 83.1095 142.018 82.9375C142.196 82.7989 142.341 82.6222 142.441 82.4204C142.525 82.2369 142.587 82.0436 142.624 81.845Z" fill="#EB996E"/>
<path d="M163.523 117.52L163.882 119.026C163.882 119.026 166.348 122.229 167.109 122.084C167.607 121.981 166.996 121.144 166.056 118.715L165.859 117.709L163.523 117.52Z" fill="#FF725E"/>
<path d="M167.204 121.6C167.2 121.616 167.193 121.631 167.184 121.645C167.158 121.686 167.122 121.72 167.079 121.742C167.012 121.779 166.935 121.795 166.859 121.789C166.759 121.781 166.663 121.745 166.581 121.687C166.14 121.331 165.724 120.945 165.339 120.53C164.944 120.12 164.573 119.688 164.227 119.237C164.096 119.065 163.99 118.923 163.924 118.823L163.843 118.706C163.826 118.681 163.818 118.665 163.821 118.665L163.851 118.701L163.938 118.812L164.252 119.218C164.53 119.557 164.908 120.016 165.364 120.497C165.748 120.909 166.157 121.297 166.59 121.659C166.654 121.712 166.732 121.746 166.815 121.758C166.898 121.77 166.983 121.759 167.059 121.725C167.118 121.698 167.169 121.655 167.204 121.6Z" fill="#263238"/>
<path d="M166.864 120.569C166.864 120.569 166.786 120.569 166.664 120.569C166.506 120.595 166.356 120.653 166.222 120.739C166.083 120.817 165.967 120.931 165.888 121.069C165.83 121.178 165.813 121.253 165.805 121.253C165.807 121.184 165.825 121.117 165.858 121.056C165.932 120.905 166.05 120.779 166.197 120.697C166.336 120.607 166.496 120.552 166.661 120.536C166.73 120.53 166.8 120.542 166.864 120.569Z" fill="#263238"/>
<path d="M164.532 119.813C164.532 119.813 164.557 119.704 164.576 119.535C164.601 119.308 164.557 119.078 164.451 118.876C164.349 118.671 164.184 118.505 163.981 118.401C163.892 118.359 163.799 118.327 163.703 118.303C163.729 118.299 163.755 118.299 163.781 118.303C163.851 118.315 163.92 118.337 163.984 118.367C164.201 118.466 164.378 118.637 164.484 118.851C164.593 119.062 164.633 119.302 164.598 119.538C164.588 119.607 164.571 119.676 164.548 119.743C164.546 119.767 164.541 119.791 164.532 119.813Z" fill="#263238"/>
<path d="M163.682 117.775C163.75 117.925 163.796 118.084 163.818 118.247C163.862 118.525 163.91 118.726 163.898 118.731C163.833 118.58 163.789 118.42 163.771 118.256C163.732 117.989 163.668 117.78 163.682 117.775Z" fill="#263238"/>
<path d="M166.103 118.915C166.103 118.929 165.961 118.915 165.797 118.965C165.633 119.015 165.519 119.065 165.5 119.054C165.578 118.983 165.674 118.936 165.778 118.918C165.884 118.884 165.997 118.884 166.103 118.915Z" fill="#263238"/>
<path d="M166.15 119.174C166.15 119.188 166.03 119.174 165.894 119.21C165.757 119.246 165.657 119.305 165.648 119.293C165.707 119.222 165.791 119.175 165.882 119.163C165.97 119.134 166.065 119.138 166.15 119.174Z" fill="#263238"/>
<path d="M166.357 119.496C166.264 119.487 166.171 119.487 166.078 119.496C165.994 119.523 165.913 119.558 165.836 119.602C165.861 119.561 165.894 119.526 165.934 119.499C165.974 119.473 166.02 119.455 166.067 119.448C166.116 119.434 166.167 119.431 166.217 119.439C166.267 119.447 166.315 119.467 166.357 119.496Z" fill="#263238"/>
<path d="M165.932 118.806C165.904 118.81 165.876 118.81 165.849 118.806C165.775 118.792 165.703 118.772 165.632 118.748C165.525 118.711 165.422 118.664 165.323 118.609C165.268 118.578 165.212 118.545 165.154 118.506C165.12 118.486 165.091 118.458 165.07 118.425C165.049 118.391 165.035 118.354 165.031 118.314C165.035 118.294 165.043 118.274 165.054 118.256C165.066 118.239 165.081 118.224 165.099 118.213C165.117 118.202 165.137 118.195 165.158 118.192C165.179 118.189 165.2 118.191 165.22 118.198C165.287 118.22 165.345 118.26 165.39 118.314C165.471 118.391 165.547 118.473 165.618 118.559C165.679 118.634 165.723 118.695 165.754 118.74C165.77 118.762 165.783 118.786 165.793 118.812C165.793 118.812 165.718 118.723 165.59 118.581C165.529 118.512 165.451 118.431 165.359 118.345C165.319 118.299 165.267 118.265 165.209 118.245C165.154 118.231 165.081 118.259 165.079 118.317C165.084 118.348 165.095 118.378 165.113 118.404C165.131 118.43 165.154 118.451 165.181 118.467C165.237 118.506 165.293 118.539 165.345 118.573C165.441 118.628 165.54 118.675 165.643 118.715C165.818 118.776 165.932 118.798 165.932 118.806Z" fill="#263238"/>
<path d="M165.799 118.776C165.796 118.751 165.796 118.726 165.799 118.701C165.799 118.651 165.799 118.581 165.816 118.495C165.827 118.393 165.853 118.293 165.894 118.198C165.918 118.14 165.951 118.087 165.991 118.039C166.012 118.008 166.043 117.985 166.079 117.974C166.115 117.963 166.153 117.964 166.188 117.978C166.217 118.001 166.239 118.031 166.25 118.065C166.262 118.1 166.264 118.137 166.255 118.173C166.244 118.234 166.227 118.294 166.202 118.351C166.158 118.444 166.097 118.53 166.024 118.604C165.977 118.653 165.925 118.698 165.869 118.737C165.83 118.765 165.805 118.779 165.802 118.776C165.799 118.773 165.885 118.706 165.999 118.581C166.065 118.507 166.119 118.424 166.16 118.334C166.183 118.281 166.199 118.224 166.208 118.167C166.215 118.141 166.215 118.113 166.207 118.087C166.199 118.061 166.184 118.038 166.163 118.02C166.119 117.992 166.063 118.02 166.024 118.073C165.988 118.117 165.957 118.165 165.932 118.217C165.893 118.306 165.865 118.399 165.849 118.495C165.839 118.59 165.822 118.684 165.799 118.776Z" fill="#263238"/>
<g opacity="0.4">
<path d="M163.875 119.026L163.703 118.303C163.703 118.303 164.306 118.414 164.462 118.859C164.556 119.105 164.596 119.369 164.582 119.632L165.894 121.047C165.894 121.047 166.224 120.402 166.819 120.557C166.819 120.557 167.289 121.589 167.275 121.847C167.261 122.106 166.958 122.075 166.853 122.028C166.419 121.775 166.024 121.462 165.677 121.1C164.982 120.385 164.212 119.471 163.875 119.026Z" fill="black"/>
</g>
<path d="M151.275 118.281V116.271L155.042 116.227L155.089 119.165L154.856 119.184C153.819 119.254 149.574 119.462 148.876 119.265C148.084 119.04 151.275 118.281 151.275 118.281Z" fill="#FF725E"/>
<g opacity="0.4">
<path d="M153.703 119.154C153.755 118.836 153.922 118.548 154.173 118.345C154.42 118.145 154.734 118.046 155.051 118.067L155.065 119.118L153.703 119.154Z" fill="black"/>
</g>
<g opacity="0.4">
<path d="M149.706 118.701C149.706 118.701 148.594 119.038 148.73 119.221C148.867 119.405 153.178 119.349 155.066 119.157V119.074L150.062 119.182C150.062 119.182 149.926 118.715 149.706 118.701Z" fill="black"/>
</g>
<path d="M155.118 119.079H155.054L154.867 119.093L154.183 119.131C153.605 119.159 152.807 119.187 151.923 119.198C151.039 119.209 150.255 119.198 149.663 119.198L148.98 119.179H148.793H148.727H149.002H149.686C150.264 119.179 151.076 119.179 151.946 119.179C152.816 119.179 153.614 119.143 154.203 119.123L154.89 119.098H155.14L155.118 119.079Z" fill="#263238"/>
<path d="M150.057 119.257C150.025 119.144 149.981 119.034 149.924 118.931C149.854 118.837 149.775 118.749 149.688 118.67C149.806 118.712 149.905 118.796 149.965 118.906C150.037 119.008 150.07 119.133 150.057 119.257Z" fill="#263238"/>
<path d="M151.159 118.671C151.159 118.671 151.095 118.612 151.036 118.526C150.978 118.44 150.944 118.364 150.955 118.359C150.966 118.353 151.019 118.414 151.075 118.501C151.131 118.587 151.17 118.662 151.159 118.671Z" fill="#263238"/>
<path d="M151.467 118.504C151.467 118.504 151.397 118.476 151.333 118.418C151.269 118.359 151.219 118.306 151.227 118.295C151.236 118.284 151.297 118.326 151.361 118.384C151.425 118.443 151.475 118.496 151.467 118.504Z" fill="#263238"/>
<path d="M151.651 118.145C151.588 118.168 151.522 118.177 151.456 118.173C151.347 118.173 151.258 118.173 151.258 118.153C151.258 118.134 151.344 118.128 151.453 118.125C151.561 118.122 151.651 118.145 151.651 118.145Z" fill="#263238"/>
<path d="M151.711 117.895C151.644 117.931 151.569 117.954 151.493 117.961C151.416 117.967 151.339 117.958 151.266 117.934C151.339 117.923 151.414 117.917 151.488 117.917C151.562 117.903 151.636 117.896 151.711 117.895Z" fill="#263238"/>
<path d="M151.024 118.342C150.944 118.355 150.862 118.355 150.782 118.342C150.694 118.332 150.608 118.313 150.524 118.286C150.472 118.274 150.423 118.254 150.376 118.228C150.347 118.213 150.325 118.187 150.315 118.156C150.311 118.138 150.312 118.119 150.318 118.101C150.325 118.084 150.336 118.069 150.351 118.058C150.444 118.01 150.55 117.996 150.652 118.018C150.753 118.041 150.844 118.098 150.907 118.181C150.945 118.228 150.972 118.281 150.988 118.339C150.988 118.381 150.988 118.406 150.988 118.406C150.963 118.331 150.926 118.262 150.877 118.2C150.821 118.137 150.749 118.092 150.668 118.07C150.576 118.041 150.477 118.049 150.39 118.092C150.354 118.122 150.368 118.167 150.413 118.192C150.456 118.215 150.502 118.233 150.549 118.247C150.63 118.275 150.714 118.295 150.799 118.309C150.946 118.336 151.024 118.334 151.024 118.342Z" fill="#263238"/>
<path d="M150.965 118.357C150.934 118.306 150.923 118.245 150.934 118.187C150.941 118.124 150.963 118.064 150.998 118.011C151.018 117.974 151.046 117.943 151.081 117.92C151.117 117.898 151.157 117.885 151.199 117.883C151.223 117.888 151.245 117.903 151.259 117.924C151.273 117.944 151.278 117.97 151.274 117.994C151.27 118.033 151.256 118.07 151.235 118.103C151.204 118.157 151.166 118.207 151.121 118.251C151.046 118.326 150.987 118.357 150.984 118.351C150.982 118.345 151.032 118.306 151.098 118.231C151.136 118.185 151.17 118.136 151.199 118.084C151.229 118.031 151.252 117.939 151.199 117.928C151.146 117.916 151.076 117.986 151.04 118.033C151.008 118.082 150.986 118.136 150.973 118.192C150.965 118.247 150.962 118.302 150.965 118.357Z" fill="#263238"/>
<path d="M155.038 118.05C155.038 118.05 154.93 118.05 154.76 118.05C154.538 118.078 154.329 118.166 154.154 118.306C153.984 118.45 153.855 118.637 153.782 118.848C153.729 119.009 153.723 119.126 153.715 119.126C153.71 119.101 153.71 119.076 153.715 119.051C153.721 118.981 153.733 118.913 153.751 118.845C153.819 118.627 153.949 118.434 154.126 118.289C154.306 118.144 154.525 118.055 154.755 118.034C154.824 118.028 154.894 118.028 154.963 118.034C154.989 118.034 155.014 118.04 155.038 118.05Z" fill="#263238"/>
<path d="M154.628 116.477C154.657 116.734 154.671 116.992 154.67 117.25C154.686 117.508 154.686 117.767 154.67 118.025C154.642 117.768 154.628 117.509 154.628 117.25C154.614 116.992 154.614 116.734 154.628 116.477Z" fill="#263238"/>
<path d="M153.229 118.792C153.047 118.837 152.86 118.857 152.673 118.853C152.487 118.866 152.3 118.854 152.117 118.817C152.117 118.803 152.365 118.817 152.673 118.817C152.982 118.817 153.226 118.778 153.229 118.792Z" fill="#263238"/>
<path d="M153.967 118.782C153.967 118.782 153.947 118.835 153.925 118.89C153.903 118.946 153.886 118.999 153.872 118.999C153.858 118.999 153.852 118.938 153.872 118.874C153.891 118.81 153.958 118.773 153.967 118.782Z" fill="#263238"/>
<path d="M154.243 118.423C154.243 118.423 154.227 118.473 154.191 118.512C154.154 118.551 154.113 118.579 154.104 118.567C154.096 118.556 154.104 118.52 154.157 118.481C154.21 118.442 154.235 118.423 154.243 118.423Z" fill="#263238"/>
<path d="M154.636 118.27C154.636 118.27 154.583 118.27 154.53 118.303C154.477 118.337 154.435 118.353 154.424 118.345C154.413 118.337 154.444 118.284 154.513 118.259C154.583 118.234 154.641 118.256 154.636 118.27Z" fill="#263238"/>
<path d="M154.92 118.189C154.92 118.189 154.903 118.223 154.873 118.234C154.842 118.245 154.811 118.248 154.806 118.234C154.8 118.22 154.822 118.2 154.853 118.189C154.884 118.178 154.914 118.178 154.92 118.189Z" fill="#263238"/>
<path d="M166.789 117.814L160.079 78.3562L149.727 79.9324L150.927 117.519L155.72 117.928L155.353 84.8389L162.728 117.964L166.789 117.814Z" fill="#455A64"/>
<path d="M161.132 81.3L159.759 69.6634L161.835 72.9075L165.155 70.0359L161.263 64.7903C160.554 64.0474 159.681 63.4817 158.714 63.139C158.2 62.9551 157.66 62.852 157.115 62.8333C155.859 63.2293 154.512 63.2293 153.257 62.8333C153.037 62.8583 152.701 62.8888 152.261 62.95C151.517 63.05 150.8 63.2983 150.153 63.6803C149.506 64.0623 148.942 64.5702 148.495 65.1739L144.5 72.8436L147.922 74.139L149.735 70.8866L149.398 81.6836L152.62 82.3897L155.077 80.6134L158.469 82.3897L161.132 81.3Z" fill="#263238"/>
<path d="M149.909 66.8145C149.945 66.8145 149.909 68.613 149.829 70.8258C149.748 73.0386 149.648 74.8344 149.609 74.8316C149.57 74.8288 149.609 73.0358 149.692 70.8203C149.776 68.6047 149.873 66.8145 149.909 66.8145Z" fill="#455A64"/>
<path d="M159.516 67.5229C159.655 68.2904 159.748 69.0655 159.794 69.8442C159.891 70.6179 159.944 71.3966 159.952 72.1765C159.81 71.409 159.712 70.634 159.66 69.8553C159.568 69.0812 159.519 68.3025 159.516 67.5229Z" fill="#455A64"/>
<path d="M154.125 53.0207C154.652 52.8737 155.196 52.7989 155.743 52.7983C156.017 52.7988 156.288 52.8544 156.54 52.9619C156.793 53.0693 157.02 53.2264 157.211 53.4238C157.392 53.7071 157.601 53.9724 157.833 54.2161C158.164 54.4774 158.69 54.5636 158.801 54.9694C158.912 55.3753 158.473 55.7728 158.503 56.2037C158.551 56.4462 158.662 56.6718 158.826 56.857C158.907 56.9497 158.965 57.0601 158.996 57.1793C159.027 57.2984 159.029 57.4232 159.004 57.5436C158.934 57.7298 158.748 57.8494 158.656 58.0273C158.514 58.3053 158.628 58.6305 158.584 58.9335C158.534 59.1536 158.422 59.3547 158.261 59.5133C158.101 59.6719 157.898 59.7813 157.678 59.8287C157.234 59.9148 156.778 59.9148 156.335 59.8287" fill="#263238"/>
<path d="M153.729 53.2098C153.366 53.1143 152.987 53.0963 152.617 53.157C152.433 53.1913 152.264 53.2784 152.129 53.4078C151.994 53.5372 151.9 53.7032 151.858 53.8853C151.825 54.1133 151.897 54.369 151.769 54.5608C151.641 54.7526 151.302 54.7888 151.135 54.9889C150.782 55.4115 151.463 56.1481 151.107 56.5707C151.013 56.6847 150.863 56.7403 150.757 56.8487C150.676 56.9467 150.629 57.0691 150.625 57.1965C150.621 57.3239 150.66 57.449 150.735 57.552C150.814 57.6526 150.914 57.7345 151.029 57.7917C151.143 57.8489 151.269 57.88 151.397 57.8828C151.652 57.8862 151.906 57.837 152.142 57.7382C152.971 57.4653 153.666 56.8882 154.087 56.1231C154.287 55.7401 154.373 55.3083 154.336 54.878C154.3 54.4477 154.141 54.0369 153.879 53.6935" fill="#263238"/>
<path d="M157.161 56.0757L157.261 63.3812L153.6 63.4562C153.536 63.0337 153.399 61.3908 153.399 61.3908C153.399 61.3908 151.865 61.3074 151.695 59.7979C151.612 59.064 151.565 57.5379 151.54 56.159C151.525 55.4244 151.799 54.7133 152.303 54.1781C152.806 53.6429 153.499 53.3262 154.233 53.2958C154.609 53.2805 154.985 53.3409 155.337 53.4733C155.69 53.6057 156.012 53.8075 156.285 54.0668C156.558 54.326 156.776 54.6374 156.926 54.9824C157.077 55.3275 157.156 55.6992 157.161 56.0757Z" fill="#FFBE9D"/>
<path d="M153.391 61.3765C154.089 61.3205 154.755 61.0572 155.303 60.6204C155.303 60.6204 154.947 61.7545 153.427 61.7684L153.391 61.3765Z" fill="#EB996E"/>
<path d="M152.219 57.0491C152.224 57.1058 152.251 57.1582 152.294 57.1952C152.337 57.2322 152.393 57.2507 152.45 57.2469C152.478 57.2462 152.505 57.2399 152.53 57.2286C152.556 57.2173 152.578 57.201 152.597 57.1808C152.616 57.1606 152.631 57.1368 152.641 57.1109C152.65 57.0849 152.655 57.0573 152.654 57.0296C152.648 56.9732 152.621 56.9212 152.578 56.8844C152.535 56.8475 152.479 56.8287 152.422 56.8319C152.395 56.8322 152.367 56.8382 152.342 56.8494C152.316 56.8606 152.293 56.8768 152.274 56.8971C152.255 56.9174 152.241 56.9414 152.231 56.9675C152.222 56.9936 152.218 57.0214 152.219 57.0491Z" fill="#263238"/>
<path d="M151.934 56.8985C151.964 56.9235 152.115 56.7845 152.348 56.7623C152.582 56.74 152.762 56.8401 152.785 56.8095C152.807 56.7789 152.762 56.7456 152.684 56.7011C152.577 56.6416 152.454 56.6164 152.331 56.6288C152.211 56.641 152.097 56.6906 152.006 56.7706C151.939 56.8318 151.92 56.8874 151.934 56.8985Z" fill="#263238"/>
<path d="M154.555 56.91C154.56 56.9666 154.587 57.0191 154.63 57.056C154.673 57.093 154.729 57.1116 154.786 57.1077C154.814 57.1074 154.841 57.1014 154.867 57.0902C154.892 57.079 154.915 57.0627 154.934 57.0425C154.953 57.0222 154.968 56.9982 154.977 56.9721C154.987 56.946 154.991 56.9182 154.989 56.8905C154.984 56.8341 154.957 56.782 154.913 56.7452C154.87 56.7084 154.815 56.6896 154.758 56.6927C154.73 56.6934 154.703 56.6996 154.678 56.711C154.653 56.7223 154.63 56.7386 154.611 56.7588C154.592 56.779 154.577 56.8028 154.568 56.8287C154.558 56.8547 154.554 56.8823 154.555 56.91Z" fill="#263238"/>
<path d="M154.223 56.7092C154.254 56.7342 154.404 56.598 154.637 56.5757C154.871 56.5535 155.051 56.6508 155.074 56.6202C155.096 56.5896 155.051 56.559 154.971 56.5118C154.864 56.452 154.742 56.4267 154.621 56.4395C154.499 56.4524 154.385 56.5018 154.292 56.5813C154.229 56.648 154.209 56.7092 154.223 56.7092Z" fill="#263238"/>
<path d="M153.547 58.5192C153.421 58.4919 153.292 58.4817 153.164 58.4886C153.102 58.4886 153.047 58.4886 153.033 58.4441C153.021 58.383 153.029 58.3198 153.055 58.2634C153.094 58.1133 153.139 57.9576 153.183 57.7936C153.31 57.3954 153.403 56.9871 153.461 56.5732C153.307 56.9619 153.183 57.3615 153.089 57.7686C153.047 57.9326 153.005 58.0911 152.966 58.2412C152.938 58.3165 152.938 58.3993 152.966 58.4747C152.976 58.4952 152.991 58.513 153.009 58.5266C153.028 58.5401 153.049 58.549 153.072 58.5525C153.105 58.5564 153.139 58.5564 153.172 58.5525C153.298 58.5577 153.424 58.5465 153.547 58.5192Z" fill="#263238"/>
<path d="M154.256 58.6107C154.218 58.6107 154.256 58.8637 154.045 59.0638C153.834 59.264 153.575 59.264 153.578 59.3001C153.581 59.3363 153.642 59.3446 153.756 59.3363C153.904 59.3221 154.042 59.2573 154.148 59.1528C154.248 59.052 154.306 58.9167 154.309 58.7747C154.306 58.6552 154.287 58.6079 154.256 58.6107Z" fill="#263238"/>
<path d="M154.065 55.809C154.093 55.8702 154.321 55.809 154.599 55.809C154.877 55.809 155.102 55.8674 155.132 55.809C155.163 55.7506 155.102 55.7228 155.007 55.67C154.881 55.6075 154.742 55.5742 154.602 55.5727C154.46 55.5696 154.32 55.6011 154.193 55.6645C154.096 55.7256 154.051 55.7784 154.065 55.809Z" fill="#263238"/>
<path d="M151.955 56.2177C151.999 56.2649 152.155 56.1954 152.347 56.1732C152.538 56.151 152.705 56.1732 152.739 56.1148C152.772 56.0564 152.719 56.0342 152.644 55.9925C152.542 55.9431 152.428 55.9247 152.316 55.9396C152.204 55.9544 152.099 56.0018 152.013 56.0759C151.949 56.1371 151.932 56.1927 151.955 56.2177Z" fill="#263238"/>
<path d="M156.766 57.2651C156.791 57.2651 157.775 56.8537 157.844 57.8906C157.914 58.9275 156.86 58.7829 156.857 58.7551C156.855 58.7273 156.766 57.2651 156.766 57.2651Z" fill="#FFBE9D"/>
<path d="M157.133 58.3355C157.133 58.3355 157.153 58.3355 157.183 58.3578C157.227 58.3742 157.276 58.3742 157.32 58.3578C157.384 58.3102 157.434 58.2466 157.465 58.1733C157.496 58.1001 157.507 58.0198 157.498 57.9408C157.495 57.8525 157.472 57.7659 157.431 57.6878C157.392 57.6128 157.342 57.5627 157.284 57.5572C157.262 57.5532 157.24 57.5569 157.221 57.5676C157.203 57.5783 157.188 57.5953 157.181 57.6156C157.181 57.6434 157.181 57.6656 157.181 57.6656C157.181 57.6656 157.158 57.6656 157.161 57.6072C157.167 57.5816 157.181 57.5583 157.2 57.5405C157.213 57.5284 157.228 57.5191 157.245 57.5134C157.262 57.5076 157.28 57.5055 157.297 57.5071C157.34 57.5131 157.381 57.5298 157.416 57.5555C157.451 57.5812 157.479 57.6152 157.498 57.6545C157.546 57.7396 157.573 57.8348 157.578 57.9325C157.59 58.0247 157.574 58.1184 157.533 58.2017C157.491 58.2849 157.426 58.3537 157.345 58.3995C157.317 58.4095 157.288 58.4132 157.259 58.4103C157.23 58.4074 157.203 58.398 157.178 58.3828C157.136 58.3606 157.131 58.3355 157.133 58.3355Z" fill="#EB996E"/>
<path d="M153.252 53.3737C153.372 53.2134 153.522 53.0776 153.693 52.9734C153.894 52.8576 154.119 52.791 154.35 52.7788C154.817 52.7349 155.288 52.7783 155.739 52.9067C156.19 53.0352 156.573 53.3344 156.807 53.7406C156.974 54.0631 157.021 54.4578 157.28 54.7164C157.488 54.9221 157.816 55.0194 157.936 55.289C158.147 55.7672 157.513 56.3148 157.719 56.7957C157.768 56.874 157.802 56.9607 157.819 57.0515C157.817 57.1072 157.799 57.1611 157.766 57.2062C157.733 57.2513 157.688 57.2855 157.635 57.3044C157.531 57.3413 157.421 57.3573 157.31 57.3517C156.921 57.3517 156.446 57.3044 156.282 56.9486C156.118 56.5928 156.332 56.1869 156.109 55.9062C155.887 55.6254 155.592 55.7588 155.325 55.6032C155.212 55.538 155.107 55.4586 155.014 55.3669C154.837 55.3577 154.663 55.326 154.494 55.2723C154.279 55.211 154.096 55.0698 153.983 54.8776C153.866 54.6636 153.866 54.3856 153.705 54.2132C153.543 54.0409 153.185 54.0103 153.099 53.7684C153.078 53.6949 153.082 53.6169 153.11 53.5459C153.137 53.4748 153.187 53.4144 153.252 53.3737Z" fill="#263238"/>
<path d="M144.506 72.4795L144.183 73.1105C144.142 73.1915 144.118 73.2798 144.111 73.3702C144.105 73.4607 144.116 73.5516 144.145 73.6377C144.173 73.7238 144.219 73.8033 144.278 73.8717C144.338 73.9401 144.411 73.996 144.492 74.0362L146.733 75.1315C146.89 75.2102 147.071 75.2253 147.239 75.1735C147.407 75.1217 147.548 75.007 147.633 74.8535L148.128 73.9417L144.506 72.4795Z" fill="#263238"/>
<path d="M167.38 63.6981L165.337 64.2152L165.223 63.687C165.15 63.4287 165.167 63.1534 165.27 62.9058C165.286 62.862 165.295 62.8161 165.298 62.7696C165.154 62.3627 164.98 61.9669 164.778 61.5854C164.617 61.2574 164.778 61.0294 164.884 61.1656C165.067 61.4019 165.634 62.4527 165.768 62.5333C165.901 62.6139 165.735 62.0524 165.735 62.0524C165.337 60.8571 165.229 60.6903 165.437 60.6069C165.646 60.5235 166.271 62.2887 166.271 62.2887C166.271 62.2887 166.188 62.0385 166.374 61.9523C166.56 61.8662 166.696 62.1024 166.696 62.1024C166.649 61.9773 166.833 61.9245 166.833 61.9245C167.305 61.9078 167.389 63.712 167.389 63.712L165.337 64.2152L165.559 71.3038L164.814 70.506L162.312 72.5631L164.814 74.851C165.075 75.0714 165.383 75.229 165.714 75.3114C166.045 75.3938 166.391 75.3989 166.724 75.3263C167.271 75.2126 167.755 74.8973 168.08 74.443C168.405 73.9887 168.547 73.4288 168.478 72.8745L167.38 63.6981Z" fill="#FFBE9D"/>
<path d="M165.765 64.0012C165.765 64.0012 165.846 63.8761 165.96 63.6703C166.028 63.549 166.086 63.4226 166.135 63.2923C166.163 63.22 166.188 63.1422 166.21 63.0616C166.238 62.9863 166.248 62.9051 166.238 62.8253C166.234 62.8067 166.225 62.7896 166.212 62.7762C166.198 62.7628 166.181 62.7538 166.163 62.7502C166.121 62.7498 166.081 62.7635 166.049 62.7891C165.974 62.842 165.905 62.9026 165.843 62.9698C165.744 63.0773 165.663 63.2003 165.604 63.334L165.587 63.3757L165.562 63.3423C165.506 63.2707 165.437 63.2095 165.359 63.1616C165.359 63.1616 165.476 63.1616 165.601 63.3117H165.56C165.61 63.1665 165.689 63.0325 165.79 62.917C165.854 62.8431 165.927 62.7777 166.007 62.7224C166.054 62.6836 166.113 62.6638 166.174 62.6668C166.207 62.6725 166.238 62.6879 166.263 62.7112C166.288 62.7344 166.305 62.7644 166.313 62.7975C166.327 62.8912 166.317 62.9871 166.282 63.0755C166.218 63.2927 166.124 63.5002 166.004 63.6926C165.943 63.8086 165.862 63.913 165.765 64.0012Z" fill="#EB996E"/>
<path d="M166.319 62.3887C166.355 62.5129 166.377 62.6406 166.386 62.7695C166.4 62.8974 166.417 63.0475 166.436 63.1837C166.44 63.2633 166.451 63.3424 166.47 63.42C166.489 63.4923 166.564 63.5423 166.611 63.5034C166.659 63.4645 166.672 63.37 166.681 63.2894C166.689 63.2088 166.681 63.1226 166.681 63.0447C166.681 62.8891 166.681 62.7473 166.681 62.6278C166.674 62.4995 166.682 62.3708 166.703 62.2441C166.726 62.3708 166.737 62.4991 166.736 62.6278C166.736 62.7473 166.736 62.8891 166.736 63.0475C166.736 63.1254 166.736 63.2088 166.736 63.2949C166.74 63.3456 166.732 63.3965 166.715 63.4443C166.698 63.4921 166.671 63.5359 166.636 63.5729C166.611 63.59 166.582 63.5992 166.552 63.5992C166.521 63.5992 166.492 63.59 166.467 63.5729C166.423 63.5422 166.391 63.4969 166.378 63.445C166.359 63.3628 166.348 63.2791 166.344 63.1949C166.333 63.0447 166.322 62.9058 166.311 62.7779C166.3 62.6482 166.303 62.5178 166.319 62.3887Z" fill="#EB996E"/>
<path d="M166.765 62.8501C166.779 62.8501 166.765 62.9391 166.796 63.0725C166.81 63.1463 166.845 63.2146 166.896 63.2699C166.926 63.2894 166.943 63.2866 166.962 63.2532C166.981 63.2081 166.996 63.1617 167.007 63.1142C167.059 62.8633 167.092 62.6086 167.104 62.3525C167.17 62.6097 167.164 62.8802 167.085 63.1337C167.072 63.1885 167.054 63.2417 167.029 63.2921C167.021 63.3082 167.009 63.3222 166.995 63.3333C166.98 63.3443 166.963 63.3521 166.946 63.3561C166.911 63.3587 166.878 63.3477 166.851 63.3255C166.815 63.2907 166.787 63.2479 166.771 63.2004C166.757 63.1624 166.747 63.1233 166.74 63.0836C166.721 62.9335 166.757 62.8474 166.765 62.8501Z" fill="#EB996E"/>
<path d="M165.152 69.8501L161.555 72.8496L161.61 72.9107C161.811 73.13 162.089 73.2621 162.386 73.2788C162.682 73.2954 162.974 73.1952 163.198 72.9997L165.188 71.2595C165.353 71.1149 165.458 70.9137 165.482 70.6955C165.506 70.4774 165.448 70.2581 165.319 70.0808L165.152 69.8501Z" fill="#263238"/>
<path d="M153.023 62.9254L153.271 61.8385C153.271 61.8385 154.605 61.9247 155.033 63.1589C155.226 62.7419 155.522 62.3812 155.894 62.1116C156.266 61.8419 156.701 61.6723 157.157 61.6189L157.482 63.0088L154.908 64.0846L153.023 62.9282" fill="#263238"/>
<path d="M147.923 74.0838C147.389 73.8605 146.868 73.609 146.361 73.3305C145.831 73.0982 145.314 72.8374 144.812 72.5493C145.92 72.9026 146.969 73.4198 147.923 74.0838Z" fill="#455A64"/>
<path d="M164.934 69.8082C164.851 70.0009 164.74 70.1799 164.603 70.3391C164.3 70.7404 163.96 71.1126 163.588 71.4511C163.217 71.7912 162.814 72.0956 162.385 72.3601C162.213 72.4774 162.026 72.5709 161.829 72.6381C161.804 72.5964 162.635 72.1266 163.497 71.3371C164.358 70.5476 164.898 69.7748 164.934 69.8082Z" fill="#455A64"/>
<path d="M155.038 63.1587C155.046 63.2159 155.046 63.2739 155.038 63.331C155.038 63.4589 155.038 63.609 155.055 63.8231C155.055 64.2706 155.072 64.885 155.083 65.6356C155.083 67.184 155.105 69.2911 155.122 71.6179C155.138 73.9446 155.122 76.0657 155.122 77.6002C155.122 78.3535 155.122 78.9679 155.105 79.4154C155.105 79.6156 155.105 79.7796 155.091 79.9075C155.113 79.911 155.132 79.9224 155.145 79.9394C155.158 79.9565 155.165 79.9779 155.163 79.9995C155.161 80.0211 155.152 80.0412 155.136 80.0559C155.12 80.0705 155.099 80.0787 155.077 80.0787C155.056 80.0787 155.035 80.0705 155.019 80.0559C155.003 80.0412 154.993 80.0211 154.991 79.9995C154.99 79.9779 154.996 79.9565 155.009 79.9394C155.023 79.9224 155.042 79.911 155.063 79.9075C155.063 79.7796 155.063 79.6156 155.047 79.4126C155.047 78.9679 155.03 78.3507 155.019 77.6002C155.019 76.0518 154.997 73.9474 154.983 71.6179C154.969 69.2883 154.983 67.184 154.983 65.6356C154.983 64.885 154.997 64.2706 155.002 63.8231C155.002 63.6229 155.002 63.4589 155.002 63.331C155.008 63.2725 155.02 63.2147 155.038 63.1587Z" fill="#455A64"/>
<path d="M154.773 62.7472C154.773 62.7472 154.731 62.7278 154.667 62.7472C154.603 62.7667 154.545 62.8334 154.481 62.9529C154.314 63.2464 154.219 63.5749 154.203 63.912V64.0788L154.086 63.9592C153.53 63.3755 152.999 62.9724 153.024 62.939C153.466 63.1724 153.862 63.4841 154.192 63.8592L154.067 63.9064C154.084 63.5465 154.201 63.1984 154.403 62.9001C154.475 62.7917 154.575 62.6916 154.681 62.6944C154.787 62.6972 154.781 62.7444 154.773 62.7472Z" fill="#455A64"/>
<path d="M157.184 61.6438C157.337 62.0681 157.455 62.5041 157.537 62.9476V62.9893L157.501 63.0171C157.27 63.1755 157.009 63.3423 156.728 63.5091C156.447 63.6759 156.147 63.8343 155.894 63.9594L155.796 64.0067V63.9011C155.798 63.5954 155.708 63.2963 155.538 63.0421C155.413 62.8558 155.31 62.7641 155.321 62.7641C155.332 62.7641 155.449 62.8225 155.599 63.0059C155.804 63.2631 155.918 63.5806 155.924 63.9094L155.83 63.851C156.083 63.7176 156.364 63.573 156.664 63.3923C156.964 63.2116 157.203 63.0643 157.434 62.9142L157.406 62.9837C157.297 62.5436 157.223 62.0955 157.184 61.6438Z" fill="#455A64"/>
<path d="M155.452 66.2362C155.452 66.2362 155.438 66.2919 155.452 66.3503C155.466 66.4088 155.519 66.4506 155.583 66.4088C155.647 66.3671 155.63 66.3058 155.583 66.264C155.536 66.2222 155.488 66.2362 155.48 66.2167C155.472 66.1972 155.519 66.1415 155.625 66.1721C155.657 66.1814 155.685 66.1986 155.709 66.2219C155.732 66.2453 155.749 66.2741 155.759 66.3058C155.769 66.3479 155.765 66.392 155.749 66.432C155.732 66.472 155.703 66.5058 155.667 66.5286C155.632 66.5544 155.59 66.5683 155.547 66.5683C155.504 66.5683 155.462 66.5544 155.427 66.5286C155.402 66.5079 155.382 66.4814 155.369 66.4514C155.356 66.4213 155.35 66.3886 155.352 66.3559C155.366 66.2417 155.447 66.2167 155.452 66.2362Z" fill="#455A64"/>
<path d="M155.562 70.9787C155.562 70.9787 155.548 71.0344 155.562 71.0929C155.576 71.1513 155.628 71.1931 155.693 71.1513C155.757 71.1096 155.74 71.0483 155.693 71.0065C155.645 70.9647 155.598 70.9759 155.589 70.9592C155.581 70.9425 155.628 70.8812 155.734 70.9146C155.766 70.9235 155.795 70.9404 155.819 70.9639C155.842 70.9873 155.859 71.0164 155.868 71.0483C155.878 71.0904 155.874 71.1345 155.858 71.1745C155.842 71.2145 155.813 71.2483 155.776 71.2711C155.741 71.2969 155.699 71.3108 155.656 71.3108C155.613 71.3108 155.571 71.2969 155.537 71.2711C155.511 71.2504 155.491 71.2239 155.478 71.1938C155.465 71.1638 155.459 71.1311 155.461 71.0984C155.475 70.9842 155.556 70.9592 155.562 70.9787Z" fill="#455A64"/>
<path d="M155.591 76.2351C155.605 76.2518 155.591 76.2936 155.591 76.3493C155.591 76.405 155.655 76.4523 155.722 76.4078C155.789 76.3632 155.766 76.3047 155.722 76.2657C155.677 76.2267 155.63 76.2351 155.619 76.2184C155.608 76.2017 155.658 76.1404 155.766 76.171C155.798 76.1813 155.826 76.1991 155.849 76.2229C155.872 76.2467 155.888 76.2758 155.897 76.3075C155.906 76.3494 155.902 76.3929 155.885 76.4325C155.869 76.472 155.841 76.5058 155.806 76.5294C155.77 76.5531 155.728 76.5655 155.685 76.5652C155.643 76.5649 155.601 76.5517 155.566 76.5275C155.54 76.5067 155.52 76.4797 155.507 76.4491C155.494 76.4184 155.49 76.3851 155.493 76.3521C155.505 76.2435 155.585 76.2184 155.591 76.2351Z" fill="#455A64"/>
<path d="M146.875 72.2768C146.836 72.2768 146.761 72.0739 146.705 71.807C146.65 71.5401 146.641 71.315 146.68 71.3066C146.719 71.2983 146.794 71.5096 146.847 71.7792C146.9 72.0489 146.914 72.2768 146.875 72.2768Z" fill="#F5F5F5"/>
<path d="M147.934 69.3107C147.934 69.3496 147.723 69.4303 147.445 69.4914C147.167 69.5526 146.93 69.572 146.922 69.5331C146.914 69.4942 147.133 69.4108 147.411 69.3496C147.689 69.2885 147.926 69.2718 147.934 69.3107Z" fill="#F5F5F5"/>
<path d="M148.667 71.0007C148.698 71.0285 148.606 71.1731 148.467 71.3204C148.328 71.4677 148.189 71.5706 148.161 71.5428C148.134 71.515 148.222 71.3732 148.361 71.2231C148.5 71.073 148.639 70.9729 148.667 71.0007Z" fill="#F5F5F5"/>
<path d="M148.832 67.7818C148.726 67.389 148.714 66.9766 148.796 66.5781C148.906 66.9704 148.918 67.3836 148.832 67.7818Z" fill="#F5F5F5"/>
<path d="M150.946 65.0881C150.564 65.1825 150.164 65.1825 149.781 65.0881C149.968 65.0199 150.168 64.9961 150.365 65.0186C150.561 64.995 150.761 65.0189 150.946 65.0881Z" fill="#F5F5F5"/>
<path d="M152.453 65.0188C152.452 64.8103 152.498 64.6043 152.587 64.4156C152.701 64.0959 152.82 63.8596 152.865 63.8596C152.865 64.0681 152.82 64.2742 152.731 64.4629C152.614 64.7853 152.492 65.0327 152.453 65.0188Z" fill="#F5F5F5"/>
<path d="M151.885 68.3626C151.852 68.382 151.702 68.1708 151.555 67.89C151.407 67.6092 151.315 67.3674 151.352 67.3479C151.388 67.3284 151.535 67.5425 151.682 67.8233C151.83 68.104 151.922 68.3431 151.885 68.3626Z" fill="#F5F5F5"/>
<path d="M153.915 67.201C153.876 67.201 153.868 66.998 153.915 66.7645C153.962 66.531 154.004 66.342 154.046 66.3448C154.088 66.3475 154.09 66.5477 154.046 66.784C154.001 67.0203 153.954 67.2065 153.915 67.201Z" fill="#F5F5F5"/>
<path d="M153.674 69.2188C153.674 69.2605 153.493 69.316 153.257 69.3466C153.02 69.3772 152.823 69.3689 152.82 69.3299C152.818 69.291 153.001 69.2327 153.237 69.2021C153.474 69.1715 153.668 69.1826 153.674 69.2188Z" fill="#F5F5F5"/>
<path d="M150.943 71.8213C150.902 71.8213 150.852 71.6267 150.829 71.3793C150.807 71.1318 150.829 70.9317 150.863 70.9261C150.896 70.9206 150.952 71.1207 150.974 71.3681C150.996 71.6156 150.99 71.8157 150.943 71.8213Z" fill="#F5F5F5"/>
<path d="M153.207 72.5913C153.237 72.6163 153.098 72.8387 152.896 73.0861C152.693 73.3335 152.504 73.5114 152.473 73.4864C152.442 73.4614 152.581 73.239 152.784 72.9943C152.987 72.7497 153.176 72.5551 153.207 72.5913Z" fill="#F5F5F5"/>
<path d="M151.225 75.5431C151.189 75.5598 151.072 75.3708 150.967 75.1261C150.861 74.8815 150.803 74.6647 150.839 74.648C150.875 74.6313 150.992 74.8204 151.1 75.0678C151.209 75.3152 151.273 75.5264 151.225 75.5431Z" fill="#F5F5F5"/>
<path d="M153.783 75.8572C153.822 75.8572 153.811 76.0962 153.755 76.3742C153.7 76.6522 153.624 76.8746 153.586 76.8663C153.547 76.8579 153.558 76.6272 153.613 76.3464C153.669 76.0657 153.744 75.8488 153.783 75.8572Z" fill="#F5F5F5"/>
<path d="M151.37 79.5629C151.339 79.5879 151.162 79.4295 150.972 79.2099C150.783 78.9903 150.656 78.7901 150.694 78.7651C150.733 78.7401 150.903 78.8957 151.092 79.1154C151.281 79.335 151.401 79.5351 151.37 79.5629Z" fill="#F5F5F5"/>
<path d="M151.502 80.9749C151.502 81.0139 151.287 81.0806 151.009 81.1251C150.731 81.1695 150.501 81.1723 150.492 81.1251C150.484 81.0778 150.709 81.0166 150.987 80.9722C151.265 80.9277 151.502 80.9332 151.502 80.9749Z" fill="#F5F5F5"/>
<path d="M154.371 79.0763C154.399 79.1041 154.196 79.3376 153.918 79.5962C153.64 79.8547 153.393 80.0437 153.362 80.0131C153.332 79.9826 153.538 79.7518 153.816 79.4905C154.093 79.2292 154.344 79.0457 154.371 79.0763Z" fill="#F5F5F5"/>
<path d="M152.036 77.0219C152.078 77.0219 152.091 77.1609 152.066 77.3221C152.041 77.4834 151.994 77.6001 151.955 77.6001C151.916 77.6001 151.902 77.4611 151.925 77.2999C151.947 77.1387 151.997 77.0164 152.036 77.0219Z" fill="#F5F5F5"/>
<path d="M154.331 70.9648C154.331 71.0038 154.136 70.9843 153.922 70.9176C153.708 70.8509 153.544 70.7702 153.555 70.7341C153.566 70.698 153.75 70.7146 153.964 70.7786C154.178 70.8425 154.342 70.9287 154.331 70.9648Z" fill="#F5F5F5"/>
<path d="M156.274 69.4969C156.235 69.3003 156.244 69.0974 156.299 68.9048C156.351 68.5823 156.426 68.3266 156.468 68.3321C156.506 68.5298 156.497 68.7338 156.44 68.927C156.388 69.2411 156.312 69.4969 156.274 69.4969Z" fill="#F5F5F5"/>
<path d="M158.617 70.8369C158.586 70.8647 158.406 70.6951 158.208 70.4616C158.011 70.2281 157.88 70.0168 157.911 69.989C157.941 69.9612 158.125 70.1336 158.319 70.3671C158.514 70.6006 158.65 70.8119 158.617 70.8369Z" fill="#F5F5F5"/>
<path d="M157.175 71.9738C157.173 72.1685 157.123 72.3596 157.028 72.5297C156.911 72.8077 156.786 73.0412 156.75 73.0273C156.752 72.8326 156.803 72.6415 156.897 72.4714C157.011 72.1823 157.139 71.9599 157.175 71.9738Z" fill="#F5F5F5"/>
<path d="M157.356 75.1237C157.328 75.1515 157.123 74.9874 156.9 74.7595C156.678 74.5315 156.522 74.3258 156.55 74.298C156.578 74.2702 156.784 74.4315 157.006 74.6594C157.228 74.8874 157.384 75.0959 157.356 75.1237Z" fill="#F5F5F5"/>
<path d="M159.145 75.2738C159.106 75.2738 159.125 75.0236 159.192 74.7345C159.259 74.4454 159.339 74.2175 159.378 74.2258C159.417 74.2341 159.398 74.476 159.334 74.7651C159.27 75.0542 159.184 75.2822 159.145 75.2738Z" fill="#F5F5F5"/>
<path d="M157.45 78.0673C157.419 78.0923 157.247 77.9366 157.033 77.7504C156.819 77.5641 156.644 77.4084 156.666 77.3751C156.688 77.3417 156.908 77.4446 157.13 77.6531C157.353 77.8616 157.48 78.0422 157.45 78.0673Z" fill="#F5F5F5"/>
<path d="M157.56 79.7823C157.585 79.8101 157.415 79.9964 157.151 80.1521C156.887 80.3077 156.64 80.3606 156.626 80.3244C156.612 80.2883 156.826 80.1743 157.076 80.027C157.326 79.8796 157.532 79.7462 157.56 79.7823Z" fill="#F5F5F5"/>
<path d="M159.844 80.127C159.886 80.127 159.925 80.341 159.936 80.6107C159.947 80.8803 159.936 81.0971 159.883 81.0971C159.83 81.0971 159.803 80.8831 159.791 80.6162C159.78 80.3493 159.811 80.1297 159.844 80.127Z" fill="#F5F5F5"/>
<path d="M159.006 78.0705C158.941 77.8164 158.922 77.5528 158.95 77.2921C158.932 77.0312 158.962 76.7692 159.039 76.5193C159.104 76.7724 159.123 77.0351 159.095 77.2949C159.115 77.5567 159.084 77.8199 159.006 78.0705Z" fill="#F5F5F5"/>
<path d="M159.497 72.2069C159.514 72.243 159.367 72.3514 159.153 72.3959C158.939 72.4404 158.758 72.3959 158.758 72.3626C158.758 72.3292 158.925 72.2959 159.122 72.2542C159.319 72.2125 159.478 72.1708 159.497 72.2069Z" fill="#F5F5F5"/>
<path d="M158.703 66.2695C158.744 66.6911 158.687 67.1165 158.536 67.5121C158.488 67.3045 158.488 67.0887 158.536 66.8811C158.542 66.667 158.6 66.4574 158.703 66.2695Z" fill="#F5F5F5"/>
<path d="M156.907 65.5662C156.946 65.5662 157.04 65.7441 157.118 65.9915C157.196 66.2389 157.227 66.4446 157.188 66.4585C157.149 66.4724 157.057 66.2806 156.979 66.0332C156.901 65.7858 156.868 65.5801 156.907 65.5662Z" fill="#F5F5F5"/>
<path d="M157.709 64.048C157.726 64.0814 157.506 64.2232 157.2 64.326C157.019 64.404 156.818 64.4225 156.625 64.3788C156.625 64.3371 156.864 64.2732 157.159 64.187C157.453 64.1008 157.692 64.0091 157.709 64.048Z" fill="#F5F5F5"/>
<path d="M159.029 64.7548C158.993 64.7409 159.029 64.5212 159.138 64.2627C159.246 64.0042 159.341 63.8068 159.379 63.8235C159.418 63.8402 159.379 64.057 159.271 64.3128C159.163 64.5685 159.068 64.7714 159.029 64.7548Z" fill="#F5F5F5"/>
<path d="M161.715 66.3004C161.693 66.3337 161.462 66.1947 161.203 65.9918C160.945 65.7889 160.758 65.5971 160.784 65.5665C160.809 65.5359 161.036 65.6749 161.295 65.8778C161.554 66.0807 161.74 66.2698 161.715 66.3004Z" fill="#F5F5F5"/>
<path d="M160.778 67.976C160.699 67.7796 160.668 67.5671 160.687 67.3561C160.656 67.1472 160.674 66.934 160.739 66.7334C160.849 67.139 160.862 67.5644 160.778 67.976Z" fill="#F5F5F5"/>
<path d="M161.71 70.0086C161.71 70.0476 161.496 70.0615 161.24 70.0392C160.984 70.017 160.776 69.9642 160.781 69.9252C160.787 69.8863 160.995 69.8696 161.251 69.8947C161.507 69.9197 161.715 69.9669 161.71 70.0086Z" fill="#F5F5F5"/>
<path d="M162.945 69.8416C162.816 69.6576 162.729 69.447 162.692 69.2252C162.655 69.0034 162.669 68.7761 162.731 68.5601C162.788 68.77 162.824 68.9851 162.837 69.2022C162.895 69.411 162.931 69.6253 162.945 69.8416Z" fill="#F5F5F5"/>
<path d="M162.713 71.615C162.713 71.654 162.546 71.7207 162.321 71.7652C162.096 71.8096 161.907 71.8124 161.899 71.7652C161.89 71.7179 162.068 71.6595 162.293 71.615C162.519 71.5706 162.708 71.5761 162.713 71.615Z" fill="#F5F5F5"/>
<path d="M156.155 63.0064C156.127 63.0371 156.016 62.9758 155.944 62.8449C155.871 62.714 155.882 62.5859 155.921 62.5803C155.96 62.5747 156.01 62.6667 156.072 62.7753C156.133 62.8839 156.183 62.9786 156.155 63.0064Z" fill="#F5F5F5"/>
<path d="M156.935 62.7723C156.899 62.7918 156.81 62.6834 156.735 62.5333C156.66 62.3832 156.627 62.2553 156.663 62.2303C156.699 62.2052 156.788 62.3192 156.863 62.4693C156.938 62.6194 156.972 62.7557 156.935 62.7723Z" fill="#F5F5F5"/>
<path d="M153.908 62.6195C153.908 62.6585 153.78 62.6807 153.63 62.6724C153.479 62.664 153.352 62.6195 153.352 62.5806C153.352 62.5417 153.479 62.5167 153.63 62.5278C153.78 62.5389 153.91 62.5778 153.908 62.6195Z" fill="#F5F5F5"/>
<path d="M158.825 57.7545C158.825 57.7545 158.794 57.7545 158.744 57.7545C158.668 57.7295 158.595 57.6949 158.527 57.6517C158.4 57.5727 158.291 57.4677 158.208 57.3436C158.125 57.2195 158.069 57.0791 158.044 56.9317C158.024 56.7381 157.992 56.5459 157.949 56.3563C157.92 56.2619 157.86 56.1799 157.779 56.1227C157.686 56.0656 157.583 56.0243 157.476 56.0004C157.349 55.9732 157.227 55.9283 157.112 55.867C156.992 55.7875 156.901 55.6701 156.854 55.5334C156.754 55.2777 156.748 54.9774 156.595 54.7967C156.259 54.4076 155.558 54.7967 155.158 54.3325C155.038 54.1301 154.955 53.908 154.913 53.6765C154.84 53.454 154.683 53.269 154.475 53.1605C154.268 53.052 154.026 53.0287 153.801 53.0955C153.707 53.1302 153.614 53.1701 153.523 53.215C153.523 53.215 153.523 53.19 153.582 53.1566C153.646 53.1086 153.718 53.0702 153.793 53.0426C153.934 52.9908 154.086 52.9733 154.235 52.9917C154.385 53.0101 154.528 53.0637 154.652 53.1483C154.828 53.2666 154.961 53.4381 155.033 53.6375C155.077 53.852 155.155 54.0577 155.266 54.2463C155.354 54.3228 155.457 54.3801 155.568 54.4146C155.679 54.4491 155.796 54.4599 155.911 54.4465C156.048 54.448 156.185 54.46 156.32 54.4826C156.472 54.5105 156.61 54.5889 156.712 54.705C156.907 54.9608 156.898 55.261 156.99 55.4834C157.025 55.5959 157.096 55.6936 157.193 55.7614C157.295 55.817 157.405 55.8582 157.518 55.8837C157.64 55.9121 157.756 55.962 157.86 56.031C157.96 56.105 158.033 56.2094 158.069 56.3285C158.111 56.5252 158.138 56.7251 158.149 56.9261C158.169 57.0631 158.216 57.1949 158.287 57.3137C158.358 57.4325 158.452 57.536 158.563 57.6183C158.73 57.7128 158.83 57.7434 158.825 57.7545Z" fill="#455A64"/>
<path d="M153.232 117.519C153.229 117.49 153.229 117.46 153.232 117.43C153.232 117.361 153.232 117.275 153.232 117.152C153.232 116.911 153.21 116.569 153.193 116.132C153.163 115.234 153.121 113.953 153.068 112.374C152.957 109.194 152.807 104.818 152.64 99.9812C152.473 95.1442 152.381 90.7575 152.362 87.5829C152.362 85.9956 152.362 84.7113 152.362 83.8245C152.362 83.3881 152.362 83.0434 152.362 82.8015C152.362 82.6903 152.362 82.6041 152.362 82.5235C152.358 82.494 152.358 82.4641 152.362 82.4346C152.366 82.4641 152.366 82.494 152.362 82.5235V82.8015C152.362 83.0434 152.362 83.3881 152.362 83.8245C152.376 84.7196 152.39 86.0011 152.412 87.5801C152.459 90.7547 152.576 95.1358 152.735 99.9784C152.893 104.821 153.04 109.199 153.121 112.371C153.16 113.958 153.188 115.243 153.199 116.129C153.199 116.566 153.199 116.908 153.199 117.152V117.417C153.213 117.45 153.224 117.484 153.232 117.519Z" fill="#263238"/>
<path d="M164.917 117.883C164.878 117.883 163.402 109.95 161.62 100.151C159.838 90.3515 158.426 82.3955 158.454 82.3899C158.481 82.3843 159.969 90.3209 161.75 100.126C163.532 109.93 164.956 117.867 164.917 117.883Z" fill="#263238"/>
<path d="M155.548 84.6865C155.548 84.6865 155.495 84.7226 155.381 84.7115C155.223 84.6844 155.082 84.5991 154.984 84.4724C154.852 84.2848 154.766 84.0685 154.734 83.8414C154.681 83.5968 154.631 83.3271 154.589 83.0408C154.514 82.5547 154.47 82.0645 154.456 81.573C154.437 81.369 154.444 81.1635 154.478 80.9614C154.522 80.9614 154.561 81.8899 154.731 83.0213C154.775 83.2993 154.82 83.5773 154.864 83.8136C154.887 84.0249 154.956 84.2287 155.064 84.4113C155.143 84.5273 155.259 84.6134 155.392 84.6559C155.49 84.6837 155.548 84.6726 155.548 84.6865Z" fill="#263238"/>
<path d="M155.008 81.1729C155.025 81.1896 155.008 81.2369 155.025 81.301C155.029 81.3182 155.037 81.3342 155.049 81.3475C155.06 81.3609 155.075 81.3712 155.091 81.3777C155.108 81.3841 155.126 81.3864 155.143 81.3844C155.161 81.3824 155.177 81.3761 155.192 81.3662C155.207 81.3562 155.219 81.3428 155.227 81.3272C155.235 81.3116 155.239 81.2942 155.239 81.2765C155.239 81.2588 155.235 81.2414 155.227 81.2258C155.219 81.2101 155.207 81.1968 155.192 81.1868C155.142 81.1422 155.089 81.145 155.083 81.1255C155.078 81.106 155.136 81.0531 155.245 81.1005C155.277 81.1141 155.305 81.1351 155.327 81.1617C155.35 81.1883 155.365 81.2198 155.373 81.2536C155.381 81.298 155.375 81.3437 155.356 81.3848C155.338 81.4259 155.308 81.4607 155.27 81.4848C155.233 81.5106 155.189 81.5244 155.143 81.5244C155.098 81.5244 155.054 81.5106 155.017 81.4848C154.989 81.4646 154.965 81.4383 154.949 81.408C154.933 81.3776 154.923 81.3438 154.922 81.3093C154.922 81.1952 155 81.1729 155.008 81.1729Z" fill="#263238"/>
<path d="M198.201 119.059L181.633 119.24V77.5669H198.201V119.059Z" fill="#FF725E"/>
<g opacity="0.3">
<path d="M198.201 119.06L181.633 119.241V77.5674H198.201V119.06Z" fill="black"/>
</g>
<path d="M190.74 119.14L174.172 119.24V77.5669H190.74V119.14Z" fill="#FF725E"/>
<path d="M173.781 74.0534V74.5482H191.367L198.48 64.2654L198.305 63.5732L173.781 74.0534Z" fill="#263238"/>
<path d="M179.716 74.4285H179.148V77.567H179.716V74.4285Z" fill="#263238"/>
<path d="M192.617 72.1574V77.5671H193.304V71.5764L192.617 72.1574Z" fill="#263238"/>
<path d="M180.978 63.5732L173.781 74.0534H191.108L198.305 63.5732H180.978Z" fill="#455A64"/>
<path d="M179.696 74.0533C179.662 74.031 181.286 71.6653 183.31 68.7715C185.333 65.8776 187.018 63.5509 187.049 63.5759C187.079 63.6009 185.461 65.961 183.435 68.8577C181.408 71.7543 179.729 74.0755 179.696 74.0533Z" fill="#EBEBEB"/>
<path d="M185.493 74.0533C185.462 74.031 187.083 71.6653 189.106 68.7715C191.13 65.8776 192.815 63.5509 192.848 63.5759C192.882 63.6009 191.258 65.961 189.234 68.8577C187.211 71.7543 185.526 74.0755 185.493 74.0533Z" fill="#EBEBEB"/>
<path d="M177.562 68.8135C177.562 68.7746 181.41 68.7412 186.155 68.7412C190.9 68.7412 194.75 68.7746 194.75 68.8135C194.75 68.8524 190.903 68.8858 186.155 68.8858C181.407 68.8858 177.562 68.8552 177.562 68.8135Z" fill="#EBEBEB"/>
<path d="M187.379 82.0151H177.883V92.7232H187.379V82.0151Z" fill="#EBEBEB"/>
<path d="M180.247 95.7474C180.247 96.0047 180.145 96.2515 179.963 96.4334C179.781 96.6153 179.534 96.7176 179.277 96.7176C179.035 96.7176 178.418 96.6925 178.418 96.6925C178.266 96.5721 178.141 96.4204 178.053 96.2477C177.965 96.0751 177.915 95.8855 177.906 95.6918C177.91 95.5008 177.968 95.3148 178.073 95.155C178.177 94.9952 178.325 94.8681 178.498 94.7883C178.498 94.7883 179.077 94.7883 179.277 94.7883C179.532 94.7883 179.777 94.889 179.959 95.0685C180.14 95.2481 180.244 95.492 180.247 95.7474Z" fill="#263238"/>
<path d="M178.619 96.7179C179.154 96.7179 179.589 96.2836 179.589 95.7478C179.589 95.2119 179.154 94.7776 178.619 94.7776C178.083 94.7776 177.648 95.2119 177.648 95.7478C177.648 96.2836 178.083 96.7179 178.619 96.7179Z" fill="#455A64"/>
<path d="M183.786 95.7474C183.786 96.0047 183.684 96.2515 183.502 96.4334C183.32 96.6153 183.073 96.7176 182.816 96.7176C182.574 96.7176 181.957 96.6925 181.957 96.6925C181.805 96.5721 181.681 96.4204 181.592 96.2477C181.504 96.0751 181.454 95.8855 181.445 95.6918C181.449 95.5008 181.507 95.3148 181.612 95.155C181.716 94.9952 181.864 94.8681 182.037 94.7883C182.037 94.7883 182.616 94.7883 182.816 94.7883C183.071 94.7883 183.316 94.889 183.498 95.0685C183.68 95.2481 183.783 95.492 183.786 95.7474Z" fill="#263238"/>
<path d="M182.158 96.7179C182.694 96.7179 183.128 96.2836 183.128 95.7478C183.128 95.2119 182.694 94.7776 182.158 94.7776C181.622 94.7776 181.188 95.2119 181.188 95.7478C181.188 96.2836 181.622 96.7179 182.158 96.7179Z" fill="#455A64"/>
<path d="M187.278 95.7472C187.278 96.0045 187.176 96.2513 186.994 96.4332C186.812 96.6152 186.565 96.7174 186.308 96.7174C186.066 96.7174 185.449 96.6924 185.449 96.6924C185.297 96.5719 185.173 96.4202 185.084 96.2476C184.996 96.0749 184.946 95.8853 184.938 95.6916C184.942 95.5016 185.001 95.3167 185.105 95.158C185.21 94.9993 185.357 94.8731 185.53 94.7937C185.53 94.7937 186.108 94.7937 186.308 94.7937C186.562 94.7937 186.807 94.8936 186.988 95.0719C187.17 95.2503 187.274 95.4928 187.278 95.7472Z" fill="#263238"/>
<path d="M186.628 95.7478C186.628 95.9396 186.571 96.1272 186.464 96.2868C186.358 96.4463 186.206 96.5707 186.029 96.6441C185.852 96.7175 185.657 96.7367 185.468 96.6993C185.28 96.6619 185.107 96.5695 184.972 96.4338C184.836 96.2981 184.744 96.1252 184.706 95.937C184.669 95.7488 184.688 95.5538 184.761 95.3765C184.835 95.1992 184.959 95.0477 185.119 94.9411C185.278 94.8345 185.466 94.7776 185.658 94.7776C185.785 94.7776 185.911 94.8027 186.029 94.8514C186.147 94.9002 186.254 94.9717 186.344 95.0617C186.434 95.1518 186.505 95.2588 186.554 95.3765C186.603 95.4942 186.628 95.6204 186.628 95.7478Z" fill="#455A64"/>
<path d="M182.855 84.272L180.695 84.3026L182.688 87.3688L181.179 87.3882L183.294 91.6025L182.566 88.4696L184.557 88.4446L182.855 84.272Z" fill="#FF725E"/>
<path d="M188.27 117.08C188.27 117.08 188.27 117.053 188.27 116.997C188.27 116.941 188.27 116.861 188.27 116.758C188.27 116.541 188.27 116.232 188.27 115.835C188.27 115.023 188.27 113.853 188.25 112.371C188.25 109.408 188.231 105.219 188.217 100.279L188.284 100.345H177.006C176.989 100.362 177.142 100.212 177.078 100.279V104.916C177.078 106.425 177.078 107.893 177.078 109.308C177.078 112.138 177.078 114.756 177.078 117.072L177.02 117.016L185.22 117.047L187.491 117.061H188.089H188.298C188.298 117.061 188.234 117.061 188.103 117.061H187.514H185.256L177.02 117.091H176.961V117.033C176.961 114.717 176.961 112.099 176.961 109.269C176.961 107.854 176.961 106.386 176.961 104.877V100.287C176.897 100.348 177.047 100.193 177.034 100.209H188.311H188.378V100.273C188.378 105.23 188.353 109.447 188.345 112.41C188.345 113.883 188.345 115.051 188.328 115.857C188.328 116.249 188.328 116.555 188.328 116.769C188.328 116.866 188.328 116.941 188.328 117C188.313 117.029 188.293 117.057 188.27 117.08Z" fill="#263238"/>
<path d="M186.707 108.621C186.723 108.638 186.643 108.721 186.673 108.877C186.68 108.919 186.695 108.959 186.718 108.994C186.741 109.03 186.771 109.06 186.807 109.082C186.851 109.101 186.899 109.108 186.947 109.103C186.994 109.098 187.04 109.081 187.078 109.053C187.117 109.025 187.148 108.987 187.168 108.944C187.188 108.9 187.197 108.852 187.193 108.805C187.182 108.763 187.163 108.725 187.136 108.692C187.109 108.659 187.075 108.632 187.037 108.613C186.899 108.538 186.793 108.588 186.785 108.568C186.776 108.549 186.882 108.451 187.079 108.518C187.136 108.539 187.188 108.572 187.23 108.616C187.272 108.66 187.303 108.713 187.321 108.771C187.34 108.846 187.336 108.925 187.308 108.998C187.28 109.07 187.23 109.132 187.165 109.174C187.105 109.222 187.031 109.25 186.954 109.254C186.877 109.259 186.8 109.24 186.734 109.199C186.685 109.164 186.645 109.117 186.617 109.064C186.588 109.01 186.573 108.951 186.57 108.891C186.565 108.693 186.701 108.604 186.707 108.621Z" fill="#263238"/>
</svg>
