<svg width="62" height="62" viewBox="0 0 62 62" fill="none" xmlns="http://www.w3.org/2000/svg">
<g id="Group 1000002805">
<g id="Ellipse 599" filter="url(#filter0_d_2049_23539)">
<circle cx="31.1711" cy="26.9758" r="26.9758" fill="url(#paint0_linear_2049_23539)"/>
</g>
<path id="Vector" d="M17 37.1538V29.2784H23.75V30.7621H25.25V29.2784H35.75V30.7621H37.25V29.2784H44V37.1538H17ZM17.2625 27.7948L21.0185 19.3497H24.788V17.6375C24.788 17.2399 24.938 16.8937 25.238 16.5989C25.537 16.3022 25.887 16.1538 26.288 16.1538H34.712C35.114 16.1538 35.464 16.3022 35.762 16.5989C36.062 16.8937 36.212 17.2399 36.212 17.6375V19.3497H39.9815L43.7375 27.7948H37.25V26.3111H35.75V27.7948H25.25V26.3111H23.75V27.7948H17.2625ZM26.288 19.3497H34.712V17.6375H26.288V19.3497Z" fill="white"/>
</g>
<defs>
<filter id="filter0_d_2049_23539" x="0.537577" y="0" width="61.2686" height="61.2671" filterUnits="userSpaceOnUse" color-interpolation-filters="sRGB">
<feFlood flood-opacity="0" result="BackgroundImageFix"/>
<feColorMatrix in="SourceAlpha" type="matrix" values="0 0 0 0 0 0 0 0 0 0 0 0 0 0 0 0 0 0 127 0" result="hardAlpha"/>
<feOffset dy="3.65774"/>
<feGaussianBlur stdDeviation="1.82887"/>
<feComposite in2="hardAlpha" operator="out"/>
<feColorMatrix type="matrix" values="0 0 0 0 0 0 0 0 0 0 0 0 0 0 0 0 0 0 0.25 0"/>
<feBlend mode="normal" in2="BackgroundImageFix" result="effect1_dropShadow_2049_23539"/>
<feBlend mode="normal" in="SourceGraphic" in2="effect1_dropShadow_2049_23539" result="shape"/>
</filter>
<linearGradient id="paint0_linear_2049_23539" x1="8.38121" y1="3.14718" x2="47.9433" y2="60.1681" gradientUnits="userSpaceOnUse">
<stop stop-color="#042349"/>
<stop offset="1" stop-color="#04658A"/>
</linearGradient>
</defs>
</svg>
