<svg width="396" height="174" viewBox="0 0 396 174" fill="none" xmlns="http://www.w3.org/2000/svg">
<g filter="url(#filter0_dd_2160_34079)">
<rect x="4.47656" y="2.28125" width="387.526" height="165.675" rx="11.9665" fill="white"/>
</g>
<rect x="53.75" y="113.684" width="309.45" height="0.952154" fill="#464E5F" fill-opacity="0.04"/>
<rect x="53.75" y="92.7363" width="309.45" height="0.952154" fill="#464E5F" fill-opacity="0.04"/>
<rect x="53.75" y="71.7871" width="309.45" height="0.952154" fill="#464E5F" fill-opacity="0.04"/>
<rect x="53.75" y="52.7441" width="309.45" height="0.952154" fill="#464E5F" fill-opacity="0.04"/>
<path opacity="0.7" d="M33.1843 141.649C33.1843 140.951 33.298 140.407 33.5254 140.017C33.7528 139.623 34.1507 139.426 34.7191 139.426C35.2835 139.426 35.6794 139.623 35.9068 140.017C36.1342 140.407 36.2479 140.951 36.2479 141.649C36.2479 142.36 36.1342 142.912 35.9068 143.306C35.6794 143.7 35.2835 143.896 34.7191 143.896C34.1507 143.896 33.7528 143.7 33.5254 143.306C33.298 142.912 33.1843 142.36 33.1843 141.649ZM35.6997 141.649C35.6997 141.296 35.6754 140.997 35.6266 140.754C35.582 140.506 35.4866 140.307 35.3404 140.157C35.1983 140.007 34.9912 139.932 34.7191 139.932C34.443 139.932 34.2319 140.007 34.0857 140.157C33.9436 140.307 33.8482 140.506 33.7995 140.754C33.7548 140.997 33.7325 141.296 33.7325 141.649C33.7325 142.014 33.7548 142.321 33.7995 142.569C33.8482 142.816 33.9436 143.015 34.0857 143.166C34.2319 143.316 34.443 143.391 34.7191 143.391C34.9912 143.391 35.1983 143.316 35.3404 143.166C35.4866 143.015 35.582 142.816 35.6266 142.569C35.6754 142.321 35.6997 142.014 35.6997 141.649Z" fill="#898A8D"/>
<path opacity="0.7" d="M27.2587 120.375V119.87H28.4037V124.273H27.8433V120.375H27.2587ZM29.3557 122.026C29.3557 121.328 29.4694 120.784 29.6968 120.394C29.9242 120 30.3221 119.803 30.8905 119.803C31.4549 119.803 31.8508 120 32.0782 120.394C32.3056 120.784 32.4193 121.328 32.4193 122.026C32.4193 122.737 32.3056 123.289 32.0782 123.683C31.8508 124.077 31.4549 124.273 30.8905 124.273C30.3221 124.273 29.9242 124.077 29.6968 123.683C29.4694 123.289 29.3557 122.737 29.3557 122.026ZM31.8711 122.026C31.8711 121.673 31.8468 121.374 31.798 121.131C31.7534 120.883 31.658 120.684 31.5118 120.534C31.3697 120.384 31.1626 120.308 30.8905 120.308C30.6144 120.308 30.4033 120.384 30.2571 120.534C30.115 120.684 30.0196 120.883 29.9709 121.131C29.9262 121.374 29.9039 121.673 29.9039 122.026C29.9039 122.391 29.9262 122.698 29.9709 122.946C30.0196 123.193 30.115 123.392 30.2571 123.543C30.4033 123.693 30.6144 123.768 30.8905 123.768C31.1626 123.768 31.3697 123.693 31.5118 123.543C31.658 123.392 31.7534 123.193 31.798 122.946C31.8468 122.698 31.8711 122.391 31.8711 122.026ZM33.1802 122.026C33.1802 121.328 33.2939 120.784 33.5213 120.394C33.7486 120 34.1466 119.803 34.715 119.803C35.2794 119.803 35.6753 120 35.9027 120.394C36.1301 120.784 36.2437 121.328 36.2437 122.026C36.2437 122.737 36.1301 123.289 35.9027 123.683C35.6753 124.077 35.2794 124.273 34.715 124.273C34.1466 124.273 33.7486 124.077 33.5213 123.683C33.2939 123.289 33.1802 122.737 33.1802 122.026ZM35.6956 122.026C35.6956 121.673 35.6712 121.374 35.6225 121.131C35.5778 120.883 35.4824 120.684 35.3362 120.534C35.1941 120.384 34.9871 120.308 34.715 120.308C34.4389 120.308 34.2278 120.384 34.0816 120.534C33.9395 120.684 33.8441 120.883 33.7953 121.131C33.7507 121.374 33.7283 121.673 33.7283 122.026C33.7283 122.391 33.7507 122.698 33.7953 122.946C33.8441 123.193 33.9395 123.392 34.0816 123.543C34.2278 123.693 34.4389 123.768 34.715 123.768C34.9871 123.768 35.1941 123.693 35.3362 123.543C35.4824 123.392 35.5778 123.193 35.6225 122.946C35.6712 122.698 35.6956 122.391 35.6956 122.026Z" fill="#898A8D"/>
<path opacity="0.7" d="M25.7829 103.729C26.2986 103.315 26.7026 102.976 26.9949 102.712C27.2873 102.444 27.5329 102.166 27.7319 101.878C27.9349 101.585 28.0364 101.299 28.0364 101.019C28.0364 100.755 27.9715 100.548 27.8415 100.398C27.7156 100.243 27.5106 100.166 27.2264 100.166C26.9503 100.166 26.7351 100.254 26.5808 100.428C26.4305 100.599 26.3493 100.828 26.3371 101.116H25.8012C25.8174 100.662 25.9555 100.31 26.2153 100.063C26.4752 99.815 26.8102 99.6912 27.2203 99.6912C27.6385 99.6912 27.9694 99.8069 28.213 100.038C28.4607 100.27 28.5846 100.589 28.5846 100.995C28.5846 101.332 28.4831 101.66 28.28 101.981C28.0811 102.298 27.8537 102.578 27.5979 102.822C27.3421 103.061 27.0152 103.341 26.6173 103.662H28.7125V104.125H25.7829V103.729ZM29.3532 101.926C29.3532 101.228 29.4669 100.684 29.6942 100.294C29.9216 99.9003 30.3195 99.7033 30.888 99.7033C31.4524 99.7033 31.8483 99.9003 32.0757 100.294C32.303 100.684 32.4167 101.228 32.4167 101.926C32.4167 102.637 32.303 103.189 32.0757 103.583C31.8483 103.977 31.4524 104.174 30.888 104.174C30.3195 104.174 29.9216 103.977 29.6942 103.583C29.4669 103.189 29.3532 102.637 29.3532 101.926ZM31.8686 101.926C31.8686 101.573 31.8442 101.275 31.7955 101.031C31.7508 100.783 31.6554 100.584 31.5092 100.434C31.3671 100.284 31.16 100.209 30.888 100.209C30.6119 100.209 30.4008 100.284 30.2546 100.434C30.1125 100.584 30.017 100.783 29.9683 101.031C29.9237 101.275 29.9013 101.573 29.9013 101.926C29.9013 102.292 29.9237 102.598 29.9683 102.846C30.017 103.094 30.1125 103.293 30.2546 103.443C30.4008 103.593 30.6119 103.668 30.888 103.668C31.16 103.668 31.3671 103.593 31.5092 103.443C31.6554 103.293 31.7508 103.094 31.7955 102.846C31.8442 102.598 31.8686 102.292 31.8686 101.926ZM33.1776 101.926C33.1776 101.228 33.2913 100.684 33.5187 100.294C33.7461 99.9003 34.144 99.7033 34.7125 99.7033C35.2769 99.7033 35.6727 99.9003 35.9001 100.294C36.1275 100.684 36.2412 101.228 36.2412 101.926C36.2412 102.637 36.1275 103.189 35.9001 103.583C35.6727 103.977 35.2769 104.174 34.7125 104.174C34.144 104.174 33.7461 103.977 33.5187 103.583C33.2913 103.189 33.1776 102.637 33.1776 101.926ZM35.693 101.926C35.693 101.573 35.6687 101.275 35.62 101.031C35.5753 100.783 35.4799 100.584 35.3337 100.434C35.1916 100.284 34.9845 100.209 34.7125 100.209C34.4364 100.209 34.2252 100.284 34.079 100.434C33.9369 100.584 33.8415 100.783 33.7928 101.031C33.7481 101.275 33.7258 101.573 33.7258 101.926C33.7258 102.292 33.7481 102.598 33.7928 102.846C33.8415 103.094 33.9369 103.293 34.079 103.443C34.2252 103.593 34.4364 103.668 34.7125 103.668C34.9845 103.668 35.1916 103.593 35.3337 103.443C35.4799 103.293 35.5753 103.094 35.62 102.846C35.6687 102.598 35.693 102.292 35.693 101.926Z" fill="#898A8D"/>
<path opacity="0.7" d="M25.7562 81.7362C25.7846 81.3627 25.9287 81.0703 26.1886 80.8592C26.4485 80.6481 26.7855 80.5425 27.1996 80.5425C27.4757 80.5425 27.7133 80.5932 27.9122 80.6948C28.1153 80.7922 28.2675 80.9262 28.369 81.0967C28.4746 81.2673 28.5274 81.4601 28.5274 81.6753C28.5274 81.9271 28.4543 82.1443 28.3081 82.327C28.166 82.5097 27.9792 82.6275 27.7478 82.6803V82.7107C28.0117 82.7757 28.2208 82.9036 28.3751 83.0944C28.5294 83.2853 28.6066 83.535 28.6066 83.8436C28.6066 84.075 28.5538 84.2841 28.4482 84.4709C28.3426 84.6536 28.1843 84.7978 27.9731 84.9033C27.762 85.0089 27.5082 85.0617 27.2118 85.0617C26.7814 85.0617 26.4282 84.95 26.1521 84.7267C25.8759 84.4993 25.7217 84.1786 25.6892 83.7644H26.2251C26.2536 84.008 26.353 84.207 26.5236 84.3613C26.6941 84.5156 26.9215 84.5927 27.2057 84.5927C27.49 84.5927 27.7052 84.5196 27.8513 84.3735C28.0016 84.2232 28.0767 84.0304 28.0767 83.7949C28.0767 83.4903 27.9752 83.2711 27.7721 83.1371C27.5691 83.0031 27.2626 82.9361 26.8525 82.9361H26.7124V82.4732H26.8586C27.2321 82.4691 27.5143 82.4082 27.7052 82.2905C27.896 82.1687 27.9914 81.9819 27.9914 81.7302C27.9914 81.515 27.9204 81.3424 27.7782 81.2125C27.6402 81.0825 27.4412 81.0176 27.1814 81.0176C26.9296 81.0176 26.7266 81.0825 26.5723 81.2125C26.418 81.3424 26.3266 81.517 26.2982 81.7362H25.7562ZM29.3549 82.7838C29.3549 82.0854 29.4686 81.5413 29.696 81.1515C29.9233 80.7577 30.3213 80.5608 30.8897 80.5608C31.4541 80.5608 31.85 80.7577 32.0774 81.1515C32.3048 81.5413 32.4185 82.0854 32.4185 82.7838C32.4185 83.4944 32.3048 84.0466 32.0774 84.4405C31.85 84.8343 31.4541 85.0312 30.8897 85.0312C30.3213 85.0312 29.9233 84.8343 29.696 84.4405C29.4686 84.0466 29.3549 83.4944 29.3549 82.7838ZM31.8703 82.7838C31.8703 82.4306 31.8459 82.1321 31.7972 81.8885C31.7526 81.6408 31.6571 81.4419 31.511 81.2916C31.3688 81.1414 31.1618 81.0663 30.8897 81.0663C30.6136 81.0663 30.4025 81.1414 30.2563 81.2916C30.1142 81.4419 30.0188 81.6408 29.97 81.8885C29.9254 82.1321 29.903 82.4306 29.903 82.7838C29.903 83.1493 29.9254 83.4558 29.97 83.7035C30.0188 83.9512 30.1142 84.1501 30.2563 84.3004C30.4025 84.4506 30.6136 84.5257 30.8897 84.5257C31.1618 84.5257 31.3688 84.4506 31.511 84.3004C31.6571 84.1501 31.7526 83.9512 31.7972 83.7035C31.8459 83.4558 31.8703 83.1493 31.8703 82.7838ZM33.1794 82.7838C33.1794 82.0854 33.293 81.5413 33.5204 81.1515C33.7478 80.7577 34.1457 80.5608 34.7142 80.5608C35.2786 80.5608 35.6745 80.7577 35.9018 81.1515C36.1292 81.5413 36.2429 82.0854 36.2429 82.7838C36.2429 83.4944 36.1292 84.0466 35.9018 84.4405C35.6745 84.8343 35.2786 85.0312 34.7142 85.0312C34.1457 85.0312 33.7478 84.8343 33.5204 84.4405C33.293 84.0466 33.1794 83.4944 33.1794 82.7838ZM35.6948 82.7838C35.6948 82.4306 35.6704 82.1321 35.6217 81.8885C35.577 81.6408 35.4816 81.4419 35.3354 81.2916C35.1933 81.1414 34.9862 81.0663 34.7142 81.0663C34.4381 81.0663 34.2269 81.1414 34.0808 81.2916C33.9386 81.4419 33.8432 81.6408 33.7945 81.8885C33.7498 82.1321 33.7275 82.4306 33.7275 82.7838C33.7275 83.1493 33.7498 83.4558 33.7945 83.7035C33.8432 83.9512 33.9386 84.1501 34.0808 84.3004C34.2269 84.4506 34.4381 84.5257 34.7142 84.5257C34.9862 84.5257 35.1933 84.4506 35.3354 84.3004C35.4816 84.1501 35.577 83.9512 35.6217 83.7035C35.6704 83.4558 35.6948 83.1493 35.6948 82.7838Z" fill="#898A8D"/>
<path opacity="0.7" d="M25.3905 64.4296V64.0093L27.5283 61.0493H28.1922V63.9484H28.8012V64.4296H28.1922V65.4102H27.644V64.4296H25.3905ZM27.6684 61.6279L26.03 63.9484H27.6684V61.6279ZM29.3549 63.1627C29.3549 62.4643 29.4686 61.9203 29.696 61.5305C29.9233 61.1366 30.3213 60.9397 30.8897 60.9397C31.4541 60.9397 31.85 61.1366 32.0774 61.5305C32.3048 61.9203 32.4185 62.4643 32.4185 63.1627C32.4185 63.8733 32.3048 64.4255 32.0774 64.8194C31.85 65.2132 31.4541 65.4102 30.8897 65.4102C30.3213 65.4102 29.9233 65.2132 29.696 64.8194C29.4686 64.4255 29.3549 63.8733 29.3549 63.1627ZM31.8703 63.1627C31.8703 62.8095 31.8459 62.511 31.7972 62.2674C31.7526 62.0197 31.6571 61.8208 31.511 61.6705C31.3688 61.5203 31.1618 61.4452 30.8897 61.4452C30.6136 61.4452 30.4025 61.5203 30.2563 61.6705C30.1142 61.8208 30.0188 62.0197 29.97 62.2674C29.9254 62.511 29.903 62.8095 29.903 63.1627C29.903 63.5282 29.9254 63.8347 29.97 64.0824C30.0188 64.3301 30.1142 64.5291 30.2563 64.6793C30.4025 64.8295 30.6136 64.9046 30.8897 64.9046C31.1618 64.9046 31.3688 64.8295 31.511 64.6793C31.6571 64.5291 31.7526 64.3301 31.7972 64.0824C31.8459 63.8347 31.8703 63.5282 31.8703 63.1627ZM33.1794 63.1627C33.1794 62.4643 33.293 61.9203 33.5204 61.5305C33.7478 61.1366 34.1457 60.9397 34.7142 60.9397C35.2786 60.9397 35.6745 61.1366 35.9018 61.5305C36.1292 61.9203 36.2429 62.4643 36.2429 63.1627C36.2429 63.8733 36.1292 64.4255 35.9018 64.8194C35.6745 65.2132 35.2786 65.4102 34.7142 65.4102C34.1457 65.4102 33.7478 65.2132 33.5204 64.8194C33.293 64.4255 33.1794 63.8733 33.1794 63.1627ZM35.6948 63.1627C35.6948 62.8095 35.6704 62.511 35.6217 62.2674C35.577 62.0197 35.4816 61.8208 35.3354 61.6705C35.1933 61.5203 34.9862 61.4452 34.7142 61.4452C34.4381 61.4452 34.2269 61.5203 34.0808 61.6705C33.9386 61.8208 33.8432 62.0197 33.7945 62.2674C33.7498 62.511 33.7275 62.8095 33.7275 63.1627C33.7275 63.5282 33.7498 63.8347 33.7945 64.0824C33.8432 64.3301 33.9386 64.5291 34.0808 64.6793C34.2269 64.8295 34.4381 64.9046 34.7142 64.9046C34.9862 64.9046 35.1933 64.8295 35.3354 64.6793C35.4816 64.5291 35.577 64.3301 35.6217 64.0824C35.6704 63.8347 35.6948 63.5282 35.6948 63.1627Z" fill="#898A8D"/>
<path d="M54.2366 144.274H52.7749L52.6429 145.507C52.648 145.487 52.6649 145.46 52.6937 145.426C52.7241 145.392 52.7681 145.357 52.8256 145.322C52.8849 145.286 52.9585 145.257 53.0464 145.233C53.1344 145.209 53.2376 145.197 53.356 145.197C53.6639 145.197 53.8974 145.307 54.0565 145.527C54.2172 145.747 54.2975 146.037 54.2975 146.398C54.2975 146.675 54.2544 146.91 54.1681 147.103C54.0835 147.296 53.9609 147.442 53.8001 147.542C53.6394 147.64 53.4449 147.689 53.2165 147.689C53.0321 147.689 52.8713 147.662 52.7343 147.608C52.5989 147.552 52.4873 147.475 52.3993 147.375C52.313 147.275 52.2479 147.158 52.2039 147.025C52.1616 146.891 52.1405 146.745 52.1405 146.586C52.1405 146.584 52.1405 146.583 52.1405 146.583C52.1405 146.581 52.1405 146.58 52.1405 146.578H52.5693C52.5693 146.58 52.5693 146.581 52.5693 146.583C52.5693 146.583 52.5693 146.584 52.5693 146.586C52.571 146.841 52.6285 147.025 52.7419 147.139C52.8569 147.252 53.0168 147.309 53.2215 147.309C53.3535 147.309 53.4669 147.276 53.5616 147.21C53.658 147.144 53.7316 147.044 53.7824 146.91C53.8348 146.777 53.861 146.608 53.861 146.405C53.861 146.135 53.8111 145.929 53.7113 145.789C53.6132 145.648 53.4685 145.578 53.2774 145.578C53.1539 145.578 53.0456 145.603 52.9525 145.652C52.8595 145.699 52.7825 145.757 52.7216 145.827C52.6624 145.896 52.6201 145.962 52.5947 146.025L52.1785 145.918L52.4095 143.895H54.2366V144.274ZM55.3501 147.705C55.2672 147.705 55.197 147.677 55.1395 147.621C55.0836 147.563 55.0557 147.493 55.0557 147.41C55.0557 147.329 55.0836 147.26 55.1395 147.202C55.197 147.145 55.2672 147.116 55.3501 147.116C55.4313 147.116 55.5007 147.145 55.5582 147.202C55.6157 147.26 55.6445 147.329 55.6445 147.41C55.6445 147.493 55.6157 147.563 55.5582 147.621C55.5007 147.677 55.4313 147.705 55.3501 147.705ZM55.3526 145.654C55.2697 145.654 55.1995 145.626 55.142 145.57C55.0862 145.513 55.0583 145.443 55.0583 145.36C55.0583 145.279 55.0862 145.209 55.142 145.152C55.1995 145.094 55.2697 145.065 55.3526 145.065C55.4339 145.065 55.5032 145.094 55.5607 145.152C55.6183 145.209 55.647 145.279 55.647 145.36C55.647 145.443 55.6183 145.513 55.5607 145.57C55.5032 145.626 55.4339 145.654 55.3526 145.654ZM57.4301 147.689C57.2254 147.689 57.0503 147.64 56.9048 147.542C56.761 147.442 56.6434 147.305 56.552 147.131C56.4624 146.955 56.3964 146.751 56.3541 146.52C56.3135 146.288 56.2932 146.04 56.2932 145.776C56.2932 145.512 56.3135 145.264 56.3541 145.032C56.3964 144.799 56.4624 144.594 56.552 144.418C56.6434 144.241 56.761 144.102 56.9048 144.002C57.0503 143.901 57.2254 143.85 57.4301 143.85C57.6348 143.85 57.8091 143.901 57.9529 144.002C58.0984 144.102 58.216 144.241 58.3056 144.418C58.3953 144.594 58.4613 144.799 58.5036 145.032C58.5459 145.264 58.567 145.512 58.567 145.776C58.567 146.04 58.5459 146.288 58.5036 146.52C58.4613 146.751 58.3953 146.955 58.3056 147.131C58.216 147.305 58.0984 147.442 57.9529 147.542C57.8091 147.64 57.6348 147.689 57.4301 147.689ZM57.4301 147.309C57.5891 147.309 57.7194 147.25 57.8209 147.134C57.9241 147.017 58.0011 146.844 58.0519 146.616C58.1026 146.388 58.128 146.108 58.128 145.776C58.128 145.443 58.1026 145.162 58.0519 144.933C58.0011 144.705 57.9241 144.532 57.8209 144.416C57.7194 144.297 57.5891 144.238 57.4301 144.238C57.2728 144.238 57.1416 144.297 57.0368 144.416C56.9336 144.532 56.8566 144.705 56.8058 144.933C56.7551 145.162 56.7297 145.443 56.7297 145.776C56.7297 146.109 56.7551 146.39 56.8058 146.618C56.8566 146.845 56.9336 147.017 57.0368 147.134C57.1416 147.25 57.2728 147.309 57.4301 147.309ZM60.3148 147.689C60.1101 147.689 59.935 147.64 59.7895 147.542C59.6457 147.442 59.5281 147.305 59.4367 147.131C59.3471 146.955 59.2811 146.751 59.2388 146.52C59.1982 146.288 59.1779 146.04 59.1779 145.776C59.1779 145.512 59.1982 145.264 59.2388 145.032C59.2811 144.799 59.3471 144.594 59.4367 144.418C59.5281 144.241 59.6457 144.102 59.7895 144.002C59.935 143.901 60.1101 143.85 60.3148 143.85C60.5195 143.85 60.6938 143.901 60.8376 144.002C60.9831 144.102 61.1007 144.241 61.1903 144.418C61.28 144.594 61.346 144.799 61.3883 145.032C61.4306 145.264 61.4517 145.512 61.4517 145.776C61.4517 146.04 61.4306 146.288 61.3883 146.52C61.346 146.751 61.28 146.955 61.1903 147.131C61.1007 147.305 60.9831 147.442 60.8376 147.542C60.6938 147.64 60.5195 147.689 60.3148 147.689ZM60.3148 147.309C60.4738 147.309 60.6041 147.25 60.7056 147.134C60.8088 147.017 60.8858 146.844 60.9366 146.616C60.9873 146.388 61.0127 146.108 61.0127 145.776C61.0127 145.443 60.9873 145.162 60.9366 144.933C60.8858 144.705 60.8088 144.532 60.7056 144.416C60.6041 144.297 60.4738 144.238 60.3148 144.238C60.1575 144.238 60.0264 144.297 59.9215 144.416C59.8183 144.532 59.7413 144.705 59.6905 144.933C59.6398 145.162 59.6144 145.443 59.6144 145.776C59.6144 146.109 59.6398 146.39 59.6905 146.618C59.7413 146.845 59.8183 147.017 59.9215 147.134C60.0264 147.25 60.1575 147.309 60.3148 147.309Z" fill="#464E5F"/>
<path d="M82.3464 144.274H80.8846L80.7527 145.507C80.7578 145.487 80.7747 145.46 80.8034 145.426C80.8339 145.392 80.8779 145.357 80.9354 145.322C80.9946 145.286 81.0682 145.257 81.1562 145.233C81.2442 145.209 81.3474 145.197 81.4658 145.197C81.7737 145.197 82.0072 145.307 82.1662 145.527C82.3269 145.747 82.4073 146.037 82.4073 146.398C82.4073 146.675 82.3642 146.91 82.2779 147.103C82.1933 147.296 82.0706 147.442 81.9099 147.542C81.7492 147.64 81.5546 147.689 81.3262 147.689C81.1418 147.689 80.9811 147.662 80.844 147.608C80.7087 147.552 80.597 147.475 80.5091 147.375C80.4228 147.275 80.3576 147.158 80.3137 147.025C80.2714 146.891 80.2502 146.745 80.2502 146.586C80.2502 146.584 80.2502 146.583 80.2502 146.583C80.2502 146.581 80.2502 146.58 80.2502 146.578H80.6791C80.6791 146.58 80.6791 146.581 80.6791 146.583C80.6791 146.583 80.6791 146.584 80.6791 146.586C80.6808 146.841 80.7383 147.025 80.8517 147.139C80.9667 147.252 81.1266 147.309 81.3313 147.309C81.4633 147.309 81.5766 147.276 81.6713 147.21C81.7678 147.144 81.8414 147.044 81.8921 146.91C81.9446 146.777 81.9708 146.608 81.9708 146.405C81.9708 146.135 81.9209 145.929 81.8211 145.789C81.7229 145.648 81.5783 145.578 81.3871 145.578C81.2636 145.578 81.1553 145.603 81.0623 145.652C80.9692 145.699 80.8923 145.757 80.8314 145.827C80.7721 145.896 80.7298 145.962 80.7045 146.025L80.2883 145.918L80.5192 143.895H82.3464V144.274ZM83.4599 147.705C83.377 147.705 83.3068 147.677 83.2492 147.621C83.1934 147.563 83.1655 147.493 83.1655 147.41C83.1655 147.329 83.1934 147.26 83.2492 147.202C83.3068 147.145 83.377 147.116 83.4599 147.116C83.5411 147.116 83.6104 147.145 83.668 147.202C83.7255 147.26 83.7542 147.329 83.7542 147.41C83.7542 147.493 83.7255 147.563 83.668 147.621C83.6104 147.677 83.5411 147.705 83.4599 147.705ZM83.4624 145.654C83.3795 145.654 83.3093 145.626 83.2518 145.57C83.1959 145.513 83.168 145.443 83.168 145.36C83.168 145.279 83.1959 145.209 83.2518 145.152C83.3093 145.094 83.3795 145.065 83.4624 145.065C83.5436 145.065 83.613 145.094 83.6705 145.152C83.728 145.209 83.7568 145.279 83.7568 145.36C83.7568 145.443 83.728 145.513 83.6705 145.57C83.613 145.626 83.5436 145.654 83.4624 145.654ZM86.0093 145.667C86.1582 145.672 86.2775 145.714 86.3672 145.794C86.4585 145.873 86.5245 145.978 86.5651 146.108C86.6057 146.237 86.626 146.379 86.626 146.535C86.626 146.753 86.5871 146.949 86.5093 147.124C86.4331 147.298 86.3156 147.436 86.1565 147.537C85.9992 147.639 85.7987 147.689 85.5551 147.689C85.3538 147.689 85.1829 147.662 85.0425 147.608C84.902 147.554 84.7878 147.475 84.6999 147.372C84.6136 147.269 84.5501 147.144 84.5095 146.997C84.4689 146.849 84.4486 146.684 84.4486 146.499C84.4486 146.498 84.4486 146.496 84.4486 146.494C84.4486 146.492 84.4486 146.491 84.4486 146.489H84.8826C84.8826 146.491 84.8826 146.492 84.8826 146.494C84.8826 146.496 84.8826 146.498 84.8826 146.499C84.8826 146.711 84.9097 146.876 84.9638 146.994C85.0179 147.111 85.0949 147.193 85.1947 147.24C85.2962 147.286 85.418 147.309 85.5602 147.309C85.7547 147.309 85.9078 147.244 86.0195 147.116C86.1328 146.987 86.1895 146.79 86.1895 146.525C86.1895 146.437 86.1802 146.353 86.1616 146.273C86.1447 146.192 86.1125 146.121 86.0652 146.06C86.0195 145.998 85.9544 145.949 85.8698 145.913C85.7852 145.876 85.6761 145.857 85.5424 145.857H85.4028V145.504H85.5424C85.6727 145.504 85.7793 145.487 85.8622 145.451C85.9467 145.414 86.0127 145.366 86.0601 145.306C86.1075 145.246 86.1405 145.178 86.1591 145.103C86.1794 145.027 86.1895 144.95 86.1895 144.873C86.1895 144.648 86.1337 144.485 86.022 144.385C85.9104 144.285 85.759 144.236 85.5678 144.236C85.3597 144.236 85.193 144.291 85.0678 144.401C84.9443 144.51 84.8826 144.708 84.8826 144.994H84.4486C84.4486 144.825 84.4706 144.67 84.5146 144.53C84.5603 144.39 84.6288 144.269 84.7202 144.167C84.8115 144.066 84.9266 143.988 85.0653 143.934C85.2057 143.878 85.3707 143.85 85.5602 143.85C85.8021 143.85 86.0017 143.894 86.1591 143.982C86.3164 144.07 86.4331 144.19 86.5093 144.342C86.5871 144.493 86.626 144.663 86.626 144.852C86.626 144.991 86.6057 145.121 86.5651 145.243C86.5245 145.365 86.4585 145.465 86.3672 145.542C86.2775 145.619 86.1582 145.66 86.0093 145.667ZM88.4394 147.689C88.2347 147.689 88.0596 147.64 87.9141 147.542C87.7703 147.442 87.6527 147.305 87.5614 147.131C87.4717 146.955 87.4057 146.751 87.3634 146.52C87.3228 146.288 87.3025 146.04 87.3025 145.776C87.3025 145.512 87.3228 145.264 87.3634 145.032C87.4057 144.799 87.4717 144.594 87.5614 144.418C87.6527 144.241 87.7703 144.102 87.9141 144.002C88.0596 143.901 88.2347 143.85 88.4394 143.85C88.6441 143.85 88.8184 143.901 88.9622 144.002C89.1077 144.102 89.2253 144.241 89.315 144.418C89.4046 144.594 89.4706 144.799 89.5129 145.032C89.5552 145.264 89.5763 145.512 89.5763 145.776C89.5763 146.04 89.5552 146.288 89.5129 146.52C89.4706 146.751 89.4046 146.955 89.315 147.131C89.2253 147.305 89.1077 147.442 88.9622 147.542C88.8184 147.64 88.6441 147.689 88.4394 147.689ZM88.4394 147.309C88.5985 147.309 88.7287 147.25 88.8302 147.134C88.9334 147.017 89.0104 146.844 89.0612 146.616C89.1119 146.388 89.1373 146.108 89.1373 145.776C89.1373 145.443 89.1119 145.162 89.0612 144.933C89.0104 144.705 88.9334 144.532 88.8302 144.416C88.7287 144.297 88.5985 144.238 88.4394 144.238C88.2821 144.238 88.151 144.297 88.0461 144.416C87.9429 144.532 87.8659 144.705 87.8151 144.933C87.7644 145.162 87.739 145.443 87.739 145.776C87.739 146.109 87.7644 146.39 87.8151 146.618C87.8659 146.845 87.9429 147.017 88.0461 147.134C88.151 147.25 88.2821 147.309 88.4394 147.309Z" fill="#464E5F"/>
<path d="M102.438 147.689C102.193 147.689 101.99 147.62 101.829 147.481C101.669 147.341 101.549 147.146 101.469 146.898C101.391 146.647 101.352 146.356 101.352 146.025C101.352 145.624 101.381 145.284 101.439 145.007C101.496 144.73 101.576 144.506 101.677 144.337C101.78 144.166 101.9 144.043 102.035 143.967C102.172 143.889 102.319 143.85 102.477 143.85C102.663 143.85 102.815 143.883 102.933 143.949C103.053 144.013 103.146 144.095 103.212 144.195C103.278 144.295 103.324 144.398 103.35 144.505C103.377 144.611 103.39 144.706 103.39 144.789C103.39 144.79 103.39 144.792 103.39 144.794C103.39 144.794 103.39 144.796 103.39 144.799H102.984C102.984 144.796 102.984 144.794 102.984 144.794C102.984 144.792 102.984 144.79 102.984 144.789C102.984 144.728 102.976 144.665 102.961 144.601C102.948 144.535 102.922 144.474 102.885 144.418C102.848 144.362 102.796 144.318 102.73 144.284C102.664 144.25 102.579 144.233 102.474 144.233C102.339 144.233 102.217 144.29 102.109 144.403C102.002 144.515 101.917 144.707 101.855 144.979C101.794 145.252 101.763 145.629 101.763 146.111H101.555C101.555 145.932 101.599 145.776 101.687 145.644C101.777 145.51 101.895 145.407 102.043 145.334C102.19 145.26 102.349 145.223 102.52 145.223C102.733 145.223 102.915 145.275 103.065 145.38C103.216 145.483 103.33 145.626 103.408 145.809C103.487 145.99 103.527 146.198 103.527 146.433C103.527 146.679 103.486 146.896 103.403 147.085C103.32 147.275 103.197 147.423 103.035 147.53C102.874 147.636 102.675 147.689 102.438 147.689ZM102.441 147.309C102.585 147.309 102.704 147.275 102.799 147.207C102.895 147.14 102.968 147.042 103.017 146.915C103.066 146.789 103.091 146.637 103.091 146.461C103.091 146.295 103.067 146.148 103.02 146.02C102.974 145.889 102.905 145.788 102.814 145.715C102.724 145.641 102.614 145.603 102.482 145.603C102.348 145.603 102.228 145.636 102.121 145.7C102.016 145.764 101.933 145.855 101.873 145.971C101.813 146.088 101.784 146.226 101.784 146.385C101.784 146.554 101.81 146.709 101.862 146.849C101.917 146.99 101.993 147.102 102.091 147.184C102.191 147.267 102.307 147.309 102.441 147.309ZM104.564 147.705C104.481 147.705 104.411 147.677 104.353 147.621C104.297 147.563 104.269 147.493 104.269 147.41C104.269 147.329 104.297 147.26 104.353 147.202C104.411 147.145 104.481 147.116 104.564 147.116C104.645 147.116 104.714 147.145 104.772 147.202C104.829 147.26 104.858 147.329 104.858 147.41C104.858 147.493 104.829 147.563 104.772 147.621C104.714 147.677 104.645 147.705 104.564 147.705ZM104.566 145.654C104.483 145.654 104.413 145.626 104.356 145.57C104.3 145.513 104.272 145.443 104.272 145.36C104.272 145.279 104.3 145.209 104.356 145.152C104.413 145.094 104.483 145.065 104.566 145.065C104.647 145.065 104.717 145.094 104.774 145.152C104.832 145.209 104.861 145.279 104.861 145.36C104.861 145.443 104.832 145.513 104.774 145.57C104.717 145.626 104.647 145.654 104.566 145.654ZM106.644 147.689C106.439 147.689 106.264 147.64 106.118 147.542C105.975 147.442 105.857 147.305 105.766 147.131C105.676 146.955 105.61 146.751 105.568 146.52C105.527 146.288 105.507 146.04 105.507 145.776C105.507 145.512 105.527 145.264 105.568 145.032C105.61 144.799 105.676 144.594 105.766 144.418C105.857 144.241 105.975 144.102 106.118 144.002C106.264 143.901 106.439 143.85 106.644 143.85C106.848 143.85 107.023 143.901 107.166 144.002C107.312 144.102 107.43 144.241 107.519 144.418C107.609 144.594 107.675 144.799 107.717 145.032C107.759 145.264 107.781 145.512 107.781 145.776C107.781 146.04 107.759 146.288 107.717 146.52C107.675 146.751 107.609 146.955 107.519 147.131C107.43 147.305 107.312 147.442 107.166 147.542C107.023 147.64 106.848 147.689 106.644 147.689ZM106.644 147.309C106.803 147.309 106.933 147.25 107.034 147.134C107.138 147.017 107.215 146.844 107.265 146.616C107.316 146.388 107.342 146.108 107.342 145.776C107.342 145.443 107.316 145.162 107.265 144.933C107.215 144.705 107.138 144.532 107.034 144.416C106.933 144.297 106.803 144.238 106.644 144.238C106.486 144.238 106.355 144.297 106.25 144.416C106.147 144.532 106.07 144.705 106.019 144.933C105.969 145.162 105.943 145.443 105.943 145.776C105.943 146.109 105.969 146.39 106.019 146.618C106.07 146.845 106.147 147.017 106.25 147.134C106.355 147.25 106.486 147.309 106.644 147.309ZM109.528 147.689C109.324 147.689 109.149 147.64 109.003 147.542C108.859 147.442 108.742 147.305 108.65 147.131C108.561 146.955 108.495 146.751 108.452 146.52C108.412 146.288 108.391 146.04 108.391 145.776C108.391 145.512 108.412 145.264 108.452 145.032C108.495 144.799 108.561 144.594 108.65 144.418C108.742 144.241 108.859 144.102 109.003 144.002C109.149 143.901 109.324 143.85 109.528 143.85C109.733 143.85 109.907 143.901 110.051 144.002C110.197 144.102 110.314 144.241 110.404 144.418C110.494 144.594 110.56 144.799 110.602 145.032C110.644 145.264 110.665 145.512 110.665 145.776C110.665 146.04 110.644 146.288 110.602 146.52C110.56 146.751 110.494 146.955 110.404 147.131C110.314 147.305 110.197 147.442 110.051 147.542C109.907 147.64 109.733 147.689 109.528 147.689ZM109.528 147.309C109.687 147.309 109.818 147.25 109.919 147.134C110.022 147.017 110.099 146.844 110.15 146.616C110.201 146.388 110.226 146.108 110.226 145.776C110.226 145.443 110.201 145.162 110.15 144.933C110.099 144.705 110.022 144.532 109.919 144.416C109.818 144.297 109.687 144.238 109.528 144.238C109.371 144.238 109.24 144.297 109.135 144.416C109.032 144.532 108.955 144.705 108.904 144.933C108.853 145.162 108.828 145.443 108.828 145.776C108.828 146.109 108.853 146.39 108.904 146.618C108.955 146.845 109.032 147.017 109.135 147.134C109.24 147.25 109.371 147.309 109.528 147.309Z" fill="#464E5F"/>
<path d="M130.546 147.689C130.301 147.689 130.098 147.62 129.937 147.481C129.777 147.341 129.657 147.146 129.577 146.898C129.499 146.647 129.46 146.356 129.46 146.025C129.46 145.624 129.489 145.284 129.547 145.007C129.604 144.73 129.684 144.506 129.785 144.337C129.888 144.166 130.008 144.043 130.143 143.967C130.28 143.889 130.427 143.85 130.585 143.85C130.771 143.85 130.923 143.883 131.041 143.949C131.161 144.013 131.254 144.095 131.32 144.195C131.386 144.295 131.432 144.398 131.458 144.505C131.485 144.611 131.498 144.706 131.498 144.789C131.498 144.79 131.498 144.792 131.498 144.794C131.498 144.794 131.498 144.796 131.498 144.799H131.092C131.092 144.796 131.092 144.794 131.092 144.794C131.092 144.792 131.092 144.79 131.092 144.789C131.092 144.728 131.084 144.665 131.069 144.601C131.056 144.535 131.03 144.474 130.993 144.418C130.956 144.362 130.904 144.318 130.838 144.284C130.772 144.25 130.687 144.233 130.582 144.233C130.447 144.233 130.325 144.29 130.217 144.403C130.11 144.515 130.025 144.707 129.963 144.979C129.902 145.252 129.871 145.629 129.871 146.111H129.663C129.663 145.932 129.707 145.776 129.795 145.644C129.885 145.51 130.003 145.407 130.151 145.334C130.298 145.26 130.457 145.223 130.628 145.223C130.841 145.223 131.023 145.275 131.173 145.38C131.324 145.483 131.438 145.626 131.516 145.809C131.595 145.99 131.635 146.198 131.635 146.433C131.635 146.679 131.594 146.896 131.511 147.085C131.428 147.275 131.305 147.423 131.143 147.53C130.982 147.636 130.783 147.689 130.546 147.689ZM130.549 147.309C130.693 147.309 130.812 147.275 130.907 147.207C131.003 147.14 131.076 147.042 131.125 146.915C131.174 146.789 131.199 146.637 131.199 146.461C131.199 146.295 131.175 146.148 131.128 146.02C131.082 145.889 131.013 145.788 130.922 145.715C130.832 145.641 130.722 145.603 130.59 145.603C130.456 145.603 130.336 145.636 130.229 145.7C130.124 145.764 130.041 145.855 129.981 145.971C129.921 146.088 129.892 146.226 129.892 146.385C129.892 146.554 129.918 146.709 129.97 146.849C130.025 146.99 130.101 147.102 130.199 147.184C130.299 147.267 130.415 147.309 130.549 147.309ZM132.672 147.705C132.589 147.705 132.519 147.677 132.461 147.621C132.405 147.563 132.377 147.493 132.377 147.41C132.377 147.329 132.405 147.26 132.461 147.202C132.519 147.145 132.589 147.116 132.672 147.116C132.753 147.116 132.822 147.145 132.88 147.202C132.937 147.26 132.966 147.329 132.966 147.41C132.966 147.493 132.937 147.563 132.88 147.621C132.822 147.677 132.753 147.705 132.672 147.705ZM132.674 145.654C132.591 145.654 132.521 145.626 132.464 145.57C132.408 145.513 132.38 145.443 132.38 145.36C132.38 145.279 132.408 145.209 132.464 145.152C132.521 145.094 132.591 145.065 132.674 145.065C132.755 145.065 132.825 145.094 132.882 145.152C132.94 145.209 132.969 145.279 132.969 145.36C132.969 145.443 132.94 145.513 132.882 145.57C132.825 145.626 132.755 145.654 132.674 145.654ZM135.221 145.667C135.37 145.672 135.489 145.714 135.579 145.794C135.67 145.873 135.736 145.978 135.777 146.108C135.818 146.237 135.838 146.379 135.838 146.535C135.838 146.753 135.799 146.949 135.721 147.124C135.645 147.298 135.527 147.436 135.368 147.537C135.211 147.639 135.011 147.689 134.767 147.689C134.566 147.689 134.395 147.662 134.254 147.608C134.114 147.554 134 147.475 133.912 147.372C133.825 147.269 133.762 147.144 133.721 146.997C133.681 146.849 133.66 146.684 133.66 146.499C133.66 146.498 133.66 146.496 133.66 146.494C133.66 146.492 133.66 146.491 133.66 146.489H134.094C134.094 146.491 134.094 146.492 134.094 146.494C134.094 146.496 134.094 146.498 134.094 146.499C134.094 146.711 134.121 146.876 134.176 146.994C134.23 147.111 134.307 147.193 134.407 147.24C134.508 147.286 134.63 147.309 134.772 147.309C134.967 147.309 135.12 147.244 135.231 147.116C135.345 146.987 135.401 146.79 135.401 146.525C135.401 146.437 135.392 146.353 135.373 146.273C135.356 146.192 135.324 146.121 135.277 146.06C135.231 145.998 135.166 145.949 135.082 145.913C134.997 145.876 134.888 145.857 134.754 145.857H134.615V145.504H134.754C134.884 145.504 134.991 145.487 135.074 145.451C135.159 145.414 135.225 145.366 135.272 145.306C135.319 145.246 135.352 145.178 135.371 145.103C135.391 145.027 135.401 144.95 135.401 144.873C135.401 144.648 135.345 144.485 135.234 144.385C135.122 144.285 134.971 144.236 134.78 144.236C134.571 144.236 134.405 144.291 134.28 144.401C134.156 144.51 134.094 144.708 134.094 144.994H133.66C133.66 144.825 133.682 144.67 133.726 144.53C133.772 144.39 133.841 144.269 133.932 144.167C134.023 144.066 134.138 143.988 134.277 143.934C134.418 143.878 134.582 143.85 134.772 143.85C135.014 143.85 135.214 143.894 135.371 143.982C135.528 144.07 135.645 144.19 135.721 144.342C135.799 144.493 135.838 144.663 135.838 144.852C135.838 144.991 135.818 145.121 135.777 145.243C135.736 145.365 135.67 145.465 135.579 145.542C135.489 145.619 135.37 145.66 135.221 145.667ZM137.651 147.689C137.447 147.689 137.271 147.64 137.126 147.542C136.982 147.442 136.865 147.305 136.773 147.131C136.684 146.955 136.618 146.751 136.575 146.52C136.535 146.288 136.514 146.04 136.514 145.776C136.514 145.512 136.535 145.264 136.575 145.032C136.618 144.799 136.684 144.594 136.773 144.418C136.865 144.241 136.982 144.102 137.126 144.002C137.271 143.901 137.447 143.85 137.651 143.85C137.856 143.85 138.03 143.901 138.174 144.002C138.32 144.102 138.437 144.241 138.527 144.418C138.616 144.594 138.682 144.799 138.725 145.032C138.767 145.264 138.788 145.512 138.788 145.776C138.788 146.04 138.767 146.288 138.725 146.52C138.682 146.751 138.616 146.955 138.527 147.131C138.437 147.305 138.32 147.442 138.174 147.542C138.03 147.64 137.856 147.689 137.651 147.689ZM137.651 147.309C137.81 147.309 137.941 147.25 138.042 147.134C138.145 147.017 138.222 146.844 138.273 146.616C138.324 146.388 138.349 146.108 138.349 145.776C138.349 145.443 138.324 145.162 138.273 144.933C138.222 144.705 138.145 144.532 138.042 144.416C137.941 144.297 137.81 144.238 137.651 144.238C137.494 144.238 137.363 144.297 137.258 144.416C137.155 144.532 137.078 144.705 137.027 144.933C136.976 145.162 136.951 145.443 136.951 145.776C136.951 146.109 136.976 146.39 137.027 146.618C137.078 146.845 137.155 147.017 137.258 147.134C137.363 147.25 137.494 147.309 137.651 147.309Z" fill="#464E5F"/>
<path d="M159.6 144.281V144.286H157.921V143.895H160.095V144.266C159.899 144.408 159.735 144.579 159.603 144.779C159.471 144.978 159.364 145.197 159.281 145.433C159.2 145.669 159.138 145.912 159.095 146.164C159.053 146.416 159.024 146.668 159.009 146.92C158.994 147.171 158.986 147.41 158.986 147.639H158.552C158.552 147.393 158.561 147.143 158.578 146.887C158.595 146.63 158.624 146.377 158.667 146.126C158.711 145.874 158.771 145.634 158.849 145.405C158.929 145.175 159.03 144.965 159.151 144.774C159.275 144.581 159.425 144.417 159.6 144.281ZM160.909 147.705C160.826 147.705 160.756 147.677 160.699 147.621C160.643 147.563 160.615 147.493 160.615 147.41C160.615 147.329 160.643 147.26 160.699 147.202C160.756 147.145 160.826 147.116 160.909 147.116C160.99 147.116 161.06 147.145 161.117 147.202C161.175 147.26 161.204 147.329 161.204 147.41C161.204 147.493 161.175 147.563 161.117 147.621C161.06 147.677 160.99 147.705 160.909 147.705ZM160.912 145.654C160.829 145.654 160.759 145.626 160.701 145.57C160.645 145.513 160.617 145.443 160.617 145.36C160.617 145.279 160.645 145.209 160.701 145.152C160.759 145.094 160.829 145.065 160.912 145.065C160.993 145.065 161.062 145.094 161.12 145.152C161.177 145.209 161.206 145.279 161.206 145.36C161.206 145.443 161.177 145.513 161.12 145.57C161.062 145.626 160.993 145.654 160.912 145.654ZM162.989 147.689C162.784 147.689 162.609 147.64 162.464 147.542C162.32 147.442 162.202 147.305 162.111 147.131C162.021 146.955 161.955 146.751 161.913 146.52C161.873 146.288 161.852 146.04 161.852 145.776C161.852 145.512 161.873 145.264 161.913 145.032C161.955 144.799 162.021 144.594 162.111 144.418C162.202 144.241 162.32 144.102 162.464 144.002C162.609 143.901 162.784 143.85 162.989 143.85C163.194 143.85 163.368 143.901 163.512 144.002C163.657 144.102 163.775 144.241 163.865 144.418C163.954 144.594 164.02 144.799 164.063 145.032C164.105 145.264 164.126 145.512 164.126 145.776C164.126 146.04 164.105 146.288 164.063 146.52C164.02 146.751 163.954 146.955 163.865 147.131C163.775 147.305 163.657 147.442 163.512 147.542C163.368 147.64 163.194 147.689 162.989 147.689ZM162.989 147.309C163.148 147.309 163.278 147.25 163.38 147.134C163.483 147.017 163.56 146.844 163.611 146.616C163.662 146.388 163.687 146.108 163.687 145.776C163.687 145.443 163.662 145.162 163.611 144.933C163.56 144.705 163.483 144.532 163.38 144.416C163.278 144.297 163.148 144.238 162.989 144.238C162.832 144.238 162.701 144.297 162.596 144.416C162.493 144.532 162.416 144.705 162.365 144.933C162.314 145.162 162.289 145.443 162.289 145.776C162.289 146.109 162.314 146.39 162.365 146.618C162.416 146.845 162.493 147.017 162.596 147.134C162.701 147.25 162.832 147.309 162.989 147.309ZM165.874 147.689C165.669 147.689 165.494 147.64 165.349 147.542C165.205 147.442 165.087 147.305 164.996 147.131C164.906 146.955 164.84 146.751 164.798 146.52C164.757 146.288 164.737 146.04 164.737 145.776C164.737 145.512 164.757 145.264 164.798 145.032C164.84 144.799 164.906 144.594 164.996 144.418C165.087 144.241 165.205 144.102 165.349 144.002C165.494 143.901 165.669 143.85 165.874 143.85C166.079 143.85 166.253 143.901 166.397 144.002C166.542 144.102 166.66 144.241 166.749 144.418C166.839 144.594 166.905 144.799 166.947 145.032C166.99 145.264 167.011 145.512 167.011 145.776C167.011 146.04 166.99 146.288 166.947 146.52C166.905 146.751 166.839 146.955 166.749 147.131C166.66 147.305 166.542 147.442 166.397 147.542C166.253 147.64 166.079 147.689 165.874 147.689ZM165.874 147.309C166.033 147.309 166.163 147.25 166.265 147.134C166.368 147.017 166.445 146.844 166.496 146.616C166.546 146.388 166.572 146.108 166.572 145.776C166.572 145.443 166.546 145.162 166.496 144.933C166.445 144.705 166.368 144.532 166.265 144.416C166.163 144.297 166.033 144.238 165.874 144.238C165.716 144.238 165.585 144.297 165.48 144.416C165.377 144.532 165.3 144.705 165.25 144.933C165.199 145.162 165.173 145.443 165.173 145.776C165.173 146.109 165.199 146.39 165.25 146.618C165.3 146.845 165.377 147.017 165.48 147.134C165.585 147.25 165.716 147.309 165.874 147.309Z" fill="#464E5F"/>
<path d="M187.099 144.281V144.286H185.419V143.895H187.594V144.266C187.398 144.408 187.234 144.579 187.102 144.779C186.97 144.978 186.862 145.197 186.779 145.433C186.698 145.669 186.636 145.912 186.594 146.164C186.552 146.416 186.523 146.668 186.508 146.92C186.493 147.171 186.485 147.41 186.485 147.639H186.051C186.051 147.393 186.059 147.143 186.076 146.887C186.093 146.63 186.123 146.377 186.165 146.126C186.209 145.874 186.27 145.634 186.348 145.405C186.427 145.175 186.528 144.965 186.65 144.774C186.773 144.581 186.923 144.417 187.099 144.281ZM188.408 147.705C188.325 147.705 188.255 147.677 188.197 147.621C188.141 147.563 188.113 147.493 188.113 147.41C188.113 147.329 188.141 147.26 188.197 147.202C188.255 147.145 188.325 147.116 188.408 147.116C188.489 147.116 188.558 147.145 188.616 147.202C188.673 147.26 188.702 147.329 188.702 147.41C188.702 147.493 188.673 147.563 188.616 147.621C188.558 147.677 188.489 147.705 188.408 147.705ZM188.41 145.654C188.327 145.654 188.257 145.626 188.2 145.57C188.144 145.513 188.116 145.443 188.116 145.36C188.116 145.279 188.144 145.209 188.2 145.152C188.257 145.094 188.327 145.065 188.41 145.065C188.492 145.065 188.561 145.094 188.618 145.152C188.676 145.209 188.705 145.279 188.705 145.36C188.705 145.443 188.676 145.513 188.618 145.57C188.561 145.626 188.492 145.654 188.41 145.654ZM190.957 145.667C191.106 145.672 191.225 145.714 191.315 145.794C191.406 145.873 191.472 145.978 191.513 146.108C191.554 146.237 191.574 146.379 191.574 146.535C191.574 146.753 191.535 146.949 191.457 147.124C191.381 147.298 191.263 147.436 191.104 147.537C190.947 147.639 190.747 147.689 190.503 147.689C190.302 147.689 190.131 147.662 189.99 147.608C189.85 147.554 189.736 147.475 189.648 147.372C189.561 147.269 189.498 147.144 189.457 146.997C189.417 146.849 189.397 146.684 189.397 146.499C189.397 146.498 189.397 146.496 189.397 146.494C189.397 146.492 189.397 146.491 189.397 146.489H189.83C189.83 146.491 189.83 146.492 189.83 146.494C189.83 146.496 189.83 146.498 189.83 146.499C189.83 146.711 189.858 146.876 189.912 146.994C189.966 147.111 190.043 147.193 190.143 147.24C190.244 147.286 190.366 147.309 190.508 147.309C190.703 147.309 190.856 147.244 190.967 147.116C191.081 146.987 191.137 146.79 191.137 146.525C191.137 146.437 191.128 146.353 191.11 146.273C191.093 146.192 191.06 146.121 191.013 146.06C190.967 145.998 190.902 145.949 190.818 145.913C190.733 145.876 190.624 145.857 190.49 145.857H190.351V145.504H190.49C190.621 145.504 190.727 145.487 190.81 145.451C190.895 145.414 190.961 145.366 191.008 145.306C191.055 145.246 191.088 145.178 191.107 145.103C191.127 145.027 191.137 144.95 191.137 144.873C191.137 144.648 191.082 144.485 190.97 144.385C190.858 144.285 190.707 144.236 190.516 144.236C190.308 144.236 190.141 144.291 190.016 144.401C189.892 144.51 189.83 144.708 189.83 144.994H189.397C189.397 144.825 189.419 144.67 189.463 144.53C189.508 144.39 189.577 144.269 189.668 144.167C189.759 144.066 189.874 143.988 190.013 143.934C190.154 143.878 190.319 143.85 190.508 143.85C190.75 143.85 190.95 143.894 191.107 143.982C191.264 144.07 191.381 144.19 191.457 144.342C191.535 144.493 191.574 144.663 191.574 144.852C191.574 144.991 191.554 145.121 191.513 145.243C191.472 145.365 191.406 145.465 191.315 145.542C191.225 145.619 191.106 145.66 190.957 145.667ZM193.387 147.689C193.183 147.689 193.008 147.64 192.862 147.542C192.718 147.442 192.601 147.305 192.509 147.131C192.42 146.955 192.354 146.751 192.311 146.52C192.271 146.288 192.25 146.04 192.25 145.776C192.25 145.512 192.271 145.264 192.311 145.032C192.354 144.799 192.42 144.594 192.509 144.418C192.601 144.241 192.718 144.102 192.862 144.002C193.008 143.901 193.183 143.85 193.387 143.85C193.592 143.85 193.766 143.901 193.91 144.002C194.056 144.102 194.173 144.241 194.263 144.418C194.353 144.594 194.419 144.799 194.461 145.032C194.503 145.264 194.524 145.512 194.524 145.776C194.524 146.04 194.503 146.288 194.461 146.52C194.419 146.751 194.353 146.955 194.263 147.131C194.173 147.305 194.056 147.442 193.91 147.542C193.766 147.64 193.592 147.689 193.387 147.689ZM193.387 147.309C193.546 147.309 193.677 147.25 193.778 147.134C193.881 147.017 193.958 146.844 194.009 146.616C194.06 146.388 194.085 146.108 194.085 145.776C194.085 145.443 194.06 145.162 194.009 144.933C193.958 144.705 193.881 144.532 193.778 144.416C193.677 144.297 193.546 144.238 193.387 144.238C193.23 144.238 193.099 144.297 192.994 144.416C192.891 144.532 192.814 144.705 192.763 144.933C192.712 145.162 192.687 145.443 192.687 145.776C192.687 146.109 192.712 146.39 192.763 146.618C192.814 146.845 192.891 147.017 192.994 147.134C193.099 147.25 193.23 147.309 193.387 147.309Z" fill="#464E5F"/>
<path d="M214.578 147.689C214.334 147.689 214.124 147.644 213.948 147.552C213.772 147.459 213.637 147.331 213.542 147.167C213.447 147.001 213.4 146.81 213.4 146.593C213.4 146.399 213.432 146.237 213.496 146.108C213.561 145.98 213.643 145.879 213.743 145.806C213.842 145.734 213.945 145.684 214.05 145.657C213.96 145.636 213.872 145.592 213.786 145.525C213.699 145.457 213.628 145.364 213.573 145.246C213.517 145.125 213.489 144.979 213.489 144.807C213.489 144.61 213.537 144.441 213.633 144.299C213.732 144.155 213.863 144.044 214.027 143.967C214.191 143.889 214.375 143.85 214.578 143.85C214.781 143.85 214.964 143.889 215.128 143.967C215.294 144.044 215.425 144.155 215.522 144.299C215.618 144.441 215.666 144.61 215.666 144.807C215.666 144.979 215.638 145.125 215.582 145.246C215.527 145.364 215.456 145.457 215.369 145.525C215.283 145.592 215.195 145.636 215.105 145.657C215.212 145.684 215.314 145.734 215.412 145.806C215.512 145.879 215.594 145.98 215.659 146.108C215.723 146.237 215.755 146.399 215.755 146.593C215.755 146.81 215.708 147.001 215.613 147.167C215.518 147.331 215.383 147.459 215.207 147.552C215.031 147.644 214.821 147.689 214.578 147.689ZM214.578 147.309C214.713 147.309 214.836 147.283 214.946 147.233C215.057 147.182 215.146 147.104 215.212 146.999C215.278 146.894 215.311 146.761 215.311 146.598C215.311 146.449 215.28 146.319 215.22 146.207C215.159 146.094 215.073 146.006 214.963 145.943C214.853 145.881 214.725 145.85 214.578 145.85C214.43 145.85 214.302 145.881 214.192 145.943C214.082 146.006 213.996 146.094 213.935 146.207C213.875 146.319 213.844 146.449 213.844 146.598C213.844 146.761 213.877 146.894 213.943 146.999C214.009 147.104 214.097 147.182 214.207 147.233C214.319 147.283 214.442 147.309 214.578 147.309ZM214.578 145.479C214.775 145.479 214.936 145.421 215.06 145.304C215.183 145.187 215.245 145.032 215.245 144.837C215.245 144.692 215.214 144.575 215.151 144.487C215.088 144.399 215.006 144.335 214.905 144.296C214.803 144.256 214.694 144.236 214.578 144.236C214.461 144.236 214.352 144.256 214.25 144.296C214.149 144.335 214.067 144.399 214.004 144.487C213.941 144.575 213.91 144.692 213.91 144.837C213.91 145.032 213.971 145.187 214.093 145.304C214.216 145.421 214.378 145.479 214.578 145.479ZM216.782 147.705C216.699 147.705 216.629 147.677 216.572 147.621C216.516 147.563 216.488 147.493 216.488 147.41C216.488 147.329 216.516 147.26 216.572 147.202C216.629 147.145 216.699 147.116 216.782 147.116C216.864 147.116 216.933 147.145 216.99 147.202C217.048 147.26 217.077 147.329 217.077 147.41C217.077 147.493 217.048 147.563 216.99 147.621C216.933 147.677 216.864 147.705 216.782 147.705ZM216.785 145.654C216.702 145.654 216.632 145.626 216.574 145.57C216.518 145.513 216.49 145.443 216.49 145.36C216.49 145.279 216.518 145.209 216.574 145.152C216.632 145.094 216.702 145.065 216.785 145.065C216.866 145.065 216.935 145.094 216.993 145.152C217.05 145.209 217.079 145.279 217.079 145.36C217.079 145.443 217.05 145.513 216.993 145.57C216.935 145.626 216.866 145.654 216.785 145.654ZM218.862 147.689C218.658 147.689 218.483 147.64 218.337 147.542C218.193 147.442 218.076 147.305 217.984 147.131C217.895 146.955 217.829 146.751 217.786 146.52C217.746 146.288 217.725 146.04 217.725 145.776C217.725 145.512 217.746 145.264 217.786 145.032C217.829 144.799 217.895 144.594 217.984 144.418C218.076 144.241 218.193 144.102 218.337 144.002C218.483 143.901 218.658 143.85 218.862 143.85C219.067 143.85 219.241 143.901 219.385 144.002C219.531 144.102 219.648 144.241 219.738 144.418C219.828 144.594 219.893 144.799 219.936 145.032C219.978 145.264 219.999 145.512 219.999 145.776C219.999 146.04 219.978 146.288 219.936 146.52C219.893 146.751 219.828 146.955 219.738 147.131C219.648 147.305 219.531 147.442 219.385 147.542C219.241 147.64 219.067 147.689 218.862 147.689ZM218.862 147.309C219.021 147.309 219.152 147.25 219.253 147.134C219.356 147.017 219.433 146.844 219.484 146.616C219.535 146.388 219.56 146.108 219.56 145.776C219.56 145.443 219.535 145.162 219.484 144.933C219.433 144.705 219.356 144.532 219.253 144.416C219.152 144.297 219.021 144.238 218.862 144.238C218.705 144.238 218.574 144.297 218.469 144.416C218.366 144.532 218.289 144.705 218.238 144.933C218.187 145.162 218.162 145.443 218.162 145.776C218.162 146.109 218.187 146.39 218.238 146.618C218.289 146.845 218.366 147.017 218.469 147.134C218.574 147.25 218.705 147.309 218.862 147.309ZM221.747 147.689C221.542 147.689 221.367 147.64 221.222 147.542C221.078 147.442 220.96 147.305 220.869 147.131C220.779 146.955 220.713 146.751 220.671 146.52C220.63 146.288 220.61 146.04 220.61 145.776C220.61 145.512 220.63 145.264 220.671 145.032C220.713 144.799 220.779 144.594 220.869 144.418C220.96 144.241 221.078 144.102 221.222 144.002C221.367 143.901 221.542 143.85 221.747 143.85C221.952 143.85 222.126 143.901 222.27 144.002C222.415 144.102 222.533 144.241 222.623 144.418C222.712 144.594 222.778 144.799 222.82 145.032C222.863 145.264 222.884 145.512 222.884 145.776C222.884 146.04 222.863 146.288 222.82 146.52C222.778 146.751 222.712 146.955 222.623 147.131C222.533 147.305 222.415 147.442 222.27 147.542C222.126 147.64 221.952 147.689 221.747 147.689ZM221.747 147.309C221.906 147.309 222.036 147.25 222.138 147.134C222.241 147.017 222.318 146.844 222.369 146.616C222.42 146.388 222.445 146.108 222.445 145.776C222.445 145.443 222.42 145.162 222.369 144.933C222.318 144.705 222.241 144.532 222.138 144.416C222.036 144.297 221.906 144.238 221.747 144.238C221.59 144.238 221.459 144.297 221.354 144.416C221.25 144.532 221.173 144.705 221.123 144.933C221.072 145.162 221.047 145.443 221.047 145.776C221.047 146.109 221.072 146.39 221.123 146.618C221.173 146.845 221.25 147.017 221.354 147.134C221.459 147.25 221.59 147.309 221.747 147.309Z" fill="#464E5F"/>
<path d="M242.562 147.689C242.319 147.689 242.109 147.644 241.933 147.552C241.757 147.459 241.622 147.331 241.527 147.167C241.432 147.001 241.385 146.81 241.385 146.593C241.385 146.399 241.417 146.237 241.481 146.108C241.545 145.98 241.627 145.879 241.727 145.806C241.827 145.734 241.929 145.684 242.034 145.657C241.945 145.636 241.857 145.592 241.77 145.525C241.684 145.457 241.613 145.364 241.557 145.246C241.501 145.125 241.473 144.979 241.473 144.807C241.473 144.61 241.522 144.441 241.618 144.299C241.716 144.155 241.847 144.044 242.011 143.967C242.176 143.889 242.359 143.85 242.562 143.85C242.765 143.85 242.949 143.889 243.113 143.967C243.279 144.044 243.41 144.155 243.506 144.299C243.603 144.441 243.651 144.61 243.651 144.807C243.651 144.979 243.623 145.125 243.567 145.246C243.511 145.364 243.44 145.457 243.354 145.525C243.268 145.592 243.18 145.636 243.09 145.657C243.197 145.684 243.299 145.734 243.397 145.806C243.497 145.879 243.579 145.98 243.643 146.108C243.708 146.237 243.74 146.399 243.74 146.593C243.74 146.81 243.692 147.001 243.598 147.167C243.503 147.331 243.367 147.459 243.192 147.552C243.016 147.644 242.806 147.689 242.562 147.689ZM242.562 147.309C242.698 147.309 242.82 147.283 242.93 147.233C243.042 147.182 243.131 147.104 243.197 146.999C243.263 146.894 243.296 146.761 243.296 146.598C243.296 146.449 243.265 146.319 243.204 146.207C243.143 146.094 243.058 146.006 242.948 145.943C242.838 145.881 242.709 145.85 242.562 145.85C242.415 145.85 242.286 145.881 242.176 145.943C242.066 146.006 241.981 146.094 241.92 146.207C241.859 146.319 241.829 146.449 241.829 146.598C241.829 146.761 241.862 146.894 241.928 146.999C241.994 147.104 242.082 147.182 242.192 147.233C242.303 147.283 242.427 147.309 242.562 147.309ZM242.562 145.479C242.76 145.479 242.921 145.421 243.044 145.304C243.168 145.187 243.23 145.032 243.23 144.837C243.23 144.692 243.198 144.575 243.136 144.487C243.073 144.399 242.991 144.335 242.89 144.296C242.788 144.256 242.679 144.236 242.562 144.236C242.445 144.236 242.336 144.256 242.235 144.296C242.133 144.335 242.051 144.399 241.989 144.487C241.926 144.575 241.895 144.692 241.895 144.837C241.895 145.032 241.956 145.187 242.077 145.304C242.201 145.421 242.363 145.479 242.562 145.479ZM244.767 147.705C244.684 147.705 244.614 147.677 244.556 147.621C244.5 147.563 244.473 147.493 244.473 147.41C244.473 147.329 244.5 147.26 244.556 147.202C244.614 147.145 244.684 147.116 244.767 147.116C244.848 147.116 244.918 147.145 244.975 147.202C245.033 147.26 245.061 147.329 245.061 147.41C245.061 147.493 245.033 147.563 244.975 147.621C244.918 147.677 244.848 147.705 244.767 147.705ZM244.769 145.654C244.687 145.654 244.616 145.626 244.559 145.57C244.503 145.513 244.475 145.443 244.475 145.36C244.475 145.279 244.503 145.209 244.559 145.152C244.616 145.094 244.687 145.065 244.769 145.065C244.851 145.065 244.92 145.094 244.978 145.152C245.035 145.209 245.064 145.279 245.064 145.36C245.064 145.443 245.035 145.513 244.978 145.57C244.92 145.626 244.851 145.654 244.769 145.654ZM247.316 145.667C247.465 145.672 247.585 145.714 247.674 145.794C247.766 145.873 247.832 145.978 247.872 146.108C247.913 146.237 247.933 146.379 247.933 146.535C247.933 146.753 247.894 146.949 247.816 147.124C247.74 147.298 247.623 147.436 247.464 147.537C247.306 147.639 247.106 147.689 246.862 147.689C246.661 147.689 246.49 147.662 246.35 147.608C246.209 147.554 246.095 147.475 246.007 147.372C245.921 147.269 245.857 147.144 245.817 146.997C245.776 146.849 245.756 146.684 245.756 146.499C245.756 146.498 245.756 146.496 245.756 146.494C245.756 146.492 245.756 146.491 245.756 146.489H246.19C246.19 146.491 246.19 146.492 246.19 146.494C246.19 146.496 246.19 146.498 246.19 146.499C246.19 146.711 246.217 146.876 246.271 146.994C246.325 147.111 246.402 147.193 246.502 147.24C246.603 147.286 246.725 147.309 246.867 147.309C247.062 147.309 247.215 147.244 247.327 147.116C247.44 146.987 247.497 146.79 247.497 146.525C247.497 146.437 247.487 146.353 247.469 146.273C247.452 146.192 247.42 146.121 247.372 146.06C247.327 145.998 247.261 145.949 247.177 145.913C247.092 145.876 246.983 145.857 246.849 145.857H246.71V145.504H246.849C246.98 145.504 247.086 145.487 247.169 145.451C247.254 145.414 247.32 145.366 247.367 145.306C247.415 145.246 247.448 145.178 247.466 145.103C247.486 145.027 247.497 144.95 247.497 144.873C247.497 144.648 247.441 144.485 247.329 144.385C247.217 144.285 247.066 144.236 246.875 144.236C246.667 144.236 246.5 144.291 246.375 144.401C246.251 144.51 246.19 144.708 246.19 144.994H245.756C245.756 144.825 245.778 144.67 245.822 144.53C245.867 144.39 245.936 144.269 246.027 144.167C246.119 144.066 246.234 143.988 246.372 143.934C246.513 143.878 246.678 143.85 246.867 143.85C247.109 143.85 247.309 143.894 247.466 143.982C247.623 144.07 247.74 144.19 247.816 144.342C247.894 144.493 247.933 144.663 247.933 144.852C247.933 144.991 247.913 145.121 247.872 145.243C247.832 145.365 247.766 145.465 247.674 145.542C247.585 145.619 247.465 145.66 247.316 145.667ZM249.747 147.689C249.542 147.689 249.367 147.64 249.221 147.542C249.077 147.442 248.96 147.305 248.868 147.131C248.779 146.955 248.713 146.751 248.671 146.52C248.63 146.288 248.61 146.04 248.61 145.776C248.61 145.512 248.63 145.264 248.671 145.032C248.713 144.799 248.779 144.594 248.868 144.418C248.96 144.241 249.077 144.102 249.221 144.002C249.367 143.901 249.542 143.85 249.747 143.85C249.951 143.85 250.125 143.901 250.269 144.002C250.415 144.102 250.532 144.241 250.622 144.418C250.712 144.594 250.778 144.799 250.82 145.032C250.862 145.264 250.883 145.512 250.883 145.776C250.883 146.04 250.862 146.288 250.82 146.52C250.778 146.751 250.712 146.955 250.622 147.131C250.532 147.305 250.415 147.442 250.269 147.542C250.125 147.64 249.951 147.689 249.747 147.689ZM249.747 147.309C249.906 147.309 250.036 147.25 250.137 147.134C250.241 147.017 250.318 146.844 250.368 146.616C250.419 146.388 250.444 146.108 250.444 145.776C250.444 145.443 250.419 145.162 250.368 144.933C250.318 144.705 250.241 144.532 250.137 144.416C250.036 144.297 249.906 144.238 249.747 144.238C249.589 144.238 249.458 144.297 249.353 144.416C249.25 144.532 249.173 144.705 249.122 144.933C249.071 145.162 249.046 145.443 249.046 145.776C249.046 146.109 249.071 146.39 249.122 146.618C249.173 146.845 249.25 147.017 249.353 147.134C249.458 147.25 249.589 147.309 249.747 147.309Z" fill="#464E5F"/>
<path d="M264.664 147.689C264.477 147.689 264.324 147.657 264.204 147.593C264.086 147.527 263.994 147.444 263.928 147.344C263.862 147.244 263.815 147.141 263.788 147.035C263.763 146.928 263.75 146.833 263.75 146.75C263.75 146.747 263.75 146.745 263.75 146.745C263.75 146.744 263.75 146.742 263.75 146.74H264.156C264.156 146.742 264.156 146.744 264.156 146.745C264.156 146.745 264.156 146.747 264.156 146.75C264.156 146.811 264.163 146.875 264.176 146.941C264.192 147.005 264.218 147.065 264.255 147.121C264.292 147.177 264.344 147.222 264.41 147.255C264.477 147.289 264.563 147.306 264.666 147.306C264.803 147.306 264.925 147.25 265.032 147.139C265.138 147.025 265.222 146.833 265.283 146.56C265.345 146.286 265.377 145.909 265.377 145.428H265.585C265.585 145.606 265.54 145.762 265.45 145.895C265.362 146.029 265.245 146.133 265.098 146.207C264.952 146.28 264.793 146.317 264.62 146.317C264.407 146.317 264.225 146.265 264.075 146.162C263.926 146.057 263.812 145.914 263.732 145.733C263.653 145.55 263.613 145.341 263.613 145.106C263.613 144.859 263.654 144.642 263.737 144.454C263.82 144.264 263.943 144.116 264.105 144.01C264.268 143.903 264.466 143.85 264.702 143.85C264.947 143.85 265.15 143.92 265.311 144.06C265.471 144.199 265.591 144.394 265.669 144.644C265.748 144.893 265.788 145.183 265.788 145.515C265.788 145.916 265.759 146.255 265.701 146.532C265.644 146.81 265.564 147.034 265.46 147.205C265.359 147.374 265.24 147.497 265.103 147.575C264.967 147.651 264.821 147.689 264.664 147.689ZM264.658 145.936C264.794 145.936 264.914 145.904 265.019 145.839C265.124 145.775 265.206 145.685 265.265 145.568C265.326 145.451 265.356 145.313 265.356 145.154C265.356 144.983 265.329 144.829 265.275 144.69C265.223 144.549 265.147 144.438 265.049 144.355C264.951 144.272 264.834 144.23 264.699 144.23C264.557 144.23 264.438 144.264 264.341 144.332C264.245 144.4 264.172 144.497 264.123 144.624C264.074 144.749 264.049 144.9 264.049 145.078C264.049 145.244 264.072 145.392 264.118 145.522C264.165 145.651 264.235 145.752 264.326 145.827C264.417 145.899 264.528 145.936 264.658 145.936ZM266.797 147.705C266.714 147.705 266.644 147.677 266.587 147.621C266.531 147.563 266.503 147.493 266.503 147.41C266.503 147.329 266.531 147.26 266.587 147.202C266.644 147.145 266.714 147.116 266.797 147.116C266.879 147.116 266.948 147.145 267.005 147.202C267.063 147.26 267.092 147.329 267.092 147.41C267.092 147.493 267.063 147.563 267.005 147.621C266.948 147.677 266.879 147.705 266.797 147.705ZM266.8 145.654C266.717 145.654 266.647 145.626 266.589 145.57C266.533 145.513 266.505 145.443 266.505 145.36C266.505 145.279 266.533 145.209 266.589 145.152C266.647 145.094 266.717 145.065 266.8 145.065C266.881 145.065 266.95 145.094 267.008 145.152C267.065 145.209 267.094 145.279 267.094 145.36C267.094 145.443 267.065 145.513 267.008 145.57C266.95 145.626 266.881 145.654 266.8 145.654ZM268.877 147.689C268.673 147.689 268.498 147.64 268.352 147.542C268.208 147.442 268.091 147.305 267.999 147.131C267.91 146.955 267.844 146.751 267.801 146.52C267.761 146.288 267.74 146.04 267.74 145.776C267.74 145.512 267.761 145.264 267.801 145.032C267.844 144.799 267.91 144.594 267.999 144.418C268.091 144.241 268.208 144.102 268.352 144.002C268.498 143.901 268.673 143.85 268.877 143.85C269.082 143.85 269.256 143.901 269.4 144.002C269.546 144.102 269.663 144.241 269.753 144.418C269.843 144.594 269.908 144.799 269.951 145.032C269.993 145.264 270.014 145.512 270.014 145.776C270.014 146.04 269.993 146.288 269.951 146.52C269.908 146.751 269.843 146.955 269.753 147.131C269.663 147.305 269.546 147.442 269.4 147.542C269.256 147.64 269.082 147.689 268.877 147.689ZM268.877 147.309C269.036 147.309 269.167 147.25 269.268 147.134C269.371 147.017 269.448 146.844 269.499 146.616C269.55 146.388 269.575 146.108 269.575 145.776C269.575 145.443 269.55 145.162 269.499 144.933C269.448 144.705 269.371 144.532 269.268 144.416C269.167 144.297 269.036 144.238 268.877 144.238C268.72 144.238 268.589 144.297 268.484 144.416C268.381 144.532 268.304 144.705 268.253 144.933C268.202 145.162 268.177 145.443 268.177 145.776C268.177 146.109 268.202 146.39 268.253 146.618C268.304 146.845 268.381 147.017 268.484 147.134C268.589 147.25 268.72 147.309 268.877 147.309ZM271.762 147.689C271.557 147.689 271.382 147.64 271.237 147.542C271.093 147.442 270.975 147.305 270.884 147.131C270.794 146.955 270.728 146.751 270.686 146.52C270.645 146.288 270.625 146.04 270.625 145.776C270.625 145.512 270.645 145.264 270.686 145.032C270.728 144.799 270.794 144.594 270.884 144.418C270.975 144.241 271.093 144.102 271.237 144.002C271.382 143.901 271.557 143.85 271.762 143.85C271.967 143.85 272.141 143.901 272.285 144.002C272.43 144.102 272.548 144.241 272.638 144.418C272.727 144.594 272.793 144.799 272.835 145.032C272.878 145.264 272.899 145.512 272.899 145.776C272.899 146.04 272.878 146.288 272.835 146.52C272.793 146.751 272.727 146.955 272.638 147.131C272.548 147.305 272.43 147.442 272.285 147.542C272.141 147.64 271.967 147.689 271.762 147.689ZM271.762 147.309C271.921 147.309 272.051 147.25 272.153 147.134C272.256 147.017 272.333 146.844 272.384 146.616C272.435 146.388 272.46 146.108 272.46 145.776C272.46 145.443 272.435 145.162 272.384 144.933C272.333 144.705 272.256 144.532 272.153 144.416C272.051 144.297 271.921 144.238 271.762 144.238C271.605 144.238 271.474 144.297 271.369 144.416C271.265 144.532 271.188 144.705 271.138 144.933C271.087 145.162 271.062 145.443 271.062 145.776C271.062 146.109 271.087 146.39 271.138 146.618C271.188 146.845 271.265 147.017 271.369 147.134C271.474 147.25 271.605 147.309 271.762 147.309Z" fill="#464E5F"/>
<path d="M292.152 147.689C291.966 147.689 291.813 147.657 291.692 147.593C291.574 147.527 291.482 147.444 291.416 147.344C291.35 147.244 291.303 147.141 291.276 147.035C291.251 146.928 291.238 146.833 291.238 146.75C291.238 146.747 291.238 146.745 291.238 146.745C291.238 146.744 291.238 146.742 291.238 146.74H291.644C291.644 146.742 291.644 146.744 291.644 146.745C291.644 146.745 291.644 146.747 291.644 146.75C291.644 146.811 291.651 146.875 291.664 146.941C291.68 147.005 291.706 147.065 291.743 147.121C291.78 147.177 291.832 147.222 291.898 147.255C291.966 147.289 292.051 147.306 292.154 147.306C292.291 147.306 292.413 147.25 292.52 147.139C292.626 147.025 292.71 146.833 292.771 146.56C292.834 146.286 292.865 145.909 292.865 145.428H293.073C293.073 145.606 293.028 145.762 292.938 145.895C292.85 146.029 292.733 146.133 292.586 146.207C292.44 146.28 292.281 146.317 292.109 146.317C291.895 146.317 291.714 146.265 291.563 146.162C291.414 146.057 291.3 145.914 291.22 145.733C291.141 145.55 291.101 145.341 291.101 145.106C291.101 144.859 291.143 144.642 291.225 144.454C291.308 144.264 291.431 144.116 291.593 144.01C291.756 143.903 291.955 143.85 292.19 143.85C292.435 143.85 292.638 143.92 292.799 144.06C292.96 144.199 293.079 144.394 293.157 144.644C293.236 144.893 293.276 145.183 293.276 145.515C293.276 145.916 293.247 146.255 293.19 146.532C293.132 146.81 293.052 147.034 292.949 147.205C292.847 147.374 292.728 147.497 292.591 147.575C292.455 147.651 292.309 147.689 292.152 147.689ZM292.147 145.936C292.282 145.936 292.402 145.904 292.507 145.839C292.612 145.775 292.694 145.685 292.753 145.568C292.814 145.451 292.845 145.313 292.845 145.154C292.845 144.983 292.817 144.829 292.763 144.69C292.711 144.549 292.636 144.438 292.537 144.355C292.439 144.272 292.323 144.23 292.187 144.23C292.045 144.23 291.926 144.264 291.829 144.332C291.733 144.4 291.66 144.497 291.611 144.624C291.562 144.749 291.538 144.9 291.538 145.078C291.538 145.244 291.56 145.392 291.606 145.522C291.653 145.651 291.723 145.752 291.814 145.827C291.906 145.899 292.016 145.936 292.147 145.936ZM294.286 147.705C294.203 147.705 294.132 147.677 294.075 147.621C294.019 147.563 293.991 147.493 293.991 147.41C293.991 147.329 294.019 147.26 294.075 147.202C294.132 147.145 294.203 147.116 294.286 147.116C294.367 147.116 294.436 147.145 294.494 147.202C294.551 147.26 294.58 147.329 294.58 147.41C294.58 147.493 294.551 147.563 294.494 147.621C294.436 147.677 294.367 147.705 294.286 147.705ZM294.288 145.654C294.205 145.654 294.135 145.626 294.077 145.57C294.022 145.513 293.994 145.443 293.994 145.36C293.994 145.279 294.022 145.209 294.077 145.152C294.135 145.094 294.205 145.065 294.288 145.065C294.369 145.065 294.439 145.094 294.496 145.152C294.554 145.209 294.582 145.279 294.582 145.36C294.582 145.443 294.554 145.513 294.496 145.57C294.439 145.626 294.369 145.654 294.288 145.654ZM296.835 145.667C296.984 145.672 297.103 145.714 297.193 145.794C297.284 145.873 297.35 145.978 297.391 146.108C297.431 146.237 297.452 146.379 297.452 146.535C297.452 146.753 297.413 146.949 297.335 147.124C297.259 147.298 297.141 147.436 296.982 147.537C296.825 147.639 296.624 147.689 296.381 147.689C296.179 147.689 296.009 147.662 295.868 147.608C295.728 147.554 295.613 147.475 295.526 147.372C295.439 147.269 295.376 147.144 295.335 146.997C295.295 146.849 295.274 146.684 295.274 146.499C295.274 146.498 295.274 146.496 295.274 146.494C295.274 146.492 295.274 146.491 295.274 146.489H295.708C295.708 146.491 295.708 146.492 295.708 146.494C295.708 146.496 295.708 146.498 295.708 146.499C295.708 146.711 295.735 146.876 295.789 146.994C295.844 147.111 295.921 147.193 296.02 147.24C296.122 147.286 296.244 147.309 296.386 147.309C296.58 147.309 296.733 147.244 296.845 147.116C296.958 146.987 297.015 146.79 297.015 146.525C297.015 146.437 297.006 146.353 296.987 146.273C296.97 146.192 296.938 146.121 296.891 146.06C296.845 145.998 296.78 145.949 296.695 145.913C296.611 145.876 296.502 145.857 296.368 145.857H296.228V145.504H296.368C296.498 145.504 296.605 145.487 296.688 145.451C296.772 145.414 296.838 145.366 296.886 145.306C296.933 145.246 296.966 145.178 296.985 145.103C297.005 145.027 297.015 144.95 297.015 144.873C297.015 144.648 296.959 144.485 296.848 144.385C296.736 144.285 296.585 144.236 296.393 144.236C296.185 144.236 296.019 144.291 295.893 144.401C295.77 144.51 295.708 144.708 295.708 144.994H295.274C295.274 144.825 295.296 144.67 295.34 144.53C295.386 144.39 295.454 144.269 295.546 144.167C295.637 144.066 295.752 143.988 295.891 143.934C296.031 143.878 296.196 143.85 296.386 143.85C296.628 143.85 296.827 143.894 296.985 143.982C297.142 144.07 297.259 144.19 297.335 144.342C297.413 144.493 297.452 144.663 297.452 144.852C297.452 144.991 297.431 145.121 297.391 145.243C297.35 145.365 297.284 145.465 297.193 145.542C297.103 145.619 296.984 145.66 296.835 145.667ZM299.265 147.689C299.06 147.689 298.885 147.64 298.74 147.542C298.596 147.442 298.478 147.305 298.387 147.131C298.297 146.955 298.231 146.751 298.189 146.52C298.148 146.288 298.128 146.04 298.128 145.776C298.128 145.512 298.148 145.264 298.189 145.032C298.231 144.799 298.297 144.594 298.387 144.418C298.478 144.241 298.596 144.102 298.74 144.002C298.885 143.901 299.06 143.85 299.265 143.85C299.47 143.85 299.644 143.901 299.788 144.002C299.933 144.102 300.051 144.241 300.141 144.418C300.23 144.594 300.296 144.799 300.339 145.032C300.381 145.264 300.402 145.512 300.402 145.776C300.402 146.04 300.381 146.288 300.339 146.52C300.296 146.751 300.23 146.955 300.141 147.131C300.051 147.305 299.933 147.442 299.788 147.542C299.644 147.64 299.47 147.689 299.265 147.689ZM299.265 147.309C299.424 147.309 299.554 147.25 299.656 147.134C299.759 147.017 299.836 146.844 299.887 146.616C299.938 146.388 299.963 146.108 299.963 145.776C299.963 145.443 299.938 145.162 299.887 144.933C299.836 144.705 299.759 144.532 299.656 144.416C299.554 144.297 299.424 144.238 299.265 144.238C299.108 144.238 298.977 144.297 298.872 144.416C298.769 144.532 298.692 144.705 298.641 144.933C298.59 145.162 298.565 145.443 298.565 145.776C298.565 146.109 298.59 146.39 298.641 146.618C298.692 146.845 298.769 147.017 298.872 147.134C298.977 147.25 299.108 147.309 299.265 147.309Z" fill="#464E5F"/>
<path d="M319.625 143.883V147.639H319.193V144.352C319.18 144.371 319.137 144.395 319.066 144.426C318.997 144.456 318.911 144.486 318.807 144.515C318.706 144.542 318.598 144.561 318.483 144.573V144.182C318.596 144.164 318.703 144.137 318.802 144.104C318.904 144.07 318.99 144.033 319.061 143.994C319.132 143.954 319.18 143.917 319.203 143.883H319.625ZM321.676 147.689C321.471 147.689 321.296 147.64 321.15 147.542C321.007 147.442 320.889 147.305 320.798 147.131C320.708 146.955 320.642 146.751 320.6 146.52C320.559 146.288 320.539 146.04 320.539 145.776C320.539 145.512 320.559 145.264 320.6 145.032C320.642 144.799 320.708 144.594 320.798 144.418C320.889 144.241 321.007 144.102 321.15 144.002C321.296 143.901 321.471 143.85 321.676 143.85C321.88 143.85 322.055 143.901 322.198 144.002C322.344 144.102 322.462 144.241 322.551 144.418C322.641 144.594 322.707 144.799 322.749 145.032C322.791 145.264 322.813 145.512 322.813 145.776C322.813 146.04 322.791 146.288 322.749 146.52C322.707 146.751 322.641 146.955 322.551 147.131C322.462 147.305 322.344 147.442 322.198 147.542C322.055 147.64 321.88 147.689 321.676 147.689ZM321.676 147.309C321.835 147.309 321.965 147.25 322.067 147.134C322.17 147.017 322.247 146.844 322.297 146.616C322.348 146.388 322.374 146.108 322.374 145.776C322.374 145.443 322.348 145.162 322.297 144.933C322.247 144.705 322.17 144.532 322.067 144.416C321.965 144.297 321.835 144.238 321.676 144.238C321.518 144.238 321.387 144.297 321.282 144.416C321.179 144.532 321.102 144.705 321.051 144.933C321.001 145.162 320.975 145.443 320.975 145.776C320.975 146.109 321.001 146.39 321.051 146.618C321.102 146.845 321.179 147.017 321.282 147.134C321.387 147.25 321.518 147.309 321.676 147.309ZM323.789 147.705C323.706 147.705 323.636 147.677 323.578 147.621C323.522 147.563 323.495 147.493 323.495 147.41C323.495 147.329 323.522 147.26 323.578 147.202C323.636 147.145 323.706 147.116 323.789 147.116C323.87 147.116 323.939 147.145 323.997 147.202C324.055 147.26 324.083 147.329 324.083 147.41C324.083 147.493 324.055 147.563 323.997 147.621C323.939 147.677 323.87 147.705 323.789 147.705ZM323.791 145.654C323.709 145.654 323.638 145.626 323.581 145.57C323.525 145.513 323.497 145.443 323.497 145.36C323.497 145.279 323.525 145.209 323.581 145.152C323.638 145.094 323.709 145.065 323.791 145.065C323.873 145.065 323.942 145.094 324 145.152C324.057 145.209 324.086 145.279 324.086 145.36C324.086 145.443 324.057 145.513 324 145.57C323.942 145.626 323.873 145.654 323.791 145.654ZM325.869 147.689C325.664 147.689 325.489 147.64 325.344 147.542C325.2 147.442 325.082 147.305 324.991 147.131C324.901 146.955 324.835 146.751 324.793 146.52C324.752 146.288 324.732 146.04 324.732 145.776C324.732 145.512 324.752 145.264 324.793 145.032C324.835 144.799 324.901 144.594 324.991 144.418C325.082 144.241 325.2 144.102 325.344 144.002C325.489 143.901 325.664 143.85 325.869 143.85C326.074 143.85 326.248 143.901 326.392 144.002C326.537 144.102 326.655 144.241 326.744 144.418C326.834 144.594 326.9 144.799 326.942 145.032C326.985 145.264 327.006 145.512 327.006 145.776C327.006 146.04 326.985 146.288 326.942 146.52C326.9 146.751 326.834 146.955 326.744 147.131C326.655 147.305 326.537 147.442 326.392 147.542C326.248 147.64 326.074 147.689 325.869 147.689ZM325.869 147.309C326.028 147.309 326.158 147.25 326.26 147.134C326.363 147.017 326.44 146.844 326.491 146.616C326.541 146.388 326.567 146.108 326.567 145.776C326.567 145.443 326.541 145.162 326.491 144.933C326.44 144.705 326.363 144.532 326.26 144.416C326.158 144.297 326.028 144.238 325.869 144.238C325.712 144.238 325.58 144.297 325.476 144.416C325.372 144.532 325.295 144.705 325.245 144.933C325.194 145.162 325.168 145.443 325.168 145.776C325.168 146.109 325.194 146.39 325.245 146.618C325.295 146.845 325.372 147.017 325.476 147.134C325.58 147.25 325.712 147.309 325.869 147.309ZM328.754 147.689C328.549 147.689 328.374 147.64 328.228 147.542C328.084 147.442 327.967 147.305 327.876 147.131C327.786 146.955 327.72 146.751 327.678 146.52C327.637 146.288 327.617 146.04 327.617 145.776C327.617 145.512 327.637 145.264 327.678 145.032C327.72 144.799 327.786 144.594 327.876 144.418C327.967 144.241 328.084 144.102 328.228 144.002C328.374 143.901 328.549 143.85 328.754 143.85C328.958 143.85 329.133 143.901 329.276 144.002C329.422 144.102 329.539 144.241 329.629 144.418C329.719 144.594 329.785 144.799 329.827 145.032C329.869 145.264 329.891 145.512 329.891 145.776C329.891 146.04 329.869 146.288 329.827 146.52C329.785 146.751 329.719 146.955 329.629 147.131C329.539 147.305 329.422 147.442 329.276 147.542C329.133 147.64 328.958 147.689 328.754 147.689ZM328.754 147.309C328.913 147.309 329.043 147.25 329.144 147.134C329.248 147.017 329.325 146.844 329.375 146.616C329.426 146.388 329.451 146.108 329.451 145.776C329.451 145.443 329.426 145.162 329.375 144.933C329.325 144.705 329.248 144.532 329.144 144.416C329.043 144.297 328.913 144.238 328.754 144.238C328.596 144.238 328.465 144.297 328.36 144.416C328.257 144.532 328.18 144.705 328.129 144.933C328.079 145.162 328.053 145.443 328.053 145.776C328.053 146.109 328.079 146.39 328.129 146.618C328.18 146.845 328.257 147.017 328.36 147.134C328.465 147.25 328.596 147.309 328.754 147.309Z" fill="#464E5F"/>
<path d="M347.727 143.883V147.639H347.295V144.352C347.282 144.371 347.239 144.395 347.168 144.426C347.099 144.456 347.013 144.486 346.909 144.515C346.808 144.542 346.7 144.561 346.585 144.573V144.182C346.698 144.164 346.805 144.137 346.904 144.104C347.006 144.07 347.092 144.033 347.163 143.994C347.234 143.954 347.282 143.917 347.305 143.883H347.727ZM349.778 147.689C349.573 147.689 349.398 147.64 349.252 147.542C349.109 147.442 348.991 147.305 348.9 147.131C348.81 146.955 348.744 146.751 348.702 146.52C348.661 146.288 348.641 146.04 348.641 145.776C348.641 145.512 348.661 145.264 348.702 145.032C348.744 144.799 348.81 144.594 348.9 144.418C348.991 144.241 349.109 144.102 349.252 144.002C349.398 143.901 349.573 143.85 349.778 143.85C349.982 143.85 350.157 143.901 350.3 144.002C350.446 144.102 350.563 144.241 350.653 144.418C350.743 144.594 350.809 144.799 350.851 145.032C350.893 145.264 350.915 145.512 350.915 145.776C350.915 146.04 350.893 146.288 350.851 146.52C350.809 146.751 350.743 146.955 350.653 147.131C350.563 147.305 350.446 147.442 350.3 147.542C350.157 147.64 349.982 147.689 349.778 147.689ZM349.778 147.309C349.937 147.309 350.067 147.25 350.168 147.134C350.272 147.017 350.349 146.844 350.399 146.616C350.45 146.388 350.476 146.108 350.476 145.776C350.476 145.443 350.45 145.162 350.399 144.933C350.349 144.705 350.272 144.532 350.168 144.416C350.067 144.297 349.937 144.238 349.778 144.238C349.62 144.238 349.489 144.297 349.384 144.416C349.281 144.532 349.204 144.705 349.153 144.933C349.103 145.162 349.077 145.443 349.077 145.776C349.077 146.109 349.103 146.39 349.153 146.618C349.204 146.845 349.281 147.017 349.384 147.134C349.489 147.25 349.62 147.309 349.778 147.309ZM351.891 147.705C351.808 147.705 351.738 147.677 351.68 147.621C351.624 147.563 351.596 147.493 351.596 147.41C351.596 147.329 351.624 147.26 351.68 147.202C351.738 147.145 351.808 147.116 351.891 147.116C351.972 147.116 352.041 147.145 352.099 147.202C352.156 147.26 352.185 147.329 352.185 147.41C352.185 147.493 352.156 147.563 352.099 147.621C352.041 147.677 351.972 147.705 351.891 147.705ZM351.893 145.654C351.81 145.654 351.74 145.626 351.683 145.57C351.627 145.513 351.599 145.443 351.599 145.36C351.599 145.279 351.627 145.209 351.683 145.152C351.74 145.094 351.81 145.065 351.893 145.065C351.975 145.065 352.044 145.094 352.101 145.152C352.159 145.209 352.188 145.279 352.188 145.36C352.188 145.443 352.159 145.513 352.101 145.57C352.044 145.626 351.975 145.654 351.893 145.654ZM354.44 145.667C354.589 145.672 354.708 145.714 354.798 145.794C354.89 145.873 354.955 145.978 354.996 146.108C355.037 146.237 355.057 146.379 355.057 146.535C355.057 146.753 355.018 146.949 354.94 147.124C354.864 147.298 354.747 147.436 354.588 147.537C354.43 147.639 354.23 147.689 353.986 147.689C353.785 147.689 353.614 147.662 353.473 147.608C353.333 147.554 353.219 147.475 353.131 147.372C353.045 147.269 352.981 147.144 352.941 146.997C352.9 146.849 352.88 146.684 352.88 146.499C352.88 146.498 352.88 146.496 352.88 146.494C352.88 146.492 352.88 146.491 352.88 146.489H353.314C353.314 146.491 353.314 146.492 353.314 146.494C353.314 146.496 353.314 146.498 353.314 146.499C353.314 146.711 353.341 146.876 353.395 146.994C353.449 147.111 353.526 147.193 353.626 147.24C353.727 147.286 353.849 147.309 353.991 147.309C354.186 147.309 354.339 147.244 354.45 147.116C354.564 146.987 354.621 146.79 354.621 146.525C354.621 146.437 354.611 146.353 354.593 146.273C354.576 146.192 354.544 146.121 354.496 146.06C354.45 145.998 354.385 145.949 354.301 145.913C354.216 145.876 354.107 145.857 353.973 145.857H353.834V145.504H353.973C354.104 145.504 354.21 145.487 354.293 145.451C354.378 145.414 354.444 145.366 354.491 145.306C354.538 145.246 354.571 145.178 354.59 145.103C354.61 145.027 354.621 144.95 354.621 144.873C354.621 144.648 354.565 144.485 354.453 144.385C354.341 144.285 354.19 144.236 353.999 144.236C353.791 144.236 353.624 144.291 353.499 144.401C353.375 144.51 353.314 144.708 353.314 144.994H352.88C352.88 144.825 352.902 144.67 352.946 144.53C352.991 144.39 353.06 144.269 353.151 144.167C353.243 144.066 353.358 143.988 353.496 143.934C353.637 143.878 353.802 143.85 353.991 143.85C354.233 143.85 354.433 143.894 354.59 143.982C354.747 144.07 354.864 144.19 354.94 144.342C355.018 144.493 355.057 144.663 355.057 144.852C355.057 144.991 355.037 145.121 354.996 145.243C354.955 145.365 354.89 145.465 354.798 145.542C354.708 145.619 354.589 145.66 354.44 145.667ZM356.87 147.689C356.666 147.689 356.491 147.64 356.345 147.542C356.201 147.442 356.084 147.305 355.992 147.131C355.903 146.955 355.837 146.751 355.794 146.52C355.754 146.288 355.734 146.04 355.734 145.776C355.734 145.512 355.754 145.264 355.794 145.032C355.837 144.799 355.903 144.594 355.992 144.418C356.084 144.241 356.201 144.102 356.345 144.002C356.491 143.901 356.666 143.85 356.87 143.85C357.075 143.85 357.249 143.901 357.393 144.002C357.539 144.102 357.656 144.241 357.746 144.418C357.836 144.594 357.902 144.799 357.944 145.032C357.986 145.264 358.007 145.512 358.007 145.776C358.007 146.04 357.986 146.288 357.944 146.52C357.902 146.751 357.836 146.955 357.746 147.131C357.656 147.305 357.539 147.442 357.393 147.542C357.249 147.64 357.075 147.689 356.87 147.689ZM356.87 147.309C357.029 147.309 357.16 147.25 357.261 147.134C357.364 147.017 357.441 146.844 357.492 146.616C357.543 146.388 357.568 146.108 357.568 145.776C357.568 145.443 357.543 145.162 357.492 144.933C357.441 144.705 357.364 144.532 357.261 144.416C357.16 144.297 357.029 144.238 356.87 144.238C356.713 144.238 356.582 144.297 356.477 144.416C356.374 144.532 356.297 144.705 356.246 144.933C356.195 145.162 356.17 145.443 356.17 145.776C356.17 146.109 356.195 146.39 356.246 146.618C356.297 146.845 356.374 147.017 356.477 147.134C356.582 147.25 356.713 147.309 356.87 147.309Z" fill="#464E5F"/>
<path d="M88.3651 30.709V18.5194H96.0097V20.6439H90.4896V23.1166H94.8691V25.2411H90.4896V28.5845H96.0097V30.709H88.3651ZM100.491 30.8657C100.038 30.8367 99.5997 30.7467 99.176 30.5958C98.7581 30.4391 98.3866 30.2272 98.0615 29.9602C97.7365 29.6932 97.4869 29.3739 97.3127 29.0024L99.1063 28.2362C99.176 28.3523 99.2892 28.4771 99.4459 28.6106C99.6026 28.7383 99.7884 28.8457 100.003 28.9328C100.224 29.0199 100.465 29.0634 100.726 29.0634C100.946 29.0634 101.155 29.0344 101.353 28.9763C101.556 28.9125 101.718 28.8167 101.84 28.689C101.968 28.5613 102.032 28.3959 102.032 28.1927C102.032 27.9779 101.956 27.8125 101.805 27.6964C101.66 27.5745 101.475 27.4846 101.248 27.4265C101.028 27.3627 100.813 27.3046 100.604 27.2524C100.052 27.1421 99.5388 26.9709 99.0628 26.7387C98.5926 26.5065 98.2124 26.2076 97.9222 25.8419C97.6378 25.4704 97.4956 25.0234 97.4956 24.501C97.4956 23.9264 97.6465 23.4301 97.9483 23.0122C98.256 22.5942 98.6536 22.2721 99.1412 22.0457C99.6346 21.8193 100.166 21.7061 100.735 21.7061C101.425 21.7061 102.058 21.8513 102.633 22.1415C103.213 22.4259 103.672 22.8293 104.008 23.3517L102.328 24.3443C102.247 24.205 102.133 24.0773 101.988 23.9612C101.843 23.8393 101.678 23.7406 101.492 23.6652C101.306 23.5839 101.112 23.5375 100.909 23.5259C100.647 23.5143 100.409 23.5375 100.195 23.5955C99.9799 23.6536 99.8058 23.7522 99.6723 23.8915C99.5446 24.0309 99.4807 24.2166 99.4807 24.4488C99.4807 24.6694 99.5678 24.8348 99.7419 24.9451C99.9161 25.0496 100.125 25.1308 100.369 25.1889C100.618 25.2469 100.856 25.3108 101.083 25.3804C101.594 25.5487 102.072 25.7548 102.519 25.9986C102.972 26.2424 103.335 26.5413 103.608 26.8954C103.881 27.2495 104.011 27.6732 104 28.1666C104 28.7296 103.831 29.223 103.495 29.6468C103.158 30.0647 102.723 30.3839 102.189 30.6045C101.66 30.8251 101.094 30.9121 100.491 30.8657ZM110.752 28.0882L112.667 29.1243C112.267 29.67 111.765 30.1082 111.161 30.4391C110.557 30.7699 109.899 30.9354 109.185 30.9354C108.384 30.9354 107.652 30.7293 106.991 30.3172C106.335 29.9051 105.809 29.3536 105.415 28.6629C105.026 27.9663 104.831 27.1972 104.831 26.3556C104.831 25.7171 104.944 25.1221 105.171 24.5707C105.397 24.0134 105.708 23.5259 106.102 23.1079C106.503 22.6842 106.967 22.3533 107.495 22.1154C108.024 21.8774 108.587 21.7584 109.185 21.7584C109.899 21.7584 110.557 21.9238 111.161 22.2547C111.765 22.5855 112.267 23.0296 112.667 23.5868L110.752 24.6142C110.549 24.382 110.308 24.2021 110.029 24.0744C109.756 23.9467 109.475 23.8828 109.185 23.8828C108.767 23.8828 108.389 23.9989 108.053 24.2311C107.716 24.4575 107.449 24.7593 107.252 25.1366C107.054 25.5081 106.956 25.9144 106.956 26.3556C106.956 26.7909 107.054 27.1972 107.252 27.5745C107.449 27.946 107.716 28.245 108.053 28.4713C108.389 28.6977 108.767 28.8109 109.185 28.8109C109.486 28.8109 109.774 28.747 110.047 28.6193C110.319 28.4858 110.554 28.3088 110.752 28.0882ZM120.523 22.0022H122.648V30.709H120.523L120.428 29.6293C120.19 30.0182 119.873 30.3346 119.479 30.5784C119.09 30.8164 118.628 30.9354 118.094 30.9354C117.45 30.9354 116.846 30.8135 116.283 30.5697C115.72 30.3259 115.224 29.9892 114.794 29.5597C114.371 29.1301 114.037 28.6339 113.793 28.0708C113.555 27.5078 113.436 26.9041 113.436 26.2598C113.436 25.6387 113.549 25.0554 113.776 24.5097C114.008 23.9641 114.33 23.4852 114.742 23.0731C115.154 22.661 115.63 22.3388 116.17 22.1067C116.71 21.8745 117.29 21.7584 117.911 21.7584C118.486 21.7584 119 21.8861 119.452 22.1415C119.911 22.3969 120.3 22.7219 120.619 23.1166L120.523 22.0022ZM118.042 28.8893C118.495 28.8893 118.895 28.7761 119.243 28.5497C119.592 28.3233 119.865 28.0186 120.062 27.6355C120.259 27.2466 120.358 26.8199 120.358 26.3556C120.358 25.8854 120.259 25.4588 120.062 25.0757C119.865 24.6868 119.589 24.3791 119.235 24.1528C118.886 23.9264 118.489 23.8132 118.042 23.8132C117.595 23.8132 117.186 23.9293 116.814 24.1615C116.449 24.3878 116.155 24.6926 115.935 25.0757C115.72 25.4588 115.613 25.8854 115.613 26.3556C115.613 26.8257 115.723 27.2524 115.944 27.6355C116.164 28.0186 116.457 28.3233 116.823 28.5497C117.194 28.7761 117.601 28.8893 118.042 28.8893ZM124.434 30.709V17.6488H126.558V30.709H124.434ZM135.08 22.0022H137.205V30.709H135.08L134.984 29.6293C134.746 30.0182 134.43 30.3346 134.035 30.5784C133.646 30.8164 133.185 30.9354 132.651 30.9354C132.007 30.9354 131.403 30.8135 130.84 30.5697C130.277 30.3259 129.78 29.9892 129.351 29.5597C128.927 29.1301 128.593 28.6339 128.35 28.0708C128.112 27.5078 127.993 26.9041 127.993 26.2598C127.993 25.6387 128.106 25.0554 128.332 24.5097C128.564 23.9641 128.887 23.4852 129.299 23.0731C129.711 22.661 130.187 22.3388 130.727 22.1067C131.266 21.8745 131.847 21.7584 132.468 21.7584C133.043 21.7584 133.556 21.8861 134.009 22.1415C134.468 22.3969 134.857 22.7219 135.176 23.1166L135.08 22.0022ZM132.599 28.8893C133.051 28.8893 133.452 28.7761 133.8 28.5497C134.148 28.3233 134.421 28.0186 134.619 27.6355C134.816 27.2466 134.915 26.8199 134.915 26.3556C134.915 25.8854 134.816 25.4588 134.619 25.0757C134.421 24.6868 134.146 24.3791 133.791 24.1528C133.443 23.9264 133.046 23.8132 132.599 23.8132C132.152 23.8132 131.742 23.9293 131.371 24.1615C131.005 24.3878 130.712 24.6926 130.492 25.0757C130.277 25.4588 130.169 25.8854 130.169 26.3556C130.169 26.8257 130.28 27.2524 130.5 27.6355C130.721 28.0186 131.014 28.3233 131.38 28.5497C131.751 28.7761 132.157 28.8893 132.599 28.8893ZM143.606 24.1266H141.917V30.709H139.793V24.1266H138.504V22.0022H139.793V19.2682H141.917V22.0022H143.606V24.1266ZM145.044 22.0022H147.169V30.709H145.044V22.0022ZM146.124 20.879C145.811 20.879 145.547 20.7774 145.332 20.5743C145.117 20.3653 145.01 20.1041 145.01 19.7906C145.01 19.483 145.117 19.2247 145.332 19.0157C145.547 18.8068 145.808 18.7023 146.115 18.7023C146.423 18.7023 146.681 18.8068 146.89 19.0157C147.105 19.2247 147.212 19.483 147.212 19.7906C147.212 20.1041 147.108 20.3653 146.899 20.5743C146.69 20.7774 146.432 20.879 146.124 20.879ZM152.889 30.9354C152.088 30.9354 151.356 30.7293 150.695 30.3172C150.039 29.9051 149.513 29.3536 149.119 28.6629C148.73 27.9663 148.535 27.1972 148.535 26.3556C148.535 25.7171 148.649 25.1221 148.875 24.5707C149.101 24.0134 149.412 23.5259 149.807 23.1079C150.207 22.6842 150.671 22.3533 151.2 22.1154C151.728 21.8774 152.291 21.7584 152.889 21.7584C153.69 21.7584 154.418 21.9644 155.074 22.3766C155.736 22.7887 156.261 23.343 156.65 24.0396C157.045 24.7361 157.242 25.5081 157.242 26.3556C157.242 26.9883 157.129 27.5803 156.903 28.1318C156.676 28.6832 156.363 29.1708 155.962 29.5945C155.568 30.0124 155.106 30.3404 154.578 30.5784C154.055 30.8164 153.492 30.9354 152.889 30.9354ZM152.889 28.8109C153.312 28.8109 153.693 28.6977 154.029 28.4713C154.366 28.245 154.63 27.946 154.822 27.5745C155.019 27.203 155.118 26.7967 155.118 26.3556C155.118 25.9028 155.016 25.4907 154.813 25.1192C154.616 24.7419 154.346 24.443 154.003 24.2224C153.667 23.996 153.295 23.8828 152.889 23.8828C152.471 23.8828 152.094 23.996 151.757 24.2224C151.42 24.4488 151.153 24.7506 150.956 25.1279C150.758 25.5052 150.66 25.9144 150.66 26.3556C150.66 26.8141 150.761 27.2292 150.965 27.6007C151.168 27.9721 151.438 28.2682 151.774 28.4887C152.117 28.7035 152.488 28.8109 152.889 28.8109ZM166.573 25.2063V30.709H164.449V25.7635C164.449 25.421 164.365 25.1105 164.196 24.8319C164.028 24.5475 163.802 24.324 163.517 24.1615C163.239 23.9931 162.928 23.909 162.586 23.909C162.243 23.909 161.93 23.9931 161.645 24.1615C161.367 24.324 161.143 24.5475 160.975 24.8319C160.812 25.1105 160.731 25.421 160.731 25.7635V30.709H158.607L158.598 22.0022H160.722L160.731 22.7771C161.027 22.4636 161.381 22.2169 161.793 22.037C162.205 21.8513 162.649 21.7584 163.125 21.7584C163.758 21.7584 164.336 21.9151 164.858 22.2285C165.38 22.5362 165.795 22.9512 166.103 23.4736C166.417 23.9902 166.573 24.5678 166.573 25.2063Z" fill="#034F75"/>
<path d="M95.4398 115.331C94.7942 114.812 93.85 114.915 93.3309 115.56C92.8119 116.206 92.9145 117.15 93.5602 117.669L95.4398 115.331ZM376.953 57.3736C377.159 56.5712 376.676 55.7536 375.874 55.5473L362.799 52.1852C361.997 51.9789 361.179 52.4621 360.973 53.2644C360.766 54.0667 361.249 54.8844 362.052 55.0907L373.674 58.0792L370.685 69.7011C370.479 70.5034 370.962 71.3211 371.764 71.5274C372.567 71.7337 373.384 71.2505 373.591 70.4482L376.953 57.3736ZM166.51 101.584L165.601 100.391L166.51 101.584ZM111.462 130.136L110.522 131.305L111.462 130.136ZM93.5602 117.669L110.522 131.305L112.402 128.967L95.4398 115.331L93.5602 117.669ZM129.624 131.557L167.419 102.778L165.601 100.391L127.807 129.17L129.624 131.557ZM182.098 102.263C193.032 109.217 207.153 117.482 219.927 123.401C226.31 126.358 232.406 128.753 237.627 130.097C242.752 131.417 247.393 131.823 250.617 130.367L249.383 127.633C247.176 128.63 243.44 128.496 238.375 127.192C233.405 125.913 227.496 123.602 221.189 120.679C208.583 114.838 194.586 106.649 183.707 99.7315L182.098 102.263ZM250.617 130.367C256.906 127.527 279.204 114.889 304.401 100.324C329.648 85.7289 357.927 69.1263 376.263 58.2914L374.737 55.7086C356.406 66.5404 328.136 83.1378 302.899 97.7264C277.613 112.344 255.494 124.873 249.383 127.633L250.617 130.367ZM167.419 102.778C171.677 99.5349 177.543 99.3668 182.098 102.263L183.707 99.7315C178.131 96.1854 170.894 96.3602 165.601 100.391L167.419 102.778ZM110.522 131.305C116.075 135.769 123.956 135.873 129.624 131.557L127.807 129.17C123.236 132.651 116.88 132.567 112.402 128.967L110.522 131.305Z" fill="#FFA800"/>
<defs>
<filter id="filter0_dd_2160_34079" x="0.487727" y="0.286832" width="395.501" height="173.651" filterUnits="userSpaceOnUse" color-interpolation-filters="sRGB">
<feFlood flood-opacity="0" result="BackgroundImageFix"/>
<feColorMatrix in="SourceAlpha" type="matrix" values="0 0 0 0 0 0 0 0 0 0 0 0 0 0 0 0 0 0 127 0" result="hardAlpha"/>
<feOffset dy="1.99442"/>
<feGaussianBlur stdDeviation="1.99442"/>
<feColorMatrix type="matrix" values="0 0 0 0 0.333333 0 0 0 0 0.419608 0 0 0 0 0.509804 0 0 0 0.16 0"/>
<feBlend mode="normal" in2="BackgroundImageFix" result="effect1_dropShadow_2160_34079"/>
<feColorMatrix in="SourceAlpha" type="matrix" values="0 0 0 0 0 0 0 0 0 0 0 0 0 0 0 0 0 0 127 0" result="hardAlpha"/>
<feOffset/>
<feGaussianBlur stdDeviation="0.997209"/>
<feColorMatrix type="matrix" values="0 0 0 0 0.333333 0 0 0 0 0.419608 0 0 0 0 0.509804 0 0 0 0.16 0"/>
<feBlend mode="normal" in2="effect1_dropShadow_2160_34079" result="effect2_dropShadow_2160_34079"/>
<feBlend mode="normal" in="SourceGraphic" in2="effect2_dropShadow_2160_34079" result="shape"/>
</filter>
</defs>
</svg>
