<svg width="14" height="15" viewBox="0 0 14 15" fill="none" xmlns="http://www.w3.org/2000/svg">
<path id="Vector" d="M2.65866 11.9199C4.49437 13.7101 6.88036 14.2464 8.05327 14.3565C8.39796 14.3951 8.59024 14.1882 8.61654 13.9751C8.64312 13.749 8.49721 13.5033 8.16609 13.458C7.10572 13.3157 4.91202 12.8505 3.32146 11.2801C0.723403 8.74009 0.233085 4.90098 2.35383 2.8328C4.07701 1.15894 6.94652 1.37211 9.06077 2.48369L9.74987 1.83097C7.17839 0.325051 3.71903 0.202339 1.69103 2.18642C-0.721251 4.54553 -0.403139 8.93395 2.65866 11.9199ZM12.3745 2.76165L12.9044 2.2446C13.1561 1.99918 13.1696 1.63711 12.9112 1.40437L12.7387 1.24939C12.5136 1.04257 12.1621 1.04892 11.917 1.27504L11.3936 1.7987L12.3745 2.76165ZM5.93931 9.02412L11.8904 3.22685L10.903 2.27053L4.95839 8.06145L4.40841 9.29574C4.35525 9.43141 4.49437 9.56736 4.64028 9.52186L5.93931 9.02412ZM5.07122 9.98734C7.23806 12.1008 10.724 12.9346 12.6725 11.0407C14.2631 9.48326 14.0575 6.71685 12.3544 4.33871L11.6786 4.99777C13.0302 6.94959 13.2955 9.14077 12.0097 10.3944C10.446 11.9199 7.86099 11.196 6.08493 9.56074L5.07122 9.98734Z" fill="#00AAFF"/>
</svg>
