<svg width="186" height="111" viewBox="0 0 186 111" fill="none" xmlns="http://www.w3.org/2000/svg">
<rect x="0.565051" y="0.377551" width="184.245" height="110.245" rx="7.92857" fill="white" stroke="#F5F5F5" stroke-width="0.755102"/>
<rect x="36.0234" y="62.0625" width="137.381" height="0.792152" fill="#464E5F" fill-opacity="0.04"/>
<rect x="36.0234" y="45.4277" width="137.381" height="0.792152" fill="#464E5F" fill-opacity="0.04"/>
<rect x="36.0234" y="28.791" width="137.381" height="0.792152" fill="#464E5F" fill-opacity="0.04"/>
<rect x="36.0234" y="12.1562" width="137.381" height="0.792152" fill="#464E5F" fill-opacity="0.04"/>
<rect x="36.0234" y="78.6973" width="137.381" height="0.792152" fill="#464E5F" fill-opacity="0.04"/>
<path opacity="0.7" d="M20.9469 78.3243C20.9469 78.0148 20.9972 77.7737 21.098 77.601C21.1988 77.4264 21.3751 77.3392 21.627 77.3392C21.8772 77.3392 22.0526 77.4264 22.1534 77.601C22.2541 77.7737 22.3045 78.0148 22.3045 78.3243C22.3045 78.6392 22.2541 78.884 22.1534 79.0585C22.0526 79.233 21.8772 79.3203 21.627 79.3203C21.3751 79.3203 21.1988 79.233 21.098 79.0585C20.9972 78.884 20.9469 78.6392 20.9469 78.3243ZM22.0616 78.3243C22.0616 78.1678 22.0508 78.0355 22.0292 77.9276C22.0094 77.8178 21.9671 77.7296 21.9023 77.6631C21.8394 77.5965 21.7476 77.5632 21.627 77.5632C21.5047 77.5632 21.4111 77.5965 21.3463 77.6631C21.2834 77.7296 21.2411 77.8178 21.2195 77.9276C21.1997 78.0355 21.1898 78.1678 21.1898 78.3243C21.1898 78.4863 21.1997 78.6221 21.2195 78.7319C21.2411 78.8417 21.2834 78.9298 21.3463 78.9964C21.4111 79.063 21.5047 79.0963 21.627 79.0963C21.7476 79.0963 21.8394 79.063 21.9023 78.9964C21.9671 78.9298 22.0094 78.8417 22.0292 78.7319C22.0508 78.6221 22.0616 78.4863 22.0616 78.3243Z" fill="#898A8D"/>
<path opacity="0.7" d="M40.8898 84.5679C41.095 84.5679 41.2722 84.6066 41.4215 84.684C41.5727 84.7596 41.6879 84.8684 41.767 85.0106C41.848 85.1527 41.8885 85.3201 41.8885 85.5126C41.8885 85.7052 41.848 85.8725 41.767 86.0147C41.6879 86.155 41.5727 86.263 41.4215 86.3386C41.2722 86.4123 41.095 86.4492 40.8898 86.4492H40.3041V84.5679H40.8898ZM40.8898 86.2468C41.1327 86.2468 41.3181 86.1829 41.4458 86.0551C41.5736 85.9256 41.6375 85.7447 41.6375 85.5126C41.6375 85.2787 41.5727 85.0961 41.4431 84.9647C41.3154 84.8333 41.1309 84.7677 40.8898 84.7677H40.5497V86.2468H40.8898ZM42.1207 85.7043C42.1207 85.5531 42.1513 85.4209 42.2125 85.3075C42.2736 85.1923 42.3573 85.1033 42.4635 85.0403C42.5715 84.9773 42.6911 84.9458 42.8225 84.9458C42.952 84.9458 43.0645 84.9737 43.1599 85.0295C43.2552 85.0853 43.3263 85.1554 43.3731 85.24V84.9701H43.6214V86.4492H43.3731V86.1739C43.3245 86.2603 43.2516 86.3323 43.1545 86.3898C43.0591 86.4456 42.9475 86.4735 42.8198 86.4735C42.6884 86.4735 42.5697 86.4411 42.4635 86.3763C42.3573 86.3116 42.2736 86.2207 42.2125 86.1037C42.1513 85.9868 42.1207 85.8536 42.1207 85.7043ZM43.3731 85.707C43.3731 85.5954 43.3506 85.4982 43.3056 85.4155C43.2606 85.3327 43.1994 85.2697 43.1221 85.2265C43.0465 85.1815 42.9628 85.159 42.8711 85.159C42.7793 85.159 42.6956 85.1806 42.62 85.2238C42.5445 85.267 42.4842 85.33 42.4392 85.4128C42.3942 85.4955 42.3717 85.5927 42.3717 85.7043C42.3717 85.8176 42.3942 85.9166 42.4392 86.0012C42.4842 86.0839 42.5445 86.1478 42.62 86.1928C42.6956 86.236 42.7793 86.2576 42.8711 86.2576C42.9628 86.2576 43.0465 86.236 43.1221 86.1928C43.1994 86.1478 43.2606 86.0839 43.3056 86.0012C43.3506 85.9166 43.3731 85.8185 43.3731 85.707ZM45.3105 84.9701L44.4198 87.1456H44.166L44.4575 86.433L43.861 84.9701H44.1337L44.5979 86.1685L45.0567 84.9701H45.3105ZM46.1717 84.7218V84.4978H46.6791V86.4492H46.4308V84.7218H46.1717Z" fill="#898A8D"/>
<path opacity="0.7" d="M69.8246 84.5679C70.0297 84.5679 70.207 84.6066 70.3563 84.684C70.5075 84.7596 70.6226 84.8684 70.7018 85.0106C70.7828 85.1527 70.8233 85.3201 70.8233 85.5126C70.8233 85.7052 70.7828 85.8725 70.7018 86.0147C70.6226 86.155 70.5075 86.263 70.3563 86.3386C70.207 86.4123 70.0297 86.4492 69.8246 86.4492H69.2389V84.5679H69.8246ZM69.8246 86.2468C70.0675 86.2468 70.2528 86.1829 70.3806 86.0551C70.5084 85.9256 70.5722 85.7447 70.5722 85.5126C70.5722 85.2787 70.5075 85.0961 70.3779 84.9647C70.2501 84.8333 70.0657 84.7677 69.8246 84.7677H69.4845V86.2468H69.8246ZM71.0555 85.7043C71.0555 85.5531 71.0861 85.4209 71.1472 85.3075C71.2084 85.1923 71.2921 85.1033 71.3983 85.0403C71.5062 84.9773 71.6259 84.9458 71.7572 84.9458C71.8868 84.9458 71.9993 84.9737 72.0946 85.0295C72.19 85.0853 72.2611 85.1554 72.3079 85.24V84.9701H72.5562V86.4492H72.3079V86.1739C72.2593 86.2603 72.1864 86.3323 72.0892 86.3898C71.9939 86.4456 71.8823 86.4735 71.7545 86.4735C71.6232 86.4735 71.5044 86.4411 71.3983 86.3763C71.2921 86.3116 71.2084 86.2207 71.1472 86.1037C71.0861 85.9868 71.0555 85.8536 71.0555 85.7043ZM72.3079 85.707C72.3079 85.5954 72.2854 85.4982 72.2404 85.4155C72.1954 85.3327 72.1342 85.2697 72.0568 85.2265C71.9813 85.1815 71.8976 85.159 71.8058 85.159C71.7141 85.159 71.6304 85.1806 71.5548 85.2238C71.4792 85.267 71.419 85.33 71.374 85.4128C71.329 85.4955 71.3065 85.5927 71.3065 85.7043C71.3065 85.8176 71.329 85.9166 71.374 86.0012C71.419 86.0839 71.4792 86.1478 71.5548 86.1928C71.6304 86.236 71.7141 86.2576 71.8058 86.2576C71.8976 86.2576 71.9813 86.236 72.0568 86.1928C72.1342 86.1478 72.1954 86.0839 72.2404 86.0012C72.2854 85.9166 72.3079 85.8185 72.3079 85.707ZM74.2452 84.9701L73.3545 87.1456H73.1008L73.3923 86.433L72.7958 84.9701H73.0684L73.5327 86.1685L73.9915 84.9701H74.2452ZM75.1416 86.2522C75.3701 86.0686 75.5491 85.9184 75.6787 85.8014C75.8082 85.6827 75.9171 85.5594 76.0053 85.4317C76.0952 85.3021 76.1402 85.1752 76.1402 85.0511C76.1402 84.9341 76.1114 84.8423 76.0539 84.7758C75.9981 84.7074 75.9072 84.6732 75.7812 84.6732C75.6589 84.6732 75.5635 84.7119 75.4951 84.7893C75.4286 84.8648 75.3926 84.9665 75.3872 85.0943H75.1497C75.1568 84.8927 75.218 84.7371 75.3332 84.6273C75.4484 84.5176 75.5968 84.4627 75.7785 84.4627C75.9639 84.4627 76.1105 84.514 76.2185 84.6165C76.3283 84.7191 76.3831 84.8603 76.3831 85.0403C76.3831 85.1896 76.3382 85.3354 76.2482 85.4775C76.16 85.6179 76.0593 85.742 75.9459 85.85C75.8325 85.9562 75.6877 86.0803 75.5113 86.2225H76.4398V86.4276H75.1416V86.2522Z" fill="#898A8D"/>
<path opacity="0.7" d="M99.1002 84.5679C99.3053 84.5679 99.4826 84.6066 99.6319 84.684C99.7831 84.7596 99.8982 84.8684 99.9774 85.0106C100.058 85.1527 100.099 85.3201 100.099 85.5126C100.099 85.7052 100.058 85.8725 99.9774 86.0147C99.8982 86.155 99.7831 86.263 99.6319 86.3386C99.4826 86.4123 99.3053 86.4492 99.1002 86.4492H98.5145V84.5679H99.1002ZM99.1002 86.2468C99.3431 86.2468 99.5284 86.1829 99.6562 86.0551C99.784 85.9256 99.8478 85.7447 99.8478 85.5126C99.8478 85.2787 99.7831 85.0961 99.6535 84.9647C99.5257 84.8333 99.3413 84.7677 99.1002 84.7677H98.7601V86.2468H99.1002ZM100.331 85.7043C100.331 85.5531 100.362 85.4209 100.423 85.3075C100.484 85.1923 100.568 85.1033 100.674 85.0403C100.782 84.9773 100.901 84.9458 101.033 84.9458C101.162 84.9458 101.275 84.9737 101.37 85.0295C101.466 85.0853 101.537 85.1554 101.583 85.24V84.9701H101.832V86.4492H101.583V86.1739C101.535 86.2603 101.462 86.3323 101.365 86.3898C101.269 86.4456 101.158 86.4735 101.03 86.4735C100.899 86.4735 100.78 86.4411 100.674 86.3763C100.568 86.3116 100.484 86.2207 100.423 86.1037C100.362 85.9868 100.331 85.8536 100.331 85.7043ZM101.583 85.707C101.583 85.5954 101.561 85.4982 101.516 85.4155C101.471 85.3327 101.41 85.2697 101.332 85.2265C101.257 85.1815 101.173 85.159 101.081 85.159C100.99 85.159 100.906 85.1806 100.83 85.2238C100.755 85.267 100.695 85.33 100.65 85.4128C100.605 85.4955 100.582 85.5927 100.582 85.7043C100.582 85.8176 100.605 85.9166 100.65 86.0012C100.695 86.0839 100.755 86.1478 100.83 86.1928C100.906 86.236 100.99 86.2576 101.081 86.2576C101.173 86.2576 101.257 86.236 101.332 86.1928C101.41 86.1478 101.471 86.0839 101.516 86.0012C101.561 85.9166 101.583 85.8185 101.583 85.707ZM103.521 84.9701L102.63 87.1456H102.376L102.668 86.433L102.071 84.9701H102.344L102.808 86.1685L103.267 84.9701H103.521ZM104.441 84.989C104.454 84.8235 104.518 84.6939 104.633 84.6003C104.748 84.5068 104.898 84.46 105.081 84.46C105.203 84.46 105.309 84.4825 105.397 84.5274C105.487 84.5706 105.554 84.63 105.599 84.7056C105.646 84.7812 105.67 84.8666 105.67 84.962C105.67 85.0736 105.637 85.1698 105.572 85.2508C105.509 85.3318 105.427 85.384 105.324 85.4074V85.4209C105.441 85.4496 105.534 85.5063 105.602 85.5909C105.67 85.6755 105.705 85.7861 105.705 85.9229C105.705 86.0255 105.681 86.1181 105.634 86.2009C105.588 86.2819 105.517 86.3458 105.424 86.3925C105.33 86.4393 105.218 86.4627 105.087 86.4627C104.896 86.4627 104.739 86.4132 104.617 86.3143C104.495 86.2135 104.426 86.0713 104.412 85.8878H104.649C104.662 85.9958 104.706 86.0839 104.782 86.1523C104.857 86.2207 104.958 86.2549 105.084 86.2549C105.21 86.2549 105.305 86.2225 105.37 86.1577C105.437 86.0911 105.47 86.0057 105.47 85.9013C105.47 85.7663 105.425 85.6692 105.335 85.6098C105.245 85.5504 105.109 85.5207 104.927 85.5207H104.865V85.3156H104.93C105.096 85.3138 105.221 85.2868 105.305 85.2346C105.39 85.1806 105.432 85.0979 105.432 84.9863C105.432 84.8909 105.401 84.8145 105.338 84.7569C105.276 84.6993 105.188 84.6705 105.073 84.6705C104.961 84.6705 104.872 84.6993 104.803 84.7569C104.735 84.8145 104.694 84.8918 104.682 84.989H104.441Z" fill="#898A8D"/>
<path opacity="0.7" d="M129.094 84.5679C129.299 84.5679 129.476 84.6066 129.625 84.684C129.777 84.7596 129.892 84.8684 129.971 85.0106C130.052 85.1527 130.092 85.3201 130.092 85.5126C130.092 85.7052 130.052 85.8725 129.971 86.0147C129.892 86.155 129.777 86.263 129.625 86.3386C129.476 86.4123 129.299 86.4492 129.094 86.4492H128.508V84.5679H129.094ZM129.094 86.2468C129.337 86.2468 129.522 86.1829 129.65 86.0551C129.777 85.9256 129.841 85.7447 129.841 85.5126C129.841 85.2787 129.777 85.0961 129.647 84.9647C129.519 84.8333 129.335 84.7677 129.094 84.7677H128.754V86.2468H129.094ZM130.325 85.7043C130.325 85.5531 130.355 85.4209 130.416 85.3075C130.478 85.1923 130.561 85.1033 130.667 85.0403C130.775 84.9773 130.895 84.9458 131.026 84.9458C131.156 84.9458 131.268 84.9737 131.364 85.0295C131.459 85.0853 131.53 85.1554 131.577 85.24V84.9701H131.825V86.4492H131.577V86.1739C131.528 86.2603 131.455 86.3323 131.358 86.3898C131.263 86.4456 131.151 86.4735 131.024 86.4735C130.892 86.4735 130.774 86.4411 130.667 86.3763C130.561 86.3116 130.478 86.2207 130.416 86.1037C130.355 85.9868 130.325 85.8536 130.325 85.7043ZM131.577 85.707C131.577 85.5954 131.554 85.4982 131.509 85.4155C131.464 85.3327 131.403 85.2697 131.326 85.2265C131.25 85.1815 131.167 85.159 131.075 85.159C130.983 85.159 130.899 85.1806 130.824 85.2238C130.748 85.267 130.688 85.33 130.643 85.4128C130.598 85.4955 130.576 85.5927 130.576 85.7043C130.576 85.8176 130.598 85.9166 130.643 86.0012C130.688 86.0839 130.748 86.1478 130.824 86.1928C130.899 86.236 130.983 86.2576 131.075 86.2576C131.167 86.2576 131.25 86.236 131.326 86.1928C131.403 86.1478 131.464 86.0839 131.509 86.0012C131.554 85.9166 131.577 85.8185 131.577 85.707ZM133.514 84.9701L132.624 87.1456H132.37L132.661 86.433L132.065 84.9701H132.338L132.802 86.1685L133.261 84.9701H133.514ZM134.381 86.0147V85.8284L135.328 84.5167H135.623V85.8014H135.892V86.0147H135.623V86.4492H135.38V86.0147H134.381ZM135.39 84.7731L134.664 85.8014H135.39V84.7731Z" fill="#898A8D"/>
<path opacity="0.7" d="M159.19 84.5679C159.395 84.5679 159.572 84.6066 159.722 84.684C159.873 84.7596 159.988 84.8684 160.067 85.0106C160.148 85.1527 160.189 85.3201 160.189 85.5126C160.189 85.7052 160.148 85.8725 160.067 86.0147C159.988 86.155 159.873 86.263 159.722 86.3386C159.572 86.4123 159.395 86.4492 159.19 86.4492H158.604V84.5679H159.19ZM159.19 86.2468C159.433 86.2468 159.618 86.1829 159.746 86.0551C159.874 85.9256 159.938 85.7447 159.938 85.5126C159.938 85.2787 159.873 85.0961 159.743 84.9647C159.616 84.8333 159.431 84.7677 159.19 84.7677H158.85V86.2468H159.19ZM160.421 85.7043C160.421 85.5531 160.452 85.4209 160.513 85.3075C160.574 85.1923 160.658 85.1033 160.764 85.0403C160.872 84.9773 160.991 84.9458 161.123 84.9458C161.252 84.9458 161.365 84.9737 161.46 85.0295C161.555 85.0853 161.627 85.1554 161.673 85.24V84.9701H161.922V86.4492H161.673V86.1739C161.625 86.2603 161.552 86.3323 161.455 86.3898C161.359 86.4456 161.248 86.4735 161.12 86.4735C160.989 86.4735 160.87 86.4411 160.764 86.3763C160.658 86.3116 160.574 86.2207 160.513 86.1037C160.452 85.9868 160.421 85.8536 160.421 85.7043ZM161.673 85.707C161.673 85.5954 161.651 85.4982 161.606 85.4155C161.561 85.3327 161.5 85.2697 161.422 85.2265C161.347 85.1815 161.263 85.159 161.171 85.159C161.08 85.159 160.996 85.1806 160.92 85.2238C160.845 85.267 160.784 85.33 160.739 85.4128C160.694 85.4955 160.672 85.5927 160.672 85.7043C160.672 85.8176 160.694 85.9166 160.739 86.0012C160.784 86.0839 160.845 86.1478 160.92 86.1928C160.996 86.236 161.08 86.2576 161.171 86.2576C161.263 86.2576 161.347 86.236 161.422 86.1928C161.5 86.1478 161.561 86.0839 161.606 86.0012C161.651 85.9166 161.673 85.8185 161.673 85.707ZM163.611 84.9701L162.72 87.1456H162.466L162.758 86.433L162.161 84.9701H162.434L162.898 86.1685L163.357 84.9701H163.611ZM165.781 84.711H164.834V85.3264C164.875 85.2688 164.936 85.222 165.017 85.186C165.098 85.1482 165.185 85.1294 165.279 85.1294C165.428 85.1294 165.55 85.1608 165.643 85.2238C165.737 85.285 165.804 85.3651 165.843 85.464C165.884 85.5612 165.905 85.6647 165.905 85.7744C165.905 85.904 165.881 86.0201 165.832 86.1226C165.784 86.2252 165.709 86.3062 165.608 86.3655C165.509 86.4249 165.386 86.4546 165.238 86.4546C165.05 86.4546 164.897 86.406 164.78 86.3089C164.663 86.2117 164.592 86.0821 164.566 85.9202H164.807C164.83 86.0228 164.88 86.1028 164.955 86.1604C165.031 86.218 165.126 86.2468 165.241 86.2468C165.383 86.2468 165.49 86.2045 165.562 86.1199C165.634 86.0336 165.67 85.9202 165.67 85.7798C165.67 85.6395 165.634 85.5315 165.562 85.4559C165.49 85.3786 165.384 85.3399 165.244 85.3399C165.149 85.3399 165.065 85.3633 164.993 85.4101C164.923 85.455 164.871 85.5171 164.839 85.5963H164.607V84.4951H165.781V84.711Z" fill="#898A8D"/>
<path opacity="0.7" d="M18.89 61.7511V61.5271H19.3975V63.4785H19.1492V61.7511H18.89ZM19.8194 62.4825C19.8194 62.173 19.8698 61.9319 19.9705 61.7592C20.0713 61.5846 20.2476 61.4974 20.4996 61.4974C20.7497 61.4974 20.9251 61.5846 21.0259 61.7592C21.1267 61.9319 21.177 62.173 21.177 62.4825C21.177 62.7974 21.1267 63.0422 21.0259 63.2167C20.9251 63.3912 20.7497 63.4785 20.4996 63.4785C20.2476 63.4785 20.0713 63.3912 19.9705 63.2167C19.8698 63.0422 19.8194 62.7974 19.8194 62.4825ZM20.9341 62.4825C20.9341 62.326 20.9233 62.1937 20.9017 62.0858C20.8819 61.976 20.8396 61.8878 20.7749 61.8213C20.7119 61.7547 20.6201 61.7214 20.4996 61.7214C20.3772 61.7214 20.2836 61.7547 20.2188 61.8213C20.1559 61.8878 20.1136 61.976 20.092 62.0858C20.0722 62.1937 20.0623 62.326 20.0623 62.4825C20.0623 62.6445 20.0722 62.7803 20.092 62.8901C20.1136 62.9999 20.1559 63.088 20.2188 63.1546C20.2836 63.2212 20.3772 63.2545 20.4996 63.2545C20.6201 63.2545 20.7119 63.2212 20.7749 63.1546C20.8396 63.088 20.8819 62.9999 20.9017 62.8901C20.9233 62.7803 20.9341 62.6445 20.9341 62.4825ZM21.5142 62.4825C21.5142 62.173 21.5646 61.9319 21.6654 61.7592C21.7662 61.5846 21.9425 61.4974 22.1944 61.4974C22.4445 61.4974 22.62 61.5846 22.7207 61.7592C22.8215 61.9319 22.8719 62.173 22.8719 62.4825C22.8719 62.7974 22.8215 63.0422 22.7207 63.2167C22.62 63.3912 22.4445 63.4785 22.1944 63.4785C21.9425 63.4785 21.7662 63.3912 21.6654 63.2167C21.5646 63.0422 21.5142 62.7974 21.5142 62.4825ZM22.629 62.4825C22.629 62.326 22.6182 62.1937 22.5966 62.0858C22.5768 61.976 22.5345 61.8878 22.4697 61.8213C22.4067 61.7547 22.315 61.7214 22.1944 61.7214C22.0721 61.7214 21.9785 61.7547 21.9137 61.8213C21.8507 61.8878 21.8084 61.976 21.7868 62.0858C21.7671 62.1937 21.7572 62.326 21.7572 62.4825C21.7572 62.6445 21.7671 62.7803 21.7868 62.8901C21.8084 62.9999 21.8507 63.088 21.9137 63.1546C21.9785 63.2212 22.0721 63.2545 22.1944 63.2545C22.315 63.2545 22.4067 63.2212 22.4697 63.1546C22.5345 63.088 22.5768 62.9999 22.5966 62.8901C22.6182 62.7803 22.629 62.6445 22.629 62.4825Z" fill="#898A8D"/>
<path opacity="0.7" d="M18.9004 47.4377C19.129 47.2542 19.308 47.1039 19.4376 46.987C19.5671 46.8682 19.676 46.745 19.7642 46.6172C19.8541 46.4876 19.8991 46.3608 19.8991 46.2366C19.8991 46.1197 19.8703 46.0279 19.8127 45.9613C19.757 45.8929 19.6661 45.8587 19.5401 45.8587C19.4178 45.8587 19.3224 45.8974 19.254 45.9748C19.1874 46.0504 19.1515 46.1521 19.1461 46.2798H18.9085C18.9157 46.0783 18.9769 45.9226 19.0921 45.8129C19.2072 45.7031 19.3557 45.6482 19.5374 45.6482C19.7228 45.6482 19.8694 45.6995 19.9774 45.8021C20.0871 45.9046 20.142 46.0459 20.142 46.2258C20.142 46.3752 20.097 46.5209 20.0071 46.6631C19.9189 46.8034 19.8181 46.9276 19.7048 47.0356C19.5914 47.1417 19.4466 47.2659 19.2702 47.408H20.1987V47.6132H18.9004V47.4377ZM20.4826 46.6388C20.4826 46.3293 20.533 46.0882 20.6338 45.9154C20.7346 45.7409 20.9109 45.6536 21.1628 45.6536C21.4129 45.6536 21.5884 45.7409 21.6891 45.9154C21.7899 46.0882 21.8403 46.3293 21.8403 46.6388C21.8403 46.9537 21.7899 47.1984 21.6891 47.373C21.5884 47.5475 21.4129 47.6348 21.1628 47.6348C20.9109 47.6348 20.7346 47.5475 20.6338 47.373C20.533 47.1984 20.4826 46.9537 20.4826 46.6388ZM21.5974 46.6388C21.5974 46.4822 21.5866 46.35 21.565 46.242C21.5452 46.1323 21.5029 46.0441 21.4381 45.9775C21.3752 45.9109 21.2834 45.8776 21.1628 45.8776C21.0405 45.8776 20.9469 45.9109 20.8821 45.9775C20.8191 46.0441 20.7768 46.1323 20.7553 46.242C20.7355 46.35 20.7256 46.4822 20.7256 46.6388C20.7256 46.8007 20.7355 46.9366 20.7553 47.0464C20.7768 47.1561 20.8191 47.2443 20.8821 47.3109C20.9469 47.3774 21.0405 47.4107 21.1628 47.4107C21.2834 47.4107 21.3752 47.3774 21.4381 47.3109C21.5029 47.2443 21.5452 47.1561 21.565 47.0464C21.5866 46.9366 21.5974 46.8007 21.5974 46.6388ZM22.1775 46.6388C22.1775 46.3293 22.2279 46.0882 22.3286 45.9154C22.4294 45.7409 22.6058 45.6536 22.8577 45.6536C23.1078 45.6536 23.2832 45.7409 23.384 45.9154C23.4848 46.0882 23.5352 46.3293 23.5352 46.6388C23.5352 46.9537 23.4848 47.1984 23.384 47.373C23.2832 47.5475 23.1078 47.6348 22.8577 47.6348C22.6058 47.6348 22.4294 47.5475 22.3286 47.373C22.2279 47.1984 22.1775 46.9537 22.1775 46.6388ZM23.2922 46.6388C23.2922 46.4822 23.2814 46.35 23.2598 46.242C23.2401 46.1323 23.1978 46.0441 23.133 45.9775C23.07 45.9109 22.9782 45.8776 22.8577 45.8776C22.7353 45.8776 22.6417 45.9109 22.577 45.9775C22.514 46.0441 22.4717 46.1323 22.4501 46.242C22.4303 46.35 22.4204 46.4822 22.4204 46.6388C22.4204 46.8007 22.4303 46.9366 22.4501 47.0464C22.4717 47.1561 22.514 47.2443 22.577 47.3109C22.6417 47.3774 22.7353 47.4107 22.8577 47.4107C22.9782 47.4107 23.07 47.3774 23.133 47.3109C23.1978 47.2443 23.2401 47.1561 23.2598 47.0464C23.2814 46.9366 23.2922 46.8007 23.2922 46.6388Z" fill="#898A8D"/>
<path opacity="0.7" d="M18.575 30.3308C18.5876 30.1652 18.6515 30.0357 18.7667 29.9421C18.8818 29.8486 19.0312 29.8018 19.2147 29.8018C19.3371 29.8018 19.4423 29.8243 19.5305 29.8692C19.6205 29.9124 19.688 29.9718 19.7329 30.0474C19.7797 30.123 19.8031 30.2084 19.8031 30.3038C19.8031 30.4154 19.7707 30.5116 19.706 30.5926C19.643 30.6736 19.5602 30.7258 19.4576 30.7492V30.7627C19.5746 30.7914 19.6673 30.8481 19.7356 30.9327C19.804 31.0173 19.8382 31.1279 19.8382 31.2647C19.8382 31.3673 19.8148 31.4599 19.768 31.5427C19.7213 31.6237 19.6511 31.6875 19.5575 31.7343C19.4639 31.7811 19.3515 31.8045 19.2201 31.8045C19.0294 31.8045 18.8728 31.755 18.7505 31.6561C18.6281 31.5553 18.5597 31.4131 18.5453 31.2296H18.7829C18.7955 31.3376 18.8395 31.4257 18.9151 31.4941C18.9907 31.5625 19.0915 31.5967 19.2174 31.5967C19.3434 31.5967 19.4387 31.5643 19.5035 31.4995C19.5701 31.4329 19.6034 31.3475 19.6034 31.2431C19.6034 31.1081 19.5584 31.011 19.4684 30.9516C19.3785 30.8922 19.2426 30.8625 19.0609 30.8625H18.9988V30.6574H19.0636C19.2291 30.6556 19.3542 30.6286 19.4387 30.5764C19.5233 30.5224 19.5656 30.4397 19.5656 30.3281C19.5656 30.2327 19.5341 30.1563 19.4711 30.0987C19.41 30.0411 19.3218 30.0123 19.2066 30.0123C19.0951 30.0123 19.0051 30.0411 18.9367 30.0987C18.8683 30.1563 18.8278 30.2336 18.8152 30.3308H18.575ZM20.1698 30.795C20.1698 30.4855 20.2202 30.2444 20.321 30.0717C20.4218 29.8971 20.5981 29.8099 20.85 29.8099C21.1001 29.8099 21.2756 29.8971 21.3764 30.0717C21.4771 30.2444 21.5275 30.4855 21.5275 30.795C21.5275 31.1099 21.4771 31.3547 21.3764 31.5292C21.2756 31.7037 21.1001 31.791 20.85 31.791C20.5981 31.791 20.4218 31.7037 20.321 31.5292C20.2202 31.3547 20.1698 31.1099 20.1698 30.795ZM21.2846 30.795C21.2846 30.6385 21.2738 30.5062 21.2522 30.3983C21.2324 30.2885 21.1901 30.2003 21.1253 30.1338C21.0624 30.0672 20.9706 30.0339 20.85 30.0339C20.7277 30.0339 20.6341 30.0672 20.5693 30.1338C20.5063 30.2003 20.464 30.2885 20.4425 30.3983C20.4227 30.5062 20.4128 30.6385 20.4128 30.795C20.4128 30.957 20.4227 31.0928 20.4425 31.2026C20.464 31.3124 20.5063 31.4005 20.5693 31.4671C20.6341 31.5337 20.7277 31.567 20.85 31.567C20.9706 31.567 21.0624 31.5337 21.1253 31.4671C21.1901 31.4005 21.2324 31.3124 21.2522 31.2026C21.2738 31.0928 21.2846 30.957 21.2846 30.795ZM21.8647 30.795C21.8647 30.4855 21.9151 30.2444 22.0159 30.0717C22.1166 29.8971 22.293 29.8099 22.5449 29.8099C22.795 29.8099 22.9704 29.8971 23.0712 30.0717C23.172 30.2444 23.2224 30.4855 23.2224 30.795C23.2224 31.1099 23.172 31.3547 23.0712 31.5292C22.9704 31.7037 22.795 31.791 22.5449 31.791C22.293 31.791 22.1166 31.7037 22.0159 31.5292C21.9151 31.3547 21.8647 31.1099 21.8647 30.795ZM22.9794 30.795C22.9794 30.6385 22.9686 30.5062 22.947 30.3983C22.9273 30.2885 22.885 30.2003 22.8202 30.1338C22.7572 30.0672 22.6654 30.0339 22.5449 30.0339C22.4225 30.0339 22.3289 30.0672 22.2642 30.1338C22.2012 30.2003 22.1589 30.2885 22.1373 30.3983C22.1175 30.5062 22.1076 30.6385 22.1076 30.795C22.1076 30.957 22.1175 31.0928 22.1373 31.2026C22.1589 31.3124 22.2012 31.4005 22.2642 31.4671C22.3289 31.5337 22.4225 31.567 22.5449 31.567C22.6654 31.567 22.7572 31.5337 22.8202 31.4671C22.885 31.4005 22.9273 31.3124 22.947 31.2026C22.9686 31.0928 22.9794 30.957 22.9794 30.795Z" fill="#898A8D"/>
<path opacity="0.7" d="M18.413 15.5147V15.3284L19.3604 14.0167H19.6546V15.3014H19.9245V15.5147H19.6546V15.9492H19.4116V15.5147H18.413ZM19.4224 14.2731L18.6964 15.3014H19.4224V14.2731ZM20.1698 14.9532C20.1698 14.6437 20.2202 14.4026 20.321 14.2299C20.4218 14.0553 20.5981 13.9681 20.85 13.9681C21.1001 13.9681 21.2756 14.0553 21.3764 14.2299C21.4771 14.4026 21.5275 14.6437 21.5275 14.9532C21.5275 15.2681 21.4771 15.5129 21.3764 15.6874C21.2756 15.8619 21.1001 15.9492 20.85 15.9492C20.5981 15.9492 20.4218 15.8619 20.321 15.6874C20.2202 15.5129 20.1698 15.2681 20.1698 14.9532ZM21.2846 14.9532C21.2846 14.7967 21.2738 14.6644 21.2522 14.5565C21.2324 14.4467 21.1901 14.3585 21.1253 14.292C21.0624 14.2254 20.9706 14.1921 20.85 14.1921C20.7277 14.1921 20.6341 14.2254 20.5693 14.292C20.5063 14.3585 20.464 14.4467 20.4425 14.5565C20.4227 14.6644 20.4128 14.7967 20.4128 14.9532C20.4128 15.1152 20.4227 15.251 20.4425 15.3608C20.464 15.4706 20.5063 15.5587 20.5693 15.6253C20.6341 15.6919 20.7277 15.7252 20.85 15.7252C20.9706 15.7252 21.0624 15.6919 21.1253 15.6253C21.1901 15.5587 21.2324 15.4706 21.2522 15.3608C21.2738 15.251 21.2846 15.1152 21.2846 14.9532ZM21.8647 14.9532C21.8647 14.6437 21.9151 14.4026 22.0159 14.2299C22.1166 14.0553 22.293 13.9681 22.5449 13.9681C22.795 13.9681 22.9704 14.0553 23.0712 14.2299C23.172 14.4026 23.2224 14.6437 23.2224 14.9532C23.2224 15.2681 23.172 15.5129 23.0712 15.6874C22.9704 15.8619 22.795 15.9492 22.5449 15.9492C22.293 15.9492 22.1166 15.8619 22.0159 15.6874C21.9151 15.5129 21.8647 15.2681 21.8647 14.9532ZM22.9794 14.9532C22.9794 14.7967 22.9686 14.6644 22.947 14.5565C22.9273 14.4467 22.885 14.3585 22.8202 14.292C22.7572 14.2254 22.6654 14.1921 22.5449 14.1921C22.4225 14.1921 22.3289 14.2254 22.2642 14.292C22.2012 14.3585 22.1589 14.4467 22.1373 14.5565C22.1175 14.6644 22.1076 14.7967 22.1076 14.9532C22.1076 15.1152 22.1175 15.251 22.1373 15.3608C22.1589 15.4706 22.2012 15.5587 22.2642 15.6253C22.3289 15.6919 22.4225 15.7252 22.5449 15.7252C22.6654 15.7252 22.7572 15.6919 22.8202 15.6253C22.885 15.5587 22.9273 15.4706 22.947 15.3608C22.9686 15.251 22.9794 15.1152 22.9794 14.9532Z" fill="#898A8D"/>
<path d="M36.8125 77.9044L80.415 44.565C80.4709 44.5223 80.5361 44.4935 80.6053 44.481L121.952 37.0087C121.984 37.0029 122.015 36.9936 122.045 36.981L169.5 17" stroke="#FFA800" stroke-width="1.32949" stroke-linecap="round"/>
<circle cx="37.603" cy="77.1128" r="2.37646" fill="#69AED5"/>
<circle cx="79.3765" cy="45.3765" r="2.37646" fill="#69AED5"/>
<circle cx="103.376" cy="40.3765" r="2.37646" fill="#69AED5"/>
<circle cx="136.376" cy="31.3765" r="2.37646" fill="#69AED5"/>
<circle cx="166.376" cy="18.3765" r="2.37646" fill="#69AED5"/>
<path d="M47.3314 100.59V96.2543H48.087V100.59H47.3314ZM49.8395 100.646C49.6785 100.635 49.5226 100.603 49.3719 100.55C49.2233 100.494 49.0912 100.418 48.9755 100.324C48.8599 100.229 48.7712 100.115 48.7092 99.9829L49.3472 99.7104C49.3719 99.7516 49.4122 99.796 49.4679 99.8435C49.5237 99.8889 49.5897 99.9271 49.6661 99.9581C49.7446 99.9891 49.8303 100.005 49.9232 100.005C50.0016 100.005 50.0759 99.9942 50.1461 99.9736C50.2184 99.9509 50.2762 99.9168 50.3195 99.8714C50.365 99.826 50.3877 99.7671 50.3877 99.6949C50.3877 99.6185 50.3608 99.5596 50.3072 99.5184C50.2555 99.475 50.1895 99.443 50.109 99.4224C50.0305 99.3996 49.9541 99.379 49.8798 99.3604C49.6837 99.3212 49.501 99.2603 49.3317 99.1777C49.1644 99.0951 49.0292 98.9888 48.926 98.8587C48.8248 98.7266 48.7742 98.5676 48.7742 98.3818C48.7742 98.1774 48.8279 98.0009 48.9353 97.8523C49.0447 97.7036 49.1861 97.589 49.3595 97.5085C49.535 97.428 49.7239 97.3878 49.9263 97.3878C50.1719 97.3878 50.397 97.4394 50.6014 97.5426C50.8078 97.6438 50.9709 97.7872 51.0907 97.9731L50.493 98.3261C50.4641 98.2765 50.4238 98.2311 50.3722 98.1898C50.3206 98.1465 50.2617 98.1114 50.1957 98.0845C50.1296 98.0556 50.0605 98.0391 49.9882 98.035C49.8953 98.0309 49.8106 98.0391 49.7343 98.0598C49.6579 98.0804 49.5959 98.1155 49.5484 98.1651C49.503 98.2146 49.4803 98.2807 49.4803 98.3632C49.4803 98.4417 49.5113 98.5005 49.5732 98.5398C49.6352 98.5769 49.7095 98.6058 49.7962 98.6265C49.885 98.6471 49.9696 98.6698 50.0501 98.6946C50.2318 98.7545 50.4021 98.8278 50.5611 98.9145C50.7221 99.0012 50.8512 99.1075 50.9482 99.2334C51.0452 99.3594 51.0917 99.5101 51.0876 99.6856C51.0876 99.8858 51.0277 100.061 50.9079 100.212C50.7882 100.361 50.6334 100.474 50.4434 100.553C50.2555 100.631 50.0543 100.662 49.8395 100.646ZM52.5311 100.646C52.3701 100.635 52.2142 100.603 52.0635 100.55C51.9148 100.494 51.7827 100.418 51.6671 100.324C51.5515 100.229 51.4627 100.115 51.4008 99.9829L52.0387 99.7104C52.0635 99.7516 52.1037 99.796 52.1595 99.8435C52.2152 99.8889 52.2813 99.9271 52.3577 99.9581C52.4361 99.9891 52.5218 100.005 52.6147 100.005C52.6932 100.005 52.7675 99.9942 52.8377 99.9736C52.9099 99.9509 52.9677 99.9168 53.0111 99.8714C53.0565 99.826 53.0792 99.7671 53.0792 99.6949C53.0792 99.6185 53.0524 99.5596 52.9987 99.5184C52.9471 99.475 52.881 99.443 52.8005 99.4224C52.7221 99.3996 52.6457 99.379 52.5714 99.3604C52.3752 99.3212 52.1925 99.2603 52.0232 99.1777C51.856 99.0951 51.7208 98.9888 51.6175 98.8587C51.5164 98.7266 51.4658 98.5676 51.4658 98.3818C51.4658 98.1774 51.5195 98.0009 51.6268 97.8523C51.7363 97.7036 51.8777 97.589 52.0511 97.5085C52.2266 97.428 52.4155 97.3878 52.6178 97.3878C52.8635 97.3878 53.0885 97.4394 53.2929 97.5426C53.4994 97.6438 53.6625 97.7872 53.7822 97.9731L53.1845 98.3261C53.1556 98.2765 53.1154 98.2311 53.0637 98.1898C53.0121 98.1465 52.9533 98.1114 52.8872 98.0845C52.8212 98.0556 52.752 98.0391 52.6797 98.035C52.5868 98.0309 52.5022 98.0391 52.4258 98.0598C52.3494 98.0804 52.2875 98.1155 52.24 98.1651C52.1946 98.2146 52.1719 98.2807 52.1719 98.3632C52.1719 98.4417 52.2028 98.5005 52.2648 98.5398C52.3267 98.5769 52.401 98.6058 52.4877 98.6265C52.5765 98.6471 52.6612 98.6698 52.7417 98.6946C52.9234 98.7545 53.0937 98.8278 53.2526 98.9145C53.4137 99.0012 53.5427 99.1075 53.6397 99.2334C53.7368 99.3594 53.7832 99.5101 53.7791 99.6856C53.7791 99.8858 53.7192 100.061 53.5995 100.212C53.4797 100.361 53.3249 100.474 53.135 100.553C52.9471 100.631 52.7458 100.662 52.5311 100.646ZM54.1852 99.444V97.493H54.9408V99.2458C54.9408 99.3676 54.9708 99.4791 55.0306 99.5803C55.0905 99.6794 55.17 99.7589 55.2691 99.8187C55.3703 99.8765 55.4807 99.9055 55.6005 99.9055C55.7243 99.9055 55.8358 99.8765 55.9349 99.8187C56.034 99.7589 56.1135 99.6794 56.1734 99.5803C56.2332 99.4791 56.2632 99.3676 56.2632 99.2458V97.493H57.0188L57.0219 100.59H56.2663L56.2632 100.308C56.1558 100.42 56.0288 100.508 55.8823 100.574C55.7357 100.638 55.5788 100.67 55.4116 100.67C55.1865 100.67 54.9811 100.616 54.7953 100.506C54.6095 100.395 54.4608 100.247 54.3494 100.063C54.2399 99.8776 54.1852 99.6711 54.1852 99.444ZM58.956 100.67C58.6711 100.67 58.4109 100.597 58.1756 100.45C57.9423 100.304 57.7555 100.107 57.6151 99.859C57.4767 99.6113 57.4076 99.3377 57.4076 99.0383C57.4076 98.8133 57.4478 98.6027 57.5284 98.4066C57.6089 98.2084 57.7193 98.035 57.8597 97.8863C58.0022 97.7356 58.1673 97.618 58.3552 97.5333C58.5431 97.4487 58.7433 97.4063 58.956 97.4063C59.1975 97.4063 59.4184 97.458 59.6187 97.5612C59.821 97.6623 59.9924 97.8017 60.1328 97.9792C60.2732 98.1568 60.3753 98.3591 60.4393 98.5862C60.5033 98.8133 60.5178 99.0507 60.4827 99.2985H58.2189C58.2478 99.4141 58.2953 99.5184 58.3614 99.6113C58.4275 99.7021 58.5111 99.7754 58.6122 99.8311C58.7134 99.8848 58.828 99.9127 58.956 99.9147C59.0881 99.9168 59.2079 99.8858 59.3152 99.8218C59.4246 99.7558 59.5155 99.667 59.5877 99.5555L60.3588 99.7351C60.2329 100.01 60.045 100.235 59.7952 100.41C59.5454 100.584 59.2657 100.67 58.956 100.67ZM58.1942 98.7318H59.7178C59.6951 98.6079 59.6466 98.4964 59.5722 98.3973C59.5 98.2962 59.4102 98.2156 59.3028 98.1558C59.1955 98.0959 59.0799 98.066 58.956 98.066C58.8321 98.066 58.7175 98.0959 58.6122 98.1558C58.5069 98.2136 58.4171 98.2931 58.3428 98.3942C58.2706 98.4933 58.221 98.6058 58.1942 98.7318ZM62.5502 100.59L62.5471 97.493H63.3027L63.3058 97.7687C63.4111 97.6572 63.537 97.5694 63.6836 97.5054C63.8302 97.4394 63.9881 97.4063 64.1574 97.4063C64.2709 97.4063 64.3845 97.4229 64.498 97.4559L64.2007 98.2177C64.1223 98.1867 64.0438 98.1712 63.9654 98.1712C63.8436 98.1712 63.7321 98.2012 63.6309 98.2611C63.5318 98.3189 63.4524 98.3983 63.3925 98.4995C63.3347 98.5986 63.3058 98.7091 63.3058 98.8309V100.59H62.5502ZM66.0629 100.67C65.778 100.67 65.5178 100.597 65.2825 100.45C65.0492 100.304 64.8624 100.107 64.722 99.859C64.5836 99.6113 64.5145 99.3377 64.5145 99.0383C64.5145 98.8133 64.5547 98.6027 64.6353 98.4066C64.7158 98.2084 64.8262 98.035 64.9666 97.8863C65.1091 97.7356 65.2742 97.618 65.4621 97.5333C65.65 97.4487 65.8502 97.4063 66.0629 97.4063C66.3044 97.4063 66.5253 97.458 66.7256 97.5612C66.9279 97.6623 67.0993 97.8017 67.2397 97.9792C67.3801 98.1568 67.4822 98.3591 67.5462 98.5862C67.6102 98.8133 67.6247 99.0507 67.5896 99.2985H65.3258C65.3547 99.4141 65.4022 99.5184 65.4683 99.6113C65.5344 99.7021 65.618 99.7754 65.7191 99.8311C65.8203 99.8848 65.9349 99.9127 66.0629 99.9147C66.195 99.9168 66.3148 99.8858 66.4221 99.8218C66.5315 99.7558 66.6224 99.667 66.6946 99.5555L67.4657 99.7351C67.3398 100.01 67.1519 100.235 66.9021 100.41C66.6523 100.584 66.3726 100.67 66.0629 100.67ZM65.3011 98.7318H66.8247C66.802 98.6079 66.7535 98.4964 66.6791 98.3973C66.6069 98.2962 66.5171 98.2156 66.4097 98.1558C66.3024 98.0959 66.1868 98.066 66.0629 98.066C65.939 98.066 65.8244 98.0959 65.7191 98.1558C65.6138 98.2136 65.524 98.2931 65.4497 98.3942C65.3775 98.4933 65.3279 98.6058 65.3011 98.7318ZM68.8491 102.138H68.0935V97.493H68.8491V97.8863C68.9502 97.746 69.0741 97.6324 69.2207 97.5457C69.3693 97.4569 69.5428 97.4125 69.741 97.4125C69.9681 97.4125 70.1797 97.4549 70.3758 97.5395C70.5719 97.6241 70.7443 97.7418 70.893 97.8925C71.0437 98.0412 71.1603 98.2136 71.2429 98.4097C71.3276 98.6058 71.3699 98.8164 71.3699 99.0414C71.3699 99.2665 71.3276 99.4781 71.2429 99.6763C71.1603 99.8745 71.0437 100.049 70.893 100.2C70.7443 100.348 70.5719 100.465 70.3758 100.55C70.1797 100.634 69.9681 100.677 69.741 100.677C69.5428 100.677 69.3693 100.633 69.2207 100.546C69.0741 100.458 68.9502 100.343 68.8491 100.203V102.138ZM69.7317 98.1403C69.5748 98.1403 69.4344 98.1816 69.3105 98.2641C69.1866 98.3447 69.0896 98.4531 69.0194 98.5893C68.9492 98.7256 68.9141 98.8763 68.9141 99.0414C68.9141 99.2066 68.9492 99.3584 69.0194 99.4967C69.0896 99.6329 69.1866 99.7424 69.3105 99.8249C69.4344 99.9055 69.5748 99.9457 69.7317 99.9457C69.8906 99.9457 70.0362 99.9055 70.1683 99.8249C70.3004 99.7444 70.4057 99.636 70.4842 99.4998C70.5626 99.3614 70.6019 99.2087 70.6019 99.0414C70.6019 98.8763 70.5626 98.7256 70.4842 98.5893C70.4057 98.4531 70.3004 98.3447 70.1683 98.2641C70.0383 98.1816 69.8927 98.1403 69.7317 98.1403ZM73.2303 100.67C72.9454 100.67 72.6852 100.597 72.4499 100.45C72.2166 100.304 72.0297 100.108 71.8894 99.8621C71.751 99.6144 71.6819 99.3408 71.6819 99.0414C71.6819 98.8143 71.7221 98.6027 71.8026 98.4066C71.8832 98.2084 71.9936 98.035 72.134 97.8863C72.2765 97.7356 72.4416 97.618 72.6295 97.5333C72.8174 97.4487 73.0176 97.4063 73.2303 97.4063C73.5152 97.4063 73.7743 97.4796 74.0076 97.6262C74.2429 97.7728 74.4298 97.97 74.5681 98.2177C74.7085 98.4654 74.7787 98.74 74.7787 99.0414C74.7787 99.2665 74.7384 99.4771 74.6579 99.6732C74.5774 99.8693 74.4659 100.043 74.3234 100.193C74.1831 100.342 74.0189 100.459 73.8311 100.543C73.6452 100.628 73.445 100.67 73.2303 100.67ZM73.2303 99.9147C73.381 99.9147 73.5162 99.8745 73.636 99.794C73.7557 99.7135 73.8496 99.6071 73.9178 99.475C73.988 99.3429 74.0231 99.1984 74.0231 99.0414C74.0231 98.8804 73.9869 98.7338 73.9147 98.6017C73.8445 98.4675 73.7485 98.3612 73.6267 98.2827C73.5069 98.2022 73.3748 98.162 73.2303 98.162C73.0816 98.162 72.9474 98.2022 72.8277 98.2827C72.7079 98.3632 72.613 98.4706 72.5428 98.6048C72.4726 98.739 72.4375 98.8845 72.4375 99.0414C72.4375 99.2045 72.4736 99.3522 72.5459 99.4843C72.6181 99.6164 72.7141 99.7217 72.8339 99.8002C72.9557 99.8765 73.0878 99.9147 73.2303 99.9147ZM75.2639 100.59L75.2609 97.493H76.0165L76.0196 97.7687C76.1249 97.6572 76.2508 97.5694 76.3974 97.5054C76.544 97.4394 76.7019 97.4063 76.8712 97.4063C76.9847 97.4063 77.0983 97.4229 77.2118 97.4559L76.9145 98.2177C76.8361 98.1867 76.7576 98.1712 76.6792 98.1712C76.5574 98.1712 76.4459 98.2012 76.3447 98.2611C76.2456 98.3189 76.1661 98.3983 76.1063 98.4995C76.0485 98.5986 76.0196 98.7091 76.0196 98.8309V100.59H75.2639ZM79.3038 98.2487H78.703V100.59H77.9474V98.2487H77.4891V97.493H77.9474V96.5207H78.703V97.493H79.3038V98.2487ZM81.1537 100.67C80.8688 100.67 80.6087 100.597 80.3733 100.45C80.14 100.304 79.9532 100.107 79.8128 99.859C79.6745 99.6113 79.6053 99.3377 79.6053 99.0383C79.6053 98.8133 79.6456 98.6027 79.7261 98.4066C79.8066 98.2084 79.9171 98.035 80.0574 97.8863C80.1999 97.7356 80.3651 97.618 80.5529 97.5333C80.7408 97.4487 80.9411 97.4063 81.1537 97.4063C81.3953 97.4063 81.6162 97.458 81.8164 97.5612C82.0188 97.6623 82.1901 97.8017 82.3305 97.9792C82.4709 98.1568 82.5731 98.3591 82.6371 98.5862C82.7011 98.8133 82.7155 99.0507 82.6804 99.2985H80.4167C80.4456 99.4141 80.4931 99.5184 80.5591 99.6113C80.6252 99.7021 80.7088 99.7754 80.81 99.8311C80.9111 99.8848 81.0257 99.9127 81.1537 99.9147C81.2858 99.9168 81.4056 99.8858 81.5129 99.8218C81.6224 99.7558 81.7132 99.667 81.7855 99.5555L82.5566 99.7351C82.4306 100.01 82.2428 100.235 81.9929 100.41C81.7431 100.584 81.4634 100.67 81.1537 100.67ZM80.3919 98.7318H81.9155C81.8928 98.6079 81.8443 98.4964 81.77 98.3973C81.6977 98.2962 81.6079 98.2156 81.5006 98.1558C81.3932 98.0959 81.2776 98.066 81.1537 98.066C81.0298 98.066 80.9153 98.0959 80.81 98.1558C80.7047 98.2136 80.6149 98.2931 80.5406 98.3942C80.4683 98.4933 80.4187 98.6058 80.3919 98.7318ZM85.5376 95.9446H86.2932V100.59H85.5376V100.203C85.4385 100.341 85.3136 100.454 85.1629 100.54C85.0121 100.627 84.8377 100.67 84.6395 100.67C84.4145 100.67 84.2039 100.628 84.0078 100.543C83.8116 100.459 83.6382 100.342 83.4875 100.193C83.3388 100.043 83.2222 99.8693 83.1376 99.6732C83.0529 99.4771 83.0106 99.2665 83.0106 99.0414C83.0106 98.8164 83.0529 98.6058 83.1376 98.4097C83.2222 98.2136 83.3388 98.0412 83.4875 97.8925C83.6382 97.7418 83.8116 97.6241 84.0078 97.5395C84.2039 97.4549 84.4145 97.4125 84.6395 97.4125C84.8377 97.4125 85.0121 97.4559 85.1629 97.5426C85.3136 97.6272 85.4385 97.7398 85.5376 97.8801V95.9446ZM84.6488 99.9426C84.8098 99.9426 84.9523 99.9024 85.0761 99.8218C85.2 99.7413 85.2971 99.6329 85.3672 99.4967C85.4374 99.3584 85.4725 99.2066 85.4725 99.0414C85.4725 98.8742 85.4374 98.7225 85.3672 98.5862C85.2971 98.4479 85.199 98.3385 85.073 98.258C84.9492 98.1774 84.8078 98.1372 84.6488 98.1372C84.4898 98.1372 84.3443 98.1785 84.2121 98.2611C84.0821 98.3416 83.9778 98.45 83.8994 98.5862C83.823 98.7225 83.7848 98.8742 83.7848 99.0414C83.7848 99.2087 83.824 99.3604 83.9025 99.4967C83.9809 99.6329 84.0852 99.7413 84.2152 99.8218C84.3474 99.9024 84.4919 99.9426 84.6488 99.9426ZM89.8876 100.67C89.6027 100.67 89.3426 100.597 89.1073 100.45C88.874 100.304 88.6871 100.108 88.5467 99.8621C88.4084 99.6144 88.3393 99.3408 88.3393 99.0414C88.3393 98.8143 88.3795 98.6027 88.46 98.4066C88.5405 98.2084 88.651 98.035 88.7914 97.8863C88.9338 97.7356 89.099 97.618 89.2869 97.5333C89.4747 97.4487 89.675 97.4063 89.8876 97.4063C90.1726 97.4063 90.4317 97.4796 90.6649 97.6262C90.9003 97.7728 91.0871 97.97 91.2255 98.2177C91.3659 98.4654 91.436 98.74 91.436 99.0414C91.436 99.2665 91.3958 99.4771 91.3153 99.6732C91.2348 99.8693 91.1233 100.043 90.9808 100.193C90.8404 100.342 90.6763 100.459 90.4884 100.543C90.3026 100.628 90.1024 100.67 89.8876 100.67ZM89.8876 99.9147C90.0384 99.9147 90.1736 99.8745 90.2933 99.794C90.4131 99.7135 90.507 99.6071 90.5751 99.475C90.6453 99.3429 90.6804 99.1984 90.6804 99.0414C90.6804 98.8804 90.6443 98.7338 90.572 98.6017C90.5018 98.4675 90.4058 98.3612 90.284 98.2827C90.1643 98.2022 90.0322 98.162 89.8876 98.162C89.739 98.162 89.6048 98.2022 89.4851 98.2827C89.3653 98.3632 89.2704 98.4706 89.2002 98.6048C89.13 98.739 89.0949 98.8845 89.0949 99.0414C89.0949 99.2045 89.131 99.3522 89.2033 99.4843C89.2755 99.6164 89.3715 99.7217 89.4913 99.8002C89.6131 99.8765 89.7452 99.9147 89.8876 99.9147ZM93.69 100.59H92.7145L91.5873 97.49H92.3924L93.2038 99.7196L94.012 97.49H94.8172L93.69 100.59ZM96.5167 100.67C96.2318 100.67 95.9717 100.597 95.7363 100.45C95.503 100.304 95.3162 100.107 95.1758 99.859C95.0375 99.6113 94.9683 99.3377 94.9683 99.0383C94.9683 98.8133 95.0086 98.6027 95.0891 98.4066C95.1696 98.2084 95.2801 98.035 95.4205 97.8863C95.5629 97.7356 95.7281 97.618 95.9159 97.5333C96.1038 97.4487 96.3041 97.4063 96.5167 97.4063C96.7583 97.4063 96.9792 97.458 97.1794 97.5612C97.3818 97.6623 97.5531 97.8017 97.6935 97.9792C97.8339 98.1568 97.9361 98.3591 98.0001 98.5862C98.0641 98.8133 98.0785 99.0507 98.0434 99.2985H95.7797C95.8086 99.4141 95.8561 99.5184 95.9221 99.6113C95.9882 99.7021 96.0718 99.7754 96.173 99.8311C96.2741 99.8848 96.3887 99.9127 96.5167 99.9147C96.6489 99.9168 96.7686 99.8858 96.876 99.8218C96.9854 99.7558 97.0762 99.667 97.1485 99.5555L97.9196 99.7351C97.7936 100.01 97.6058 100.235 97.356 100.41C97.1061 100.584 96.8264 100.67 96.5167 100.67ZM95.7549 98.7318H97.2785C97.2558 98.6079 97.2073 98.4964 97.133 98.3973C97.0607 98.2962 96.9709 98.2156 96.8636 98.1558C96.7562 98.0959 96.6406 98.066 96.5167 98.066C96.3929 98.066 96.2783 98.0959 96.173 98.1558C96.0677 98.2136 95.9779 98.2931 95.9036 98.3942C95.8313 98.4933 95.7818 98.6058 95.7549 98.7318ZM98.5504 100.59L98.5473 97.493H99.3029L99.306 97.7687C99.4113 97.6572 99.5372 97.5694 99.6838 97.5054C99.8304 97.4394 99.9883 97.4063 100.158 97.4063C100.271 97.4063 100.385 97.4229 100.498 97.4559L100.201 98.2177C100.123 98.1867 100.044 98.1712 99.9656 98.1712C99.8438 98.1712 99.7323 98.2012 99.6312 98.2611C99.5321 98.3189 99.4526 98.3983 99.3927 98.4995C99.3349 98.5986 99.306 98.7091 99.306 98.8309V100.59H98.5504ZM103.174 102.138H102.418V97.493H103.174V97.8863C103.275 97.746 103.399 97.6324 103.546 97.5457C103.694 97.4569 103.868 97.4125 104.066 97.4125C104.293 97.4125 104.505 97.4549 104.701 97.5395C104.897 97.6241 105.069 97.7418 105.218 97.8925C105.369 98.0412 105.485 98.2136 105.568 98.4097C105.652 98.6058 105.695 98.8164 105.695 99.0414C105.695 99.2665 105.652 99.4781 105.568 99.6763C105.485 99.8745 105.369 100.049 105.218 100.2C105.069 100.348 104.897 100.465 104.701 100.55C104.505 100.634 104.293 100.677 104.066 100.677C103.868 100.677 103.694 100.633 103.546 100.546C103.399 100.458 103.275 100.343 103.174 100.203V102.138ZM104.057 98.1403C103.9 98.1403 103.759 98.1816 103.635 98.2641C103.511 98.3447 103.414 98.4531 103.344 98.5893C103.274 98.7256 103.239 98.8763 103.239 99.0414C103.239 99.2066 103.274 99.3584 103.344 99.4967C103.414 99.6329 103.511 99.7424 103.635 99.8249C103.759 99.9055 103.9 99.9457 104.057 99.9457C104.215 99.9457 104.361 99.9055 104.493 99.8249C104.625 99.7444 104.731 99.636 104.809 99.4998C104.887 99.3614 104.927 99.2087 104.927 99.0414C104.927 98.8763 104.887 98.7256 104.809 98.5893C104.731 98.4531 104.625 98.3447 104.493 98.2641C104.363 98.1816 104.218 98.1403 104.057 98.1403ZM108.528 97.493H109.283V100.59H108.528L108.493 100.206C108.409 100.344 108.296 100.457 108.156 100.543C108.018 100.628 107.853 100.67 107.663 100.67C107.434 100.67 107.22 100.627 107.019 100.54C106.819 100.454 106.643 100.334 106.49 100.181C106.339 100.028 106.22 99.8518 106.134 99.6515C106.049 99.4513 106.007 99.2365 106.007 99.0074C106.007 98.7865 106.047 98.579 106.127 98.3849C106.21 98.1909 106.325 98.0205 106.471 97.874C106.618 97.7274 106.787 97.6128 106.979 97.5302C107.171 97.4476 107.378 97.4063 107.598 97.4063C107.803 97.4063 107.986 97.4518 108.147 97.5426C108.31 97.6334 108.448 97.749 108.562 97.8894L108.528 97.493ZM107.645 99.9426C107.806 99.9426 107.948 99.9024 108.072 99.8218C108.196 99.7413 108.293 99.6329 108.363 99.4967C108.434 99.3584 108.469 99.2066 108.469 99.0414C108.469 98.8742 108.434 98.7225 108.363 98.5862C108.293 98.4479 108.195 98.3385 108.069 98.258C107.945 98.1774 107.804 98.1372 107.645 98.1372C107.486 98.1372 107.34 98.1785 107.208 98.2611C107.078 98.3416 106.974 98.45 106.895 98.5862C106.819 98.7225 106.781 98.8742 106.781 99.0414C106.781 99.2087 106.82 99.3604 106.899 99.4967C106.977 99.6329 107.081 99.7413 107.211 99.8218C107.343 99.9024 107.488 99.9426 107.645 99.9426ZM110.814 100.646C110.653 100.635 110.497 100.603 110.346 100.55C110.197 100.494 110.065 100.418 109.95 100.324C109.834 100.229 109.745 100.115 109.683 99.9829L110.321 99.7104C110.346 99.7516 110.386 99.796 110.442 99.8435C110.498 99.8889 110.564 99.9271 110.64 99.9581C110.719 99.9891 110.804 100.005 110.897 100.005C110.976 100.005 111.05 99.9942 111.12 99.9736C111.193 99.9509 111.25 99.9168 111.294 99.8714C111.339 99.826 111.362 99.7671 111.362 99.6949C111.362 99.6185 111.335 99.5596 111.281 99.5184C111.23 99.475 111.164 99.443 111.083 99.4224C111.005 99.3996 110.928 99.379 110.854 99.3604C110.658 99.3212 110.475 99.2603 110.306 99.1777C110.139 99.0951 110.003 98.9888 109.9 98.8587C109.799 98.7266 109.748 98.5676 109.748 98.3818C109.748 98.1774 109.802 98.0009 109.909 97.8523C110.019 97.7036 110.16 97.589 110.334 97.5085C110.509 97.428 110.698 97.3878 110.9 97.3878C111.146 97.3878 111.371 97.4394 111.576 97.5426C111.782 97.6438 111.945 97.7872 112.065 97.9731L111.467 98.3261C111.438 98.2765 111.398 98.2311 111.346 98.1898C111.295 98.1465 111.236 98.1114 111.17 98.0845C111.104 98.0556 111.035 98.0391 110.962 98.035C110.87 98.0309 110.785 98.0391 110.708 98.0598C110.632 98.0804 110.57 98.1155 110.523 98.1651C110.477 98.2146 110.455 98.2807 110.455 98.3632C110.455 98.4417 110.486 98.5005 110.547 98.5398C110.609 98.5769 110.684 98.6058 110.77 98.6265C110.859 98.6471 110.944 98.6698 111.024 98.6946C111.206 98.7545 111.376 98.8278 111.535 98.9145C111.696 99.0012 111.825 99.1075 111.922 99.2334C112.019 99.3594 112.066 99.5101 112.062 99.6856C112.062 99.8858 112.002 100.061 111.882 100.212C111.762 100.361 111.608 100.474 111.418 100.553C111.23 100.631 111.028 100.662 110.814 100.646ZM114.252 98.2487H113.651V100.59H112.895V98.2487H112.437V97.493H112.895V96.5207H113.651V97.493H114.252V98.2487ZM117.51 100.67C117.248 100.67 117.012 100.608 116.801 100.485C116.591 100.361 116.423 100.194 116.299 99.986C116.176 99.7754 116.114 99.5421 116.114 99.2861H116.869C116.869 99.4017 116.896 99.507 116.95 99.602C117.006 99.6969 117.082 99.7733 117.179 99.8311C117.276 99.8869 117.386 99.9147 117.51 99.9147C117.624 99.9147 117.729 99.8869 117.826 99.8311C117.925 99.7733 118.005 99.6969 118.065 99.602C118.124 99.507 118.154 99.4017 118.154 99.2861C118.154 99.1354 118.114 99.0105 118.034 98.9114C117.953 98.8102 117.841 98.7349 117.696 98.6853C117.554 98.6358 117.387 98.611 117.198 98.611V98.0288C117.454 98.0288 117.656 97.9803 117.804 97.8832C117.955 97.7862 118.031 97.6438 118.031 97.4559C118.031 97.3589 118.006 97.2701 117.956 97.1896C117.907 97.109 117.841 97.045 117.758 96.9976C117.678 96.948 117.589 96.9232 117.492 96.9232C117.393 96.9232 117.297 96.948 117.204 96.9976C117.111 97.045 117.034 97.109 116.975 97.1896C116.917 97.2701 116.888 97.3589 116.888 97.4559H116.132C116.132 97.2783 116.168 97.1121 116.241 96.9573C116.313 96.8004 116.412 96.6631 116.538 96.5454C116.666 96.4278 116.81 96.3359 116.971 96.2698C117.135 96.2017 117.305 96.1676 117.482 96.1676C117.716 96.1676 117.931 96.2254 118.13 96.341C118.328 96.4567 118.487 96.6115 118.607 96.8056C118.726 96.9996 118.786 97.2164 118.786 97.4559C118.786 97.6231 118.747 97.7872 118.668 97.9483C118.59 98.1093 118.479 98.2229 118.334 98.2889C118.46 98.3343 118.565 98.4107 118.65 98.5181C118.735 98.6234 118.799 98.7442 118.842 98.8804C118.887 99.0146 118.91 99.1498 118.91 99.2861C118.91 99.54 118.846 99.7723 118.718 99.9829C118.59 100.191 118.42 100.359 118.207 100.485C117.996 100.608 117.764 100.67 117.51 100.67ZM119.469 98.354H121.451V99.1096H119.469V98.354ZM123.528 100.67C123.25 100.67 122.998 100.603 122.773 100.469C122.548 100.333 122.369 100.152 122.237 99.9271C122.107 99.7021 122.042 99.4554 122.042 99.187H122.797C122.797 99.3212 122.83 99.444 122.897 99.5555C122.963 99.6649 123.05 99.7527 123.16 99.8187C123.271 99.8827 123.394 99.9147 123.528 99.9147C123.662 99.9147 123.784 99.8827 123.894 99.8187C124.003 99.7527 124.091 99.6649 124.157 99.5555C124.223 99.444 124.256 99.3212 124.256 99.187C124.256 99.0528 124.227 98.93 124.169 98.8185C124.114 98.7049 124.022 98.6151 123.894 98.5491C123.768 98.4809 123.601 98.4469 123.392 98.4469H122.277L122.736 96.2543H124.866V97.0099H123.349L123.209 97.6912L123.516 97.6943C123.809 97.7047 124.068 97.7759 124.293 97.908C124.518 98.0401 124.694 98.2177 124.82 98.4407C124.948 98.6616 125.012 98.9103 125.012 99.187C125.012 99.3893 124.973 99.5803 124.897 99.7599C124.821 99.9395 124.714 100.097 124.578 100.234C124.442 100.37 124.284 100.477 124.104 100.556C123.927 100.632 123.735 100.67 123.528 100.67ZM129.582 95.9446H130.338V100.59H129.582V100.203C129.483 100.341 129.358 100.454 129.208 100.54C129.057 100.627 128.882 100.67 128.684 100.67C128.459 100.67 128.249 100.628 128.052 100.543C127.856 100.459 127.683 100.342 127.532 100.193C127.383 100.043 127.267 99.8693 127.182 99.6732C127.098 99.4771 127.055 99.2665 127.055 99.0414C127.055 98.8164 127.098 98.6058 127.182 98.4097C127.267 98.2136 127.383 98.0412 127.532 97.8925C127.683 97.7418 127.856 97.6241 128.052 97.5395C128.249 97.4549 128.459 97.4125 128.684 97.4125C128.882 97.4125 129.057 97.4559 129.208 97.5426C129.358 97.6272 129.483 97.7398 129.582 97.8801V95.9446ZM128.693 99.9426C128.854 99.9426 128.997 99.9024 129.121 99.8218C129.245 99.7413 129.342 99.6329 129.412 99.4967C129.482 99.3584 129.517 99.2066 129.517 99.0414C129.517 98.8742 129.482 98.7225 129.412 98.5862C129.342 98.4479 129.244 98.3385 129.118 98.258C128.994 98.1774 128.852 98.1372 128.693 98.1372C128.534 98.1372 128.389 98.1785 128.257 98.2611C128.127 98.3416 128.022 98.45 127.944 98.5862C127.868 98.7225 127.829 98.8742 127.829 99.0414C127.829 99.2087 127.869 99.3604 127.947 99.4967C128.026 99.6329 128.13 99.7413 128.26 99.8218C128.392 99.9024 128.537 99.9426 128.693 99.9426ZM133.368 97.493H134.124V100.59H133.368L133.334 100.206C133.25 100.344 133.137 100.457 132.997 100.543C132.858 100.628 132.694 100.67 132.504 100.67C132.275 100.67 132.061 100.627 131.86 100.54C131.66 100.454 131.483 100.334 131.331 100.181C131.18 100.028 131.061 99.8518 130.975 99.6515C130.89 99.4513 130.848 99.2365 130.848 99.0074C130.848 98.7865 130.888 98.579 130.968 98.3849C131.051 98.1909 131.166 98.0205 131.312 97.874C131.459 97.7274 131.628 97.6128 131.82 97.5302C132.012 97.4476 132.218 97.4063 132.439 97.4063C132.644 97.4063 132.826 97.4518 132.987 97.5426C133.151 97.6334 133.289 97.749 133.402 97.8894L133.368 97.493ZM132.486 99.9426C132.647 99.9426 132.789 99.9024 132.913 99.8218C133.037 99.7413 133.134 99.6329 133.204 99.4967C133.274 99.3584 133.31 99.2066 133.31 99.0414C133.31 98.8742 133.274 98.7225 133.204 98.5862C133.134 98.4479 133.036 98.3385 132.91 98.258C132.786 98.1774 132.645 98.1372 132.486 98.1372C132.327 98.1372 132.181 98.1785 132.049 98.2611C131.919 98.3416 131.815 98.45 131.736 98.5862C131.66 98.7225 131.622 98.8742 131.622 99.0414C131.622 99.2087 131.661 99.3604 131.739 99.4967C131.818 99.6329 131.922 99.7413 132.052 99.8218C132.184 99.9024 132.329 99.9426 132.486 99.9426ZM136.696 97.493H137.498L135.804 102.138H135.002L135.563 100.59L134.448 97.493H135.275L135.941 99.5555L136.696 97.493ZM138.836 100.646C138.675 100.635 138.519 100.603 138.369 100.55C138.22 100.494 138.088 100.418 137.972 100.324C137.857 100.229 137.768 100.115 137.706 99.9829L138.344 99.7104C138.369 99.7516 138.409 99.796 138.465 99.8435C138.52 99.8889 138.586 99.9271 138.663 99.9581C138.741 99.9891 138.827 100.005 138.92 100.005C138.998 100.005 139.073 99.9942 139.143 99.9736C139.215 99.9509 139.273 99.9168 139.316 99.8714C139.362 99.826 139.384 99.7671 139.384 99.6949C139.384 99.6185 139.357 99.5596 139.304 99.5184C139.252 99.475 139.186 99.443 139.106 99.4224C139.027 99.3996 138.951 99.379 138.876 99.3604C138.68 99.3212 138.498 99.2603 138.328 99.1777C138.161 99.0951 138.026 98.9888 137.923 98.8587C137.821 98.7266 137.771 98.5676 137.771 98.3818C137.771 98.1774 137.825 98.0009 137.932 97.8523C138.041 97.7036 138.183 97.589 138.356 97.5085C138.532 97.428 138.721 97.3878 138.923 97.3878C139.169 97.3878 139.394 97.4394 139.598 97.5426C139.804 97.6438 139.967 97.7872 140.087 97.9731L139.49 98.3261C139.461 98.2765 139.42 98.2311 139.369 98.1898C139.317 98.1465 139.258 98.1114 139.192 98.0845C139.126 98.0556 139.057 98.0391 138.985 98.035C138.892 98.0309 138.807 98.0391 138.731 98.0598C138.654 98.0804 138.593 98.1155 138.545 98.1651C138.5 98.2146 138.477 98.2807 138.477 98.3632C138.477 98.4417 138.508 98.5005 138.57 98.5398C138.632 98.5769 138.706 98.6058 138.793 98.6265C138.882 98.6471 138.966 98.6698 139.047 98.6946C139.228 98.7545 139.399 98.8278 139.558 98.9145C139.719 99.0012 139.848 99.1075 139.945 99.2334C140.042 99.3594 140.088 99.5101 140.084 99.6856C140.084 99.8858 140.024 100.061 139.905 100.212C139.785 100.361 139.63 100.474 139.44 100.553C139.252 100.631 139.051 100.662 138.836 100.646Z" fill="#263238"/>
</svg>
