<svg width="186" height="111" viewBox="0 0 186 111" fill="none" xmlns="http://www.w3.org/2000/svg">
<rect x="0.565051" y="0.377551" width="184.245" height="110.245" rx="7.92857" fill="white" stroke="#F5F5F5" stroke-width="0.755102"/>
<path d="M38.4941 100.67C38.201 100.67 37.9253 100.613 37.6673 100.497C37.4092 100.379 37.1821 100.217 36.986 100.011C36.7919 99.8043 36.6391 99.5658 36.5277 99.2954C36.4182 99.0229 36.3635 98.7318 36.3635 98.4221C36.3635 98.1103 36.4182 97.8192 36.5277 97.5488C36.6391 97.2763 36.7919 97.0378 36.986 96.8334C37.1821 96.627 37.4092 96.4659 37.6673 96.3503C37.9253 96.2327 38.201 96.1738 38.4941 96.1738C38.8451 96.1738 39.1682 96.2554 39.4634 96.4185C39.7586 96.5795 40.0033 96.7952 40.1974 97.0657L39.5223 97.428C39.4004 97.2773 39.2487 97.1565 39.067 97.0657C38.8874 96.9749 38.6964 96.9294 38.4941 96.9294C38.3042 96.9294 38.1256 96.9687 37.9584 97.0471C37.7911 97.1235 37.6446 97.2309 37.5186 97.3692C37.3927 97.5054 37.2946 97.6644 37.2244 97.8461C37.1542 98.0257 37.1191 98.2177 37.1191 98.4221C37.1191 98.6285 37.1542 98.8216 37.2244 99.0012C37.2967 99.1808 37.3958 99.3398 37.5217 99.4781C37.6477 99.6144 37.7932 99.7217 37.9584 99.8002C38.1256 99.8765 38.3042 99.9147 38.4941 99.9147C38.7006 99.9147 38.8926 99.8693 39.0701 99.7785C39.2497 99.6856 39.4004 99.5638 39.5223 99.4131L40.1974 99.7785C40.0033 100.047 39.7586 100.263 39.4634 100.426C39.1682 100.589 38.8451 100.67 38.4941 100.67ZM40.6337 99.444V97.493H41.3893V99.2458C41.3893 99.3676 41.4193 99.4791 41.4791 99.5803C41.539 99.6794 41.6185 99.7589 41.7176 99.8187C41.8188 99.8765 41.9292 99.9055 42.049 99.9055C42.1728 99.9055 42.2843 99.8765 42.3834 99.8187C42.4825 99.7589 42.562 99.6794 42.6219 99.5803C42.6817 99.4791 42.7117 99.3676 42.7117 99.2458V97.493H43.4673L43.4704 100.59H42.7148L42.7117 100.308C42.6043 100.42 42.4773 100.508 42.3308 100.574C42.1842 100.638 42.0273 100.67 41.86 100.67C41.635 100.67 41.4296 100.616 41.2438 100.506C41.058 100.395 40.9093 100.247 40.7978 100.063C40.6884 99.8776 40.6337 99.6711 40.6337 99.444ZM45.0038 100.646C44.8428 100.635 44.6869 100.603 44.5362 100.55C44.3876 100.494 44.2554 100.418 44.1398 100.324C44.0242 100.229 43.9354 100.115 43.8735 99.9829L44.5114 99.7104C44.5362 99.7516 44.5765 99.796 44.6322 99.8435C44.688 99.8889 44.754 99.9271 44.8304 99.9581C44.9089 99.9891 44.9945 100.005 45.0874 100.005C45.1659 100.005 45.2402 99.9942 45.3104 99.9736C45.3827 99.9509 45.4405 99.9168 45.4838 99.8714C45.5292 99.826 45.552 99.7671 45.552 99.6949C45.552 99.6185 45.5251 99.5596 45.4714 99.5184C45.4198 99.475 45.3538 99.443 45.2732 99.4224C45.1948 99.3996 45.1184 99.379 45.0441 99.3604C44.848 99.3212 44.6652 99.2603 44.496 99.1777C44.3287 99.0951 44.1935 98.9888 44.0903 98.8587C43.9891 98.7266 43.9385 98.5676 43.9385 98.3818C43.9385 98.1774 43.9922 98.0009 44.0996 97.8523C44.209 97.7036 44.3504 97.589 44.5238 97.5085C44.6993 97.428 44.8882 97.3878 45.0905 97.3878C45.3362 97.3878 45.5612 97.4394 45.7656 97.5426C45.9721 97.6438 46.1352 97.7872 46.2549 97.9731L45.6572 98.3261C45.6283 98.2765 45.5881 98.2311 45.5365 98.1898C45.4849 98.1465 45.426 98.1114 45.36 98.0845C45.2939 98.0556 45.2247 98.0391 45.1525 98.035C45.0596 98.0309 44.9749 98.0391 44.8985 98.0598C44.8221 98.0804 44.7602 98.1155 44.7127 98.1651C44.6673 98.2146 44.6446 98.2807 44.6446 98.3632C44.6446 98.4417 44.6756 98.5005 44.7375 98.5398C44.7994 98.5769 44.8738 98.6058 44.9605 98.6265C45.0492 98.6471 45.1339 98.6698 45.2144 98.6946C45.3961 98.7545 45.5664 98.8278 45.7254 98.9145C45.8864 99.0012 46.0154 99.1075 46.1125 99.2334C46.2095 99.3594 46.256 99.5101 46.2518 99.6856C46.2518 99.8858 46.192 100.061 46.0722 100.212C45.9525 100.361 45.7976 100.474 45.6077 100.553C45.4198 100.631 45.2185 100.662 45.0038 100.646ZM48.4417 98.2487H47.8409V100.59H47.0853V98.2487H46.627V97.493H47.0853V96.5207H47.8409V97.493H48.4417V98.2487ZM50.2916 100.67C50.0067 100.67 49.7466 100.597 49.5112 100.45C49.2779 100.304 49.0911 100.108 48.9507 99.8621C48.8124 99.6144 48.7432 99.3408 48.7432 99.0414C48.7432 98.8143 48.7835 98.6027 48.864 98.4066C48.9445 98.2084 49.055 98.035 49.1953 97.8863C49.3378 97.7356 49.503 97.618 49.6908 97.5333C49.8787 97.4487 50.079 97.4063 50.2916 97.4063C50.5765 97.4063 50.8356 97.4796 51.0689 97.6262C51.3043 97.7728 51.4911 97.97 51.6294 98.2177C51.7698 98.4654 51.84 98.74 51.84 99.0414C51.84 99.2665 51.7997 99.4771 51.7192 99.6732C51.6387 99.8693 51.5272 100.043 51.3848 100.193C51.2444 100.342 51.0803 100.459 50.8924 100.543C50.7066 100.628 50.5063 100.67 50.2916 100.67ZM50.2916 99.9147C50.4423 99.9147 50.5775 99.8745 50.6973 99.794C50.817 99.7135 50.911 99.6071 50.9791 99.475C51.0493 99.3429 51.0844 99.1984 51.0844 99.0414C51.0844 98.8804 51.0483 98.7338 50.976 98.6017C50.9058 98.4675 50.8098 98.3612 50.688 98.2827C50.5683 98.2022 50.4361 98.162 50.2916 98.162C50.143 98.162 50.0088 98.2022 49.889 98.2827C49.7693 98.3632 49.6743 98.4706 49.6041 98.6048C49.5339 98.739 49.4988 98.8845 49.4988 99.0414C49.4988 99.2045 49.535 99.3522 49.6072 99.4843C49.6795 99.6164 49.7755 99.7217 49.8952 99.8002C50.017 99.8765 50.1492 99.9147 50.2916 99.9147ZM52.3222 100.59V97.493H53.0778V97.7687C53.1831 97.6572 53.309 97.5694 53.4556 97.5054C53.6022 97.4394 53.7601 97.4063 53.9294 97.4063C54.1441 97.4063 54.3413 97.4569 54.5209 97.5581C54.7026 97.6592 54.8471 97.7945 54.9545 97.9638C55.0639 97.7945 55.2084 97.6592 55.388 97.5581C55.5676 97.4569 55.7648 97.4063 55.9795 97.4063C56.2066 97.4063 56.412 97.4621 56.5958 97.5736C56.7816 97.683 56.9292 97.8306 57.0386 98.0164C57.1501 98.2001 57.2058 98.4056 57.2058 98.6327V100.59H56.4502V98.834C56.4502 98.7142 56.4203 98.6048 56.3604 98.5057C56.3026 98.4045 56.2241 98.324 56.125 98.2641C56.028 98.2022 55.9186 98.1712 55.7968 98.1712C55.675 98.1712 55.5645 98.2012 55.4654 98.2611C55.3684 98.3189 55.2899 98.3973 55.2301 98.4964C55.1702 98.5955 55.1403 98.708 55.1403 98.834V100.59H54.3846V98.834C54.3846 98.708 54.3557 98.5955 54.2979 98.4964C54.2401 98.3973 54.1617 98.3189 54.0626 98.2611C53.9635 98.2012 53.853 98.1712 53.7312 98.1712C53.6115 98.1712 53.5021 98.2022 53.403 98.2641C53.3039 98.324 53.2244 98.4045 53.1645 98.5057C53.1067 98.6048 53.0778 98.7142 53.0778 98.834V100.59H52.3222ZM59.1284 100.67C58.8435 100.67 58.5833 100.597 58.348 100.45C58.1147 100.304 57.9278 100.107 57.7874 99.859C57.6491 99.6113 57.58 99.3377 57.58 99.0383C57.58 98.8133 57.6202 98.6027 57.7007 98.4066C57.7813 98.2084 57.8917 98.035 58.0321 97.8863C58.1745 97.7356 58.3397 97.618 58.5276 97.5333C58.7155 97.4487 58.9157 97.4063 59.1284 97.4063C59.3699 97.4063 59.5908 97.458 59.7911 97.5612C59.9934 97.6623 60.1648 97.8017 60.3051 97.9792C60.4455 98.1568 60.5477 98.3591 60.6117 98.5862C60.6757 98.8133 60.6902 99.0507 60.6551 99.2985H58.3913C58.4202 99.4141 58.4677 99.5184 58.5338 99.6113C58.5998 99.7021 58.6835 99.7754 58.7846 99.8311C58.8858 99.8848 59.0004 99.9127 59.1284 99.9147C59.2605 99.9168 59.3802 99.8858 59.4876 99.8218C59.597 99.7558 59.6878 99.667 59.7601 99.5555L60.5312 99.7351C60.4053 100.01 60.2174 100.235 59.9676 100.41C59.7178 100.584 59.438 100.67 59.1284 100.67ZM58.3665 98.7318H59.8902C59.8675 98.6079 59.8189 98.4964 59.7446 98.3973C59.6724 98.2962 59.5826 98.2156 59.4752 98.1558C59.3678 98.0959 59.2522 98.066 59.1284 98.066C59.0045 98.066 58.8899 98.0959 58.7846 98.1558C58.6793 98.2136 58.5895 98.2931 58.5152 98.3942C58.4429 98.4933 58.3934 98.6058 58.3665 98.7318ZM61.162 100.59L61.1589 97.493H61.9146L61.9177 97.7687C62.0229 97.6572 62.1489 97.5694 62.2955 97.5054C62.442 97.4394 62.6 97.4063 62.7693 97.4063C62.8828 97.4063 62.9964 97.4229 63.1099 97.4559L62.8126 98.2177C62.7342 98.1867 62.6557 98.1712 62.5773 98.1712C62.4555 98.1712 62.344 98.2012 62.2428 98.2611C62.1437 98.3189 62.0642 98.3983 62.0044 98.4995C61.9466 98.5986 61.9177 98.7091 61.9177 98.8309V100.59H61.162ZM66.5209 100.59L66.5178 97.493H67.2735L67.2766 97.7687C67.3819 97.6572 67.5078 97.5694 67.6544 97.5054C67.801 97.4394 67.9589 97.4063 68.1282 97.4063C68.2417 97.4063 68.3553 97.4229 68.4688 97.4559L68.1715 98.2177C68.0931 98.1867 68.0146 98.1712 67.9362 98.1712C67.8144 98.1712 67.7029 98.2012 67.6017 98.2611C67.5026 98.3189 67.4231 98.3983 67.3633 98.4995C67.3055 98.5986 67.2766 98.7091 67.2766 98.8309V100.59H66.5209ZM70.0337 100.67C69.7488 100.67 69.4886 100.597 69.2533 100.45C69.02 100.304 68.8332 100.107 68.6928 99.859C68.5544 99.6113 68.4853 99.3377 68.4853 99.0383C68.4853 98.8133 68.5255 98.6027 68.6061 98.4066C68.6866 98.2084 68.797 98.035 68.9374 97.8863C69.0799 97.7356 69.245 97.618 69.4329 97.5333C69.6208 97.4487 69.821 97.4063 70.0337 97.4063C70.2752 97.4063 70.4961 97.458 70.6964 97.5612C70.8987 97.6623 71.0701 97.8017 71.2105 97.9792C71.3508 98.1568 71.453 98.3591 71.517 98.5862C71.581 98.8133 71.5955 99.0507 71.5604 99.2985H69.2966C69.3255 99.4141 69.373 99.5184 69.4391 99.6113C69.5052 99.7021 69.5888 99.7754 69.6899 99.8311C69.7911 99.8848 69.9057 99.9127 70.0337 99.9147C70.1658 99.9168 70.2856 99.8858 70.3929 99.8218C70.5023 99.7558 70.5932 99.667 70.6654 99.5555L71.4365 99.7351C71.3106 100.01 71.1227 100.235 70.8729 100.41C70.6231 100.584 70.3434 100.67 70.0337 100.67ZM69.2719 98.7318H70.7955C70.7728 98.6079 70.7243 98.4964 70.6499 98.3973C70.5777 98.2962 70.4879 98.2156 70.3805 98.1558C70.2732 98.0959 70.1576 98.066 70.0337 98.066C69.9098 98.066 69.7952 98.0959 69.6899 98.1558C69.5846 98.2136 69.4948 98.2931 69.4205 98.3942C69.3483 98.4933 69.2987 98.6058 69.2719 98.7318ZM72.8199 102.138H72.0643V97.493H72.8199V97.8863C72.921 97.746 73.0449 97.6324 73.1915 97.5457C73.3401 97.4569 73.5136 97.4125 73.7118 97.4125C73.9389 97.4125 74.1505 97.4549 74.3466 97.5395C74.5427 97.6241 74.7151 97.7418 74.8638 97.8925C75.0145 98.0412 75.1311 98.2136 75.2137 98.4097C75.2983 98.6058 75.3407 98.8164 75.3407 99.0414C75.3407 99.2665 75.2983 99.4781 75.2137 99.6763C75.1311 99.8745 75.0145 100.049 74.8638 100.2C74.7151 100.348 74.5427 100.465 74.3466 100.55C74.1505 100.634 73.9389 100.677 73.7118 100.677C73.5136 100.677 73.3401 100.633 73.1915 100.546C73.0449 100.458 72.921 100.343 72.8199 100.203V102.138ZM73.7025 98.1403C73.5456 98.1403 73.4052 98.1816 73.2813 98.2641C73.1574 98.3447 73.0604 98.4531 72.9902 98.5893C72.92 98.7256 72.8849 98.8763 72.8849 99.0414C72.8849 99.2066 72.92 99.3584 72.9902 99.4967C73.0604 99.6329 73.1574 99.7424 73.2813 99.8249C73.4052 99.9055 73.5456 99.9457 73.7025 99.9457C73.8614 99.9457 74.007 99.9055 74.1391 99.8249C74.2712 99.7444 74.3765 99.636 74.455 99.4998C74.5334 99.3614 74.5727 99.2087 74.5727 99.0414C74.5727 98.8763 74.5334 98.7256 74.455 98.5893C74.3765 98.4531 74.2712 98.3447 74.1391 98.2641C74.009 98.1816 73.8635 98.1403 73.7025 98.1403ZM77.2011 100.67C76.9162 100.67 76.656 100.597 76.4207 100.45C76.1874 100.304 76.0005 100.108 75.8602 99.8621C75.7218 99.6144 75.6527 99.3408 75.6527 99.0414C75.6527 98.8143 75.6929 98.6027 75.7734 98.4066C75.854 98.2084 75.9644 98.035 76.1048 97.8863C76.2473 97.7356 76.4124 97.618 76.6003 97.5333C76.7882 97.4487 76.9884 97.4063 77.2011 97.4063C77.486 97.4063 77.7451 97.4796 77.9784 97.6262C78.2137 97.7728 78.4006 97.97 78.5389 98.2177C78.6793 98.4654 78.7495 98.74 78.7495 99.0414C78.7495 99.2665 78.7092 99.4771 78.6287 99.6732C78.5482 99.8693 78.4367 100.043 78.2942 100.193C78.1538 100.342 77.9897 100.459 77.8018 100.543C77.616 100.628 77.4158 100.67 77.2011 100.67ZM77.2011 99.9147C77.3518 99.9147 77.487 99.8745 77.6067 99.794C77.7265 99.7135 77.8204 99.6071 77.8886 99.475C77.9588 99.3429 77.9938 99.1984 77.9938 99.0414C77.9938 98.8804 77.9577 98.7338 77.8855 98.6017C77.8153 98.4675 77.7193 98.3612 77.5975 98.2827C77.4777 98.2022 77.3456 98.162 77.2011 98.162C77.0524 98.162 76.9182 98.2022 76.7985 98.2827C76.6787 98.3632 76.5838 98.4706 76.5136 98.6048C76.4434 98.739 76.4083 98.8845 76.4083 99.0414C76.4083 99.2045 76.4444 99.3522 76.5167 99.4843C76.5889 99.6164 76.6849 99.7217 76.8047 99.8002C76.9265 99.8765 77.0586 99.9147 77.2011 99.9147ZM79.2347 100.59L79.2316 97.493H79.9873L79.9904 97.7687C80.0957 97.6572 80.2216 97.5694 80.3682 97.5054C80.5148 97.4394 80.6727 97.4063 80.842 97.4063C80.9555 97.4063 81.0691 97.4229 81.1826 97.4559L80.8853 98.2177C80.8069 98.1867 80.7284 98.1712 80.65 98.1712C80.5282 98.1712 80.4167 98.2012 80.3155 98.2611C80.2164 98.3189 80.1369 98.3983 80.0771 98.4995C80.0193 98.5986 79.9904 98.7091 79.9904 98.8309V100.59H79.2347ZM83.2746 98.2487H82.6738V100.59H81.9182V98.2487H81.4599V97.493H81.9182V96.5207H82.6738V97.493H83.2746V98.2487ZM86.685 100.67C86.4001 100.67 86.14 100.597 85.9046 100.45C85.6713 100.304 85.4845 100.108 85.3441 99.8621C85.2058 99.6144 85.1366 99.3408 85.1366 99.0414C85.1366 98.8143 85.1769 98.6027 85.2574 98.4066C85.3379 98.2084 85.4483 98.035 85.5887 97.8863C85.7312 97.7356 85.8964 97.618 86.0842 97.5333C86.2721 97.4487 86.4724 97.4063 86.685 97.4063C86.9699 97.4063 87.229 97.4796 87.4623 97.6262C87.6977 97.7728 87.8845 97.97 88.0228 98.2177C88.1632 98.4654 88.2334 98.74 88.2334 99.0414C88.2334 99.2665 88.1931 99.4771 88.1126 99.6732C88.0321 99.8693 87.9206 100.043 87.7782 100.193C87.6378 100.342 87.4737 100.459 87.2858 100.543C87.1 100.628 86.8997 100.67 86.685 100.67ZM86.685 99.9147C86.8357 99.9147 86.9709 99.8745 87.0907 99.794C87.2104 99.7135 87.3044 99.6071 87.3725 99.475C87.4427 99.3429 87.4778 99.1984 87.4778 99.0414C87.4778 98.8804 87.4417 98.7338 87.3694 98.6017C87.2992 98.4675 87.2032 98.3612 87.0814 98.2827C86.9617 98.2022 86.8295 98.162 86.685 98.162C86.5364 98.162 86.4022 98.2022 86.2824 98.2827C86.1627 98.3632 86.0677 98.4706 85.9975 98.6048C85.9273 98.739 85.8922 98.8845 85.8922 99.0414C85.8922 99.2045 85.9284 99.3522 86.0006 99.4843C86.0729 99.6164 86.1689 99.7217 86.2886 99.8002C86.4104 99.8765 86.5426 99.9147 86.685 99.9147ZM91.5522 98.6327V100.59H90.7966V98.8309C90.7966 98.7091 90.7667 98.5986 90.7068 98.4995C90.647 98.3983 90.5664 98.3189 90.4653 98.2611C90.3662 98.2012 90.2557 98.1712 90.1339 98.1712C90.0121 98.1712 89.9006 98.2012 89.7995 98.2611C89.7004 98.3189 89.6209 98.3983 89.561 98.4995C89.5032 98.5986 89.4743 98.7091 89.4743 98.8309V100.59H88.7187L88.7156 97.493H89.4712L89.4743 97.7687C89.5796 97.6572 89.7055 97.5694 89.8521 97.5054C89.9987 97.4394 90.1566 97.4063 90.3259 97.4063C90.551 97.4063 90.7564 97.4621 90.9422 97.5736C91.128 97.683 91.2756 97.8306 91.385 98.0164C91.4965 98.2001 91.5522 98.4056 91.5522 98.6327ZM95.5772 99.6577L96.2585 100.026C96.116 100.22 95.9374 100.376 95.7227 100.494C95.508 100.612 95.2737 100.67 95.0197 100.67C94.7348 100.67 94.4747 100.597 94.2393 100.45C94.0061 100.304 93.8192 100.108 93.6788 99.8621C93.5405 99.6144 93.4713 99.3408 93.4713 99.0414C93.4713 98.8143 93.5116 98.6027 93.5921 98.4066C93.6726 98.2084 93.7831 98.035 93.9235 97.8863C94.0659 97.7356 94.2311 97.618 94.419 97.5333C94.6068 97.4487 94.8071 97.4063 95.0197 97.4063C95.2737 97.4063 95.508 97.4652 95.7227 97.5829C95.9374 97.7005 96.116 97.8585 96.2585 98.0567L95.5772 98.4221C95.5049 98.3395 95.4192 98.2755 95.3201 98.2301C95.2231 98.1847 95.123 98.162 95.0197 98.162C94.8711 98.162 94.7369 98.2032 94.6172 98.2858C94.4974 98.3663 94.4024 98.4737 94.3323 98.6079C94.2621 98.74 94.227 98.8845 94.227 99.0414C94.227 99.1963 94.2621 99.3408 94.3323 99.475C94.4024 99.6071 94.4974 99.7135 94.6172 99.794C94.7369 99.8745 94.8711 99.9147 95.0197 99.9147C95.1271 99.9147 95.2293 99.892 95.3263 99.8466C95.4234 99.7991 95.507 99.7362 95.5772 99.6577ZM99.5543 98.6327V100.59H98.7987V98.8309C98.7987 98.7091 98.7688 98.5986 98.7089 98.4995C98.649 98.3983 98.5685 98.3189 98.4673 98.2611C98.3682 98.2012 98.2578 98.1712 98.136 98.1712C98.0142 98.1712 97.9027 98.2012 97.8015 98.2611C97.7024 98.3189 97.623 98.3983 97.5631 98.4995C97.5053 98.5986 97.4764 98.7091 97.4764 98.8309V100.59H96.7208L96.7177 95.9446H97.4733L97.4764 97.7687C97.5817 97.6572 97.7076 97.5694 97.8542 97.5054C98.0008 97.4394 98.1587 97.4063 98.328 97.4063C98.553 97.4063 98.7584 97.4621 98.9443 97.5736C99.1301 97.683 99.2777 97.8306 99.3871 98.0164C99.4986 98.2001 99.5543 98.4056 99.5543 98.6327ZM102.446 97.493H103.201V100.59H102.446L102.412 100.206C102.327 100.344 102.215 100.457 102.074 100.543C101.936 100.628 101.772 100.67 101.582 100.67C101.353 100.67 101.138 100.627 100.938 100.54C100.737 100.454 100.561 100.334 100.408 100.181C100.257 100.028 100.139 99.8518 100.052 99.6515C99.9673 99.4513 99.925 99.2365 99.925 99.0074C99.925 98.7865 99.9653 98.579 100.046 98.3849C100.128 98.1909 100.243 98.0205 100.39 97.874C100.536 97.7274 100.705 97.6128 100.897 97.5302C101.089 97.4476 101.296 97.4063 101.517 97.4063C101.721 97.4063 101.904 97.4518 102.065 97.5426C102.228 97.6334 102.366 97.749 102.48 97.8894L102.446 97.493ZM101.563 99.9426C101.724 99.9426 101.867 99.9024 101.991 99.8218C102.114 99.7413 102.211 99.6329 102.282 99.4967C102.352 99.3584 102.387 99.2066 102.387 99.0414C102.387 98.8742 102.352 98.7225 102.282 98.5862C102.211 98.4479 102.113 98.3385 101.987 98.258C101.864 98.1774 101.722 98.1372 101.563 98.1372C101.404 98.1372 101.259 98.1785 101.127 98.2611C100.997 98.3416 100.892 98.45 100.814 98.5862C100.737 98.7225 100.699 98.8742 100.699 99.0414C100.699 99.2087 100.738 99.3604 100.817 99.4967C100.895 99.6329 101 99.7413 101.13 99.8218C101.262 99.9024 101.406 99.9426 101.563 99.9426ZM103.822 100.59L103.819 97.493H104.574L104.577 97.7687C104.683 97.6572 104.808 97.5694 104.955 97.5054C105.102 97.4394 105.26 97.4063 105.429 97.4063C105.542 97.4063 105.656 97.4229 105.769 97.4559L105.472 98.2177C105.394 98.1867 105.315 98.1712 105.237 98.1712C105.115 98.1712 105.004 98.2012 104.902 98.2611C104.803 98.3189 104.724 98.3983 104.664 98.4995C104.606 98.5986 104.577 98.7091 104.577 98.8309V100.59H103.822ZM108.27 97.493H109.025V100.649C109.025 100.872 108.98 101.074 108.889 101.256C108.798 101.439 108.674 101.596 108.517 101.726C108.36 101.858 108.181 101.96 107.978 102.03C107.776 102.102 107.564 102.138 107.341 102.138C107.124 102.138 106.915 102.094 106.715 102.005C106.515 101.916 106.337 101.794 106.182 101.64C106.03 101.487 105.913 101.312 105.832 101.116L106.523 100.804C106.564 100.917 106.626 101.016 106.709 101.101C106.793 101.188 106.89 101.255 107 101.302C107.109 101.352 107.223 101.376 107.341 101.376C107.46 101.376 107.575 101.36 107.684 101.327C107.796 101.294 107.896 101.245 107.985 101.181C108.073 101.119 108.143 101.043 108.192 100.952C108.244 100.863 108.27 100.762 108.27 100.649V100.212C108.173 100.348 108.051 100.459 107.904 100.543C107.758 100.628 107.588 100.67 107.396 100.67C107.173 100.67 106.965 100.628 106.771 100.543C106.577 100.459 106.405 100.342 106.257 100.193C106.11 100.043 105.994 99.8693 105.91 99.6732C105.827 99.4771 105.786 99.2665 105.786 99.0414C105.786 98.8164 105.827 98.6058 105.91 98.4097C105.994 98.2136 106.11 98.0412 106.257 97.8925C106.405 97.7418 106.577 97.6241 106.771 97.5395C106.965 97.4549 107.173 97.4125 107.396 97.4125C107.588 97.4125 107.758 97.4549 107.904 97.5395C108.051 97.6221 108.173 97.7315 108.27 97.8678V97.493ZM107.406 99.9426C107.565 99.9426 107.705 99.9024 107.827 99.8218C107.951 99.7393 108.048 99.6298 108.118 99.4936C108.188 99.3553 108.223 99.2045 108.223 99.0414C108.223 98.8763 108.187 98.7256 108.115 98.5893C108.045 98.4531 107.948 98.3436 107.824 98.2611C107.702 98.1785 107.562 98.1372 107.406 98.1372C107.251 98.1372 107.109 98.1785 106.981 98.2611C106.853 98.3416 106.751 98.45 106.675 98.5862C106.598 98.7225 106.56 98.8742 106.56 99.0414C106.56 99.2087 106.598 99.3604 106.675 99.4967C106.751 99.6329 106.853 99.7413 106.981 99.8218C107.109 99.9024 107.251 99.9426 107.406 99.9426ZM109.698 97.493H110.453V100.59H109.698V97.493ZM110.082 97.0936C109.97 97.0936 109.876 97.0574 109.8 96.9852C109.723 96.9109 109.685 96.8179 109.685 96.7065C109.685 96.597 109.723 96.5052 109.8 96.4308C109.876 96.3565 109.969 96.3194 110.078 96.3194C110.188 96.3194 110.28 96.3565 110.354 96.4308C110.43 96.5052 110.469 96.597 110.469 96.7065C110.469 96.8179 110.432 96.9109 110.357 96.9852C110.283 97.0574 110.191 97.0936 110.082 97.0936ZM114.01 98.6327V100.59H113.254V98.8309C113.254 98.7091 113.225 98.5986 113.165 98.4995C113.105 98.3983 113.024 98.3189 112.923 98.2611C112.824 98.2012 112.714 98.1712 112.592 98.1712C112.47 98.1712 112.358 98.2012 112.257 98.2611C112.158 98.3189 112.079 98.3983 112.019 98.4995C111.961 98.5986 111.932 98.7091 111.932 98.8309V100.59H111.177L111.173 97.493H111.929L111.932 97.7687C112.037 97.6572 112.163 97.5694 112.31 97.5054C112.457 97.4394 112.614 97.4063 112.784 97.4063C113.009 97.4063 113.214 97.4621 113.4 97.5736C113.586 97.683 113.733 97.8306 113.843 98.0164C113.954 98.2001 114.01 98.4056 114.01 98.6327ZM116.864 97.493H117.62V100.649C117.62 100.872 117.575 101.074 117.484 101.256C117.393 101.439 117.269 101.596 117.112 101.726C116.955 101.858 116.776 101.96 116.573 102.03C116.371 102.102 116.158 102.138 115.935 102.138C115.719 102.138 115.51 102.094 115.31 102.005C115.11 101.916 114.932 101.794 114.777 101.64C114.624 101.487 114.508 101.312 114.427 101.116L115.118 100.804C115.159 100.917 115.221 101.016 115.304 101.101C115.388 101.188 115.485 101.255 115.595 101.302C115.704 101.352 115.818 101.376 115.935 101.376C116.055 101.376 116.17 101.36 116.279 101.327C116.391 101.294 116.491 101.245 116.579 101.181C116.668 101.119 116.737 101.043 116.787 100.952C116.839 100.863 116.864 100.762 116.864 100.649V100.212C116.767 100.348 116.646 100.459 116.499 100.543C116.352 100.628 116.183 100.67 115.991 100.67C115.768 100.67 115.56 100.628 115.366 100.543C115.171 100.459 115 100.342 114.851 100.193C114.705 100.043 114.589 99.8693 114.505 99.6732C114.422 99.4771 114.381 99.2665 114.381 99.0414C114.381 98.8164 114.422 98.6058 114.505 98.4097C114.589 98.2136 114.705 98.0412 114.851 97.8925C115 97.7418 115.171 97.6241 115.366 97.5395C115.56 97.4549 115.768 97.4125 115.991 97.4125C116.183 97.4125 116.352 97.4549 116.499 97.5395C116.646 97.6221 116.767 97.7315 116.864 97.8678V97.493ZM116 99.9426C116.159 99.9426 116.3 99.9024 116.422 99.8218C116.545 99.7393 116.642 99.6298 116.713 99.4936C116.783 99.3553 116.818 99.2045 116.818 99.0414C116.818 98.8763 116.782 98.7256 116.71 98.5893C116.639 98.4531 116.542 98.3436 116.418 98.2611C116.297 98.1785 116.157 98.1372 116 98.1372C115.846 98.1372 115.704 98.1785 115.576 98.2611C115.448 98.3416 115.346 98.45 115.27 98.5862C115.193 98.7225 115.155 98.8742 115.155 99.0414C115.155 99.2087 115.193 99.3604 115.27 99.4967C115.346 99.6329 115.448 99.7413 115.576 99.8218C115.704 99.9024 115.846 99.9426 116 99.9426ZM121.5 97.4063C121.802 97.4063 122.076 97.4796 122.324 97.6262C122.572 97.7728 122.769 97.97 122.916 98.2177C123.062 98.4634 123.135 98.7359 123.135 99.0353C123.135 99.2603 123.093 99.4719 123.009 99.6701C122.924 99.8683 122.806 100.043 122.655 100.193C122.507 100.342 122.333 100.459 122.135 100.543C121.939 100.628 121.727 100.67 121.5 100.67C121.306 100.67 121.134 100.627 120.983 100.54C120.835 100.452 120.71 100.337 120.609 100.197V100.59H119.853V95.9446H120.609V97.8801C120.71 97.7398 120.835 97.6262 120.983 97.5395C121.134 97.4507 121.306 97.4063 121.5 97.4063ZM121.491 99.9395C121.652 99.9395 121.798 99.8993 121.928 99.8187C122.06 99.7362 122.165 99.6267 122.244 99.4905C122.322 99.3542 122.361 99.2025 122.361 99.0353C122.361 98.8701 122.322 98.7194 122.244 98.5831C122.165 98.4448 122.06 98.3354 121.928 98.2549C121.796 98.1743 121.65 98.1341 121.491 98.1341C121.334 98.1341 121.194 98.1754 121.07 98.258C120.946 98.3385 120.849 98.4479 120.779 98.5862C120.709 98.7225 120.674 98.8722 120.674 99.0353C120.674 99.2025 120.709 99.3553 120.779 99.4936C120.849 99.6298 120.946 99.7382 121.07 99.8187C121.194 99.8993 121.334 99.9395 121.491 99.9395ZM124.996 100.67C124.711 100.67 124.451 100.597 124.215 100.45C123.982 100.304 123.795 100.108 123.655 99.8621C123.517 99.6144 123.447 99.3408 123.447 99.0414C123.447 98.8143 123.488 98.6027 123.568 98.4066C123.649 98.2084 123.759 98.035 123.899 97.8863C124.042 97.7356 124.207 97.618 124.395 97.5333C124.583 97.4487 124.783 97.4063 124.996 97.4063C125.281 97.4063 125.54 97.4796 125.773 97.6262C126.008 97.7728 126.195 97.97 126.334 98.2177C126.474 98.4654 126.544 98.74 126.544 99.0414C126.544 99.2665 126.504 99.4771 126.423 99.6732C126.343 99.8693 126.231 100.043 126.089 100.193C125.949 100.342 125.784 100.459 125.597 100.543C125.411 100.628 125.21 100.67 124.996 100.67ZM124.996 99.9147C125.146 99.9147 125.282 99.8745 125.401 99.794C125.521 99.7135 125.615 99.6071 125.683 99.475C125.753 99.3429 125.789 99.1984 125.789 99.0414C125.789 98.8804 125.752 98.7338 125.68 98.6017C125.61 98.4675 125.514 98.3612 125.392 98.2827C125.272 98.2022 125.14 98.162 124.996 98.162C124.847 98.162 124.713 98.2022 124.593 98.2827C124.473 98.3632 124.378 98.4706 124.308 98.6048C124.238 98.739 124.203 98.8845 124.203 99.0414C124.203 99.2045 124.239 99.3522 124.311 99.4843C124.384 99.6164 124.48 99.7217 124.599 99.8002C124.721 99.8765 124.853 99.9147 124.996 99.9147ZM128.401 100.67C128.116 100.67 127.856 100.597 127.621 100.45C127.387 100.304 127.2 100.108 127.06 99.8621C126.922 99.6144 126.853 99.3408 126.853 99.0414C126.853 98.8143 126.893 98.6027 126.973 98.4066C127.054 98.2084 127.164 98.035 127.305 97.8863C127.447 97.7356 127.612 97.618 127.8 97.5333C127.988 97.4487 128.188 97.4063 128.401 97.4063C128.686 97.4063 128.945 97.4796 129.178 97.6262C129.414 97.7728 129.601 97.97 129.739 98.2177C129.879 98.4654 129.949 98.74 129.949 99.0414C129.949 99.2665 129.909 99.4771 129.829 99.6732C129.748 99.8693 129.637 100.043 129.494 100.193C129.354 100.342 129.19 100.459 129.002 100.543C128.816 100.628 128.616 100.67 128.401 100.67ZM128.401 99.9147C128.552 99.9147 128.687 99.8745 128.807 99.794C128.926 99.7135 129.02 99.6071 129.089 99.475C129.159 99.3429 129.194 99.1984 129.194 99.0414C129.194 98.8804 129.158 98.7338 129.085 98.6017C129.015 98.4675 128.919 98.3612 128.797 98.2827C128.678 98.2022 128.546 98.162 128.401 98.162C128.252 98.162 128.118 98.2022 127.998 98.2827C127.879 98.3632 127.784 98.4706 127.714 98.6048C127.643 98.739 127.608 98.8845 127.608 99.0414C127.608 99.2045 127.644 99.3522 127.717 99.4843C127.789 99.6164 127.885 99.7217 128.005 99.8002C128.126 99.8765 128.259 99.9147 128.401 99.9147ZM132.091 98.2487H131.491V100.59H130.735V98.2487H130.277V97.493H130.735V96.5207H131.491V97.493H132.091V98.2487ZM135.488 98.6327V100.59H134.732V98.8309C134.732 98.7091 134.702 98.5986 134.643 98.4995C134.583 98.3983 134.502 98.3189 134.401 98.2611C134.302 98.2012 134.192 98.1712 134.07 98.1712C133.948 98.1712 133.836 98.2012 133.735 98.2611C133.636 98.3189 133.557 98.3983 133.497 98.4995C133.439 98.5986 133.41 98.7091 133.41 98.8309V100.59H132.654L132.651 95.9446H133.407L133.41 97.7687C133.515 97.6572 133.641 97.5694 133.788 97.5054C133.934 97.4394 134.092 97.4063 134.262 97.4063C134.487 97.4063 134.692 97.4621 134.878 97.5736C135.064 97.683 135.211 97.8306 135.321 98.0164C135.432 98.2001 135.488 98.4056 135.488 98.6327ZM137.593 97.493H138.349V100.59H137.593V97.493ZM137.977 97.0936C137.865 97.0936 137.772 97.0574 137.695 96.9852C137.619 96.9109 137.581 96.8179 137.581 96.7065C137.581 96.597 137.619 96.5052 137.695 96.4308C137.772 96.3565 137.864 96.3194 137.974 96.3194C138.083 96.3194 138.175 96.3565 138.249 96.4308C138.326 96.5052 138.364 96.597 138.364 96.7065C138.364 96.8179 138.327 96.9109 138.253 96.9852C138.178 97.0574 138.086 97.0936 137.977 97.0936ZM139.958 100.646C139.797 100.635 139.641 100.603 139.49 100.55C139.342 100.494 139.21 100.418 139.094 100.324C138.978 100.229 138.89 100.115 138.828 99.9829L139.466 99.7104C139.49 99.7516 139.531 99.796 139.586 99.8435C139.642 99.8889 139.708 99.9271 139.785 99.9581C139.863 99.9891 139.949 100.005 140.042 100.005C140.12 100.005 140.195 99.9942 140.265 99.9736C140.337 99.9509 140.395 99.9168 140.438 99.8714C140.484 99.826 140.506 99.7671 140.506 99.6949C140.506 99.6185 140.479 99.5596 140.426 99.5184C140.374 99.475 140.308 99.443 140.228 99.4224C140.149 99.3996 140.073 99.379 139.998 99.3604C139.802 99.3212 139.62 99.2603 139.45 99.1777C139.283 99.0951 139.148 98.9888 139.045 98.8587C138.943 98.7266 138.893 98.5676 138.893 98.3818C138.893 98.1774 138.946 98.0009 139.054 97.8523C139.163 97.7036 139.305 97.589 139.478 97.5085C139.654 97.428 139.842 97.3878 140.045 97.3878C140.291 97.3878 140.516 97.4394 140.72 97.5426C140.926 97.6438 141.089 97.7872 141.209 97.9731L140.612 98.3261C140.583 98.2765 140.542 98.2311 140.491 98.1898C140.439 98.1465 140.38 98.1114 140.314 98.0845C140.248 98.0556 140.179 98.0391 140.107 98.035C140.014 98.0309 139.929 98.0391 139.853 98.0598C139.776 98.0804 139.714 98.1155 139.667 98.1651C139.622 98.2146 139.599 98.2807 139.599 98.3632C139.599 98.4417 139.63 98.5005 139.692 98.5398C139.754 98.5769 139.828 98.6058 139.915 98.6265C140.004 98.6471 140.088 98.6698 140.169 98.6946C140.35 98.7545 140.521 98.8278 140.68 98.9145C140.841 99.0012 140.97 99.1075 141.067 99.2334C141.164 99.3594 141.21 99.5101 141.206 99.6856C141.206 99.8858 141.146 100.061 141.027 100.212C140.907 100.361 140.752 100.474 140.562 100.553C140.374 100.631 140.173 100.662 139.958 100.646ZM142.65 100.646C142.489 100.635 142.333 100.603 142.182 100.55C142.033 100.494 141.901 100.418 141.786 100.324C141.67 100.229 141.581 100.115 141.519 99.9829L142.157 99.7104C142.182 99.7516 142.222 99.796 142.278 99.8435C142.334 99.8889 142.4 99.9271 142.476 99.9581C142.555 99.9891 142.64 100.005 142.733 100.005C142.812 100.005 142.886 99.9942 142.956 99.9736C143.029 99.9509 143.086 99.9168 143.13 99.8714C143.175 99.826 143.198 99.7671 143.198 99.6949C143.198 99.6185 143.171 99.5596 143.117 99.5184C143.066 99.475 143 99.443 142.919 99.4224C142.841 99.3996 142.764 99.379 142.69 99.3604C142.494 99.3212 142.311 99.2603 142.142 99.1777C141.975 99.0951 141.839 98.9888 141.736 98.8587C141.635 98.7266 141.584 98.5676 141.584 98.3818C141.584 98.1774 141.638 98.0009 141.745 97.8523C141.855 97.7036 141.996 97.589 142.17 97.5085C142.345 97.428 142.534 97.3878 142.736 97.3878C142.982 97.3878 143.207 97.4394 143.411 97.5426C143.618 97.6438 143.781 97.7872 143.901 97.9731L143.303 98.3261C143.274 98.2765 143.234 98.2311 143.182 98.1898C143.131 98.1465 143.072 98.1114 143.006 98.0845C142.94 98.0556 142.871 98.0391 142.798 98.035C142.705 98.0309 142.621 98.0391 142.544 98.0598C142.468 98.0804 142.406 98.1155 142.359 98.1651C142.313 98.2146 142.29 98.2807 142.29 98.3632C142.29 98.4417 142.321 98.5005 142.383 98.5398C142.445 98.5769 142.52 98.6058 142.606 98.6265C142.695 98.6471 142.78 98.6698 142.86 98.6946C143.042 98.7545 143.212 98.8278 143.371 98.9145C143.532 99.0012 143.661 99.1075 143.758 99.2334C143.855 99.3594 143.902 99.5101 143.898 99.6856C143.898 99.8858 143.838 100.061 143.718 100.212C143.598 100.361 143.443 100.474 143.254 100.553C143.066 100.631 142.864 100.662 142.65 100.646ZM144.304 99.444V97.493H145.059V99.2458C145.059 99.3676 145.089 99.4791 145.149 99.5803C145.209 99.6794 145.289 99.7589 145.388 99.8187C145.489 99.8765 145.599 99.9055 145.719 99.9055C145.843 99.9055 145.954 99.8765 146.053 99.8187C146.153 99.7589 146.232 99.6794 146.292 99.5803C146.352 99.4791 146.382 99.3676 146.382 99.2458V97.493H147.137L147.14 100.59H146.385L146.382 100.308C146.274 100.42 146.147 100.508 146.001 100.574C145.854 100.638 145.697 100.67 145.53 100.67C145.305 100.67 145.1 100.616 144.914 100.506C144.728 100.395 144.579 100.247 144.468 100.063C144.358 99.8776 144.304 99.6711 144.304 99.444ZM149.075 100.67C148.79 100.67 148.53 100.597 148.294 100.45C148.061 100.304 147.874 100.107 147.734 99.859C147.595 99.6113 147.526 99.3377 147.526 99.0383C147.526 98.8133 147.566 98.6027 147.647 98.4066C147.727 98.2084 147.838 98.035 147.978 97.8863C148.121 97.7356 148.286 97.618 148.474 97.5333C148.662 97.4487 148.862 97.4063 149.075 97.4063C149.316 97.4063 149.537 97.458 149.737 97.5612C149.94 97.6623 150.111 97.8017 150.251 97.9792C150.392 98.1568 150.494 98.3591 150.558 98.5862C150.622 98.8133 150.636 99.0507 150.601 99.2985H148.338C148.366 99.4141 148.414 99.5184 148.48 99.6113C148.546 99.7021 148.63 99.7754 148.731 99.8311C148.832 99.8848 148.947 99.9127 149.075 99.9147C149.207 99.9168 149.326 99.8858 149.434 99.8218C149.543 99.7558 149.634 99.667 149.706 99.5555L150.477 99.7351C150.351 100.01 150.164 100.235 149.914 100.41C149.664 100.584 149.384 100.67 149.075 100.67ZM148.313 98.7318H149.836C149.814 98.6079 149.765 98.4964 149.691 98.3973C149.619 98.2962 149.529 98.2156 149.421 98.1558C149.314 98.0959 149.198 98.066 149.075 98.066C148.951 98.066 148.836 98.0959 148.731 98.1558C148.626 98.2136 148.536 98.2931 148.461 98.3942C148.389 98.4933 148.34 98.6058 148.313 98.7318Z" fill="#263238"/>
<path d="M68.4181 31.8717C68.4573 31.9772 68.5747 32.031 68.6802 31.9918C68.7858 31.9526 68.8395 31.8353 68.8003 31.7297L68.4181 31.8717ZM64.369 20.3848L64.5601 20.3138L64.5108 20.1809H64.369V20.3848ZM48.8949 20.2406C48.8153 20.3202 48.8153 20.4493 48.8949 20.5289L50.1922 21.8262C50.2719 21.9059 50.4009 21.9059 50.4805 21.8262C50.5602 21.7466 50.5602 21.6176 50.4805 21.5379L49.3274 20.3848L50.4805 19.2316C50.5602 19.152 50.5602 19.0229 50.4805 18.9433C50.4009 18.8637 50.2719 18.8637 50.1922 18.9433L48.8949 20.2406ZM68.8003 31.7297L64.5601 20.3138L64.1779 20.4557L68.4181 31.8717L68.8003 31.7297ZM64.369 20.1809H49.0391V20.5886H64.369V20.1809Z" fill="#FF9E58"/>
<path fill-rule="evenodd" clip-rule="evenodd" d="M93.1355 15.4922C97.6046 15.5004 102.035 16.363 106.187 18.0376L93.071 50.5554L59.4224 40.6964C60.7988 35.9989 63.1434 31.6417 66.3055 27.9051C69.4676 24.1685 73.377 21.1354 77.7821 19.001C82.1872 16.8666 86.9904 15.6782 91.8825 15.5123C92.2576 15.4996 92.6325 15.4929 93.0072 15.4922C73.6716 15.5267 58.0078 31.2118 58.0078 50.5554C58.0078 69.9202 73.7062 85.6186 93.071 85.6186C112.436 85.6186 128.134 69.9202 128.134 50.5554C128.134 31.212 112.471 15.527 93.1355 15.4922Z" fill="#5891FF"/>
<path d="M104.562 15.5924C100.022 13.7614 95.1497 12.9011 90.2575 13.067C85.3654 13.2329 80.5622 14.4213 76.1571 16.5557C71.752 18.6901 67.8426 21.7232 64.6805 25.4598C61.5184 29.1964 59.1738 33.5537 57.7974 38.2511L91.446 48.1101L104.562 15.5924Z" fill="#FF9E58"/>
<path d="M73.0407 33.7246V30.1447H72.4957L72.7001 29.3891H73.7963V33.7246H73.0407ZM75.1904 33.7246L76.0234 32.2846C75.819 32.297 75.6239 32.2691 75.4381 32.201C75.2544 32.1329 75.0902 32.0317 74.9457 31.8975C74.8012 31.7633 74.6866 31.6043 74.602 31.4206C74.5194 31.2368 74.4781 31.0376 74.4781 30.8229C74.4781 30.6144 74.5173 30.4193 74.5958 30.2376C74.6742 30.0539 74.7826 29.8928 74.9209 29.7545C75.0613 29.6141 75.2224 29.5047 75.404 29.4263C75.5878 29.3478 75.785 29.3086 75.9955 29.3086C76.2701 29.3086 76.521 29.3767 76.7481 29.513C76.9772 29.6492 77.1599 29.8319 77.2962 30.0611C77.4345 30.2903 77.5037 30.5442 77.5037 30.8229C77.5037 30.9612 77.4861 31.0923 77.451 31.2162C77.418 31.338 77.3654 31.4619 77.2931 31.5878L76.0637 33.7246H75.1904ZM75.9893 31.5816C76.138 31.5816 76.2691 31.5455 76.3826 31.4732C76.4983 31.401 76.5881 31.307 76.6521 31.1914C76.7161 31.0758 76.7481 30.9519 76.7481 30.8198C76.7481 30.6753 76.713 30.5463 76.6428 30.4327C76.5726 30.3171 76.4797 30.2273 76.3641 30.1633C76.2484 30.0972 76.1256 30.0642 75.9955 30.0642C75.8469 30.0642 75.7148 30.1003 75.5991 30.1726C75.4856 30.2428 75.3958 30.3357 75.3297 30.4513C75.2637 30.5669 75.2306 30.6897 75.2306 30.8198C75.2306 30.9581 75.2637 31.0851 75.3297 31.2007C75.3979 31.3163 75.4887 31.4092 75.6022 31.4794C75.7179 31.5476 75.8469 31.5816 75.9893 31.5816ZM78.3264 33.8051C78.219 33.8051 78.1271 33.768 78.0507 33.6936C77.9764 33.6173 77.9393 33.5243 77.9393 33.4149C77.9393 33.3096 77.9764 33.2188 78.0507 33.1424C78.1271 33.066 78.219 33.0278 78.3264 33.0278C78.4337 33.0278 78.5256 33.066 78.602 33.1424C78.6784 33.2188 78.7166 33.3096 78.7166 33.4149C78.7166 33.5243 78.6784 33.6173 78.602 33.6936C78.5256 33.768 78.4337 33.8051 78.3264 33.8051ZM80.9623 33.8051C80.7104 33.8051 80.4812 33.7473 80.2748 33.6317C80.0683 33.514 79.8897 33.352 79.739 33.1455C79.5904 32.9391 79.4758 32.7006 79.3953 32.4301C79.3148 32.1576 79.2745 31.8665 79.2745 31.5569C79.2745 31.2472 79.3148 30.9571 79.3953 30.6867C79.4758 30.4141 79.5904 30.1746 79.739 29.9682C79.8897 29.7617 80.0683 29.6007 80.2748 29.4851C80.4812 29.3674 80.7104 29.3086 80.9623 29.3086C81.2141 29.3086 81.4433 29.3674 81.6498 29.4851C81.8562 29.6007 82.0327 29.7617 82.1793 29.9682C82.328 30.1746 82.4425 30.4141 82.5231 30.6867C82.6056 30.9571 82.6469 31.2472 82.6469 31.5569C82.6469 31.8665 82.6056 32.1576 82.5231 32.4301C82.4425 32.7006 82.328 32.9391 82.1793 33.1455C82.0327 33.352 81.8562 33.514 81.6498 33.6317C81.4433 33.7473 81.2141 33.8051 80.9623 33.8051ZM80.9623 33.0495C81.1832 33.0495 81.3659 32.9793 81.5104 32.8389C81.6549 32.6985 81.7623 32.5148 81.8325 32.2877C81.9027 32.0606 81.9378 31.817 81.9378 31.5569C81.9378 31.2823 81.9006 31.0325 81.8263 30.8074C81.7519 30.5803 81.6425 30.3997 81.498 30.2655C81.3535 30.1313 81.1749 30.0642 80.9623 30.0642C80.795 30.0642 80.6495 30.1055 80.5256 30.1881C80.4038 30.2686 80.3026 30.379 80.2221 30.5194C80.1416 30.6598 80.0817 30.8198 80.0425 30.9994C80.0033 31.177 79.9837 31.3628 79.9837 31.5569C79.9837 31.8149 80.0188 32.0585 80.089 32.2877C80.1612 32.5148 80.2696 32.6985 80.4141 32.8389C80.5607 32.9793 80.7434 33.0495 80.9623 33.0495ZM83.4799 33.7246L85.9821 29.3891H86.8554L84.3532 33.7246H83.4799ZM84.0126 31.2689C83.8433 31.2689 83.6874 31.2286 83.5449 31.1481C83.4046 31.0655 83.292 30.954 83.2074 30.8136C83.1227 30.6732 83.0804 30.5163 83.0804 30.3429C83.0804 30.1654 83.1227 30.0064 83.2074 29.866C83.2941 29.7256 83.4077 29.6152 83.548 29.5346C83.6905 29.4541 83.8453 29.4139 84.0126 29.4139C84.1819 29.4139 84.3367 29.4552 84.4771 29.5377C84.6175 29.6203 84.729 29.7318 84.8115 29.8722C84.8962 30.0126 84.9385 30.1695 84.9385 30.3429C84.9385 30.5184 84.8951 30.6763 84.8084 30.8167C84.7238 30.9571 84.6113 31.0676 84.4709 31.1481C84.3305 31.2286 84.1777 31.2689 84.0126 31.2689ZM84.0126 30.7517C84.124 30.7517 84.22 30.7125 84.3006 30.634C84.3811 30.5535 84.4213 30.4565 84.4213 30.3429C84.4213 30.2273 84.3811 30.1303 84.3006 30.0518C84.22 29.9734 84.124 29.9341 84.0126 29.9341C83.899 29.9341 83.8009 29.9734 83.7184 30.0518C83.6378 30.1303 83.5976 30.2273 83.5976 30.3429C83.5976 30.4565 83.6378 30.5535 83.7184 30.634C83.8009 30.7125 83.899 30.7517 84.0126 30.7517ZM86.3228 33.7029C86.1514 33.7029 85.9955 33.6606 85.8552 33.576C85.7148 33.4893 85.6033 33.3757 85.5207 33.2353C85.4381 33.0929 85.3968 32.9401 85.3968 32.777C85.3968 32.5994 85.4392 32.4405 85.5238 32.3001C85.6105 32.1597 85.7241 32.0492 85.8644 31.9687C86.0069 31.8861 86.1597 31.8449 86.3228 31.8449C86.5003 31.8449 86.6593 31.8882 86.7997 31.9749C86.9401 32.0616 87.0505 32.1762 87.131 32.3187C87.2136 32.4591 87.2549 32.6118 87.2549 32.777C87.2549 32.9463 87.2126 33.1011 87.1279 33.2415C87.0454 33.3819 86.9328 33.4944 86.7904 33.5791C86.65 33.6616 86.4941 33.7029 86.3228 33.7029ZM86.3228 33.1858C86.4384 33.1858 86.5364 33.1455 86.617 33.065C86.6975 32.9845 86.7377 32.8885 86.7377 32.777C86.7377 32.6614 86.6975 32.5633 86.617 32.4828C86.5364 32.4023 86.4384 32.362 86.3228 32.362C86.2113 32.362 86.1153 32.4023 86.0348 32.4828C85.9543 32.5633 85.914 32.6614 85.914 32.777C85.914 32.8885 85.9543 32.9845 86.0348 33.065C86.1153 33.1455 86.2113 33.1858 86.3228 33.1858Z" fill="black"/>
<path d="M18.1446 21.4922V17.1567H20.8636V17.9123H18.9002V18.7918H20.4579V19.5474H18.9002V20.7366H20.8636V21.4922H18.1446ZM21.2446 21.4922L22.378 19.9376L21.2539 18.3923H22.186L22.8425 19.2935L23.5021 18.3923H24.4343L23.3101 19.9376L24.4436 21.4922H23.5114L22.8425 20.5755L22.1767 21.4922H21.2446ZM26.7239 19.151H26.1231V21.4922H25.3675V19.151H24.9092V18.3954H25.3675V17.423H26.1231V18.3954H26.7239V19.151ZM28.5738 21.5727C28.2889 21.5727 28.0288 21.4994 27.7934 21.3528C27.5601 21.2063 27.3733 21.0091 27.2329 20.7613C27.0946 20.5136 27.0254 20.24 27.0254 19.9407C27.0254 19.7157 27.0657 19.5051 27.1462 19.3089C27.2267 19.1108 27.3372 18.9373 27.4775 18.7887C27.62 18.638 27.7852 18.5203 27.973 18.4356C28.1609 18.351 28.3612 18.3087 28.5738 18.3087C28.8154 18.3087 29.0363 18.3603 29.2365 18.4635C29.4388 18.5647 29.6102 18.704 29.7506 18.8816C29.891 19.0591 29.9932 19.2615 30.0572 19.4886C30.1212 19.7157 30.1356 19.9531 30.1005 20.2008H27.8368C27.8657 20.3164 27.9132 20.4207 27.9792 20.5136C28.0453 20.6044 28.1289 20.6777 28.2301 20.7335C28.3312 20.7872 28.4458 20.815 28.5738 20.8171C28.7059 20.8192 28.8257 20.7882 28.933 20.7242C29.0425 20.6581 29.1333 20.5693 29.2056 20.4579L29.9767 20.6375C29.8507 20.9121 29.6628 21.1371 29.413 21.3126C29.1632 21.486 28.8835 21.5727 28.5738 21.5727ZM27.812 19.6341H29.3356C29.3129 19.5102 29.2644 19.3988 29.1901 19.2997C29.1178 19.1985 29.028 19.118 28.9207 19.0581C28.8133 18.9982 28.6977 18.9683 28.5738 18.9683C28.4499 18.9683 28.3354 18.9982 28.2301 19.0581C28.1248 19.1159 28.035 19.1954 27.9606 19.2966C27.8884 19.3957 27.8388 19.5082 27.812 19.6341ZM30.6075 21.4922L30.6044 18.3954H31.36L31.3631 18.671C31.4684 18.5595 31.5943 18.4718 31.7409 18.4078C31.8875 18.3417 32.0454 18.3087 32.2147 18.3087C32.3283 18.3087 32.4418 18.3252 32.5554 18.3582L32.2581 19.12C32.1796 19.0891 32.1012 19.0736 32.0227 19.0736C31.9009 19.0736 31.7894 19.1035 31.6883 19.1634C31.5892 19.2212 31.5097 19.3007 31.4498 19.4019C31.392 19.5009 31.3631 19.6114 31.3631 19.7332V21.4922H30.6075ZM35.7516 19.535V21.4922H34.9959V19.7332C34.9959 19.6114 34.966 19.5009 34.9061 19.4019C34.8463 19.3007 34.7657 19.2212 34.6646 19.1634C34.5655 19.1035 34.455 19.0736 34.3332 19.0736C34.2114 19.0736 34.0999 19.1035 33.9988 19.1634C33.8997 19.2212 33.8202 19.3007 33.7603 19.4019C33.7025 19.5009 33.6736 19.6114 33.6736 19.7332V21.4922H32.918L32.9149 18.3954H33.6705L33.6736 18.671C33.7789 18.5595 33.9048 18.4718 34.0514 18.4078C34.198 18.3417 34.3559 18.3087 34.5252 18.3087C34.7503 18.3087 34.9557 18.3644 35.1415 18.4759C35.3273 18.5853 35.4749 18.7329 35.5843 18.9188C35.6958 19.1025 35.7516 19.3079 35.7516 19.535ZM38.643 18.3954H39.3987V21.4922H38.643L38.609 21.1082C38.5243 21.2465 38.4118 21.359 38.2714 21.4457C38.1331 21.5304 37.969 21.5727 37.779 21.5727C37.5499 21.5727 37.3352 21.5293 37.1349 21.4426C36.9346 21.3559 36.7581 21.2362 36.6054 21.0834C36.4546 20.9306 36.3359 20.7541 36.2492 20.5539C36.1646 20.3536 36.1223 20.1389 36.1223 19.9097C36.1223 19.6888 36.1625 19.4813 36.243 19.2873C36.3256 19.0932 36.4402 18.9229 36.5868 18.7763C36.7334 18.6297 36.9026 18.5151 37.0946 18.4326C37.2866 18.35 37.4931 18.3087 37.714 18.3087C37.9184 18.3087 38.1011 18.3541 38.2621 18.4449C38.4252 18.5358 38.5636 18.6514 38.6771 18.7918L38.643 18.3954ZM37.7605 20.845C37.9215 20.845 38.0639 20.8047 38.1878 20.7242C38.3117 20.6437 38.4087 20.5353 38.4789 20.399C38.5491 20.2607 38.5842 20.109 38.5842 19.9438C38.5842 19.7766 38.5491 19.6248 38.4789 19.4886C38.4087 19.3502 38.3107 19.2408 38.1847 19.1603C38.0608 19.0798 37.9194 19.0395 37.7605 19.0395C37.6015 19.0395 37.4559 19.0808 37.3238 19.1634C37.1937 19.2439 37.0895 19.3523 37.011 19.4886C36.9346 19.6248 36.8965 19.7766 36.8965 19.9438C36.8965 20.111 36.9357 20.2628 37.0141 20.399C37.0926 20.5353 37.1968 20.6437 37.3269 20.7242C37.459 20.8047 37.6036 20.845 37.7605 20.845ZM40.0339 21.4922V16.847H40.7895V21.4922H40.0339ZM17.812 28.4922V24.1567H19.2489C19.5482 24.1567 19.828 24.2134 20.0881 24.327C20.3503 24.4385 20.5805 24.5944 20.7787 24.7946C20.979 24.9928 21.1348 25.223 21.2463 25.4852C21.3599 25.7453 21.4166 26.0251 21.4166 26.3244C21.4166 26.6238 21.3599 26.9046 21.2463 27.1668C21.1348 27.4269 20.979 27.6571 20.7787 27.8573C20.5805 28.0555 20.3503 28.2114 20.0881 28.325C19.828 28.4364 19.5482 28.4922 19.2489 28.4922H17.812ZM18.5676 27.7366H19.2489C19.4409 27.7366 19.6215 27.7004 19.7908 27.6282C19.9622 27.5539 20.1129 27.4527 20.2429 27.3247C20.373 27.1946 20.4752 27.045 20.5495 26.8757C20.6239 26.7043 20.661 26.5206 20.661 26.3244C20.661 26.1283 20.6239 25.9456 20.5495 25.7763C20.4752 25.607 20.373 25.4573 20.2429 25.3273C20.1129 25.1972 19.9632 25.096 19.7939 25.0238C19.6246 24.9495 19.4429 24.9123 19.2489 24.9123H18.5676V27.7366ZM24.2115 25.3954H24.9671V28.4922H24.2115L24.1774 28.1082C24.0928 28.2465 23.9803 28.359 23.8399 28.4457C23.7016 28.5304 23.5374 28.5727 23.3475 28.5727C23.1183 28.5727 22.9036 28.5293 22.7034 28.4426C22.5031 28.3559 22.3266 28.2362 22.1738 28.0834C22.0231 27.9306 21.9044 27.7541 21.8177 27.5539C21.733 27.3536 21.6907 27.1389 21.6907 26.9097C21.6907 26.6888 21.731 26.4813 21.8115 26.2873C21.8941 26.0932 22.0086 25.9229 22.1552 25.7763C22.3018 25.6297 22.4711 25.5151 22.6631 25.4326C22.8551 25.35 23.0615 25.3087 23.2825 25.3087C23.4868 25.3087 23.6696 25.3541 23.8306 25.4449C23.9937 25.5358 24.132 25.6514 24.2456 25.7918L24.2115 25.3954ZM23.3289 27.845C23.4899 27.845 23.6324 27.8047 23.7563 27.7242C23.8801 27.6437 23.9772 27.5353 24.0474 27.399C24.1176 27.2607 24.1527 27.109 24.1527 26.9438C24.1527 26.7766 24.1176 26.6248 24.0474 26.4886C23.9772 26.3502 23.8791 26.2408 23.7532 26.1603C23.6293 26.0798 23.4879 26.0395 23.3289 26.0395C23.1699 26.0395 23.0244 26.0808 22.8923 26.1634C22.7622 26.2439 22.6579 26.3523 22.5795 26.4886C22.5031 26.6248 22.4649 26.7766 22.4649 26.9438C22.4649 27.111 22.5041 27.2628 22.5826 27.399C22.661 27.5353 22.7653 27.6437 22.8954 27.7242C23.0275 27.8047 23.172 27.845 23.3289 27.845ZM25.5842 28.4922V25.3954H26.3398V25.671C26.4451 25.5595 26.571 25.4718 26.7176 25.4078C26.8642 25.3417 27.0221 25.3087 27.1914 25.3087C27.4061 25.3087 27.6033 25.3593 27.7829 25.4604C27.9646 25.5616 28.1091 25.6968 28.2165 25.8661C28.3259 25.6968 28.4704 25.5616 28.65 25.4604C28.8296 25.3593 29.0268 25.3087 29.2415 25.3087C29.4686 25.3087 29.674 25.3644 29.8578 25.4759C30.0436 25.5853 30.1912 25.7329 30.3006 25.9188C30.4121 26.1025 30.4678 26.3079 30.4678 26.535V28.4922H29.7122V26.7363C29.7122 26.6166 29.6823 26.5071 29.6224 26.408C29.5646 26.3069 29.4862 26.2264 29.3871 26.1665C29.29 26.1046 29.1806 26.0736 29.0588 26.0736C28.937 26.0736 28.8265 26.1035 28.7274 26.1634C28.6304 26.2212 28.552 26.2997 28.4921 26.3988C28.4322 26.4979 28.4023 26.6104 28.4023 26.7363V28.4922H27.6467V26.7363C27.6467 26.6104 27.6178 26.4979 27.5599 26.3988C27.5021 26.2997 27.4237 26.2212 27.3246 26.1634C27.2255 26.1035 27.115 26.0736 26.9932 26.0736C26.8735 26.0736 26.7641 26.1046 26.665 26.1665C26.5659 26.2264 26.4864 26.3069 26.4265 26.408C26.3687 26.5071 26.3398 26.6166 26.3398 26.7363V28.4922H25.5842ZM33.3628 25.3954H34.1184V28.4922H33.3628L33.3287 28.1082C33.2441 28.2465 33.1315 28.359 32.9911 28.4457C32.8528 28.5304 32.6887 28.5727 32.4988 28.5727C32.2696 28.5727 32.0549 28.5293 31.8546 28.4426C31.6544 28.3559 31.4778 28.2362 31.3251 28.0834C31.1744 27.9306 31.0557 27.7541 30.9689 27.5539C30.8843 27.3536 30.842 27.1389 30.842 26.9097C30.842 26.6888 30.8822 26.4813 30.9627 26.2873C31.0453 26.0932 31.1599 25.9229 31.3065 25.7763C31.4531 25.6297 31.6224 25.5151 31.8144 25.4326C32.0064 25.35 32.2128 25.3087 32.4337 25.3087C32.6381 25.3087 32.8208 25.3541 32.9819 25.4449C33.145 25.5358 33.2833 25.6514 33.3968 25.7918L33.3628 25.3954ZM32.4802 27.845C32.6412 27.845 32.7837 27.8047 32.9075 27.7242C33.0314 27.6437 33.1284 27.5353 33.1986 27.399C33.2688 27.2607 33.3039 27.109 33.3039 26.9438C33.3039 26.7766 33.2688 26.6248 33.1986 26.4886C33.1284 26.3502 33.0304 26.2408 32.9044 26.1603C32.7806 26.0798 32.6391 26.0395 32.4802 26.0395C32.3212 26.0395 32.1757 26.0808 32.0435 26.1634C31.9135 26.2439 31.8092 26.3523 31.7308 26.4886C31.6544 26.6248 31.6162 26.7766 31.6162 26.9438C31.6162 27.111 31.6554 27.2628 31.7338 27.399C31.8123 27.5353 31.9166 27.6437 32.0466 27.7242C32.1788 27.8047 32.3233 27.845 32.4802 27.845ZM36.9728 25.3954H37.7284V28.551C37.7284 28.774 37.683 28.9763 37.5922 29.158C37.5013 29.3417 37.3775 29.4986 37.2205 29.6287C37.0636 29.7608 36.884 29.862 36.6817 29.9322C36.4794 30.0045 36.2667 30.0406 36.0438 30.0406C35.827 30.0406 35.6185 29.9962 35.4182 29.9074C35.218 29.8186 35.0404 29.6968 34.8856 29.542C34.7328 29.3892 34.6161 29.2148 34.5356 29.0186L35.2262 28.7059C35.2675 28.8194 35.3294 28.9185 35.412 29.0032C35.4967 29.0899 35.5937 29.157 35.7031 29.2045C35.8125 29.254 35.9261 29.2788 36.0438 29.2788C36.1635 29.2788 36.2781 29.2623 36.3875 29.2292C36.499 29.1962 36.5991 29.1477 36.6879 29.0837C36.7767 29.0217 36.8458 28.9454 36.8954 28.8545C36.947 28.7657 36.9728 28.6646 36.9728 28.551V28.1144C36.8758 28.2506 36.754 28.3611 36.6074 28.4457C36.4608 28.5304 36.2915 28.5727 36.0995 28.5727C35.8765 28.5727 35.668 28.5304 35.474 28.4457C35.2799 28.3611 35.1085 28.2444 34.9599 28.0958C34.8133 27.9451 34.6977 27.7717 34.613 27.5755C34.5305 27.3794 34.4892 27.1688 34.4892 26.9438C34.4892 26.7188 34.5305 26.5082 34.613 26.312C34.6977 26.1159 34.8133 25.9435 34.9599 25.7949C35.1085 25.6442 35.2799 25.5265 35.474 25.4418C35.668 25.3572 35.8765 25.3149 36.0995 25.3149C36.2915 25.3149 36.4608 25.3572 36.6074 25.4418C36.754 25.5244 36.8758 25.6338 36.9728 25.7701V25.3954ZM36.1088 27.845C36.2678 27.845 36.4082 27.8047 36.53 27.7242C36.6538 27.6416 36.7509 27.5322 36.8211 27.3959C36.8913 27.2576 36.9264 27.1069 36.9264 26.9438C36.9264 26.7786 36.8902 26.6279 36.818 26.4917C36.7478 26.3554 36.6507 26.246 36.5269 26.1634C36.4051 26.0808 36.2657 26.0395 36.1088 26.0395C35.954 26.0395 35.8125 26.0808 35.6845 26.1634C35.5565 26.2439 35.4543 26.3523 35.378 26.4886C35.3016 26.6248 35.2634 26.7766 35.2634 26.9438C35.2634 27.111 35.3016 27.2628 35.378 27.399C35.4543 27.5353 35.5565 27.6437 35.6845 27.7242C35.8125 27.8047 35.954 27.845 36.1088 27.845ZM39.7634 28.5727C39.4785 28.5727 39.2184 28.4994 38.983 28.3528C38.7497 28.2063 38.5629 28.0091 38.4225 27.7613C38.2842 27.5136 38.215 27.24 38.215 26.9407C38.215 26.7157 38.2553 26.5051 38.3358 26.3089C38.4163 26.1108 38.5268 25.9373 38.6671 25.7887C38.8096 25.638 38.9748 25.5203 39.1626 25.4356C39.3505 25.351 39.5508 25.3087 39.7634 25.3087C40.005 25.3087 40.2259 25.3603 40.4261 25.4635C40.6284 25.5647 40.7998 25.704 40.9402 25.8816C41.0806 26.0591 41.1828 26.2615 41.2468 26.4886C41.3108 26.7157 41.3252 26.9531 41.2901 27.2008H39.0264C39.0553 27.3164 39.1028 27.4207 39.1688 27.5136C39.2349 27.6044 39.3185 27.6777 39.4197 27.7335C39.5208 27.7872 39.6354 27.815 39.7634 27.8171C39.8955 27.8192 40.0153 27.7882 40.1226 27.7242C40.2321 27.6581 40.3229 27.5693 40.3952 27.4579L41.1663 27.6375C41.0403 27.9121 40.8524 28.1371 40.6026 28.3126C40.3528 28.486 40.0731 28.5727 39.7634 28.5727ZM39.0016 26.6341H40.5252C40.5025 26.5102 40.454 26.3988 40.3797 26.2997C40.3074 26.1985 40.2176 26.118 40.1102 26.0581C40.0029 25.9982 39.8873 25.9683 39.7634 25.9683C39.6395 25.9683 39.525 25.9982 39.4197 26.0581C39.3144 26.1159 39.2246 26.1954 39.1502 26.2966C39.078 26.3957 39.0284 26.5082 39.0016 26.6341Z" fill="#898A8D"/>
<path d="M131.039 70.418V66.0825H131.857L133.687 69.0523V66.0825H134.443V70.418H133.628L131.795 67.4481V70.418H131.039ZM136.503 70.4985C136.218 70.4985 135.958 70.4252 135.722 70.2786C135.489 70.132 135.302 69.9359 135.162 69.6902C135.023 69.4425 134.954 69.1689 134.954 68.8696C134.954 68.6425 134.995 68.4309 135.075 68.2347C135.156 68.0365 135.266 67.8631 135.406 67.7145C135.549 67.5638 135.714 67.4461 135.902 67.3614C136.09 67.2768 136.29 67.2345 136.503 67.2345C136.788 67.2345 137.047 67.3078 137.28 67.4543C137.515 67.6009 137.702 67.7981 137.84 68.0458C137.981 68.2936 138.051 68.5681 138.051 68.8696C138.051 69.0946 138.011 69.3052 137.93 69.5013C137.85 69.6974 137.738 69.8709 137.596 70.0216C137.455 70.1702 137.291 70.2869 137.103 70.3715C136.918 70.4562 136.717 70.4985 136.503 70.4985ZM136.503 69.7429C136.653 69.7429 136.789 69.7026 136.908 69.6221C137.028 69.5416 137.122 69.4353 137.19 69.3031C137.26 69.171 137.295 69.0265 137.295 68.8696C137.295 68.7085 137.259 68.562 137.187 68.4298C137.117 68.2956 137.021 68.1893 136.899 68.1109C136.779 68.0303 136.647 67.9901 136.503 67.9901C136.354 67.9901 136.22 68.0303 136.1 68.1109C135.98 68.1914 135.885 68.2987 135.815 68.4329C135.745 68.5671 135.71 68.7127 135.71 68.8696C135.71 69.0327 135.746 69.1803 135.818 69.3124C135.891 69.4445 135.987 69.5498 136.106 69.6283C136.228 69.7047 136.36 69.7429 136.503 69.7429ZM140.094 70.418V66.0825H142.813V66.8381H140.849V67.7176H142.407V68.4732H140.849V69.6624H142.813V70.418H140.094ZM143.194 70.418L144.327 68.8634L143.203 67.3181H144.135L144.792 68.2192L145.451 67.3181H146.383L145.259 68.8634L146.393 70.418H145.461L144.792 69.5013L144.126 70.418H143.194ZM148.673 68.0768H148.072V70.418H147.317V68.0768H146.858V67.3212H147.317V66.3488H148.072V67.3212H148.673V68.0768ZM150.523 70.4985C150.238 70.4985 149.978 70.4252 149.743 70.2786C149.509 70.132 149.322 69.9349 149.182 69.6871C149.044 69.4394 148.975 69.1658 148.975 68.8665C148.975 68.6414 149.015 68.4309 149.095 68.2347C149.176 68.0365 149.286 67.8631 149.427 67.7145C149.569 67.5638 149.734 67.4461 149.922 67.3614C150.11 67.2768 150.31 67.2345 150.523 67.2345C150.764 67.2345 150.985 67.2861 151.186 67.3893C151.388 67.4905 151.559 67.6298 151.7 67.8074C151.84 67.9849 151.942 68.1872 152.006 68.4143C152.07 68.6414 152.085 68.8789 152.05 69.1266H149.786C149.815 69.2422 149.862 69.3465 149.928 69.4394C149.994 69.5302 150.078 69.6035 150.179 69.6593C150.28 69.7129 150.395 69.7408 150.523 69.7429C150.655 69.7449 150.775 69.714 150.882 69.65C150.992 69.5839 151.082 69.4951 151.155 69.3836L151.926 69.5633C151.8 69.8378 151.612 70.0629 151.362 70.2384C151.112 70.4118 150.833 70.4985 150.523 70.4985ZM149.761 68.5599H151.285C151.262 68.436 151.214 68.3245 151.139 68.2254C151.067 68.1243 150.977 68.0438 150.87 67.9839C150.762 67.924 150.647 67.8941 150.523 67.8941C150.399 67.8941 150.284 67.924 150.179 67.9839C150.074 68.0417 149.984 68.1212 149.91 68.2223C149.838 68.3214 149.788 68.434 149.761 68.5599ZM152.557 70.418L152.554 67.3212H153.309L153.312 67.5968C153.418 67.4853 153.543 67.3976 153.69 67.3336C153.837 67.2675 153.995 67.2345 154.164 67.2345C154.277 67.2345 154.391 67.251 154.504 67.284L154.207 68.0458C154.129 68.0149 154.05 67.9994 153.972 67.9994C153.85 67.9994 153.739 68.0293 153.637 68.0892C153.538 68.147 153.459 68.2265 153.399 68.3276C153.341 68.4267 153.312 68.5372 153.312 68.659V70.418H152.557ZM157.701 68.4608V70.418H156.945V68.659C156.945 68.5372 156.915 68.4267 156.855 68.3276C156.795 68.2265 156.715 68.147 156.614 68.0892C156.515 68.0293 156.404 67.9994 156.282 67.9994C156.161 67.9994 156.049 68.0293 155.948 68.0892C155.849 68.147 155.769 68.2265 155.709 68.3276C155.652 68.4267 155.623 68.5372 155.623 68.659V70.418H154.867L154.864 67.3212H155.62L155.623 67.5968C155.728 67.4853 155.854 67.3976 156.001 67.3336C156.147 67.2675 156.305 67.2345 156.474 67.2345C156.699 67.2345 156.905 67.2902 157.091 67.4017C157.276 67.5111 157.424 67.6587 157.533 67.8445C157.645 68.0283 157.701 68.2337 157.701 68.4608ZM160.592 67.3212H161.348V70.418H160.592L160.558 70.034C160.473 70.1723 160.361 70.2848 160.221 70.3715C160.082 70.4562 159.918 70.4985 159.728 70.4985C159.499 70.4985 159.284 70.4551 159.084 70.3684C158.884 70.2817 158.707 70.162 158.554 70.0092C158.404 69.8564 158.285 69.6799 158.198 69.4796C158.114 69.2794 158.071 69.0647 158.071 68.8355C158.071 68.6146 158.112 68.4071 158.192 68.2131C158.275 68.019 158.389 67.8487 158.536 67.7021C158.682 67.5555 158.852 67.4409 159.044 67.3583C159.236 67.2758 159.442 67.2345 159.663 67.2345C159.868 67.2345 160.05 67.2799 160.211 67.3707C160.374 67.4616 160.513 67.5772 160.626 67.7176L160.592 67.3212ZM159.71 69.7707C159.871 69.7707 160.013 69.7305 160.137 69.65C160.261 69.5694 160.358 69.4611 160.428 69.3248C160.498 69.1865 160.533 69.0347 160.533 68.8696C160.533 68.7023 160.498 68.5506 160.428 68.4143C160.358 68.276 160.26 68.1666 160.134 68.0861C160.01 68.0056 159.869 67.9653 159.71 67.9653C159.551 67.9653 159.405 68.0066 159.273 68.0892C159.143 68.1697 159.039 68.2781 158.96 68.4143C158.884 68.5506 158.846 68.7023 158.846 68.8696C158.846 69.0368 158.885 69.1885 158.963 69.3248C159.042 69.4611 159.146 69.5694 159.276 69.65C159.408 69.7305 159.553 69.7707 159.71 69.7707ZM161.983 70.418V65.7728H162.739V70.418H161.983ZM135.234 77.418V73.0825H136.671C136.97 73.0825 137.25 73.1392 137.51 73.2528C137.772 73.3643 138.002 73.5201 138.201 73.7204C138.401 73.9186 138.557 74.1488 138.668 74.411C138.782 74.6711 138.839 74.9509 138.839 75.2502C138.839 75.5496 138.782 75.8303 138.668 76.0925C138.557 76.3527 138.401 76.5829 138.201 76.7831C138.002 76.9813 137.772 77.1372 137.51 77.2507C137.25 77.3622 136.97 77.418 136.671 77.418H135.234ZM135.989 76.6624H136.671C136.863 76.6624 137.043 76.6262 137.213 76.554C137.384 76.4796 137.535 76.3785 137.665 76.2505C137.795 76.1204 137.897 75.9707 137.971 75.8014C138.046 75.6301 138.083 75.4463 138.083 75.2502C138.083 75.0541 138.046 74.8714 137.971 74.7021C137.897 74.5328 137.795 74.3831 137.665 74.253C137.535 74.123 137.385 74.0218 137.216 73.9496C137.046 73.8752 136.865 73.8381 136.671 73.8381H135.989V76.6624ZM141.633 74.3212H142.389V77.418H141.633L141.599 77.034C141.515 77.1723 141.402 77.2848 141.262 77.3715C141.123 77.4562 140.959 77.4985 140.769 77.4985C140.54 77.4985 140.325 77.4551 140.125 77.3684C139.925 77.2817 139.748 77.162 139.596 77.0092C139.445 76.8564 139.326 76.6799 139.24 76.4796C139.155 76.2794 139.113 76.0647 139.113 75.8355C139.113 75.6146 139.153 75.4071 139.233 75.2131C139.316 75.019 139.431 74.8487 139.577 74.7021C139.724 74.5555 139.893 74.4409 140.085 74.3583C140.277 74.2758 140.483 74.2345 140.704 74.2345C140.909 74.2345 141.091 74.2799 141.252 74.3707C141.416 74.4616 141.554 74.5772 141.667 74.7176L141.633 74.3212ZM140.751 76.7707C140.912 76.7707 141.054 76.7305 141.178 76.65C141.302 76.5694 141.399 76.4611 141.469 76.3248C141.539 76.1865 141.575 76.0347 141.575 75.8696C141.575 75.7023 141.539 75.5506 141.469 75.4143C141.399 75.276 141.301 75.1666 141.175 75.0861C141.051 75.0056 140.91 74.9653 140.751 74.9653C140.592 74.9653 140.446 75.0066 140.314 75.0892C140.184 75.1697 140.08 75.2781 140.001 75.4143C139.925 75.5506 139.887 75.7023 139.887 75.8696C139.887 76.0368 139.926 76.1885 140.004 76.3248C140.083 76.4611 140.187 76.5694 140.317 76.65C140.449 76.7305 140.594 76.7707 140.751 76.7707ZM143.006 77.418V74.3212H143.762V74.5968C143.867 74.4853 143.993 74.3976 144.139 74.3336C144.286 74.2675 144.444 74.2345 144.613 74.2345C144.828 74.2345 145.025 74.285 145.205 74.3862C145.386 74.4874 145.531 74.6226 145.638 74.7919C145.748 74.6226 145.892 74.4874 146.072 74.3862C146.252 74.285 146.449 74.2345 146.663 74.2345C146.89 74.2345 147.096 74.2902 147.28 74.4017C147.465 74.5111 147.613 74.6587 147.722 74.8445C147.834 75.0283 147.89 75.2337 147.89 75.4608V77.418H147.134V75.6621C147.134 75.5423 147.104 75.4329 147.044 75.3338C146.986 75.2327 146.908 75.1521 146.809 75.0923C146.712 75.0303 146.602 74.9994 146.481 74.9994C146.359 74.9994 146.248 75.0293 146.149 75.0892C146.052 75.147 145.974 75.2254 145.914 75.3245C145.854 75.4236 145.824 75.5361 145.824 75.6621V77.418H145.069V75.6621C145.069 75.5361 145.04 75.4236 144.982 75.3245C144.924 75.2254 144.846 75.147 144.746 75.0892C144.647 75.0293 144.537 74.9994 144.415 74.9994C144.295 74.9994 144.186 75.0303 144.087 75.0923C143.988 75.1521 143.908 75.2327 143.848 75.3338C143.791 75.4329 143.762 75.5423 143.762 75.6621V77.418H143.006ZM150.785 74.3212H151.54V77.418H150.785L150.751 77.034C150.666 77.1723 150.553 77.2848 150.413 77.3715C150.275 77.4562 150.111 77.4985 149.921 77.4985C149.691 77.4985 149.477 77.4551 149.276 77.3684C149.076 77.2817 148.9 77.162 148.747 77.0092C148.596 76.8564 148.478 76.6799 148.391 76.4796C148.306 76.2794 148.264 76.0647 148.264 75.8355C148.264 75.6146 148.304 75.4071 148.385 75.2131C148.467 75.019 148.582 74.8487 148.728 74.7021C148.875 74.5555 149.044 74.4409 149.236 74.3583C149.428 74.2758 149.635 74.2345 149.856 74.2345C150.06 74.2345 150.243 74.2799 150.404 74.3707C150.567 74.4616 150.705 74.5772 150.819 74.7176L150.785 74.3212ZM149.902 76.7707C150.063 76.7707 150.206 76.7305 150.329 76.65C150.453 76.5694 150.55 76.4611 150.621 76.3248C150.691 76.1865 150.726 76.0347 150.726 75.8696C150.726 75.7023 150.691 75.5506 150.621 75.4143C150.55 75.276 150.452 75.1666 150.326 75.0861C150.202 75.0056 150.061 74.9653 149.902 74.9653C149.743 74.9653 149.598 75.0066 149.465 75.0892C149.335 75.1697 149.231 75.2781 149.153 75.4143C149.076 75.5506 149.038 75.7023 149.038 75.8696C149.038 76.0368 149.077 76.1885 149.156 76.3248C149.234 76.4611 149.338 76.5694 149.469 76.65C149.601 76.7305 149.745 76.7707 149.902 76.7707ZM154.395 74.3212H155.15V77.4768C155.15 77.6998 155.105 77.9021 155.014 78.0838C154.923 78.2675 154.799 78.4244 154.642 78.5545C154.486 78.6866 154.306 78.7878 154.104 78.858C153.901 78.9302 153.689 78.9664 153.466 78.9664C153.249 78.9664 153.04 78.922 152.84 78.8332C152.64 78.7444 152.462 78.6226 152.307 78.4678C152.155 78.315 152.038 78.1406 151.958 77.9444L152.648 77.6316C152.689 77.7452 152.751 77.8443 152.834 77.9289C152.919 78.0157 153.016 78.0827 153.125 78.1302C153.234 78.1798 153.348 78.2046 153.466 78.2046C153.585 78.2046 153.7 78.188 153.809 78.155C153.921 78.122 154.021 78.0735 154.11 78.0095C154.199 77.9475 154.268 77.8711 154.317 77.7803C154.369 77.6915 154.395 77.5904 154.395 77.4768V77.0402C154.298 77.1764 154.176 77.2869 154.029 77.3715C153.883 77.4562 153.713 77.4985 153.521 77.4985C153.298 77.4985 153.09 77.4562 152.896 77.3715C152.702 77.2869 152.53 77.1702 152.382 77.0216C152.235 76.8709 152.12 76.6974 152.035 76.5013C151.952 76.3052 151.911 76.0946 151.911 75.8696C151.911 75.6445 151.952 75.434 152.035 75.2378C152.12 75.0417 152.235 74.8693 152.382 74.7207C152.53 74.5699 152.702 74.4523 152.896 74.3676C153.09 74.283 153.298 74.2407 153.521 74.2407C153.713 74.2407 153.883 74.283 154.029 74.3676C154.176 74.4502 154.298 74.5596 154.395 74.6959V74.3212ZM153.531 76.7707C153.69 76.7707 153.83 76.7305 153.952 76.65C154.076 76.5674 154.173 76.458 154.243 76.3217C154.313 76.1834 154.348 76.0327 154.348 75.8696C154.348 75.7044 154.312 75.5537 154.24 75.4174C154.17 75.2812 154.073 75.1718 153.949 75.0892C153.827 75.0066 153.688 74.9653 153.531 74.9653C153.376 74.9653 153.234 75.0066 153.106 75.0892C152.978 75.1697 152.876 75.2781 152.8 75.4143C152.723 75.5506 152.685 75.7023 152.685 75.8696C152.685 76.0368 152.723 76.1885 152.8 76.3248C152.876 76.4611 152.978 76.5694 153.106 76.65C153.234 76.7305 153.376 76.7707 153.531 76.7707ZM157.185 77.4985C156.9 77.4985 156.64 77.4252 156.405 77.2786C156.172 77.132 155.985 76.9349 155.844 76.6871C155.706 76.4394 155.637 76.1658 155.637 75.8665C155.637 75.6414 155.677 75.4309 155.758 75.2347C155.838 75.0365 155.949 74.8631 156.089 74.7145C156.231 74.5638 156.397 74.4461 156.585 74.3614C156.772 74.2768 156.973 74.2345 157.185 74.2345C157.427 74.2345 157.648 74.2861 157.848 74.3893C158.05 74.4905 158.222 74.6298 158.362 74.8074C158.502 74.9849 158.605 75.1872 158.669 75.4143C158.733 75.6414 158.747 75.8789 158.712 76.1266H156.448C156.477 76.2422 156.525 76.3465 156.591 76.4394C156.657 76.5302 156.74 76.6035 156.842 76.6593C156.943 76.7129 157.057 76.7408 157.185 76.7429C157.317 76.7449 157.437 76.714 157.545 76.65C157.654 76.5839 157.745 76.4951 157.817 76.3836L158.588 76.5633C158.462 76.8378 158.274 77.0629 158.025 77.2384C157.775 77.4118 157.495 77.4985 157.185 77.4985ZM156.423 75.5599H157.947C157.924 75.436 157.876 75.3245 157.802 75.2254C157.729 75.1243 157.639 75.0438 157.532 74.9839C157.425 74.924 157.309 74.8941 157.185 74.8941C157.061 74.8941 156.947 74.924 156.842 74.9839C156.736 75.0417 156.646 75.1212 156.572 75.2223C156.5 75.3214 156.45 75.434 156.423 75.5599Z" fill="#898A8D"/>
<path d="M99.2181 68.8676C98.9518 68.8676 98.7102 68.8067 98.4935 68.6849C98.2767 68.5631 98.1033 68.4 97.9732 68.1956C97.8452 67.9892 97.7812 67.76 97.7812 67.5081C97.7812 67.3099 97.8256 67.1241 97.9144 66.9507C98.0052 66.7752 98.127 66.6276 98.2798 66.5079C98.16 66.3984 98.062 66.2694 97.9856 66.1208C97.9113 65.9701 97.8741 65.809 97.8741 65.6377C97.8741 65.4044 97.935 65.1917 98.0568 64.9997C98.1786 64.8077 98.3407 64.655 98.543 64.5414C98.7474 64.4279 98.9724 64.3711 99.2181 64.3711C99.4659 64.3711 99.6909 64.4279 99.8932 64.5414C100.096 64.655 100.258 64.8077 100.379 64.9997C100.501 65.1917 100.562 65.4044 100.562 65.6377C100.562 65.809 100.525 65.9701 100.451 66.1208C100.378 66.2694 100.28 66.3984 100.156 66.5079C100.313 66.6276 100.436 66.7752 100.525 66.9507C100.616 67.1241 100.661 67.3099 100.661 67.5081C100.661 67.7579 100.596 67.9861 100.466 68.1925C100.338 68.3969 100.165 68.561 99.9459 68.6849C99.727 68.8067 99.4844 68.8676 99.2181 68.8676ZM99.2181 68.112C99.3379 68.112 99.4463 68.0852 99.5433 68.0315C99.6403 67.9757 99.7177 67.9025 99.7755 67.8116C99.8334 67.7208 99.8623 67.6196 99.8623 67.5081C99.8623 67.3966 99.8334 67.2955 99.7755 67.2046C99.7177 67.1138 99.6403 67.0415 99.5433 66.9879C99.4463 66.9321 99.3379 66.9043 99.2181 66.9043C99.1004 66.9043 98.9931 66.9321 98.8961 66.9879C98.799 67.0415 98.7206 67.1138 98.6607 67.2046C98.6029 67.2955 98.574 67.3966 98.574 67.5081C98.574 67.6196 98.6029 67.7208 98.6607 67.8116C98.7206 67.9025 98.799 67.9757 98.8961 68.0315C98.9931 68.0852 99.1004 68.112 99.2181 68.112ZM99.2181 66.1486C99.3193 66.1486 99.4112 66.1259 99.4937 66.0805C99.5763 66.033 99.6414 65.9711 99.6888 65.8947C99.7384 65.8183 99.7632 65.7326 99.7632 65.6377C99.7632 65.5427 99.7384 65.457 99.6888 65.3806C99.6414 65.3042 99.5763 65.2433 99.4937 65.1979C99.4112 65.1504 99.3193 65.1267 99.2181 65.1267C99.119 65.1267 99.0282 65.1504 98.9456 65.1979C98.863 65.2433 98.797 65.3042 98.7474 65.3806C98.6979 65.457 98.6731 65.5427 98.6731 65.6377C98.6731 65.7326 98.6979 65.8183 98.7474 65.8947C98.797 65.9711 98.863 66.033 98.9456 66.0805C99.0282 66.1259 99.119 66.1486 99.2181 66.1486ZM101.701 68.7871V65.2072H101.156L101.361 64.4516H102.457V68.7871H101.701ZM103.588 68.8676C103.48 68.8676 103.388 68.8305 103.312 68.7561C103.238 68.6798 103.201 68.5868 103.201 68.4774C103.201 68.3721 103.238 68.2813 103.312 68.2049C103.388 68.1285 103.48 68.0903 103.588 68.0903C103.695 68.0903 103.787 68.1285 103.863 68.2049C103.94 68.2813 103.978 68.3721 103.978 68.4774C103.978 68.5868 103.94 68.6798 103.863 68.7561C103.787 68.8305 103.695 68.8676 103.588 68.8676ZM106.224 68.8676C105.972 68.8676 105.743 68.8098 105.536 68.6942C105.33 68.5765 105.151 68.4145 105 68.208C104.852 68.0016 104.737 67.7631 104.657 67.4926C104.576 67.2201 104.536 66.929 104.536 66.6194C104.536 66.3097 104.576 66.0196 104.657 65.7492C104.737 65.4766 104.852 65.2371 105 65.0307C105.151 64.8242 105.33 64.6632 105.536 64.5476C105.743 64.4299 105.972 64.3711 106.224 64.3711C106.475 64.3711 106.705 64.4299 106.911 64.5476C107.118 64.6632 107.294 64.8242 107.441 65.0307C107.589 65.2371 107.704 65.4766 107.784 65.7492C107.867 66.0196 107.908 66.3097 107.908 66.6194C107.908 66.929 107.867 67.2201 107.784 67.4926C107.704 67.7631 107.589 68.0016 107.441 68.208C107.294 68.4145 107.118 68.5765 106.911 68.6942C106.705 68.8098 106.475 68.8676 106.224 68.8676ZM106.224 68.112C106.445 68.112 106.627 68.0418 106.772 67.9014C106.916 67.761 107.024 67.5773 107.094 67.3502C107.164 67.1231 107.199 66.8795 107.199 66.6194C107.199 66.3448 107.162 66.095 107.088 65.8699C107.013 65.6428 106.904 65.4622 106.759 65.328C106.615 65.1938 106.436 65.1267 106.224 65.1267C106.056 65.1267 105.911 65.168 105.787 65.2506C105.665 65.3311 105.564 65.4415 105.483 65.5819C105.403 65.7223 105.343 65.8823 105.304 66.0619C105.265 66.2395 105.245 66.4253 105.245 66.6194C105.245 66.8774 105.28 67.121 105.35 67.3502C105.423 67.5773 105.531 67.761 105.675 67.9014C105.822 68.0418 106.005 68.112 106.224 68.112ZM108.741 68.7871L111.243 64.4516H112.117L109.615 68.7871H108.741ZM109.274 66.3314C109.105 66.3314 108.949 66.2911 108.806 66.2106C108.666 66.128 108.553 66.0165 108.469 65.8761C108.384 65.7357 108.342 65.5788 108.342 65.4054C108.342 65.2279 108.384 65.0689 108.469 64.9285C108.555 64.7881 108.669 64.6777 108.809 64.5971C108.952 64.5166 109.107 64.4764 109.274 64.4764C109.443 64.4764 109.598 64.5177 109.738 64.6002C109.879 64.6828 109.99 64.7943 110.073 64.9347C110.158 65.0751 110.2 65.232 110.2 65.4054C110.2 65.5809 110.156 65.7388 110.07 65.8792C109.985 66.0196 109.873 66.1301 109.732 66.2106C109.592 66.2911 109.439 66.3314 109.274 66.3314ZM109.274 65.8142C109.385 65.8142 109.481 65.775 109.562 65.6965C109.642 65.616 109.683 65.519 109.683 65.4054C109.683 65.2898 109.642 65.1928 109.562 65.1143C109.481 65.0359 109.385 64.9966 109.274 64.9966C109.16 64.9966 109.062 65.0359 108.98 65.1143C108.899 65.1928 108.859 65.2898 108.859 65.4054C108.859 65.519 108.899 65.616 108.98 65.6965C109.062 65.775 109.16 65.8142 109.274 65.8142ZM111.584 68.7654C111.413 68.7654 111.257 68.7231 111.116 68.6385C110.976 68.5518 110.865 68.4382 110.782 68.2978C110.699 68.1554 110.658 68.0026 110.658 67.8395C110.658 67.6619 110.7 67.503 110.785 67.3626C110.872 67.2222 110.985 67.1117 111.126 67.0312C111.268 66.9486 111.421 66.9074 111.584 66.9074C111.762 66.9074 111.921 66.9507 112.061 67.0374C112.201 67.1241 112.312 67.2387 112.392 67.3812C112.475 67.5216 112.516 67.6743 112.516 67.8395C112.516 68.0088 112.474 68.1636 112.389 68.304C112.307 68.4444 112.194 68.5569 112.052 68.6416C111.911 68.7241 111.755 68.7654 111.584 68.7654ZM111.584 68.2483C111.7 68.2483 111.798 68.208 111.878 68.1275C111.959 68.047 111.999 67.951 111.999 67.8395C111.999 67.7239 111.959 67.6258 111.878 67.5453C111.798 67.4648 111.7 67.4245 111.584 67.4245C111.473 67.4245 111.377 67.4648 111.296 67.5453C111.216 67.6258 111.175 67.7239 111.175 67.8395C111.175 67.951 111.216 68.047 111.296 68.1275C111.377 68.208 111.473 68.2483 111.584 68.2483Z" fill="black"/>
<path d="M142.003 47.2949L142.2 47.2424L142.159 47.0911H142.003V47.2949ZM145.162 59.7027C145.26 59.7591 145.384 59.7259 145.441 59.6284L146.36 58.0406C146.417 57.9432 146.383 57.8185 146.286 57.7621C146.188 57.7056 146.064 57.7389 146.007 57.8363L145.19 59.2477L143.779 58.4306C143.681 58.3742 143.557 58.4075 143.5 58.5049C143.444 58.6023 143.477 58.727 143.575 58.7834L145.162 59.7027ZM121.617 47.4988H142.003V47.0911H121.617V47.4988ZM141.806 47.3474L145.068 59.5788L145.461 59.4738L142.2 47.2424L141.806 47.3474Z" fill="#5891FF"/>
</svg>
