<svg width="59" height="59" viewBox="0 0 59 59" fill="none" xmlns="http://www.w3.org/2000/svg">
<g id="Group 1000002807">
<g id="Ellipse 599" filter="url(#filter0_d_2049_23555)">
<circle cx="29.7789" cy="25.6851" r="25.6851" fill="url(#paint0_linear_2049_23555)"/>
</g>
<path id="Vector" d="M18.3828 20.7093V18.1384H20.9219V16.853C20.9219 16.1712 21.1894 15.5173 21.6656 15.0352C22.1417 14.5531 22.7876 14.2822 23.461 14.2822H31.0782V23.2801L34.252 21.352L37.4259 23.2801V14.2822H38.6954C40.0284 14.2822 41.2345 15.5034 41.2345 16.853V37.4196C41.2345 38.7692 40.0284 39.9904 38.6954 39.9904H23.461C22.1279 39.9904 20.9219 38.7692 20.9219 37.4196V36.1342H18.3828V33.5633H20.9219V28.4217H18.3828V25.8509H20.9219V20.7093H18.3828ZM23.461 25.8509H20.9219V28.4217H23.461V25.8509ZM23.461 20.7093V18.1384H20.9219V20.7093H23.461ZM23.461 36.1342V33.5633H20.9219V36.1342H23.461Z" fill="white"/>
</g>
<defs>
<filter id="filter0_d_2049_23555" x="0.611024" y="0" width="58.3326" height="58.3356" filterUnits="userSpaceOnUse" color-interpolation-filters="sRGB">
<feFlood flood-opacity="0" result="BackgroundImageFix"/>
<feColorMatrix in="SourceAlpha" type="matrix" values="0 0 0 0 0 0 0 0 0 0 0 0 0 0 0 0 0 0 127 0" result="hardAlpha"/>
<feOffset dy="3.48273"/>
<feGaussianBlur stdDeviation="1.74136"/>
<feComposite in2="hardAlpha" operator="out"/>
<feColorMatrix type="matrix" values="0 0 0 0 0 0 0 0 0 0 0 0 0 0 0 0 0 0 0.25 0"/>
<feBlend mode="normal" in2="BackgroundImageFix" result="effect1_dropShadow_2049_23555"/>
<feBlend mode="normal" in="SourceGraphic" in2="effect1_dropShadow_2049_23555" result="shape"/>
</filter>
<linearGradient id="paint0_linear_2049_23555" x1="8.07937" y1="2.99659" x2="45.7486" y2="57.2893" gradientUnits="userSpaceOnUse">
<stop stop-color="#042349"/>
<stop offset="1" stop-color="#04658A"/>
</linearGradient>
</defs>
</svg>
