<svg width="59" height="58" viewBox="0 0 59 58" fill="none" xmlns="http://www.w3.org/2000/svg">
<g id="Group 1000002807">
<g id="Ellipse 599" filter="url(#filter0_d_2049_23622)">
<ellipse cx="29.7789" cy="25.3186" rx="25.6851" ry="24.8449" fill="url(#paint0_linear_2049_23622)"/>
</g>
<path id="Vector" d="M25.5181 34.1415H35.9918V32.7088H25.5181V34.1415ZM25.5181 28.4108H35.9918V26.9781H25.5181V28.4108ZM22.6992 39.1559C22.0099 39.1559 21.4349 38.9353 20.974 38.494C20.5132 38.0527 20.2822 37.5021 20.2812 36.8421V15.6815C20.2812 15.0224 20.5122 14.4723 20.974 14.031C21.4358 13.5897 22.0109 13.3686 22.6992 13.3677H34.4955L41.2286 19.8147V36.8421C41.2286 37.5012 40.9982 38.0518 40.5374 38.494C40.0765 38.9362 39.501 39.1569 38.8107 39.1559H22.6992ZM33.7474 20.5311H39.7324L33.7474 14.8004V20.5311Z" fill="white"/>
</g>
<defs>
<filter id="filter0_d_2049_23622" x="0.611024" y="0.473633" width="58.3326" height="56.6554" filterUnits="userSpaceOnUse" color-interpolation-filters="sRGB">
<feFlood flood-opacity="0" result="BackgroundImageFix"/>
<feColorMatrix in="SourceAlpha" type="matrix" values="0 0 0 0 0 0 0 0 0 0 0 0 0 0 0 0 0 0 127 0" result="hardAlpha"/>
<feOffset dy="3.48273"/>
<feGaussianBlur stdDeviation="1.74136"/>
<feComposite in2="hardAlpha" operator="out"/>
<feColorMatrix type="matrix" values="0 0 0 0 0 0 0 0 0 0 0 0 0 0 0 0 0 0 0.25 0"/>
<feBlend mode="normal" in2="BackgroundImageFix" result="effect1_dropShadow_2049_23622"/>
<feBlend mode="normal" in="SourceGraphic" in2="effect1_dropShadow_2049_23622" result="shape"/>
</filter>
<linearGradient id="paint0_linear_2049_23622" x1="8.07937" y1="3.37221" x2="44.0773" y2="57.0106" gradientUnits="userSpaceOnUse">
<stop stop-color="#042349"/>
<stop offset="1" stop-color="#04658A"/>
</linearGradient>
</defs>
</svg>
