<svg width="273" height="291" viewBox="0 0 273 291" fill="none" xmlns="http://www.w3.org/2000/svg">
<g id="Subtract" filter="url(#filter0_d_2049_23283)">
<path fill-rule="evenodd" clip-rule="evenodd" d="M196.706 53.5885C196.706 49.3975 193.309 46 189.118 46H53.5885C49.3975 46 46 49.3975 46 53.5885V214.581C46 214.812 46.1875 215 46.4188 215C46.7526 215 46.9689 214.612 46.8992 214.285C46.7273 213.481 47.0246 212.576 47.9229 212.102L59.3748 206.063C60.1111 205.675 61.0109 205.783 61.634 206.335L71.2871 214.887C71.3743 214.964 71.4893 215 71.6058 215H72.7099C73.4316 215 74.1391 214.8 74.7537 214.422L87.9714 206.289C88.7926 205.784 89.8575 205.937 90.5038 206.653L97.6503 214.567C97.9633 214.914 98.4533 215 98.9204 215H99.81C99.9739 215 100.138 214.964 100.273 214.871L112.691 206.276C113.425 205.768 114.407 205.808 115.097 206.374L125.45 214.867C125.564 214.96 125.71 215 125.858 215H127.649C127.751 215 127.851 214.972 127.932 214.91L139.239 206.275C139.912 205.761 140.835 205.726 141.545 206.188L154.13 214.387C154.744 214.787 155.461 215 156.194 215H157.264C157.366 215 157.467 214.969 157.545 214.903L167.451 206.464C168.168 205.853 169.213 205.825 169.962 206.397L180.865 214.724C181.162 214.951 181.547 215 181.921 215H182.08C182.557 215 183.058 214.943 183.413 214.625C183.478 214.567 183.539 214.504 183.597 214.437L190.082 206.876C190.782 206.061 191.999 205.944 192.841 206.61C194.405 207.847 196.706 206.733 196.706 204.739V53.5885Z" fill="#034F75"/>
</g>
<defs>
<filter id="filter0_d_2049_23283" x="0.469249" y="0.469249" width="272.118" height="290.415" filterUnits="userSpaceOnUse" color-interpolation-filters="sRGB">
<feFlood flood-opacity="0" result="BackgroundImageFix"/>
<feColorMatrix in="SourceAlpha" type="matrix" values="0 0 0 0 0 0 0 0 0 0 0 0 0 0 0 0 0 0 127 0" result="hardAlpha"/>
<feOffset dx="15.1769" dy="15.1769"/>
<feGaussianBlur stdDeviation="30.3538"/>
<feComposite in2="hardAlpha" operator="out"/>
<feColorMatrix type="matrix" values="0 0 0 0 0.0117647 0 0 0 0 0.388235 0 0 0 0 0.545098 0 0 0 0.1 0"/>
<feBlend mode="normal" in2="BackgroundImageFix" result="effect1_dropShadow_2049_23283"/>
<feBlend mode="normal" in="SourceGraphic" in2="effect1_dropShadow_2049_23283" result="shape"/>
</filter>
</defs>
</svg>
