<svg width="60" height="60" viewBox="0 0 60 60" fill="none" xmlns="http://www.w3.org/2000/svg">
<g id="Group 1000002794">
<g id="Ellipse 599" filter="url(#filter0_d_1907_22547)">
<circle cx="30.2567" cy="26.0555" r="26.0614" fill="url(#paint0_linear_1907_22547)"/>
</g>
<path id="Vector" d="M40.4529 21.07L33.0878 13.5916H23.2676C22.6164 13.5916 21.992 13.8542 21.5316 14.3217C21.0712 14.7892 20.8125 15.4232 20.8125 16.0844V36.027C20.8125 36.6881 21.0712 37.3222 21.5316 37.7897C21.992 38.2572 22.6164 38.5198 23.2676 38.5198H37.9979C38.649 38.5198 39.2735 38.2572 39.7339 37.7897C40.1943 37.3222 40.4529 36.6881 40.4529 36.027V21.07ZM26.9501 34.7806H24.4951V23.5629H26.9501V34.7806ZM31.8603 34.7806H29.4052V27.3021H31.8603V34.7806ZM36.7704 34.7806H34.3153V31.0413H36.7704V34.7806ZM33.0878 22.3164H31.8603V16.0844L37.9979 22.3164H33.0878Z" fill="white"/>
</g>
<defs>
<filter id="filter0_d_1907_22547" x="0.537577" y="-0.00585938" width="59.4405" height="59.4383" filterUnits="userSpaceOnUse" color-interpolation-filters="sRGB">
<feFlood flood-opacity="0" result="BackgroundImageFix"/>
<feColorMatrix in="SourceAlpha" type="matrix" values="0 0 0 0 0 0 0 0 0 0 0 0 0 0 0 0 0 0 127 0" result="hardAlpha"/>
<feOffset dy="3.65774"/>
<feGaussianBlur stdDeviation="1.82887"/>
<feComposite in2="hardAlpha" operator="out"/>
<feColorMatrix type="matrix" values="0 0 0 0 0 0 0 0 0 0 0 0 0 0 0 0 0 0 0.25 0"/>
<feBlend mode="normal" in2="BackgroundImageFix" result="effect1_dropShadow_1907_22547"/>
<feBlend mode="normal" in="SourceGraphic" in2="effect1_dropShadow_1907_22547" result="shape"/>
</filter>
<linearGradient id="paint0_linear_1907_22547" x1="8.23932" y1="3.03463" x2="46.4603" y2="58.1226" gradientUnits="userSpaceOnUse">
<stop stop-color="#042349"/>
<stop offset="1" stop-color="#04658A"/>
</linearGradient>
</defs>
</svg>
