<svg width="167" height="120" viewBox="0 0 167 120" fill="none" xmlns="http://www.w3.org/2000/svg">
<g id="Group 1000002799">
<path id="Vector 1319" d="M33.4397 53.4721L1.6841 82.0295C0.798568 82.8258 0.831178 84.2241 1.75286 84.9783L7.63199 89.7891C8.38883 90.4084 9.48798 90.3688 10.1983 89.6966L33.4163 67.725C34.1728 67.0092 35.3591 67.017 36.1061 67.7427L66.644 97.4118C67.3823 98.1291 68.5518 98.1462 69.3108 97.4509L153.522 20.3011C154.285 19.6022 155.461 19.6236 156.198 20.3498L160.542 24.6298C161.683 25.754 163.618 25.0926 163.832 23.5052L166.673 2.42789C166.84 1.18719 165.808 0.1144 164.561 0.233956L140.597 2.53302C138.953 2.69071 138.243 4.69695 139.421 5.85391L143.948 10.2988C144.739 11.0757 144.721 12.3561 143.908 13.1101L69.2908 82.3089C68.5412 83.0041 67.3811 82.9995 66.6369 82.2984L36.0716 53.5026C35.3358 52.8094 34.1914 52.7961 33.4397 53.4721Z" fill="#69AED5"/>
<path id="Vector 1318" d="M122.652 56.7583L104.412 73.2708C104.006 73.6392 103.773 74.1625 103.773 74.7114V116.854C103.773 117.927 104.643 118.797 105.717 118.797H123.956C125.03 118.797 125.9 117.927 125.9 116.854V58.1989C125.9 56.5138 123.901 55.6273 122.652 56.7583Z" fill="#EBEBEB"/>
<path id="Vector 1317" d="M92.6516 85.1734L73.3583 102.253C72.9417 102.621 72.7031 103.151 72.7031 103.708V117.012C72.7031 118.085 73.5731 118.955 74.6464 118.955H93.9397C95.0129 118.955 95.8829 118.085 95.8829 117.012V86.6285C95.8829 84.9536 93.9057 84.0633 92.6516 85.1734Z" fill="#EBEBEB"/>
<path id="Vector 1316" d="M42.6641 117.129V87.8757C42.6641 86.2575 44.5262 85.3482 45.8023 86.3434L65.0956 101.389C65.5678 101.757 65.8439 102.323 65.8439 102.922V117.129C65.8439 118.202 64.9739 119.072 63.9006 119.072H44.6073C43.5341 119.072 42.6641 118.202 42.6641 117.129Z" fill="#EBEBEB"/>
<path id="Vector 1315" d="M30.4853 81.9905L13.2993 97.1318C12.8805 97.5007 12.6406 98.0318 12.6406 98.5899V116.777C12.6406 117.85 13.5106 118.72 14.5839 118.72H31.7699C32.8432 118.72 33.7132 117.85 33.7132 116.777V83.4486C33.7132 81.7759 31.7404 80.8848 30.4853 81.9905Z" fill="#EBEBEB"/>
</g>
</svg>
