<svg width="24" height="15" viewBox="0 0 24 15" fill="none" xmlns="http://www.w3.org/2000/svg">
<path id="Vector" d="M12.5316 6.62765C13.1087 6.62765 13.6729 6.46047 14.1527 6.14726C14.6326 5.83405 15.0066 5.38887 15.2275 4.86802C15.4483 4.34717 15.5061 3.77404 15.3935 3.22111C15.2809 2.66818 15.003 2.16028 14.5949 1.76163C14.1868 1.36299 13.6669 1.09151 13.1008 0.98153C12.5348 0.871545 11.9481 0.927993 11.4149 1.14374C10.8817 1.35948 10.4259 1.72483 10.1053 2.19358C9.78465 2.66233 9.61351 3.21344 9.61351 3.7772C9.61351 4.53319 9.92095 5.25821 10.4682 5.79277C11.0154 6.32733 11.7576 6.62765 12.5316 6.62765ZM12.5316 2.82706C12.7239 2.82706 12.912 2.88278 13.0719 2.98718C13.2319 3.09159 13.3566 3.23998 13.4302 3.4136C13.5038 3.58721 13.5231 3.77826 13.4855 3.96257C13.448 4.14688 13.3554 4.31618 13.2193 4.44906C13.0833 4.58194 12.91 4.67243 12.7213 4.7091C12.5326 4.74576 12.3371 4.72694 12.1593 4.65503C11.9816 4.58311 11.8297 4.46133 11.7228 4.30508C11.6159 4.14883 11.5589 3.96513 11.5589 3.7772C11.5589 3.52521 11.6614 3.28354 11.8438 3.10535C12.0262 2.92716 12.2736 2.82706 12.5316 2.82706ZM16.5293 6.49463C17.0983 5.69748 17.4035 4.74903 17.4035 3.7772C17.4035 2.80538 17.0983 1.85692 16.5293 1.05978C16.809 0.971657 17.1011 0.926776 17.395 0.926759C18.1689 0.926759 18.9111 1.22707 19.4583 1.76163C20.0056 2.2962 20.313 3.02122 20.313 3.7772C20.313 4.53319 20.0056 5.25821 19.4583 5.79277C18.9111 6.32733 18.1689 6.62765 17.395 6.62765C17.1011 6.62763 16.809 6.58275 16.5293 6.49463ZM12.5316 8.52794C6.69547 8.52794 6.69547 12.3285 6.69547 12.3285V14.2288H18.3676V12.3285C18.3676 12.3285 18.3676 8.52794 12.5316 8.52794ZM8.64083 12.3285C8.64083 12.053 8.95209 10.4282 12.5316 10.4282C15.9359 10.4282 16.3639 11.9105 16.4223 12.3285M23.2311 12.3285V14.2288H20.313V12.3285C20.2903 11.6222 20.1238 10.9274 19.8231 10.2847C19.5225 9.64194 19.0939 9.06412 18.5622 8.58495C23.2311 9.05053 23.2311 12.3285 23.2311 12.3285ZM7.02618 4.65134L8.15449 5.99105L3.53425 10.5043L0.859375 7.65381L1.98769 6.55164L3.53425 8.05287L7.02618 4.65134Z" fill="#00D22E"/>
</svg>
